<?xml version="1.0" encoding="UTF-8" standalone="no"?>
<!DOCTYPE svg PUBLIC "-//W3C//DTD SVG 1.1//EN" "http://www.w3.org/Graphics/SVG/1.1/DTD/svg11.dtd">
<!-- Created with Vectornator (http://vectornator.io/) -->
<svg height="512.0pt" stroke-miterlimit="10" style="fill-rule:nonzero;clip-rule:evenodd;stroke-linecap:round;stroke-linejoin:round;" version="1.1" viewBox="0 0 512 512" width="512.0pt" xml:space="preserve" xmlns="http://www.w3.org/2000/svg" xmlns:xlink="http://www.w3.org/1999/xlink">
<defs>
<linearGradient gradientTransform="matrix(577.729 0 0 577.729 -27.2177 251.472)" gradientUnits="userSpaceOnUse" id="LinearGradient" x1="0" x2="1" y1="0" y2="0">
<stop offset="0" stop-color="#68b4dc"/>
<stop offset="0.438479" stop-color="#6c6bcd"/>
<stop offset="0.789132" stop-color="#a041b8"/>
<stop offset="1" stop-color="#f959e8"/>
</linearGradient>
<path d="M315.019 447.579L317.476 488.377C317.68 491.755 315.274 494.731 311.928 495.236C299.942 497.05 287.676 497.97 275.477 497.97C263.292 497.97 251.029 497.05 239.03 495.236C235.684 494.731 233.274 491.755 233.478 488.379L235.581 453.348C209.954 448.211 185.975 438.271 164.145 423.733L140.872 449.991C138.628 452.517 134.822 452.926 132.101 450.917C112.413 436.417 95.071 419.073 80.5528 399.369C78.5434 396.646 78.9432 392.841 81.4772 390.596L107.726 367.329C93.1901 345.503 83.2485 321.522 78.1095 295.884L43.0892 297.991C39.7508 298.197 36.7413 295.79 36.2299 292.441C34.4208 280.464 33.5012 268.202 33.5012 255.993C33.5012 243.786 34.4208 231.524 36.2299 219.544C36.7365 216.195 39.7082 213.734 43.0892 213.994L78.118 216.102C83.257 190.472 93.1948 166.489 107.731 144.663L81.4772 121.391C78.9479 119.145 78.5434 115.34 80.5491 112.617C95.0512 92.9318 112.393 75.5903 132.097 61.0694C134.822 59.0618 138.628 59.4682 140.868 61.9956L164.149 88.255C186.111 73.6659 211.023 63.4323 236.833 58.3954L234.014 23.6719C233.737 20.2399 236.165 17.1812 239.571 16.6746C263.253 13.149 287.7 13.149 311.382 16.6746C314.789 17.1812 317.215 20.2408 316.939 23.6719L313.635 64.3161C313.345 67.9182 310.152 70.6007 306.588 70.3048C302.986 70.0109 300.304 66.8558 300.598 63.2565L303.399 28.792C284.895 26.5396 266.058 26.5396 247.554 28.792L250.352 63.2537C250.629 66.6488 248.249 69.6895 244.89 70.2387C216.993 74.7945 190.012 85.8646 166.862 102.25C164.137 104.18 160.399 103.743 158.194 101.252L135.1 75.2009C119.985 86.9553 106.424 100.516 94.6816 115.618L120.73 138.71C123.225 140.924 123.656 144.66 121.731 147.383C105.381 170.484 94.6863 196.288 89.9424 224.078C89.3762 227.368 86.3998 229.707 83.1049 229.505L48.3492 227.414C47.1743 236.853 46.5826 246.442 46.5826 255.994C46.5826 265.548 47.1743 275.135 48.3492 284.573L83.0926 282.483C86.3885 282.261 89.3687 284.623 89.9301 287.909C94.6778 315.708 105.377 341.514 121.727 364.61C123.652 367.334 123.222 371.069 120.726 373.284L94.6863 396.369C106.438 411.486 119.999 425.045 135.101 436.785L158.195 410.734C160.4 408.239 164.138 407.805 166.863 409.733C189.97 426.085 215.772 436.781 243.562 441.526C246.849 442.088 249.187 445.034 248.986 448.363L246.9 483.117C265.817 485.473 285.181 485.473 304.056 483.117L301.965 448.365C301.748 444.759 304.495 441.661 308.1 441.444C311.689 441.25 314.802 443.975 315.019 447.579ZM455.405 164.572C465.883 164.572 474.412 173.098 474.412 183.579C474.412 194.059 465.883 202.586 455.405 202.586C452.998 202.586 450.712 202.089 448.59 201.269L430.807 219.685C429.573 220.96 427.878 221.682 426.102 221.682L335.246 221.682C331.636 221.682 328.707 218.755 328.707 215.142C328.707 211.53 331.636 208.603 335.246 208.603L423.326 208.603L438.778 192.599C437.308 189.902 436.397 186.86 436.397 183.58C436.399 173.097 444.927 164.572 455.405 164.572ZM449.479 183.579C449.479 186.846 452.136 189.505 455.405 189.505C458.675 189.505 461.331 186.846 461.331 183.579C461.331 180.311 458.674 177.652 455.405 177.652C452.136 177.651 449.479 180.31 449.479 183.579ZM384.382 147.37L408.624 112.508C406.176 109.308 404.661 105.358 404.661 101.027C404.661 90.5471 413.19 82.0205 423.668 82.0205C434.147 82.0205 442.675 90.5471 442.675 101.027C442.675 111.508 434.147 120.034 423.668 120.034C422.283 120.034 420.938 119.866 419.635 119.583L393.17 157.645C391.948 159.402 389.943 160.452 387.801 160.452L315.866 160.452C312.256 160.452 309.326 157.524 309.326 153.912C309.326 150.299 312.256 147.372 315.866 147.372L384.382 147.372L384.382 147.37ZM417.741 101.027C417.741 104.295 420.398 106.954 423.667 106.954C426.938 106.954 429.594 104.295 429.594 101.027C429.594 97.7598 426.937 95.101 423.667 95.101C420.398 95.1001 417.741 97.7589 417.741 101.027ZM441.099 410.963C441.099 421.443 432.571 429.97 422.093 429.97C411.614 429.97 403.086 421.443 403.086 410.963C403.086 405.839 405.145 401.2 408.454 397.777L384.381 363.155L315.866 363.155C312.256 363.155 309.326 360.228 309.326 356.615C309.326 353.003 312.256 350.075 315.866 350.075L387.801 350.075C389.943 350.075 391.948 351.124 393.17 352.882L420.454 392.123C421.003 392.075 421.531 391.957 422.093 391.957C432.571 391.956 441.099 400.482 441.099 410.963ZM428.02 410.963C428.02 407.695 425.363 405.036 422.094 405.036C418.823 405.036 416.167 407.695 416.167 410.963C416.167 414.23 418.824 416.889 422.094 416.889C425.363 416.889 428.02 414.23 428.02 410.963ZM472.836 330.23C472.836 340.71 464.308 349.237 453.829 349.237C443.351 349.237 434.822 340.71 434.822 330.23C434.822 326.15 436.142 322.39 438.339 319.289L423.326 303.743L335.246 303.743C331.636 303.743 328.707 300.816 328.707 297.203C328.707 293.591 331.636 290.663 335.246 290.663L426.102 290.663C427.877 290.663 429.572 291.385 430.807 292.66L449.314 311.825C450.768 311.468 452.265 311.224 453.828 311.224C464.308 311.223 472.836 319.749 472.836 330.23ZM459.757 330.23C459.757 326.962 457.1 324.304 453.83 324.304C450.561 324.304 447.904 326.962 447.904 330.23C447.904 333.498 450.561 336.156 453.83 336.156C457.1 336.156 459.757 333.498 459.757 330.23ZM478.499 256.17C478.499 266.651 469.97 275.177 459.492 275.177C451.32 275.177 444.395 269.964 441.716 262.708L298.358 262.708L298.358 378.319C298.358 402.006 279.088 421.279 255.397 421.279C238.047 421.279 222.779 411.112 216.018 395.527C215.746 395.533 215.477 395.535 215.209 395.535C191.518 395.535 172.248 376.263 172.248 352.574C172.248 351.44 172.295 350.305 172.384 349.175C162.183 347.133 152.522 341.883 144.627 333.985C134.494 323.854 128.916 310.385 128.916 296.058C128.916 281.73 134.494 268.261 144.627 258.132C145.386 257.372 146.239 256.705 147.048 255.995C146.239 255.283 145.386 254.616 144.627 253.857C134.494 243.726 128.916 230.257 128.916 215.932C128.916 201.604 134.494 188.135 144.627 178.004C152.522 170.106 162.183 164.856 172.384 162.815C172.294 161.684 172.248 160.55 172.248 159.415C172.248 135.724 191.518 116.452 215.209 116.452C215.477 116.452 215.746 116.454 216.018 116.46C222.779 100.877 238.047 90.7097 255.397 90.7097C279.088 90.7097 298.358 109.982 298.358 133.671L298.358 249.63L441.718 249.63C444.398 242.376 451.322 237.165 459.492 237.165C469.971 237.164 478.499 245.69 478.499 256.17ZM153.876 244.609C155.691 246.424 157.752 248.016 159.937 249.454L285.279 249.454L285.279 133.669C285.279 117.191 271.875 103.788 255.398 103.788C244.413 103.788 234.633 109.643 229.413 118.86C234.705 120.713 239.619 123.6 243.868 127.406C243.918 127.45 243.935 127.514 243.983 127.559C246.42 126.421 249.108 125.738 251.971 125.738C262.45 125.738 270.978 134.265 270.978 144.743C270.978 155.223 262.45 163.749 251.971 163.749C241.493 163.749 232.964 155.223 232.964 144.743C232.964 141.909 233.63 139.243 234.747 136.826C229.322 132.126 222.409 129.53 215.209 129.53C198.731 129.53 185.328 142.935 185.328 159.413C185.328 160.356 185.415 161.294 185.503 162.23C193.251 163.031 200.664 165.476 207.343 169.479C210.272 167.632 213.713 166.521 217.423 166.521C227.902 166.521 236.43 175.047 236.43 185.528C236.43 196.006 227.902 204.532 217.423 204.532C206.945 204.532 198.416 196.005 198.416 185.528C198.416 183.605 198.789 181.785 199.322 180.034C193.435 176.791 186.887 175.02 180.055 174.998C170.559 175.519 161.266 179.858 153.876 187.25C146.216 194.911 141.997 205.096 141.997 215.93C141.997 226.763 146.217 236.947 153.876 244.609ZM211.496 185.529C211.496 188.796 214.153 191.453 217.422 191.453C220.693 191.453 223.349 188.796 223.349 185.529C223.349 182.261 220.692 179.602 217.422 179.602C214.153 179.601 211.496 182.26 211.496 185.529ZM251.97 150.67C255.241 150.67 257.897 148.011 257.897 144.743C257.897 141.476 255.24 138.819 251.97 138.819C248.701 138.819 246.044 141.476 246.044 144.743C246.044 148.011 248.701 150.67 251.97 150.67ZM285.279 378.319L285.279 262.533L159.82 262.533C157.67 263.956 155.673 265.582 153.877 267.378C146.217 275.038 141.998 285.223 141.998 296.057C141.998 306.89 146.217 317.075 153.877 324.737C161.267 332.128 170.56 336.467 180.056 336.988C186.778 336.966 193.236 335.261 199.054 332.115C198.677 330.626 198.417 329.093 198.417 327.489C198.417 317.009 206.946 308.482 217.424 308.482C227.903 308.482 236.431 317.009 236.431 327.489C236.431 337.969 227.903 346.496 217.424 346.496C213.348 346.496 209.588 345.178 206.488 342.983C200.031 346.694 192.926 348.989 185.505 349.757C185.417 350.693 185.33 351.631 185.33 352.574C185.33 369.052 198.734 382.455 215.211 382.455C222.262 382.455 229.024 379.958 234.395 375.449C233.486 373.232 232.966 370.814 232.966 368.272C232.966 357.792 241.495 349.265 251.973 349.265C262.451 349.265 270.98 357.792 270.98 368.272C270.98 378.752 262.451 387.279 251.973 387.279C248.82 387.279 245.89 386.434 243.269 385.069C239.156 388.622 234.467 391.358 229.415 393.125C234.635 402.345 244.415 408.2 255.4 408.2C271.876 408.2 285.279 394.796 285.279 378.319ZM251.97 374.199C255.241 374.199 257.897 371.541 257.897 368.273C257.897 365.006 255.24 362.347 251.97 362.347C248.701 362.347 246.044 365.006 246.044 368.273C246.044 371.541 248.701 374.199 251.97 374.199ZM217.423 333.416C220.694 333.416 223.35 330.757 223.35 327.49C223.35 324.222 220.693 321.564 217.423 321.564C214.153 321.564 211.497 324.222 211.497 327.49C211.497 328.586 211.816 329.601 212.337 330.482C212.445 330.61 212.569 330.718 212.668 330.856C212.774 331.002 212.842 331.163 212.935 331.315C214.022 332.589 215.619 333.416 217.423 333.416ZM465.419 256.17C465.419 252.903 462.762 250.244 459.493 250.244C456.223 250.244 453.567 252.903 453.567 256.17C453.567 259.438 456.223 262.097 459.493 262.097C462.762 262.097 465.419 259.438 465.419 256.17Z" id="Fill"/>
<linearGradient gradientTransform="matrix(512 0 0 512 0 265.534)" gradientUnits="userSpaceOnUse" id="LinearGradient_2" x1="0" x2="1" y1="0" y2="0">
<stop offset="0" stop-color="#68b4dc"/>
<stop offset="0.438479" stop-color="#6c6bcd"/>
<stop offset="0.789132" stop-color="#a041b8"/>
<stop offset="1" stop-color="#f959e8"/>
</linearGradient>
</defs>
<clipPath id="ArtboardFrame">
<rect height="512" width="512" x="0" y="0"/>
</clipPath>
<g clip-path="url(#ArtboardFrame)" id="Слой-2" visibility="hidden">
<path d="M-27.2177-68.849L550.512-68.849L550.512 571.793L-27.2177 571.793L-27.2177-68.849Z" fill="url(#LinearGradient)" fill-rule="nonzero" opacity="1" stroke="none"/>
</g>
<g clip-path="url(#ArtboardFrame)" id="Слой-1">
<use fill="#000000" fill-rule="nonzero" opacity="1" stroke="#f4f6f8" stroke-linecap="butt" stroke-linejoin="round" stroke-width="10" xlink:href="#Fill"/>
<clipPath clip-rule="nonzero" id="ClipPath">
<use xlink:href="#Fill"/>
</clipPath>
<g clip-path="url(#ClipPath)">
<path d="M0 0L512 0L512 531.068L0 531.068L0 0Z" fill="url(#LinearGradient_2)" fill-rule="nonzero" opacity="1" stroke="none"/>
</g>
</g>
</svg>
