<svg width="256" height="256" xmlns="http://www.w3.org/2000/svg" version="1.1" xml:space="preserve">

 <g>
  <title>Layer 1</title>
  <g stroke="null" id="g1865">
   <path stroke="null" fill="#252f3e" d="m72.43329,106.82047c0,3.18554 0.3388,5.76841 0.93171,7.66251c0.67761,1.8941 1.52462,3.9604 2.71043,6.19889c0.4235,0.68877 0.59291,1.37753 0.59291,1.9802c0,0.86096 -0.50821,1.72191 -1.60932,2.58287l-5.33616,3.61602c-0.76231,0.51657 -1.52462,0.77486 -2.20222,0.77486c-0.84701,0 -1.69402,-0.43048 -2.54103,-1.20534c-1.18581,-1.29143 -2.20222,-2.66897 -3.04923,-4.0465c-0.84701,-1.46363 -1.69402,-3.09944 -2.62573,-5.07964c-6.60667,7.9208 -14.90736,11.8812 -24.90206,11.8812c-7.11487,0 -12.78983,-2.0663 -16.94018,-6.19889c-4.15034,-4.13259 -6.26787,-9.64271 -6.26787,-16.53037c0,-7.31813 2.54103,-13.25873 7.70778,-17.73571c5.16675,-4.47697 12.02753,-6.71546 20.75172,-6.71546c2.87983,0 5.84436,0.25829 8.97829,0.68877c3.13393,0.43048 6.35257,1.11924 9.7406,1.8941l0,-6.28498c0,-6.54327 -1.35521,-11.10634 -3.98094,-13.77531c-2.71043,-2.66897 -7.28428,-3.9604 -13.80624,-3.9604c-2.96453,0 -6.01376,0.34438 -9.1477,1.11924c-3.13393,0.77486 -6.18316,1.72191 -9.1477,2.92725c-1.35521,0.60267 -2.37162,0.94705 -2.96453,1.11924c-0.59291,0.17219 -1.01641,0.25829 -1.35521,0.25829c-1.18581,0 -1.77872,-0.86096 -1.77872,-2.66897l0,-4.21869c0,-1.37753 0.1694,-2.41068 0.59291,-3.01335c0.4235,-0.60267 1.18581,-1.20534 2.37162,-1.80801c2.96453,-1.54972 6.52197,-2.84116 10.67231,-3.8743c4.15034,-1.11924 8.55479,-1.63582 13.21334,-1.63582c10.07941,0 17.44838,2.32458 22.19163,6.97375c4.65855,4.64917 7.03017,11.70901 7.03017,21.17953l0,27.89499l0.1694,0zm-34.38856,13.08654c2.79513,0 5.67496,-0.51657 8.72419,-1.54972c3.04923,-1.03315 5.75966,-2.92725 8.04658,-5.51012c1.35521,-1.63582 2.37162,-3.44383 2.87983,-5.51012c0.50821,-2.0663 0.84701,-4.56307 0.84701,-7.49032l0,-3.61602c-2.45633,-0.60267 -5.08205,-1.11924 -7.79248,-1.46363c-2.71043,-0.34438 -5.33616,-0.51657 -7.96188,-0.51657c-5.67496,0 -9.8253,1.11924 -12.62043,3.44383c-2.79513,2.32458 -4.15034,5.59622 -4.15034,9.901c0,4.0465 1.01641,7.05984 3.13393,9.12614c2.03282,2.15239 4.99735,3.18554 8.89359,3.18554zm68.01481,9.29833c-1.52462,0 -2.54103,-0.25829 -3.21863,-0.86096c-0.67761,-0.51657 -1.27051,-1.72191 -1.77872,-3.35773l-19.90471,-66.55194c-0.50821,-1.72191 -0.76231,-2.84116 -0.76231,-3.44383c0,-1.37753 0.67761,-2.15239 2.03282,-2.15239l8.30069,0c1.60932,0 2.71043,0.25829 3.30333,0.86096c0.67761,0.51657 1.18581,1.72191 1.69402,3.35773l14.22975,56.99533l13.21334,-56.99533c0.4235,-1.72191 0.93171,-2.84116 1.60932,-3.35773c0.67761,-0.51657 1.86342,-0.86096 3.38804,-0.86096l6.77607,0c1.60932,0 2.71043,0.25829 3.38804,0.86096c0.67761,0.51657 1.27051,1.72191 1.60932,3.35773l13.38274,57.68409l14.65325,-57.68409c0.50821,-1.72191 1.10111,-2.84116 1.69402,-3.35773c0.67761,-0.51657 1.77872,-0.86096 3.30333,-0.86096l7.87718,0c1.35521,0 2.11752,0.68877 2.11752,2.15239c0,0.43048 -0.0847,0.86096 -0.1694,1.37753c-0.0847,0.51657 -0.2541,1.20534 -0.59291,2.15239l-20.41291,66.55194c-0.50821,1.72191 -1.10111,2.84116 -1.77872,3.35773c-0.67761,0.51657 -1.77872,0.86096 -3.21863,0.86096l-7.28428,0c-1.60932,0 -2.71043,-0.25829 -3.38804,-0.86096c-0.67761,-0.60267 -1.27051,-1.72191 -1.60932,-3.44383l-13.12864,-55.5317l-13.04394,55.4456c-0.4235,1.72191 -0.93171,2.84116 -1.60932,3.44383c-0.67761,0.60267 -1.86342,0.86096 -3.38804,0.86096l-7.28428,0zm108.84064,2.32458c-4.40445,0 -8.80889,-0.51657 -13.04394,-1.54972c-4.23504,-1.03315 -7.53838,-2.15239 -9.7406,-3.44383c-1.35521,-0.77486 -2.28692,-1.63582 -2.62573,-2.41068c-0.3388,-0.77486 -0.50821,-1.63582 -0.50821,-2.41068l0,-4.39088c0,-1.80801 0.67761,-2.66897 1.94812,-2.66897c0.50821,0 1.01641,0.0861 1.52462,0.25829c0.50821,0.17219 1.27051,0.51657 2.11752,0.86096c2.87983,1.29143 6.01376,2.32458 9.3171,3.01335c3.38804,0.68877 6.69137,1.03315 10.07941,1.03315c5.33616,0 9.4865,-0.94705 12.36633,-2.84116c2.87983,-1.8941 4.40445,-4.64917 4.40445,-8.17909c0,-2.41068 -0.76231,-4.39088 -2.28692,-6.0267c-1.52462,-1.63582 -4.40445,-3.09944 -8.55479,-4.47697l-12.28163,-3.8743c-6.18316,-1.9802 -10.75701,-4.90745 -13.55214,-8.78176c-2.79513,-3.78821 -4.23504,-8.0069 -4.23504,-12.48387c0,-3.61602 0.76231,-6.80156 2.28692,-9.55662c1.52462,-2.75506 3.55744,-5.16574 6.09846,-7.05984c2.54103,-1.9802 5.42086,-3.44383 8.80889,-4.47697c3.38804,-1.03315 6.94547,-1.46363 10.67231,-1.46363c1.86342,0 3.81154,0.0861 5.67496,0.34438c1.94812,0.25829 3.72684,0.60267 5.50556,0.94705c1.69402,0.43048 3.30333,0.86096 4.82795,1.37753c1.52462,0.51657 2.71043,1.03315 3.55744,1.54972c1.18581,0.68877 2.03282,1.37753 2.54103,2.15239c0.50821,0.68877 0.76231,1.63582 0.76231,2.84116l0,4.0465c0,1.80801 -0.67761,2.75506 -1.94812,2.75506c-0.67761,0 -1.77872,-0.34438 -3.21863,-1.03315c-4.82795,-2.23849 -10.24881,-3.35773 -16.26257,-3.35773c-4.82795,0 -8.63949,0.77486 -11.26522,2.41068c-2.62573,1.63582 -3.98094,4.13259 -3.98094,7.66251c0,2.41068 0.84701,4.47697 2.54103,6.11279c1.69402,1.63582 4.82795,3.27164 9.3171,4.73526l12.02753,3.8743c6.09846,1.9802 10.50291,4.73526 13.12864,8.26518c2.62573,3.52992 3.89624,7.57642 3.89624,12.05339c0,3.70211 -0.76231,7.05984 -2.20222,9.9871c-1.52462,2.92725 -3.55744,5.51012 -6.18316,7.57642c-2.62573,2.15239 -5.75966,3.70211 -9.4018,4.82136c-3.81154,1.20534 -7.79248,1.80801 -12.11223,1.80801z" id="path1857"/>
   <g stroke="null" id="g1863">
    <path stroke="null" fill="#f90" clip-rule="evenodd" fill-rule="evenodd" class="st1" d="m230.90865,173.37242c-27.86659,20.92124 -68.35362,32.02758 -103.16568,32.02758c-48.78771,0 -92.74747,-18.33838 -125.95022,-48.81624c-2.62573,-2.41068 -0.2541,-5.68231 2.87983,-3.78821c35.91318,21.17953 80.21174,34.00779 126.03492,34.00779c30.91582,0 64.88088,-6.54327 96.13551,-19.97419c4.65855,-2.15239 8.63949,3.09944 4.06564,6.54327z" id="path1859"/>
    <path stroke="null" fill="#f90" clip-rule="evenodd" fill-rule="evenodd" class="st1" d="m242.51267,159.94149c-3.55744,-4.64917 -23.54685,-2.23849 -32.60984,-1.11924c-2.71043,0.34438 -3.13393,-2.0663 -0.67761,-3.8743c15.92377,-11.36463 42.09634,-8.09299 45.14557,-4.30478c3.04923,3.8743 -0.84701,30.47786 -15.75437,43.22002c-2.28692,1.9802 -4.48915,0.94705 -3.47274,-1.63582c3.38804,-8.52347 10.92641,-27.7228 7.36898,-32.28587z" id="path1861"/>
   </g>
  </g>
 </g>
</svg>