<svg width="256" height="256" xmlns="http://www.w3.org/2000/svg" data-name="Layer 1">

 <title>HTML5 LOGO</title>
 <g>
  <title>Layer 1</title>
  <g stroke="null" id="svg_11">
   <polygon stroke="null" id="svg_1" fill="#e44f26" points="47.67329025268555,226.325927734375 29.800003051757812,56.89973068237305 226.1999969482422,56.89973068237305 208.29727172851562,226.30104064941406 127.88221740722656,245.13999938964844 47.67329025268555,226.325927734375 " class="cls-1"/>
   <polygon stroke="null" id="svg_2" fill="#f1672a" points="128,230.74327087402344 192.98573303222656,215.5128173828125 208.2825469970703,70.74897003173828 128,70.74897003173828 128,230.74327087402344 " class="cls-2"/>
   <polygon stroke="null" id="svg_3" fill="#ebebeb" points="128,133.5869903564453 95.46296691894531,133.5869903564453 93.2251205444336,112.30915832519531 128,112.30915832519531 128,91.5290756225586 127.91166687011719,91.5290756225586 66.35630798339844,91.5290756225586 66.9452133178711,97.10360717773438 72.98149108886719,154.36708068847656 128,154.36708068847656 128,133.5869903564453 " class="cls-3"/>
   <polygon stroke="null" id="svg_4" fill="#ebebeb" points="128,187.55300903320312 127.89692687988281,187.57789611816406 100.51283264160156,181.33143615722656 98.7608413696289,164.7571258544922 85.45156860351562,164.7571258544922 74.08568572998047,164.7571258544922 77.53079986572266,197.38311767578125 127.88221740722656,209.20413208007812 128,209.17926025390625 128,187.55300903320312 " class="cls-3"/>
   <path stroke="null" id="svg_5" fill="#010101" d="m48.07079,10.86l12.49952,0l0,10.42738l11.48366,0l0,-10.42738l12.49952,0l0,31.59321l-12.49952,0l0,-10.57669l-11.48366,0l0,10.57669l-12.49952,0l0,-31.59321z" class="cls-4"/>
   <path stroke="null" id="svg_6" fill="#010101" d="m100.92507,21.33715l-10.99781,0l0,-10.47715l34.49514,0l0,10.47715l-10.99781,0l0,21.15339l-12.49952,0l0,-21.15339z" class="cls-4"/>
   <path stroke="null" id="svg_7" fill="#010101" d="m129.89922,10.86l13.02954,0l8.00912,11.09931l7.97967,-11.09931l13.02954,0l0,31.59321l-12.44063,0l0,-15.66595l-8.59802,11.19885l-0.20612,0l-8.61274,-11.19885l0,15.66595l-12.21979,0l0.02945,-31.59321z" class="cls-4"/>
   <path stroke="null" id="svg_8" fill="#010101" d="m178.2042,10.86l12.49952,0l0,21.15339l17.56411,0l0,10.43982l-30.06363,0l0,-31.59321z" class="cls-4"/>
   <polygon stroke="null" id="svg_9" fill="#fff" points="127.91166687011719,133.5869903564453 127.91166687011719,154.36708068847656 158.1961212158203,154.36708068847656 155.33995056152344,181.31900024414062 127.91166687011719,187.57789611816406 127.91166687011719,209.19168090820312 178.3219757080078,197.38311767578125 178.69003295898438,193.8741455078125 184.46133422851562,139.17396545410156 185.06494140625,133.5869903564453 178.4397430419922,133.5869903564453 127.91166687011719,133.5869903564453 " class="cls-5"/>
   <polygon stroke="null" id="svg_10" fill="#fff" points="127.91166687011719,91.5290756225586 127.91166687011719,104.43263244628906 127.91166687011719,112.2593994140625 127.91166687011719,112.30915832519531 187.2291717529297,112.30915832519531 187.2291717529297,112.30915832519531 187.30279541015625,112.30915832519531 187.78863525390625,107.6429672241211 188.92227172851562,97.10360717773438 189.5111846923828,91.5290756225586 127.91166687011719,91.5290756225586 " class="cls-5"/>
  </g>
 </g>
</svg>