<svg width="512" height="512" xmlns="http://www.w3.org/2000/svg" version="1.1">
 <!--
The MIT License (MIT)

Copyright (c) 2011 Christopher Williams <chris@iterativedesigns.com>,
                     Manuel Strehl <boldewyn@gmail.com>

Permission is hereby granted, free of charge, to any person obtaining a copy
of this software and associated documentation files (the "Software"), to deal
in the Software without restriction, including without limitation the rights
to use, copy, modify, merge, publish, distribute, sublicense, and/or sell
copies of the Software, and to permit persons to whom the Software is
furnished to do so, subject to the following conditions:

The above copyright notice and this permission notice shall be included in
all copies or substantial portions of the Software.

THE SOFTWARE IS PROVIDED "AS IS", WITHOUT WARRANTY OF ANY KIND, EXPRESS OR
IMPLIED, INCLUDING BUT NOT LIMITED TO THE WARRANTIES OF MERCHANTABILITY,
FITNESS FOR A PARTICULAR PURPOSE AND NONINFRINGEMENT. IN NO EVENT SHALL THE
AUTHORS OR COPYRIGHT HOLDERS BE LIABLE FOR ANY CLAIM, DAMAGES OR OTHER
LIABILITY, WHETHER IN AN ACTION OF CONTRACT, TORT OR OTHERWISE, ARISING FROM,
OUT OF OR IN CONNECTION WITH THE SOFTWARE OR THE USE OR OTHER DEALINGS IN
THE SOFTWARE.
-->

 <g>
  <title>Layer 1</title>
  <g stroke="null" id="logo">
   <rect stroke="null" fill="#f7df1e" height="512.00001" width="512.00001" y="0" x="0" id="background"/>
   <path stroke="null" d="m134.62349,427.86439l39.18222,-23.71251c7.55911,13.40241 14.43556,24.74159 30.92927,24.74159c15.81003,0 25.77778,-6.18443 25.77778,-30.24051l0,-163.59619l48.11479,0l0,164.27683c0,49.83467 -29.21143,72.5181 -71.83035,72.5181c-38.49041,0 -60.83251,-19.93448 -72.17372,-43.99137" id="j"/>
   <path stroke="null" d="m304.76191,422.70883l39.17714,-22.68343c10.31314,16.84216 23.71657,29.21448 47.4301,29.21448c19.93651,0 32.64914,-9.96754 32.64914,-23.71556c0,-16.49676 -13.05905,-22.34006 -35.05575,-31.96038l-12.0259,-5.1586c-34.71441,-14.77587 -57.74222,-33.33486 -57.74222,-72.51505c0,-36.08686 27.4946,-63.58349 70.45689,-63.58349c30.58794,0 52.58362,10.65549 68.39162,38.49448l-37.46235,24.05689c-8.24889,-14.77689 -17.18248,-20.61917 -30.92927,-20.61917c-14.09117,0 -23.02781,8.93562 -23.02781,20.61917c0,14.43556 8.93664,20.27886 29.55581,29.21549l12.02794,5.15454c40.89905,17.52889 63.92686,35.39911 63.92686,75.60838c0,43.30667 -34.02464,67.01918 -79.73384,67.01918c-44.67911,0 -73.54921,-21.30692 -87.63835,-49.14692" id="s"/>
  </g>
 </g>
</svg>