<svg width="256" height="256" xmlns="http://www.w3.org/2000/svg" role="img" fill="#000000">
 <title>JavaScript</title>

 <g>
  <title>Layer 1</title>
  <path fill="none" d="m0,0l256,0l0,257l-256,0l0,-257z" id="svg_1" stroke="null"/>
  <path d="m41.1,160.72539l19.6,-12.34805c3.75,6.62578 7.15,12.24766 15.35,12.24766c7.85,0 12.85,-3.11211 12.85,-15.30957l0,-73.13457l24.4,0l0,72.18086c0,25.39882 -14.85,36.99395 -36.45,36.99395c-19.5,0 -30.8,-10.08925 -35.75,-20.3793m90.45,-2.30898l19.6,-11.39434c5.15,8.43282 11.85,14.65703 23.7,14.65703c10,0 16.35,-5.01953 16.35,-11.89629c0,-8.28223 -6.55,-11.19355 -17.6,-16.0123l-6,-2.61016c-17.35,-7.37871 -28.85,-16.66484 -28.85,-36.29121c0,-18.07032 13.7,-31.87402 35.15,-31.87402c15.25,0 26.25,5.3207 34.1,19.275l-18.65,12.04687c-4.1,-7.37871 -8.5,-10.34023 -15.45,-10.34023c-7,0 -11.45,4.46738 -11.45,10.34023c0,7.22812 4.45,10.13945 14.75,14.55664l6,2.61016c20.45,8.78418 31.95,17.76914 31.95,37.94766c0,21.73457 -17,33.88184 -39.8,33.88184c-22.35,0 -36.75,-10.64141 -43.75,-24.6459" id="svg_2" stroke="null"/>
 </g>
</svg>