<svg width="256" height="256" xmlns="http://www.w3.org/2000/svg" fill="none">
 <defs>
  <clipPath id="clip0_337_7902">
   <path id="svg_1" d="m0,0l267,0l0,164l-267,0l0,-164z" fill="#fff"/>
  </clipPath>
  <linearGradient y2="0.49981" x2="1.00086" y1="0.49981" x1="-0.00021" id="paint0_linear_337_7902">
   <stop offset="0.005"/>
   <stop stop-color="#171717" offset="0.194"/>
   <stop stop-color="#3D3D3D" offset="0.542"/>
   <stop stop-color="#545454" offset="0.824"/>
   <stop stop-color="#5C5C5C" offset="1"/>
  </linearGradient>
  <linearGradient y2="0.50011" x2="1.03086" y1="0.50011" x1="-0.03821" id="paint1_linear_337_7902">
   <stop stop-color="#5C5C5C"/>
   <stop stop-color="#545454" offset="0.176"/>
   <stop stop-color="#3D3D3D" offset="0.458"/>
   <stop stop-color="#171717" offset="0.806"/>
   <stop offset="0.995"/>
  </linearGradient>
 </defs>
 <g>
  <title>Layer 1</title>
  <mask stroke="null" height="164" width="267" y="0" x="0" maskUnits="userSpaceOnUse" id="mask0_337_7902">
   <path stroke="null" id="svg_3" fill="#fff" d="m267,0l-267,0l0,164l267,0l0,-164z"/>
  </mask>
  <path stroke="null" id="svg_5" fill="#5FA04E" d="m126.59277,203.00013c-0.84399,0 -1.63202,-0.22134 -2.36317,-0.60915l-7.48585,-4.37195c-1.12563,-0.60915 -0.56328,-0.83049 -0.22569,-0.94116c1.52011,-0.49848 1.80082,-0.60915 3.37689,-1.49451c0.1688,-0.11067 0.39448,-0.05579 0.56328,0.05488l5.74099,3.37683c0.22475,0.11067 0.50639,0.11067 0.67519,0l22.51352,-12.78659c0.22569,-0.11067 0.3376,-0.33201 0.3376,-0.60823l0,-25.51647c0,-0.27713 -0.11191,-0.49848 -0.3376,-0.60915l-22.45756,-12.73079c-0.22475,-0.11067 -0.50639,-0.11067 -0.67519,0l-22.45663,12.73079c-0.22569,0.11067 -0.33853,0.3878 -0.33853,0.60915l0,25.51647c0,0.22134 0.11284,0.49756 0.33853,0.60823l6.13454,3.4875c3.32093,1.66098 5.40339,-0.27713 5.40339,-2.21433l0,-25.18446c0,-0.33201 0.28164,-0.66402 0.67519,-0.66402l2.87049,0c0.3376,0 0.67519,0.27713 0.67519,0.66402l0,25.18446c0,4.37287 -2.42006,6.91921 -6.64093,6.91921c-1.29443,0 -2.30815,0 -5.17864,-1.38384l-5.90979,-3.32104a4.76551,4.67378 0 0 1 -2.3641,-4.04085l0,-25.51647c0,-1.66006 0.90088,-3.21037 2.3641,-4.04085l22.51352,-12.78567c1.40727,-0.7747 3.32093,-0.7747 4.7282,0l22.51352,12.78567a4.76737,4.67561 0 0 1 2.3641,4.04085l0,25.51647a4.76551,4.67378 0 0 1 -2.3641,4.04085l-22.51352,12.78567c-0.84399,0.27713 -1.68891,0.49848 -2.47694,0.49848z"/>
  <path stroke="null" id="svg_6" fill="#5FA04E" d="m133.51627,185.39891c-9.84996,0 -11.87646,-4.42866 -11.87646,-8.19238c0,-0.33201 0.28164,-0.66402 0.67519,-0.66402l2.92738,0c0.3376,0 0.61924,0.22134 0.61924,0.55335c0.44951,2.93415 1.74487,4.37287 7.71061,4.37287c4.7282,0 6.75378,-1.05183 6.75378,-3.54238c0,-1.43872 -0.56235,-2.49055 -7.93536,-3.21037c-6.13547,-0.60915 -9.9628,-1.9372 -9.9628,-6.75274c0,-4.48354 3.82733,-7.14055 10.24351,-7.14055c7.20421,0 10.75083,2.43567 11.20034,7.7497c0,0.16555 -0.05596,0.33201 -0.1688,0.49756c-0.11191,0.11067 -0.28071,0.22134 -0.44951,0.22134l-2.98334,0a0.65934,0.64665 0 0 1 -0.61924,-0.49756c-0.67519,-3.04482 -2.42006,-4.04085 -7.03542,-4.04085c-5.17864,0 -5.79694,1.77165 -5.79694,3.0997c0,1.60518 0.73115,2.10366 7.71061,2.98902c6.92257,0.88537 10.18755,2.15854 10.18755,6.97409c0,4.81555 -4.05301,7.58323 -11.20034,7.58323l0,-0.00001zm32.41943,-26.78964c0,2.32409 -1.97055,4.26128 -4.33465,4.26128a4.34118,4.25762 0 0 1 -4.33372,-4.26128c0,-2.43567 2.02651,-4.2622 4.33372,-4.2622a4.34211,4.25854 0 0 1 4.33465,4.2622zm-7.93629,0c0,1.99207 1.63202,3.59726 3.60164,3.59726c2.02651,0 3.65853,-1.66006 3.65853,-3.59726c0,-1.99299 -1.63202,-3.54238 -3.65853,-3.54238a3.59511,3.52592 0 0 0 -3.60164,3.54238zm1.96962,-2.38079l1.68891,0c0.56235,0 1.68798,0 1.68798,1.27317c0,0.88628 -0.56235,1.05183 -0.89994,1.1625c0.67519,0.05579 0.73115,0.49848 0.78803,1.10762c0.05596,0.38689 0.11191,1.05091 0.22475,1.27226l-1.01279,0c0,-0.22134 -0.1688,-1.43872 -0.1688,-1.49451c-0.05689,-0.27622 -0.1688,-0.38689 -0.50639,-0.38689l-0.84492,0l0,1.9372l-0.95683,0l0,-4.87134l0,-0.00001zm0.95683,2.10366l0.73208,0c0.61924,0 0.73115,-0.44268 0.73115,-0.66402c0,-0.66402 -0.44951,-0.66402 -0.73115,-0.66402l-0.78803,0l0,1.32805l0.05596,0l-0.00001,-0.00001z"/>
  <path stroke="null" id="svg_7" fill="#333" d="m56.9138,103.14768a2.87236,2.81707 0 0 0 -1.46416,-2.43567l-23.80701,-13.55945c-0.39355,-0.22134 -0.84399,-0.33201 -1.29443,-0.3878l-0.22475,0c-0.45044,0 -0.90088,0.16646 -1.29443,0.3878l-23.86576,13.50458a2.89567,2.83994 0 0 0 -1.46322,2.49055l0.05596,36.31007c0,0.49848 0.28164,0.99695 0.73208,1.21738c0.45044,0.27713 1.01279,0.27713 1.40727,0l14.18367,-7.97012a2.87236,2.81707 0 0 0 1.46322,-2.43567l0,-16.99208a2.87236,2.81707 0 0 1 1.46229,-2.43567l6.02263,-3.43171c0.45044,-0.27713 0.95683,-0.3878 1.46322,-0.3878c0.50639,0 1.01279,0.11067 1.40727,0.3878l6.0217,3.43171a2.87236,2.81707 0 0 1 1.46416,2.43567l0,16.99116a2.87236,2.81707 0 0 0 1.46322,2.43567l14.07083,7.97012a1.3709,1.34451 0 0 0 1.46416,0c0.44951,-0.22134 0.73115,-0.7189 0.73115,-1.21738l0,-36.30915l0.00093,0l0,-0.00001zm114.76289,-49.98111c-0.45044,-0.22226 -1.01372,-0.22226 -1.40727,0c-0.45044,0.27622 -0.73208,0.7189 -0.73208,1.21646l0,35.97988c0,0.33201 -0.1688,0.66402 -0.50639,0.88537a1.0734,1.05274 0 0 1 -1.01279,0l-5.96574,-3.37592a2.89381,2.83811 0 0 0 -2.87049,0l-23.86483,13.56037a2.87236,2.81707 0 0 0 -1.46322,2.43567l0,27.06586a2.87236,2.81707 0 0 0 1.46322,2.43567l23.86483,13.56128a2.89754,2.84177 0 0 0 2.87049,0l23.8639,-13.56128a2.87236,2.81707 0 0 0 1.46322,-2.43567l0,-67.47257c0,-1.05183 -0.56235,-1.99207 -1.46322,-2.49055l-14.23963,-7.80457zm-2.25126,68.8555c0,0.27713 -0.11284,0.49848 -0.3376,0.60915l-8.16198,4.64909a0.83187,0.81585 0 0 1 -0.73115,0l-8.16105,-4.64909c-0.22569,-0.11067 -0.3376,-0.3878 -0.3376,-0.60915l0,-9.29909c0,-0.27622 0.11191,-0.49756 0.3376,-0.60823l8.16105,-4.65a0.83187,0.81585 0 0 1 0.73115,0l8.16198,4.65c0.22475,0.10976 0.3376,0.38689 0.3376,0.60823l0,9.29909zm81.66734,-9.52043c0.90088,-0.49756 1.40727,-1.43872 1.40727,-2.43476l0,-6.58811c0,-0.99695 -0.56235,-1.9372 -1.40727,-2.43567l-23.6951,-13.50549a2.89381,2.83811 0 0 0 -2.87049,0l-23.86483,13.56128a2.87422,2.8189 0 0 0 -1.46322,2.43567l0,27.06586c0,0.99695 0.56328,1.9372 1.46322,2.43567l23.69603,13.28415c0.89994,0.49848 1.96962,0.49848 2.81361,0l14.35247,-7.85945c0.45044,-0.22134 0.73208,-0.71982 0.73208,-1.21829c0,-0.49756 -0.28164,-0.99604 -0.73208,-1.21738l-23.97674,-13.56128c-0.45044,-0.27622 -0.73115,-0.7189 -0.73115,-1.21738l0,-8.46951c0,-0.49756 0.28071,-0.99512 0.73115,-1.21646l7.48585,-4.20732a1.3709,1.34451 0 0 1 1.46322,0l7.48585,4.20732c0.45044,0.27622 0.73208,0.7189 0.73208,1.21646l0,6.64299c0,0.49848 0.28071,0.99695 0.73115,1.21738a1.3709,1.34451 0 0 0 1.46322,0l14.18367,-8.13659l0,0.00091l0.00001,0z" clip-rule="evenodd" fill-rule="evenodd"/>
  <path stroke="null" id="svg_8" fill="#5FA04E" d="m225.59685,111.22847a0.50919,0.49939 0 0 1 0.56235,0l4.5594,2.60213a0.59312,0.58171 0 0 1 0.28164,0.49756l0,5.20335a0.59312,0.58171 0 0 1 -0.28164,0.49848l-4.5594,2.60122a0.50919,0.49939 0 0 1 -0.56235,0l-4.5594,-2.60122a0.59312,0.58171 0 0 1 -0.28164,-0.49848l0,-5.20335c0,-0.22134 0.11284,-0.38689 0.28164,-0.49756l4.5594,-2.60122l0,-0.00091z" clip-rule="evenodd" fill-rule="evenodd"/>
  <path stroke="null" id="svg_9" fill="url(#paint0_linear_337_7902)" d="m93.94859,87.6492a2.89474,2.83902 0 0 1 2.87049,0l23.63915,13.45061c0.90088,0.49848 1.40727,1.43872 1.40727,2.43567l0,26.84452c0,0.99695 -0.56328,1.9372 -1.40727,2.43567l-23.63915,13.4497a2.89288,2.8372 0 0 1 -2.87049,0l-23.63915,-13.4497c-0.90088,-0.49848 -1.4082,-1.43872 -1.4082,-2.43567l0,-26.89939c0,-0.99695 0.56328,-1.93811 1.4082,-2.43659l23.63915,-13.39482z" clip-rule="evenodd" fill-rule="evenodd"/>
  <path stroke="null" id="svg_10" fill="#B4B4B4" d="m120.34538,101.04402l-23.5263,-13.4497a3.90939,3.83415 0 0 0 -0.73208,-0.27713l-26.62248,44.83537c0.22569,0.27622 0.50733,0.49756 0.78803,0.66402l23.69603,13.45061c0.73115,0.38689 1.52011,0.49756 2.25126,0.22134l24.87762,-44.77867c-0.1688,-0.27713 -0.45044,-0.49848 -0.73208,-0.66494l0,-0.00091l0,0.00001z" opacity="0.66"/>
  <path stroke="null" id="svg_11" fill="url(#paint1_linear_337_7902)" d="m96.76219,146.26537l23.58319,-13.4497c0.90088,-0.49848 1.29443,-1.43872 1.29443,-2.43567l0,-0.10976l-25.55281,-42.89818c-0.73115,-0.22134 -1.52011,-0.11067 -2.19437,0.27622l-23.41439,13.28506l25.4409,45.60915a2.90966,2.85366 0 0 0 0.84306,-0.27713l-0.00001,0.00001z"/>
 </g>
</svg>