<svg width="256" height="256" xmlns="http://www.w3.org/2000/svg" class="fill-[#333333] dark:fill-white NodejsLogo_nodejsLogo__mBW__" fill="none">
 <mask height="80" width="267" y="0" x="0" maskUnits="userSpaceOnUse" id="mask0_1803_3458">
  <path id="svg_1" fill="white" d="m267,0l-267,0l0,79.3784l267,0l0,-79.3784z"/>
 </mask>

 <g>
  <title>Layer 1</title>
  <path id="svg_6" d="m43.6737,41.9539c0,-0.8335 -0.4601,-1.6205 -1.1964,-2.0374l-19.4669,-11.3453c-0.3221,-0.1852 -0.6903,-0.2778 -1.0585,-0.324c-0.046,0 -0.184,0 -0.184,0c-0.3682,0 -0.7364,0.1388 -1.0585,0.324l-19.51286,11.2989c-0.73633,0.4169 -1.19654,1.2042 -1.19654,2.0838l0.04602,30.3776c0,0.4169 0.23011,0.8335 0.59827,1.0187c0.36817,0.2317 0.82838,0.2317 1.15053,0l11.59728,-6.6682c0.7363,-0.4167 1.1965,-1.2039 1.1965,-2.0374l0,-14.2164c0,-0.8335 0.4602,-1.6208 1.1966,-2.0374l4.9242,-2.8711c0.3682,-0.2317 0.7823,-0.3243 1.1965,-0.3243c0.4142,0 0.8284,0.0926 1.1506,0.3243l4.9241,2.8711c0.7363,0.4166 1.1967,1.2039 1.1967,2.0374l0,14.2164c0,0.8335 0.4602,1.6207 1.1965,2.0374l11.5053,6.6682c0.368,0.2317 0.8282,0.2317 1.1964,0c0.3683,-0.1852 0.5982,-0.6018 0.5982,-1.0187l0,-30.3776z" clip-rule="evenodd" fill-rule="evenodd"/>
  <path id="svg_7" d="m137.465,0.13892c-0.369,-0.18523 -0.829,-0.18523 -1.151,0c-0.368,0.23154 -0.598,0.60199 -0.598,1.01876l0,30.09962c0,0.2778 -0.138,0.5556 -0.415,0.7411c-0.276,0.1388 -0.552,0.1388 -0.828,0l-4.878,-2.8249c-0.736,-0.4166 -1.611,-0.4166 -2.347,0l-19.513,11.3453c-0.736,0.4169 -1.196,1.2039 -1.196,2.0374l0,22.6442c0,0.8338 0.46,1.6208 1.196,2.0377l19.513,11.3453c0.736,0.4166 1.611,0.4166 2.347,0l19.513,-11.3453c0.736,-0.4169 1.196,-1.2039 1.196,-2.0377l0,-56.44833c0,-0.87985 -0.46,-1.66707 -1.196,-2.08383l-11.643,-6.52932zm-1.795,57.60618c0,0.2314 -0.092,0.4166 -0.276,0.5093l-6.674,3.89c-0.184,0.0926 -0.414,0.0926 -0.598,0l-6.673,-3.89c-0.184,-0.0927 -0.276,-0.3241 -0.276,-0.5093l0,-7.7795c0,-0.2317 0.092,-0.4169 0.276,-0.5095l6.673,-3.8898c0.184,-0.0926 0.414,-0.0926 0.598,0l6.674,3.8898c0.184,0.0926 0.276,0.3242 0.276,0.5095l0,7.7795z" clip-rule="evenodd" fill-rule="evenodd"/>
  <path id="svg_8" d="m202.398,49.7801c0.737,-0.4169 1.151,-1.2039 1.151,-2.0376l0,-5.5106c0,-0.8334 -0.46,-1.6207 -1.151,-2.0373l-19.375,-11.2989c-0.736,-0.4169 -1.61,-0.4169 -2.347,0l-19.512,11.345c-0.737,0.4169 -1.197,1.2042 -1.197,2.0377l0,22.6442c0,0.8335 0.46,1.6208 1.197,2.0374l19.374,11.1137c0.737,0.4168 1.611,0.4168 2.301,0l11.736,-6.5754c0.368,-0.1852 0.598,-0.6021 0.598,-1.019c0,-0.4166 -0.23,-0.8334 -0.598,-1.0187l-19.605,-11.3453c-0.368,-0.2314 -0.598,-0.6018 -0.598,-1.0187l0,-7.0849c0,-0.4168 0.23,-0.8337 0.598,-1.0189l6.121,-3.5193c0.368,-0.2314 0.828,-0.2314 1.196,0l6.121,3.5193c0.368,0.2317 0.598,0.6021 0.598,1.0189l0,5.5568c0,0.4168 0.23,0.8334 0.599,1.0187c0.368,0.2316 0.828,0.2316 1.196,0l11.597,-6.8071z" clip-rule="evenodd" fill-rule="evenodd"/>
  <g stroke="null" id="svg_13">
   <path stroke="null" id="svg_3" fill="#5FA04E" d="m128.00514,239.70267c-3.551,0 -6.86046,-0.82084 -9.93354,-2.25819l-31.45536,-16.21335c-4.73295,-2.25819 -2.36391,-3.07903 -0.94556,-3.48945c6.38254,-1.84777 7.5645,-2.25819 14.18857,-5.54155c0.70917,-0.41042 1.65473,-0.20477 2.36391,0.20565l24.12211,12.51957c0.94556,0.41042 2.12751,0.41042 2.83669,0l94.36607,-47.41144c0.94042,-0.41042 1.42348,-1.23126 1.42348,-2.25686l0,-94.61723c0,-1.02561 -0.48306,-1.84644 -1.42348,-2.25686l-94.36607,-47.20535c-0.94556,-0.41086 -2.12751,-0.41086 -2.83669,0l-94.36093,47.20535c-0.94556,0.41042 -1.41834,1.43603 -1.41834,2.25686l0,94.61723c0,0.82084 0.47278,1.84644 1.41834,2.25686l25.77685,12.93088c13.95218,6.15674 22.70377,-1.02649 22.70377,-8.21016l0,-93.38464c0,-1.23126 1.18195,-2.46252 2.84183,-2.46252l12.06106,0c1.41834,0 2.83669,1.02561 2.83669,2.46252l0,93.38464c0,16.21468 -10.16993,25.65521 -27.9095,25.65521c-5.43698,0 -9.69201,0 -21.75821,-5.13024l-24.83128,-12.3148c-6.14615,-3.07903 -9.93354,-8.82535 -9.93354,-14.98342l0,-94.61546c0,-6.15807 3.78739,-11.90438 9.93354,-14.98342l94.36607,-47.41011c5.90976,-2.87338 13.95218,-2.87338 19.86194,0l94.36607,47.41011c6.14615,3.07903 9.9284,8.82535 9.9284,14.98342l0,94.61546c0,6.15807 -3.78225,11.90438 -9.9284,14.98342l-94.36607,47.41011c-2.83669,1.02694 -6.38254,1.84777 -9.9284,1.84777z"/>
   <path stroke="null" id="svg_4" fill="#5FA04E" d="m157.33299,174.63964c-41.39404,0 -49.90924,-16.41944 -49.90924,-30.37593c0,-1.23126 1.18195,-2.46296 2.83669,-2.46296l12.29745,0c1.42348,0 2.60543,0.82128 2.60543,2.05254c1.89112,10.87745 7.32811,16.21468 32.40092,16.21468c19.86708,0 28.38228,-3.89987 28.38228,-13.13564c0,-5.3359 -2.37418,-9.23577 -33.35162,-11.90438c-25.77685,-2.25819 -41.86168,-7.18367 -41.86168,-25.04003c0,-16.62377 16.08483,-26.47605 43.04363,-26.47605c30.27854,0 45.17629,9.031 47.06741,28.73425c0,0.61607 -0.23639,1.23126 -0.70403,1.84733c-0.48306,0.41042 -1.18709,0.82128 -1.90654,0.82128l-12.53384,0c-1.17167,0 -2.35877,-0.82128 -2.59516,-1.84777c-2.84183,-11.28831 -10.17507,-14.98209 -29.56423,-14.98209c-21.75821,0 -24.3585,6.56716 -24.3585,11.49264c0,5.95197 3.07308,7.79975 32.40092,11.08355c29.08631,3.28336 42.80724,8.00407 42.80724,25.65477c0,18.06112 -17.26679,28.32383 -47.05713,28.32383z"/>
  </g>
 </g>
</svg>