<svg width="256" height="256" xmlns="http://www.w3.org/2000/svg" fill="none" class="fill-[#333333] dark:fill-white NodejsLogo_nodejsLogo__mBW__">
 <mask id="mask0_1803_3458" maskUnits="userSpaceOnUse" x="0" y="0" width="267" height="80">
  <path d="m267,0l-267,0l0,79.3784l267,0l0,-79.3784z" fill="white" id="svg_1"/>
 </mask>

 <g>
  <title>Layer 1</title>
  <path fill-rule="evenodd" clip-rule="evenodd" d="m43.6737,41.9539c0,-0.8335 -0.4601,-1.6205 -1.1964,-2.0374l-19.4669,-11.3453c-0.3221,-0.1852 -0.6903,-0.2778 -1.0585,-0.324c-0.046,0 -0.184,0 -0.184,0c-0.3682,0 -0.7364,0.1388 -1.0585,0.324l-19.51286,11.2989c-0.73633,0.4169 -1.19654,1.2042 -1.19654,2.0838l0.04602,30.3776c0,0.4169 0.23011,0.8335 0.59827,1.0187c0.36817,0.2317 0.82838,0.2317 1.15053,0l11.59728,-6.6682c0.7363,-0.4167 1.1965,-1.2039 1.1965,-2.0374l0,-14.2164c0,-0.8335 0.4602,-1.6208 1.1966,-2.0374l4.9242,-2.8711c0.3682,-0.2317 0.7823,-0.3243 1.1965,-0.3243c0.4142,0 0.8284,0.0926 1.1506,0.3243l4.9241,2.8711c0.7363,0.4166 1.1967,1.2039 1.1967,2.0374l0,14.2164c0,0.8335 0.4602,1.6207 1.1965,2.0374l11.5053,6.6682c0.368,0.2317 0.8282,0.2317 1.1964,0c0.3683,-0.1852 0.5982,-0.6018 0.5982,-1.0187l0,-30.3776z" id="svg_6"/>
  <path fill-rule="evenodd" clip-rule="evenodd" d="m137.465,0.13892c-0.369,-0.18523 -0.829,-0.18523 -1.151,0c-0.368,0.23154 -0.598,0.60199 -0.598,1.01876l0,30.09962c0,0.2778 -0.138,0.5556 -0.415,0.7411c-0.276,0.1388 -0.552,0.1388 -0.828,0l-4.878,-2.8249c-0.736,-0.4166 -1.611,-0.4166 -2.347,0l-19.513,11.3453c-0.736,0.4169 -1.196,1.2039 -1.196,2.0374l0,22.6442c0,0.8338 0.46,1.6208 1.196,2.0377l19.513,11.3453c0.736,0.4166 1.611,0.4166 2.347,0l19.513,-11.3453c0.736,-0.4169 1.196,-1.2039 1.196,-2.0377l0,-56.44833c0,-0.87985 -0.46,-1.66707 -1.196,-2.08383l-11.643,-6.52932zm-1.795,57.60618c0,0.2314 -0.092,0.4166 -0.276,0.5093l-6.674,3.89c-0.184,0.0926 -0.414,0.0926 -0.598,0l-6.673,-3.89c-0.184,-0.0927 -0.276,-0.3241 -0.276,-0.5093l0,-7.7795c0,-0.2317 0.092,-0.4169 0.276,-0.5095l6.673,-3.8898c0.184,-0.0926 0.414,-0.0926 0.598,0l6.674,3.8898c0.184,0.0926 0.276,0.3242 0.276,0.5095l0,7.7795z" id="svg_7"/>
  <path fill-rule="evenodd" clip-rule="evenodd" d="m202.398,49.7801c0.737,-0.4169 1.151,-1.2039 1.151,-2.0376l0,-5.5106c0,-0.8334 -0.46,-1.6207 -1.151,-2.0373l-19.375,-11.2989c-0.736,-0.4169 -1.61,-0.4169 -2.347,0l-19.512,11.345c-0.737,0.4169 -1.197,1.2042 -1.197,2.0377l0,22.6442c0,0.8335 0.46,1.6208 1.197,2.0374l19.374,11.1137c0.737,0.4168 1.611,0.4168 2.301,0l11.736,-6.5754c0.368,-0.1852 0.598,-0.6021 0.598,-1.019c0,-0.4166 -0.23,-0.8334 -0.598,-1.0187l-19.605,-11.3453c-0.368,-0.2314 -0.598,-0.6018 -0.598,-1.0187l0,-7.0849c0,-0.4168 0.23,-0.8337 0.598,-1.0189l6.121,-3.5193c0.368,-0.2314 0.828,-0.2314 1.196,0l6.121,3.5193c0.368,0.2317 0.598,0.6021 0.598,1.0189l0,5.5568c0,0.4168 0.23,0.8334 0.599,1.0187c0.368,0.2316 0.828,0.2316 1.196,0l11.597,-6.8071z" id="svg_8"/>
  <g stroke="null" id="svg_13">
   <path stroke="null" d="m128.00532,252.70266c-3.69089,0 -7.13073,-0.91637 -10.32487,-2.521l-32.69454,-18.10027c-4.9194,-2.521 -2.45704,-3.43737 -0.98281,-3.89555c6.63398,-2.06281 7.8625,-2.521 14.74753,-6.18648c0.73711,-0.45818 1.71992,-0.2286 2.45704,0.22958l25.0724,13.9766c0.98281,0.45818 2.21132,0.45818 2.94844,0l98.08361,-52.9292c0.97747,-0.45818 1.47956,-1.37455 1.47956,-2.51951l0,-105.62883c0,-1.14497 -0.50209,-2.06133 -1.47956,-2.51951l-98.08361,-52.69913c-0.98281,-0.45868 -2.21132,-0.45868 -2.94844,0l-98.07827,52.69913c-0.98281,0.45818 -1.47422,1.60316 -1.47422,2.51951l0,105.62883c0,0.91637 0.49141,2.06133 1.47422,2.51951l26.79233,14.43578c14.50182,6.87326 23.59818,-1.14595 23.59818,-9.16566l0,-104.25279c0,-1.37455 1.22851,-2.74911 2.95378,-2.74911l12.5362,0c1.47422,0 2.94844,1.14497 2.94844,2.74911l0,104.25279c0,18.10175 -10.57057,28.64097 -29.00899,28.64097c-5.65117,0 -10.07383,0 -22.61537,-5.7273l-25.8095,-13.748c-6.38828,-3.43737 -10.32487,-9.85245 -10.32487,-16.7272l0,-105.62685c0,-6.87475 3.93659,-13.28982 10.32487,-16.7272l98.08361,-52.92772c6.14257,-3.20779 14.50182,-3.20779 20.6444,0l98.08361,52.92772c6.38828,3.43737 10.31953,9.85245 10.31953,16.7272l0,105.62685c0,6.87475 -3.93125,13.28982 -10.31953,16.7272l-98.08361,52.92772c-2.94844,1.14646 -6.63398,2.06281 -10.31953,2.06281l-0.00002,-0.00001z" fill="#5FA04E" id="svg_3"/>
   <path stroke="null" d="m158.48854,180.06756c-43.02475,0 -51.87541,-18.33034 -51.87541,-33.91109c0,-1.37455 1.22851,-2.7496 2.94844,-2.7496l12.78191,0c1.47956,0 2.70807,0.91686 2.70807,2.29142c1.96562,12.14337 7.6168,18.10175 33.67735,18.10175c20.64974,0 29.5004,-4.35374 29.5004,-14.66437c0,-5.95689 -2.46771,-10.31063 -34.6655,-13.28982c-26.79233,-2.521 -43.51081,-8.01971 -43.51081,-27.9542c0,-18.55845 16.71849,-29.55734 44.73933,-29.55734c31.47136,0 46.956,10.08203 48.92162,32.07835c0,0.68777 -0.2457,1.37455 -0.73177,2.06232c-0.50209,0.45818 -1.23386,0.91686 -1.98165,0.91686l-13.02761,0c-1.21783,0 -2.45169,-0.91686 -2.6974,-2.06281c-2.95378,-12.60205 -10.57592,-16.72571 -30.72891,-16.72571c-22.61537,0 -25.3181,7.33145 -25.3181,12.83016c0,6.64466 3.19414,8.70749 33.67735,12.37346c30.23216,3.66548 44.49363,8.93559 44.49363,28.64048c0,20.16308 -17.94701,31.62017 -48.91094,31.62017l0,-0.00002z" fill="#5FA04E" id="svg_4"/>
  </g>
 </g>
</svg>