<svg width="152" height="89" xmlns="http://www.w3.org/2000/svg" fill="none">
 <defs>
  <linearGradient id="svg_6" y2="55.1837089%" x2="96.1321855%" y1="90.9292007%" x1="25.0714876%">
   <stop offset="0%" stop-color="#E40035"/>
   <stop offset="24%" stop-color="#F60A48"/>
   <stop offset="35.2%" stop-color="#F20755"/>
   <stop offset="49.4%" stop-color="#DC087D"/>
   <stop offset="74.5%" stop-color="#9717E7"/>
   <stop offset="100%" stop-color="#6C00F5"/>
  </linearGradient>
  <linearGradient gradientUnits="userSpaceOnUse" y2="112.781" x2="87.729" y1="-10.2841" x1="11.6585" id="svg_1">
   <stop stop-opacity="0.59" stop-color="white"/>
   <stop stop-opacity="0.63" stop-color="#00ADF7" offset="0.50781"/>
   <stop stop-opacity="0.58" stop-color="#00ADF7" offset="1"/>
  </linearGradient>
 </defs>
 <g>
  <title>Layer 1</title>

  <g id="svg_13">
   <g stroke="null" id="svg_2">
    <title stroke="null">Angular</title>
    <g stroke="null" id="svg_7">
     <title stroke="null">Layer 1</title>
     <path stroke="null" id="svg_5" fill="url(#svg_6)" d="m151.5,15.51114l-3.03317,46.59376l-29.00059,-61.09549l32.03375,14.50174l0,0l0.00001,-0.00001zm-20.08681,60.24816l-21.91299,12.23131l-21.91338,-12.23131l4.45689,-10.56623l34.91259,0l4.45689,10.56623zm-21.91299,-51.55903l11.48245,27.30843l-22.96528,0l11.48284,-27.30843zm-38.99805,37.90463l-3.00214,-46.59376l32.03375,-14.50174l-29.03161,61.09549l0,0l0,0.00001z"/>
    </g>
   </g>
   <g id="svg_11">
    <path stroke-width="1.26946" stroke="url(#svg_1)" fill="#358699" d="m47.90147,10.03969c-1.1068,-1.0595 -2.2107,-2.0453 -3.3061,-2.9516c-3.5362,-2.9261 -7.1151,-5.13504 -10.5261,-6.25849c-3.4103,-1.12322 -7.0125,-1.26212 -10.1225,0.56593c-3.1075,1.82654 -4.7865,5.06636 -5.5347,8.62786c-0.7489,3.5644 -0.6598,7.8209 0.0609,12.4007c0.2242,1.425 0.5123,2.8977 0.8623,4.4102c-1.4594,0.4472 -2.8541,0.929 -4.1766,1.4431c-4.2582,1.6553 -7.92639,3.7064 -10.58635,6.1511c-2.65954,2.4443 -4.57232,5.5442 -4.57232,9.1888c0,3.6446 1.91278,6.7445 4.57232,9.1888c2.65996,2.4446 6.32815,4.4958 10.58635,6.1511c1.3225,0.5141 2.7172,0.9959 4.1764,1.443c-0.35,1.5126 -0.638,2.9853 -0.8623,4.4104c-0.7207,4.5798 -0.8098,8.8362 -0.0609,12.4006c0.7482,3.5616 2.4273,6.8014 5.5347,8.6279c3.11,1.8281 6.7122,1.6892 10.1225,0.5659c3.411,-1.1234 6.9899,-3.3323 10.5261,-6.2584c1.0955,-0.9064 2.1994,-1.8922 3.3063,-2.9518c1.1068,1.0596 2.2108,2.0453 3.3062,2.9518c3.5363,2.926 7.1152,5.135 10.5262,6.2584c3.4103,1.1232 7.0125,1.2621 10.1225,-0.5659c3.1074,-1.8266 4.7865,-5.0663 5.5347,-8.6279c0.7488,-3.5644 0.6598,-7.8209 -0.0609,-12.4006c-0.2243,-1.4252 -0.5123,-2.898 -0.8624,-4.4106c1.459,-0.4471 2.8534,-0.9288 4.1756,-1.4428c4.2583,-1.6553 7.9264,-3.7065 10.5864,-6.1511c2.6595,-2.4443 4.5723,-5.5442 4.5723,-9.1888c0,-3.6446 -1.9128,-6.7445 -4.5723,-9.1888c-2.66,-2.4447 -6.3281,-4.4958 -10.5864,-6.1511c-1.3223,-0.514 -2.7167,-0.9957 -4.1757,-1.4429c0.35,-1.5126 0.638,-2.9853 0.8623,-4.4104c0.7207,-4.5798 0.8098,-8.8363 0.0609,-12.4006c-0.7482,-3.5616 -2.4273,-6.80139 -5.5347,-8.62793c-3.11,-1.82806 -6.7122,-1.68915 -10.1225,-0.56593c-3.411,1.12344 -6.9899,3.33238 -10.5261,6.25846c-1.0954,0.9064 -2.1993,1.8921 -3.3061,2.9516z"/>
    <path fill="#FEFEFE" d="m27.51377,7.78739c1.1469,-0.6742 2.836,-0.8518 5.2496,-0.0569c2.4132,0.7949 5.2718,2.4838 8.3917,5.0654c1.0726,0.8875 2.1634,1.87 3.2645,2.9414c-2.4405,2.7235 -4.8659,5.7931 -7.2096,9.1485c-4.026,0.3887 -7.8498,0.9924 -11.3867,1.7823c-0.3609,-1.5064 -0.6512,-2.9595 -0.8699,-4.3489c-0.636,-4.0417 -0.6433,-7.4065 -0.1128,-9.9316c0.5306,-2.5255 1.5262,-3.926 2.6732,-4.6002zm16.8218,1.0244c1.1914,0.9859 2.3951,2.0709 3.6029,3.2479c1.2077,-1.177 2.4114,-2.262 3.6028,-3.2479c3.3996,-2.813 6.807,-4.90772 10.02,-5.96596c3.2127,-1.05812 6.51,-1.15818 9.3232,0.49543c2.8132,1.6536 4.3768,4.61083 5.083,7.97253c0.7063,3.362 0.6282,7.4137 -0.0648,11.8176c-0.2429,1.5435 -0.5641,3.1473 -0.9614,4.8007c1.605,0.4764 3.1297,0.9951 4.564,1.5526c4.0926,1.5909 7.5782,3.5479 10.0849,5.8517c2.5063,2.3035 4.2401,5.1607 4.2401,8.4679c0,3.3072 -1.7338,6.1644 -4.2401,8.4679c-2.5067,2.3038 -5.9923,4.2608 -10.0849,5.8517c-1.4343,0.5575 -2.9589,1.0761 -4.5638,1.5525c0.3973,1.6535 0.7184,3.2574 0.9613,4.8009c0.6931,4.4039 0.7712,8.4556 0.0649,11.8176c-0.7063,3.3617 -2.2698,6.3189 -5.083,7.9725c-2.8133,1.6536 -6.1105,1.5536 -9.3232,0.4954c-3.213,-1.0582 -6.6205,-3.153 -10.02,-5.966c-1.1915,-0.9859 -2.3952,-2.071 -3.6031,-3.248c-1.2078,1.177 -2.4115,2.2622 -3.603,3.2481c-3.3996,2.813 -6.807,4.9077 -10.02,5.9659c-3.2127,1.0582 -6.51,1.1582 -9.3232,-0.4954c-2.8132,-1.6536 -4.3767,-4.6108 -5.083,-7.9725c-0.7063,-3.362 -0.6282,-7.4137 0.0648,-11.8176c0.2429,-1.5434 0.5641,-3.1472 0.9614,-4.8006c-1.6052,-0.4765 -3.1301,-0.9952 -4.5646,-1.5528c-4.0926,-1.5909 -7.5782,-3.5479 -10.08488,-5.8517c-2.50639,-2.3035 -4.24015,-5.1607 -4.24015,-8.4679c0,-3.3072 1.73376,-6.1644 4.24015,-8.4679c2.50668,-2.3038 5.99228,-4.2608 10.08488,-5.8517c1.4345,-0.5576 2.9595,-1.0764 4.5647,-1.5528c-0.3972,-1.6534 -0.7184,-3.2571 -0.9613,-4.8005c-0.693,-4.4039 -0.7711,-8.4557 -0.0648,-11.8177c0.7062,-3.3616 2.2698,-6.31885 5.083,-7.97246c2.8132,-1.6536 6.1105,-1.55355 9.3231,-0.49543c3.213,1.05824 6.6205,3.15299 10.0201,5.96599zm-0.5272,15.6398c1.369,-1.793 2.7508,-3.4712 4.1301,-5.0229c1.3793,1.5517 2.7611,3.2299 4.13,5.023c-1.3614,-0.0489 -2.7392,-0.0739 -4.1305,-0.0739c-1.391,0 -2.7685,0.025 -4.1296,0.0738zm-16.6045,7.1648c2.0095,-0.4402 4.1279,-0.8195 6.3375,-1.1299c-0.7222,1.1758 -1.4322,2.378 -2.1278,3.6046c-0.6956,1.2265 -1.3631,2.4535 -2.0021,3.6781c-0.8408,-2.1035 -1.5774,-4.1608 -2.2076,-6.1528zm8.5768,5.0417c-1.3601,2.3984 -2.6028,4.7887 -3.7252,7.146c1.1225,2.3575 2.3652,4.7479 3.7254,7.1465c1.3601,2.3985 2.7721,4.6893 4.2161,6.8577c2.5664,0.189 5.2209,0.2885 7.941,0.2885c2.7205,0 5.3752,-0.0995 7.9419,-0.2886c1.444,-2.1683 2.856,-4.4591 4.2161,-6.8576c1.3602,-2.3986 2.6029,-4.789 3.7254,-7.1465c-1.1224,-2.3573 -2.3651,-4.7476 -3.7252,-7.146c-1.3602,-2.3985 -2.7721,-4.6893 -4.2162,-6.8577c-2.5667,-0.1891 -5.2215,-0.2886 -7.942,-0.2886c-2.7202,0 -5.3746,0.0995 -7.9411,0.2885c-1.4441,2.1684 -2.856,4.4593 -4.2162,6.8578zm-13.4764,-3.7848c1.0966,3.5135 2.495,7.1867 4.1773,10.9308c-1.6824,3.7443 -3.0808,7.4176 -4.1774,10.9312c-1.462,-0.4351 -2.8433,-0.9057 -4.1346,-1.4077c-3.756,-1.4601 -6.6219,-3.136 -8.5047,-4.8663c-1.88294,-1.7306 -2.5764,-3.3086 -2.5764,-4.657c0,-1.3484 0.69346,-2.9265 2.5764,-4.657c1.8828,-1.7303 4.7487,-3.4063 8.5047,-4.8663c1.2913,-0.502 2.6727,-0.9726 4.1347,-1.4077zm7.1072,16.9658c-0.8408,2.1036 -1.5775,4.161 -2.2077,6.153c2.0096,0.4403 4.128,0.8195 6.3378,1.1299c-0.7223,-1.1757 -1.4323,-2.3779 -2.1278,-3.6045c-0.6956,-1.2266 -1.3633,-2.4537 -2.0023,-3.6784zm-4.4582,15.4504c0.2186,-1.3895 0.509,-2.8426 0.8698,-4.3491c3.5371,0.79 7.3609,1.3937 11.387,1.7824c2.3437,3.3553 4.769,6.4249 7.2095,9.1484c-1.1011,1.0715 -2.192,2.054 -3.2646,2.9416c-3.12,2.5816 -5.9786,4.2705 -8.3918,5.0653c-2.4136,0.795 -4.1026,0.6174 -5.2496,-0.0568c-1.147,-0.6742 -2.1426,-2.0747 -2.6732,-4.6002c-0.5305,-2.5251 -0.5232,-5.89 0.1129,-9.9316zm29.7686,9.5233c-1.0726,-0.8876 -2.1635,-1.8701 -3.2646,-2.9416c2.4405,-2.7235 4.8658,-5.7931 7.2095,-9.1485c4.0261,-0.3888 7.8499,-0.9924 11.3869,-1.7824c0.3609,1.5065 0.6512,2.9596 0.8699,4.3492c0.636,4.0416 0.6434,7.4064 0.1129,9.9316c-0.5306,2.5255 -1.5262,3.9259 -2.6732,4.6001c-1.147,0.6742 -2.8361,0.8518 -5.2496,0.0569c-2.4133,-0.7948 -5.2718,-2.4837 -8.3918,-5.0653zm-6.7835,-6.6331c1.3793,-1.5516 2.7611,-3.2297 4.13,-5.0228c-1.3614,0.0489 -2.7391,0.0738 -4.1304,0.0738c-1.3909,0 -2.7684,-0.0249 -4.1295,-0.0738c1.3689,1.7931 2.7507,3.4712 4.1299,5.0228zm20.7347,-12.1878c-2.0096,0.4403 -4.128,0.8196 -6.3377,1.13c0.7222,-1.1757 1.4322,-2.3778 2.1277,-3.6043c0.6956,-1.2267 1.3633,-2.4538 2.0023,-3.6785c0.8408,2.1035 1.5774,4.1609 2.2077,6.1528zm4.8995,-1.2569c-1.0965,-3.5135 -2.4949,-7.1867 -4.1773,-10.9309c1.6823,-3.744 3.0807,-7.4172 4.1772,-10.9306c1.4618,0.435 2.8429,0.9056 4.134,1.4075c3.756,1.46 6.6219,3.136 8.5046,4.8663c1.883,1.7305 2.5765,3.3086 2.5765,4.657c0,1.3484 -0.6935,2.9264 -2.5765,4.657c-1.8827,1.7303 -4.7486,3.4062 -8.5046,4.8663c-1.2911,0.5019 -2.6722,0.9724 -4.1339,1.4074zm-14.9056,-29.8491c4.026,0.3887 7.8496,0.9924 11.3866,1.7824c0.3608,-1.5065 0.6512,-2.9596 0.8698,-4.3491c0.6361,-4.0417 0.6434,-7.4065 0.1129,-9.9316c-0.5306,-2.5255 -1.5262,-3.926 -2.6732,-4.6002c-1.147,-0.6742 -2.836,-0.8518 -5.2496,-0.0568c-2.4132,0.7948 -5.2718,2.4837 -8.3917,5.0653c-1.0726,0.8875 -2.1634,1.87 -3.2644,2.9414c2.4405,2.7236 4.8658,5.7932 7.2096,9.1486zm7.7984,12.8833c0.8407,-2.1034 1.5773,-4.1607 2.2075,-6.1526c-2.0094,-0.4403 -4.1277,-0.8195 -6.3373,-1.1299c0.7222,1.1757 1.4321,2.3778 2.1277,3.6044c0.6955,1.2265 1.3631,2.4535 2.0021,3.6781zm-10.4451,6.0351c0,4.5447 -3.6188,8.229 -8.0828,8.229c-4.464,0 -8.0828,-3.6843 -8.0828,-8.229c0,-4.5448 3.6188,-8.229 8.0828,-8.229c4.464,0 8.0828,3.6842 8.0828,8.229z" clip-rule="evenodd" fill-rule="evenodd"/>
   </g>
  </g>
 </g>
</svg>