<svg width="255" height="256" xmlns="http://www.w3.org/2000/svg">
 <g>
  <title>Layer 1</title>
  <g id="svg_5" stroke="null">
   <path fill="#666666" id="svg_1" d="m150.30707,127.78462c0,12.19857 -10.20137,22.08757 -22.78526,22.08757s-22.78526,-9.889 -22.78526,-22.08757s10.20137,-22.08757 22.78526,-22.08757s22.78526,9.889 22.78526,22.08757z" stroke="null"/>
   <path fill="#666666" id="svg_2" d="m127.51236,178.37524c-1.90035,0.04582 -4.14106,0.07332 -6.39122,0.07332c-26.5765,0 -52.20755,-3.89511 -76.32589,-11.12627l1.82471,0.46742c-12.77298,-3.99593 -23.84416,-9.889 -33.47826,-17.44093l0.19854,0.14664c-7.45957,-5.2332 -12.47989,-13.33503 -13.33079,-22.60997l-0.00945,-0.11914c0,-14.60896 16.51695,-28.90631 44.25635,-38.23624c23.74961,-7.57943 51.08247,-11.95112 79.46477,-11.95112c1.31417,0 2.62834,0.00916 3.94251,0.02749l-0.19854,0c1.09672,-0.01833 2.38252,-0.02749 3.67779,-0.02749c28.03249,0 55.02498,4.29837 80.32513,12.25356l-1.84362,-0.50408c12.33808,3.88594 23.04998,9.4949 32.45717,16.62525l-0.22691,-0.16497c7.32721,5.00407 12.27189,12.86761 13.10389,21.87678l0.00945,0.11914c0,15.17719 -18.47402,30.53767 -48.24613,40.08757c-22.3409,6.68126 -48.02868,10.53055 -74.64299,10.53055c-1.60726,0 -3.20506,-0.01833 -4.80287,-0.04582l0.23636,0l0,0.01833l0,-0.00002zm0,-90.18327c-1.00217,-0.01833 -2.19344,-0.01833 -3.3847,-0.01833c-27.23831,0 -53.47445,4.14256 -78.08442,11.81364l1.8058,-0.48575c-25.50814,8.62423 -36.94805,20.41955 -36.94805,28.29225c0,8.18432 12.30026,21.07942 39.26439,30.0061c21.26309,6.38798 45.70288,10.07229 71.03139,10.07229c2.2218,0 4.43414,-0.02749 6.63703,-0.08248l-0.32145,0.00916c1.38035,0.02749 3.00652,0.04582 4.63269,0.04582c25.37578,0 49.86284,-3.66599 72.94119,-10.47556l-1.76798,0.44909c27.98521,-9.01833 40.84328,-21.91344 40.84328,-30.06109c-0.96436,-5.84725 -4.36796,-10.778 -9.13301,-13.88492l-0.07564,-0.04582c-8.18757,-6.17719 -17.73657,-11.15376 -28.07976,-14.42566l-0.66181,-0.1833c-22.38817,-7.02036 -48.15158,-11.07128 -74.87935,-11.07128c-1.34253,0 -2.67561,0.00916 -4.00869,0.02749l0.19854,0l-0.00945,0.01833l0,0.00002z" stroke="null"/>
   <path fill="#666666" id="svg_3" d="m75.81535,237.8742c-0.15127,0 -0.33091,0.00916 -0.50109,0.00916c-4.28287,0 -8.30102,-1.09063 -11.77081,-2.99694l0.12291,0.06415c-13.02825,-7.33197 -17.56639,-28.33808 -12.10171,-56.28206c6.58976,-28.66802 17.27331,-54.01831 31.61573,-76.98572l-0.65236,1.13646c14.17224,-24.33299 31.29428,-45.14662 51.29047,-62.98165l0.18909,-0.16497c8.72647,-7.73523 18.93729,-14.08655 30.13138,-18.58655l0.69018,-0.24746c3.84797,-1.79633 8.3672,-2.84114 13.1417,-2.84114c4.73669,0 9.22756,1.03564 13.23625,2.8778l-0.18909,-0.07332c13.56716,7.57026 18.06748,30.79429 11.70463,60.54377c-6.80721,27.19246 -17.18822,51.14051 -30.84046,72.94397l0.66181,-1.12729c-13.72788,24.10386 -30.33937,44.74337 -49.78721,62.4959l-0.13236,0.11914c-9.05738,8.03767 -19.69365,14.5723 -31.39827,19.08146l-0.69963,0.23829c-4.34905,1.65886 -9.37883,2.67617 -14.64496,2.79532l-0.05673,0l-0.00945,-0.01833l-0.00002,0.00001zm11.39263,-132.40627l4.71778,2.63951c-13.05661,20.89612 -23.30525,45.14662 -29.36557,70.93684l-0.32145,1.6497c-5.03923,25.74439 -0.17963,41.22402 6.80721,45.14662c1.8058,0.93482 3.94251,1.47556 6.21158,1.47556c0.18909,0 0.38763,0 0.57672,-0.00916l-0.02836,0c9.02901,0 23.23907,-5.54481 39.67093,-19.44806c18.68202,-17.11099 34.54661,-36.87066 47.00759,-58.69244l0.6429,-1.23727c12.46098,-19.75966 22.41653,-42.64459 28.59975,-66.96841l0.35927,-1.66803c5.94686,-28.02647 0.81308,-45.18328 -6.48576,-49.28919c-2.25016,-0.86151 -4.85959,-1.35642 -7.58248,-1.35642c-3.44142,0 -6.69376,0.79735 -9.56792,2.19959l0.12291,-0.05499c-10.57009,4.26171 -19.64638,9.95315 -27.48413,16.91853l0.06618,-0.05499c-19.29656,17.2393 -35.66224,37.18227 -48.55813,59.279l-0.65236,1.20977l-4.73669,-2.67617l0.00003,0.00002l0,-0.00001z" stroke="null"/>
   <path fill="#666666" id="svg_4" d="m179.21882,238.00251c-12.34753,0 -27.98521,-7.21283 -44.34144,-20.85946c-20.56346,-18.17413 -37.97858,-39.24439 -51.65919,-62.63338l-0.68072,-1.2556c-13.51988,-21.5285 -24.11834,-46.51221 -30.3961,-73.0906l-0.34036,-1.69552c-1.53162,-6.49796 -2.41089,-13.94908 -2.41089,-21.60183c0,-4.82994 0.34982,-9.56823 1.02108,-14.21486l-0.06618,0.53157c0.80363,-9.14663 5.74831,-17.02851 12.97152,-21.98675l0.09454,-0.06415c13.51988,-7.60692 36.5415,0.21996 59.96021,20.41955c19.11693,17.54175 35.43533,37.69551 48.38795,59.93888l0.68072,1.26476c13.50097,21.05193 24.17506,45.4674 30.65137,71.46841l0.35927,1.70469c1.54108,6.49796 2.4298,13.96741 2.4298,21.62932c0,5.28819 -0.416,10.47556 -1.22908,15.54378l0.07564,-0.56823c-0.97381,9.3666 -6.08867,17.4226 -13.51043,22.50916l-0.104,0.06415c-3.29015,1.82383 -7.22321,2.89613 -11.41154,2.89613c-0.17018,0 -0.34036,0 -0.51054,-0.00916l0.02836,0l0,0.00916l0.00001,-0.00001l0,-0.00001zm-87.24579,-90.02746c13.78461,23.56312 30.41501,43.72605 49.83448,61.00202l0.18909,0.16497c20.47837,17.07433 36.72114,20.76782 43.75526,16.80855c7.3083,-4.08758 12.65953,-20.85946 7.12867,-47.96027c-6.63703,-26.48675 -16.89513,-49.80243 -30.43392,-70.946l0.61454,1.02648c-13.03771,-22.50916 -28.61866,-41.81058 -46.78069,-58.50915l-0.11345,-0.10081c-22.06672,-19.00814 -39.94511,-23.27901 -47.25341,-19.19144c-4.47196,3.52851 -7.4123,8.72505 -7.79993,14.59979l0,0.06415c-0.52,3.57433 -0.81308,7.69857 -0.81308,11.89613c0,6.93788 0.81308,13.6833 2.34471,20.17209l-0.12291,-0.60489c6.36285,27.05498 16.51695,50.94805 30.0841,72.6232l-0.62399,-1.0723l-0.00945,0.02749l-0.00002,0l0,-0.00001z" stroke="null"/>
  </g>
 </g>

</svg>