<svg width="512" height="512" xmlns="http://www.w3.org/2000/svg" enable-background="new 0 0 128 128">
 <g>
  <title>Layer 1</title>
  <g stroke="null" fill="#61DAFB" id="svg_1">
   <circle stroke="null" cx="255.49997" cy="367.10002" r="10.20596" id="svg_2"/>
   <path stroke="null" d="m384.56994,318.368c-6.55783,-2.0737 -13.41375,-4.1474 -20.56774,-5.96189c1.78851,-6.2211 3.27893,-12.44221 4.47125,-18.40412c6.25975,-34.21608 -0.59616,-58.32291 -19.67347,-67.65455c-5.6636,-2.85135 -11.92332,-4.1474 -19.07731,-4.1474c-20.86582,0 -47.3952,13.47907 -74.22269,36.03057c-26.82746,-22.55153 -53.35688,-36.03057 -74.22269,-36.03057c-7.15399,0 -13.41375,1.29608 -19.07731,4.1474c-19.07731,9.59086 -25.93322,33.69768 -19.67347,67.65455c1.19232,5.96189 2.68274,12.18302 4.47125,18.40412c-7.15399,1.81449 -14.0099,3.629 -20.56774,5.96189c-37.26039,12.44221 -57.53002,29.55028 -57.53002,48.73202s20.56774,36.28979 57.53002,48.73202c6.55783,2.0737 13.41375,4.1474 20.56774,5.96189c-1.78851,6.2211 -3.27893,12.44221 -4.47125,18.40412c-6.25975,34.21608 0.59616,58.32291 19.67347,67.65455c5.6636,2.85135 11.92332,4.1474 19.07731,4.1474c21.1639,0 47.69328,-13.47907 74.22269,-36.03057c26.82746,22.55153 53.35688,36.03057 74.22269,36.03057c7.15399,0 13.41375,-1.29608 19.07731,-4.1474c19.07731,-9.59086 25.93322,-33.69768 19.67347,-67.65455c-1.19232,-5.96189 -2.68274,-12.18302 -4.47125,-18.40412c7.15399,-1.81449 14.0099,-3.629 20.56774,-5.96189c37.26039,-12.44221 57.53002,-29.55028 57.53002,-48.73202s-20.26966,-36.28979 -57.53002,-48.73202zm-44.1163,-79.05992c12.2214,6.2211 16.39457,25.40287 11.32716,52.62021c-0.89427,5.44348 -2.38466,11.14615 -4.17317,17.10804c-15.50033,-3.11057 -31.8949,-5.18424 -49.18371,-6.48032c-10.13481,-12.44221 -20.56774,-23.58836 -31.00063,-33.69768c22.05813,-18.92253 44.41438,-31.88319 62.59745,-31.88319c3.87509,0 7.45207,0.77765 10.43289,2.33292l0,0l0,-0.00003l0,0.00006zm-33.3853,153.71322c-5.36549,8.2948 -11.62524,16.58964 -18.18307,24.88444c-11.02908,0.77765 -22.05813,1.03686 -33.3853,1.03686c-11.62524,0 -22.65432,-0.25922 -33.3853,-1.03686c-6.55783,-8.2948 -12.51951,-16.58964 -17.885,-24.88444c-5.6636,-8.55402 -11.02908,-17.36726 -15.79841,-25.92131c4.76933,-8.55402 10.13481,-17.36726 15.79841,-25.92131c5.36549,-8.2948 11.62524,-16.58964 18.18307,-24.88444c11.02908,-0.77765 22.05813,-1.03686 33.3853,-1.03686c11.62524,0 22.65432,0.25922 33.3853,1.03686c6.55783,8.2948 12.51951,16.58964 17.885,24.88444c5.6636,8.55402 11.02908,17.36726 15.79841,25.92131c-5.06741,8.55402 -10.13481,17.10804 -15.79841,25.92131zm24.74091,-8.55402c4.47125,9.07245 8.04823,17.88569 11.32716,26.69893c-10.13481,2.0737 -20.86582,3.629 -32.19295,4.92505c3.57698,-4.92505 7.45207,-10.10929 10.73097,-15.55277c3.57698,-5.44348 6.85591,-10.88694 10.13481,-16.07121l0,0zm-76.30925,70.24668c-7.15399,-6.73954 -14.0099,-13.9975 -20.56774,-21.51466c6.85591,0.25922 13.71183,0.51843 20.56774,0.51843c6.85591,0 13.71183,-0.25922 20.56774,-0.51843c-6.55783,7.51718 -13.41375,14.77512 -20.56774,21.51466zm-55.44343,-38.88192c-11.32716,-1.29608 -22.05813,-2.85135 -32.19295,-4.92505c3.27893,-8.55402 6.85591,-17.62647 11.32716,-26.69893c3.27893,5.18424 6.55783,10.62772 10.13481,15.81199c3.57698,5.70267 7.15399,10.62772 10.73097,15.81199l0,0l0,0zm-20.86582,-66.09928c-4.47125,-9.07245 -8.04823,-17.88569 -11.32716,-26.69893c10.13481,-2.0737 20.86582,-3.629 32.19295,-4.92505c-3.57698,4.92505 -7.45207,10.10929 -10.73097,15.55277c-3.57698,5.44348 -6.85591,10.88694 -10.13481,16.07121l0,0zm76.30925,-70.24668c7.15399,6.73954 14.0099,13.9975 20.56774,21.51466c-6.85591,-0.25922 -13.71183,-0.51843 -20.56774,-0.51843c-6.85591,0 -13.71183,0.25922 -20.56774,0.51843c6.55783,-7.51718 13.41375,-14.77512 20.56774,-21.51466zm66.17443,54.43469l-10.73097,-15.55277c11.32716,1.29608 22.05813,2.85135 32.19295,4.92505c-3.27893,8.55402 -6.85591,17.62647 -11.32716,26.69893c-3.27893,-5.44348 -6.55783,-10.88694 -10.13481,-16.07121l0,0zm-162.45526,-41.99248c-5.06741,-27.21736 -0.89427,-46.3991 11.32716,-52.62021c2.98082,-1.55527 6.55783,-2.33292 10.43289,-2.33292c17.885,0 40.24121,12.70142 62.59745,31.88319c-10.43289,9.8501 -20.86582,21.25544 -31.00063,33.69768c-17.28881,1.29608 -33.68338,3.629 -49.18371,6.48032c-1.78851,-5.96189 -2.98082,-11.66459 -4.17317,-17.10804l0,0l0,0.00003l0,-0.00006zm-73.62651,75.17173c0,-12.18302 16.99073,-25.14363 46.79904,-34.73452c5.96165,-2.0737 12.51951,-3.88819 19.07731,-5.44348c4.76933,12.96064 10.73097,26.69893 17.885,40.43722c-7.15399,13.73829 -13.41375,27.21736 -17.885,40.178c-41.13548,-10.36853 -65.87635,-25.92131 -65.87635,-40.43722zm84.95367,127.79194c-12.2214,-6.2211 -16.39457,-25.40287 -11.32716,-52.62021c0.89427,-5.44348 2.38466,-11.14615 4.17317,-17.10804c15.50033,3.11057 31.8949,5.18424 49.18371,6.48032c10.13481,12.44221 20.56774,23.58836 31.00063,33.69768c-22.05813,18.92253 -44.41438,31.88319 -62.59745,31.88319c-3.87509,0 -7.45207,-0.77765 -10.43289,-2.33292l0,0l0,0.00003l0,-0.00006zm181.2345,-52.62021c5.06741,27.21736 0.89427,46.3991 -11.32716,52.62021c-2.98082,1.55527 -6.55783,2.33292 -10.43289,2.33292c-17.885,0 -40.24121,-12.70142 -62.59745,-31.88319c10.43289,-9.8501 20.86582,-21.25544 31.00063,-33.69768c17.28881,-1.29608 33.68338,-3.629 49.18371,-6.48032c1.78851,5.96189 2.98082,11.66459 4.17317,17.10804l0,0l0,-0.00003l0,0.00006zm26.82746,-40.43722c-5.96165,2.0737 -12.51951,3.88819 -19.07731,5.44348c-4.76933,-12.96064 -10.73097,-26.69893 -17.885,-40.43722c7.15399,-13.73829 13.41375,-27.21736 17.885,-40.178c41.13548,10.36853 65.87635,25.92131 65.87635,40.43722c0,12.18302 -17.28881,25.14363 -46.79904,34.73452z" id="svg_3"/>
  </g>
  <g stroke="null" id="svg_6">
   <title stroke="null">Angular</title>
   <g stroke="null" id="svg_7">
    <title stroke="null">Layer 1</title>
    <path stroke="null" id="svg_4" fill="url(#svg_5)" d="m399.5,41.84427l-10.36331,134.44464l-99.08536,-176.28889l109.44867,41.84425l0,0zm-68.62995,173.84392l-74.8694,35.29301l-74.87069,-35.29301l15.22769,-30.48848l119.28471,0l15.22769,30.48848zm-74.8694,-148.77176l39.2317,78.7975l-78.4647,0l39.23302,-78.7975l-0.00002,0zm-133.24331,109.37246l-10.25733,-134.44464l109.44867,-41.84425l-99.19134,176.28889l0,0z"/>
   </g>
  </g>
 </g>
 <defs>
  <linearGradient id="svg_5" y2="55.1837089%" x2="96.1321855%" y1="90.9292007%" x1="25.0714876%">
   <stop offset="0%" stop-color="#E40035"/>
   <stop offset="24%" stop-color="#F60A48"/>
   <stop offset="35.2%" stop-color="#F20755"/>
   <stop offset="49.4%" stop-color="#DC087D"/>
   <stop offset="74.5%" stop-color="#9717E7"/>
   <stop offset="100%" stop-color="#6C00F5"/>
  </linearGradient>
 </defs>
</svg>