<svg width="200" height="125" xmlns="http://www.w3.org/2000/svg" enable-background="new 0 0 128 128">
 <g>
  <title>Layer 1</title>
  <g opacity="0.5" stroke="null" id="svg_6">
   <title stroke="null">Angular</title>
   <g stroke="null" id="svg_7">
    <title stroke="null">Layer 1</title>
    <path stroke="null" id="svg_4" fill="url(#svg_5)" d="m199.04999,21.17988l-4.33309,66.41377l-41.42942,-87.08424l45.76252,20.67047l0,0l-0.00001,0zm-28.69545,85.87646l-31.30428,17.43425l-31.30482,-17.43425l6.36698,-15.06088l49.87515,0l6.36698,15.06088l-0.00001,0zm-31.30428,-73.49116l16.4035,38.92486l-32.80755,0l16.40405,-38.92486l-0.00001,0l0,0l0.00001,0zm-55.71149,54.02846l-4.28878,-66.41377l45.76252,-20.67047l-41.47373,87.08424l0,0l-0.00001,0z"/>
   </g>
  </g>
  <path fill="#087EA4" id="svg_8" d="m-36.17897,321.39355c10.67031,0 19.32029,-8.89016 19.32029,-19.85689c0,-10.96672 -8.64998,-19.85688 -19.32029,-19.85688c-10.67015,0 -19.32014,8.89016 -19.32014,19.85688c0,10.96673 8.64999,19.85689 19.32014,19.85689z"/>
  <path stroke="null" fill="#087EA4" id="Shape" d="m136.71555,62.50154c0,-10.12597 -9.52207,-19.01634 -24.67437,-24.84952c2.44911,-15.87099 -0.60213,-28.45221 -9.5049,-33.5152c-7.95057,-4.52539 -18.96102,-2.31083 -31.005,6.24245c-1.06606,0.75424 -2.12393,1.55667 -3.18192,2.3911c-1.04979,-0.83444 -2.10767,-1.63686 -3.16553,-2.3911c-12.04398,-8.55328 -23.05442,-10.77586 -31.00511,-6.24245c-8.89459,5.06298 -11.94628,17.63613 -9.48864,33.49105c-15.16885,5.84127 -24.69008,14.73961 -24.69008,24.87367c0,10.12597 9.52123,19.01623 24.67381,24.84952c-2.44944,15.87088 0.60224,28.45241 9.5049,33.51506c2.69364,1.53286 5.74533,2.29486 9.06554,2.29486c6.4696,0 13.98069,-2.88851 21.93957,-8.53706c1.06594,-0.75425 2.12393,-1.55723 3.1818,-2.39122c1.04979,0.83399 2.10766,1.63697 3.16565,2.39122c7.95876,5.6563 15.46997,8.53706 21.93946,8.53706c3.32021,0 6.3719,-0.76199 9.06554,-2.29486c7.95068,-4.52548 11.50646,-15.03644 10.01797,-29.59951c-0.13011,-1.28377 -0.30173,-2.5836 -0.51306,-3.90757c15.16128,-5.83329 24.67437,-14.72356 24.67437,-24.8575zm-61.37578,-46.91486c6.77066,-4.80625 13.06931,-7.30962 18.13097,-7.30962c2.1891,0 4.14219,0.46539 5.81038,1.4122c5.82676,3.32179 8.31693,12.84602 6.53466,25.82838c-5.85917,-1.7732 -12.34504,-3.12919 -19.31907,-3.99585c-4.17472,-5.41596 -8.60172,-10.3024 -13.13449,-14.47479c0.65922,-0.49741 1.31833,-0.99492 1.97755,-1.46032zm-37.90589,-5.89742c1.66829,-0.94681 3.62128,-1.4122 5.81038,-1.4122c5.06176,0 11.36041,2.49539 18.13108,7.30962c0.65911,0.46539 1.31821,0.95482 1.97743,1.46032c-4.53277,4.1724 -8.95157,9.05086 -13.1263,14.46682c-6.96595,0.86656 -13.45989,2.23063 -19.31907,3.99585c-1.78226,-12.97439 0.69982,-22.49861 6.52647,-25.82041zm-30.92364,52.81228c0,-6.63572 7.12867,-13.52805 19.42492,-18.49479c1.37531,5.88147 3.426,12.09986 6.1359,18.47873c-2.72617,6.38685 -4.77685,12.61332 -6.15217,18.50276c-12.27998,-4.96673 -19.40865,-11.8511 -19.40865,-18.4867zm54.8651,46.91464c-9.70031,6.88459 -18.42407,9.03436 -23.94146,5.89775c-5.82665,-3.32156 -8.31681,-12.84613 -6.53466,-25.8286c5.85917,1.77331 12.34504,3.1293 19.31918,3.99585c4.17461,5.41597 8.60161,10.30251 13.13438,14.4748c-0.65922,0.50549 -1.31833,0.99491 -1.97743,1.4602zm6.98221,-5.64058c-8.13779,-7.34976 -15.95824,-17.17081 -22.55807,-28.43613c-1.76588,-3.0089 -5.33613,-10.57209 -6.78469,-13.5007c-1.15557,2.72803 -2.297,5.23067 -3.19223,7.89445c0.73247,1.34004 3.55622,7.46772 4.33748,8.80776c1.54614,2.63975 3.16565,5.20741 4.83383,7.69476c-4.67926,-0.8104 -9.00856,-1.8535 -12.94727,-3.08112c2.23789,-9.96548 6.70561,-21.45551 13.75288,-33.49114c1.73335,-2.96072 5.49933,-9.57152 7.38737,-12.31561c-2.97844,0.37712 -5.37034,0.2523 -8.16975,0.82192c-0.81379,1.29983 -4.07579,6.95226 -4.85705,8.29229c-1.56252,2.66379 -2.9947,5.32769 -4.33748,7.97553c-1.62758,-4.40498 -2.87266,-8.62545 -3.75958,-12.60524c9.87114,-3.07314 22.19992,-5.00683 36.29457,-5.00683c3.52358,0 10.88257,-0.07044 14.17026,0.16225c-1.81467,-2.35101 -3.37103,-4.47907 -5.26715,-6.58122c-1.53806,-0.04818 -7.33251,0 -8.90312,0c-3.10867,0 -6.15216,0.10422 -9.13878,0.28076c2.96217,-3.4743 6.03012,-6.65166 9.13878,-9.45999c8.1296,7.34976 15.95824,17.17081 22.55796,28.43613c1.73336,2.96084 5.47859,9.85318 6.95148,12.83805c1.16365,-2.72814 2.26459,-5.21616 3.16789,-7.89612c-0.73246,-1.3479 -3.69868,-6.81946 -4.47994,-8.15141c-1.54614,-2.63976 -3.16553,-5.20741 -4.83383,-7.68668c4.67926,0.8104 9.00856,1.85339 12.94727,3.08112c-2.23789,9.96548 -6.70561,21.45541 -13.75288,33.49102c-1.73335,2.96073 -6.66645,9.74087 -8.55438,12.48496c2.97844,-0.37712 6.20398,-0.94087 9.00339,-1.51049c0.81379,-1.29983 4.40928,-6.43303 5.19042,-7.77295c1.55433,-2.64785 2.98663,-5.29569 4.31303,-7.93555c1.57878,4.2847 2.83205,8.49719 3.74343,12.57322c-9.86307,3.07314 -22.17546,4.99886 -36.25386,4.99886c-3.52369,0 -11.71633,-0.45709 -15.00401,-0.68979c1.81479,2.3509 3.76934,4.79861 5.66534,6.90087c1.53807,0.04807 7.76808,0.20789 9.33867,0.20789c3.10856,0 6.15216,-0.10433 9.13868,-0.28088c-2.97025,3.4743 -6.03012,6.65166 -9.13868,9.45999zm30.92356,11.53833c-5.51739,3.14547 -14.24923,0.99459 -23.94134,-5.89775c-0.65922,-0.46529 -1.31833,-0.95471 -1.97755,-1.4602c4.53277,-4.17229 8.95157,-9.05075 13.1263,-14.46683c6.95787,-0.86655 13.43555,-2.22254 19.28665,-3.98776c0.11385,0.8104 0.22781,1.6208 0.30914,2.41514c1.19629,11.73071 -1.28568,20.25194 -6.80319,23.3974zm11.51498,-34.3177c-1.39965,-5.96963 -3.47479,-12.18802 -6.15216,-18.47065c2.72617,-6.38685 4.77696,-12.61332 6.15216,-18.50276c12.27965,4.96674 19.40914,11.84301 19.40914,18.47873c0,6.6356 -7.12052,13.51997 -19.40914,18.49468z"/>
 </g>
 <defs>
  <linearGradient id="svg_5" y2="55.1837089%" x2="96.1321855%" y1="90.9292007%" x1="25.0714876%">
   <stop offset="0%" stop-color="#E40035"/>
   <stop offset="24%" stop-color="#F60A48"/>
   <stop offset="35.2%" stop-color="#F20755"/>
   <stop offset="49.4%" stop-color="#DC087D"/>
   <stop offset="74.5%" stop-color="#9717E7"/>
   <stop offset="100%" stop-color="#6C00F5"/>
  </linearGradient>
 </defs>
</svg>