<svg width="255" height="256" xmlns="http://www.w3.org/2000/svg">

 <g>
  <title>Layer 1</title>
  <g stroke="null" id="svg_5">
   <path stroke="null" id="svg_1" d="m150.30707,127.75189c0,14.19465 -10.20137,25.70182 -22.78526,25.70182s-22.78526,-11.50716 -22.78526,-25.70182s10.20137,-25.70182 22.78526,-25.70182s22.78526,11.50716 22.78526,25.70182z"/>
   <path stroke="null" id="svg_2" d="m127.51236,186.62078c-1.90035,0.05332 -4.14106,0.08532 -6.39122,0.08532c-26.5765,0 -52.20755,-4.53248 -76.32589,-12.94689l1.82471,0.5439c-12.77298,-4.64979 -23.84416,-11.50716 -33.47826,-20.29484l0.19854,0.17063c-7.45957,-6.08952 -12.47989,-15.51707 -13.33079,-26.3097l-0.00945,-0.13864c0,-16.99946 16.51695,-33.63632 44.25635,-44.49294c23.74961,-8.81967 51.08247,-13.90671 79.46477,-13.90671c1.31417,0 2.62834,0.01066 3.94251,0.03199l-0.19854,0c1.09672,-0.02133 2.38252,-0.03199 3.67779,-0.03199c28.03249,0 55.02498,5.00172 80.32513,14.25864l-1.84362,-0.58656c12.33808,4.52181 23.04998,11.04858 32.45717,19.34568l-0.22691,-0.19196c7.32721,5.8229 12.27189,14.97317 13.10389,25.45653l0.00945,0.13864c0,17.66067 -18.47402,35.53463 -48.24613,46.6472c-22.3409,7.77453 -48.02868,12.25369 -74.64299,12.25369c-1.60726,0 -3.20506,-0.02133 -4.80287,-0.05332l0.23636,0l0,0.02133zm0,-104.94019c-1.00217,-0.02133 -2.19344,-0.02133 -3.3847,-0.02133c-27.23831,0 -53.47445,4.82042 -78.08442,13.74674l1.8058,-0.56523c-25.50814,10.03544 -36.94805,23.76085 -36.94805,32.92179c0,9.52354 12.30026,24.5287 39.26439,34.91608c21.26309,7.43326 45.70288,11.72045 71.03139,11.72045c2.2218,0 4.43414,-0.03199 6.63703,-0.09598l-0.32145,0.01066c1.38035,0.03199 3.00652,0.05332 4.63269,0.05332c25.37578,0 49.86284,-4.26586 72.94119,-12.1897l-1.76798,0.52257c27.98521,-10.49402 40.84328,-25.49919 40.84328,-34.98006c-0.96436,-6.80405 -4.36796,-12.54163 -9.13301,-16.15695l-0.07564,-0.05332c-8.18757,-7.18798 -17.73657,-12.97888 -28.07976,-16.78617l-0.66181,-0.21329c-22.38817,-8.16912 -48.15158,-12.8829 -74.87935,-12.8829c-1.34253,0 -2.67561,0.01066 -4.00869,0.03199l0.19854,0l-0.00945,0.02133z"/>
   <path stroke="null" id="svg_3" d="m75.81535,255.85571c-0.15127,0 -0.33091,0.01066 -0.50109,0.01066c-4.28287,0 -8.30102,-1.26909 -11.77081,-3.48734l0.12291,0.07465c-13.02825,-8.53172 -17.56639,-32.97511 -12.10171,-65.49164c6.58976,-33.35904 17.27331,-62.85747 31.61573,-89.58309l-0.65236,1.32242c14.17224,-28.31466 31.29428,-52.53408 51.29047,-73.2875l0.18909,-0.19196c8.72647,-9.00097 18.93729,-16.39157 30.13138,-21.62792l0.69018,-0.28795c3.84797,-2.09027 8.3672,-3.30604 13.1417,-3.30604c4.73669,0 9.22756,1.20511 13.23625,3.3487l-0.18909,-0.08532c13.56716,8.809 18.06748,35.83324 11.70463,70.4507c-6.80721,31.64203 -17.18822,59.50877 -30.84046,84.87998l0.66181,-1.31175c-13.72788,28.04804 -30.33937,52.06484 -49.78721,72.72227l-0.13236,0.13864c-9.05738,9.3529 -19.69365,16.9568 -31.39827,22.20381l-0.69963,0.27728c-4.34905,1.9303 -9.37883,3.11408 -14.64496,3.25272l-0.05673,0l-0.00945,-0.02133zm11.39263,-154.07225l4.71778,3.07142c-13.05661,24.31541 -23.30525,52.53408 -29.36557,82.54442l-0.32145,1.91964c-5.03923,29.95701 -0.17963,47.96961 6.80721,52.53408c1.8058,1.08779 3.94251,1.71701 6.21158,1.71701c0.18909,0 0.38763,0 0.57672,-0.01066l-0.02836,0c9.02901,0 23.23907,-6.45212 39.67093,-22.6304c18.68202,-19.91091 34.54661,-42.9039 47.00759,-68.29644l0.6429,-1.43973c12.46098,-22.99299 22.41653,-49.62263 28.59975,-77.92663l0.35927,-1.94097c5.94686,-32.61251 0.81308,-52.57674 -6.48576,-57.35451c-2.25016,-1.00248 -4.85959,-1.57837 -7.58248,-1.57837c-3.44142,0 -6.69376,0.92782 -9.56792,2.55952l0.12291,-0.06399c-10.57009,4.95906 -19.64638,11.58181 -27.48413,19.68695l0.06618,-0.06399c-19.29656,20.06021 -35.66224,43.2665 -48.55813,68.97898l-0.65236,1.40773l-4.73669,-3.11408z"/>
   <path stroke="null" id="svg_4" d="m179.21882,256.00501c-12.34753,0 -27.98521,-8.39308 -44.34144,-24.27275c-20.56346,-21.14801 -37.97858,-45.66605 -51.65919,-72.88224l-0.68072,-1.46106c-13.51988,-25.05127 -24.11834,-54.12312 -30.3961,-85.05061l-0.34036,-1.97296c-1.53162,-7.56124 -2.41089,-16.2316 -2.41089,-25.13659c0,-5.62027 0.34982,-11.1339 1.02108,-16.54088l-0.06618,0.61855c0.80363,-10.64332 5.74831,-19.81493 12.97152,-25.5845l0.09454,-0.07465c13.51988,-8.85166 36.5415,0.25595 59.96021,23.76085c19.11693,20.41215 35.43533,43.86372 48.38795,69.74684l0.68072,1.47172c13.50097,24.49671 24.17506,52.90735 30.65137,83.16297l0.35927,1.98363c1.54108,7.56124 2.4298,16.25293 2.4298,25.16858c0,6.15351 -0.416,12.1897 -1.22908,18.08725l0.07564,-0.66121c-0.97381,10.89928 -6.08867,20.27351 -13.51043,26.19239l-0.104,0.07465c-3.29015,2.12227 -7.22321,3.37003 -11.41154,3.37003c-0.17018,0 -0.34036,0 -0.51054,-0.01066l0.02836,0l0,0.01066zm-87.24579,-104.75889c13.78461,27.41882 30.41501,50.88106 49.83448,70.98394l0.18909,0.19196c20.47837,19.86825 36.72114,24.16611 43.75526,19.55898c7.3083,-4.75644 12.65953,-24.27275 7.12867,-55.80813c-6.63703,-30.82085 -16.89513,-57.95173 -30.43392,-82.55508l0.61454,1.19444c-13.03771,-26.19239 -28.61866,-48.65215 -46.78069,-68.08315l-0.11345,-0.11731c-22.06672,-22.11849 -39.94511,-27.08822 -47.25341,-22.33179c-4.47196,4.10589 -7.4123,10.15275 -7.79993,16.98879l0,0.07465c-0.52,4.15921 -0.81308,8.95831 -0.81308,13.84272c0,8.07314 0.81308,15.92233 2.34471,23.4729l-0.12291,-0.70387c6.36285,31.48206 16.51695,59.28481 30.0841,84.50672l-0.62399,-1.24776l-0.00945,0.03199z"/>
  </g>
 </g>
</svg>