<svg width="256" height="256" xmlns="http://www.w3.org/2000/svg" enable-background="new 0 0 128 128">
 <g>
  <title>Layer 1</title>
  <g stroke="null" id="svg_1" fill="#61DAFB">
   <circle stroke="null" id="svg_2" r="9.40872" cy="128" cx="63"/>
   <path stroke="null" id="svg_3" d="m105.95415,110.3771c-2.18243,-0.74991 -4.46406,-1.49982 -6.84489,-2.15599c0.59521,-2.24973 1.09122,-4.49946 1.48802,-6.65546c2.08323,-12.37352 -0.1984,-21.09124 -6.54728,-24.46583c-1.88483,-1.03113 -3.96805,-1.49982 -6.34888,-1.49982c-6.94409,0 -15.773,4.87442 -24.70112,13.02969c-8.92811,-8.15528 -17.75703,-13.02969 -24.70112,-13.02969c-2.38083,0 -4.46406,0.4687 -6.34888,1.49982c-6.34888,3.46833 -8.63051,12.18605 -6.54728,24.46583c0.3968,2.15599 0.89281,4.40573 1.48802,6.65546c-2.38083,0.65617 -4.66246,1.31235 -6.84489,2.15599c-12.40016,4.49946 -19.14584,10.68623 -19.14584,17.6229s6.84489,13.12343 19.14584,17.6229c2.18243,0.74991 4.46406,1.49982 6.84489,2.15599c-0.59521,2.24973 -1.09122,4.49946 -1.48802,6.65546c-2.08323,12.37352 0.1984,21.09124 6.54728,24.46583c1.88483,1.03113 3.96805,1.49982 6.34888,1.49982c7.04329,0 15.8722,-4.87442 24.70112,-13.02969c8.92811,8.15528 17.75703,13.02969 24.70112,13.02969c2.38083,0 4.46406,-0.4687 6.34888,-1.49982c6.34888,-3.46833 8.63051,-12.18605 6.54728,-24.46583c-0.3968,-2.15599 -0.89281,-4.40573 -1.48802,-6.65546c2.38083,-0.65617 4.66246,-1.31235 6.84489,-2.15599c12.40016,-4.49946 19.14584,-10.68623 19.14584,-17.6229s-6.74569,-13.12343 -19.14584,-17.6229zm-14.68179,-28.59034c4.06725,2.24973 5.45607,9.18641 3.76965,19.02898c-0.29761,1.96852 -0.79361,4.03077 -1.38882,6.18676c-5.15847,-1.12487 -10.61454,-1.87477 -16.36821,-2.34347c-3.37284,-4.49946 -6.84489,-8.53023 -10.31693,-12.18605c7.34089,-6.84293 14.78099,-11.52988 20.83227,-11.52988c1.28962,0 2.48003,0.28122 3.47204,0.84365l0,0l0,-0.00001zm-11.11054,55.58712c-1.78562,2.99964 -3.86885,5.99929 -6.05128,8.99893c-3.67045,0.28122 -7.34089,0.37496 -11.11054,0.37496c-3.86885,0 -7.5393,-0.09374 -11.11054,-0.37496c-2.18243,-2.99964 -4.16646,-5.99929 -5.95208,-8.99893c-1.88483,-3.09338 -3.67045,-6.2805 -5.25767,-9.37389c1.58722,-3.09338 3.37284,-6.2805 5.25767,-9.37389c1.78562,-2.99964 3.86885,-5.99929 6.05128,-8.99893c3.67045,-0.28122 7.34089,-0.37496 11.11054,-0.37496c3.86885,0 7.5393,0.09374 11.11054,0.37496c2.18243,2.99964 4.16646,5.99929 5.95208,8.99893c1.88483,3.09338 3.67045,6.2805 5.25767,9.37389c-1.68642,3.09338 -3.37284,6.18676 -5.25767,9.37389zm8.23371,-3.09338c1.48802,3.28086 2.67843,6.46798 3.76965,9.6551c-3.37284,0.74991 -6.94409,1.31235 -10.71373,1.78104c1.19041,-1.78104 2.48003,-3.65581 3.57124,-5.62433c1.19041,-1.96852 2.28163,-3.93703 3.37284,-5.81181l0,0zm-25.39552,25.40322c-2.38083,-2.43721 -4.66246,-5.0619 -6.84489,-7.78032c2.28163,0.09374 4.56326,0.18748 6.84489,0.18748c2.28163,0 4.56326,-0.09374 6.84489,-0.18748c-2.18243,2.71843 -4.46406,5.34311 -6.84489,7.78032zm-18.45143,-14.06082c-3.76965,-0.4687 -7.34089,-1.03113 -10.71373,-1.78104c1.09122,-3.09338 2.28163,-6.37424 3.76965,-9.6551c1.09122,1.87477 2.18243,3.84329 3.37284,5.71807c1.19041,2.06225 2.38083,3.84329 3.57124,5.71807l0,0l0,0zm-6.94409,-23.9034c-1.48802,-3.28086 -2.67843,-6.46798 -3.76965,-9.6551c3.37284,-0.74991 6.94409,-1.31235 10.71373,-1.78104c-1.19041,1.78104 -2.48003,3.65581 -3.57124,5.62433c-1.19041,1.96852 -2.28163,3.93703 -3.37284,5.81181l0,0zm25.39552,-25.40322c2.38083,2.43721 4.66246,5.0619 6.84489,7.78032c-2.28163,-0.09374 -4.56326,-0.18748 -6.84489,-0.18748c-2.28163,0 -4.56326,0.09374 -6.84489,0.18748c2.18243,-2.71843 4.46406,-5.34311 6.84489,-7.78032zm22.02268,19.68515l-3.57124,-5.62433c3.76965,0.4687 7.34089,1.03113 10.71373,1.78104c-1.09122,3.09338 -2.28163,6.37424 -3.76965,9.6551c-1.09122,-1.96852 -2.18243,-3.93703 -3.37284,-5.81181l0,0zm-54.06469,-15.18569c-1.68642,-9.84258 -0.29761,-16.77925 3.76965,-19.02898c0.99201,-0.56243 2.18243,-0.84365 3.47204,-0.84365c5.95208,0 13.39217,4.5932 20.83227,11.52988c-3.47204,3.56208 -6.94409,7.68658 -10.31693,12.18605c-5.75367,0.4687 -11.20974,1.31235 -16.36821,2.34347c-0.59521,-2.15599 -0.99201,-4.21825 -1.38882,-6.18676l0,0l0,0.00001zm-24.50271,27.18426c0,-4.40573 5.65447,-9.09266 15.5746,-12.561c1.98402,-0.74991 4.16646,-1.40608 6.34888,-1.96852c1.58722,4.68694 3.57124,9.6551 5.95208,14.62326c-2.38083,4.96816 -4.46406,9.84258 -5.95208,14.52952c-13.68978,-3.74956 -21.92348,-9.37389 -21.92348,-14.62326zm28.27236,46.21324c-4.06725,-2.24973 -5.45607,-9.18641 -3.76965,-19.02898c0.29761,-1.96852 0.79361,-4.03077 1.38882,-6.18676c5.15847,1.12487 10.61454,1.87477 16.36821,2.34347c3.37284,4.49946 6.84489,8.53023 10.31693,12.18605c-7.34089,6.84293 -14.78099,11.52988 -20.83227,11.52988c-1.28962,0 -2.48003,-0.28122 -3.47204,-0.84365l0,0l0,0.00001zm60.31437,-19.02898c1.68642,9.84258 0.29761,16.77925 -3.76965,19.02898c-0.99201,0.56243 -2.18243,0.84365 -3.47204,0.84365c-5.95208,0 -13.39217,-4.5932 -20.83227,-11.52988c3.47204,-3.56208 6.94409,-7.68658 10.31693,-12.18605c5.75367,-0.4687 11.20974,-1.31235 16.36821,-2.34347c0.59521,2.15599 0.99201,4.21825 1.38882,6.18676l0,0l0,-0.00001zm8.92811,-14.62326c-1.98402,0.74991 -4.16646,1.40608 -6.34888,1.96852c-1.58722,-4.68694 -3.57124,-9.6551 -5.95208,-14.62326c2.38083,-4.96816 4.46406,-9.84258 5.95208,-14.52952c13.68978,3.74956 21.92348,9.37389 21.92348,14.62326c0,4.40573 -5.75367,9.09266 -15.5746,12.561z"/>
  </g>
  <g stroke="null">
   <title stroke="null">Angular</title>

   <g stroke="null">
    <title stroke="null">Layer 1</title>
    <path stroke="null" d="m251,91.01249l-4.33309,59.44998l-41.42942,-77.95306l45.76251,18.50308l0,0zm-28.69545,76.87192l-31.30428,15.60619l-31.30482,-15.60619l6.36698,-13.48168l49.87514,0l6.36698,13.48168zm-31.30428,-65.78528l16.4035,34.84341l-32.80754,0l16.40405,-34.84341zm-55.71149,48.36333l-4.28878,-59.44998l45.76251,-18.50308l-41.47373,77.95306l0,0z" fill="url(#svg_5)" id="svg_4"/>
   </g>
  </g>
 </g>
 <defs>
  <linearGradient x1="25.0714876%" y1="90.9292007%" x2="96.1321855%" y2="55.1837089%" id="svg_5">
   <stop stop-color="#E40035" offset="0%"/>
   <stop stop-color="#F60A48" offset="24%"/>
   <stop stop-color="#F20755" offset="35.2%"/>
   <stop stop-color="#DC087D" offset="49.4%"/>
   <stop stop-color="#9717E7" offset="74.5%"/>
   <stop stop-color="#6C00F5" offset="100%"/>
  </linearGradient>
 </defs>
</svg>