<svg width="380" height="512" xmlns="http://www.w3.org/2000/svg" enable-background="new 0 0 128 128">
 <g>
  <title>Layer 1</title>
  <g stroke="null" fill="#61DAFB" id="svg_1">
   <circle stroke="null" cx="190.00001" cy="367.09999" r="9.30351" id="svg_2"/>
   <path stroke="null" d="m307.65703,318.36797c-5.97796,-2.0737 -12.22764,-4.1474 -18.74905,-5.96189c1.63036,-6.2211 2.98899,-12.44221 4.07588,-18.40412c5.70624,-34.21608 -0.54344,-58.32291 -17.93386,-67.65455c-5.1628,-2.85135 -10.86901,-4.1474 -17.39041,-4.1474c-19.02077,0 -43.20431,13.47907 -67.65959,36.03057c-24.45526,-22.55153 -48.63882,-36.03057 -67.65959,-36.03057c-6.5214,0 -12.22764,1.29608 -17.39041,4.1474c-17.39041,9.59086 -23.64009,33.69768 -17.93386,67.65455c1.08689,5.96189 2.44552,12.18302 4.07588,18.40412c-6.5214,1.81449 -12.77109,3.629 -18.74905,5.96189c-33.96566,12.44221 -52.44296,29.55028 -52.44296,48.73202s18.74905,36.28979 52.44296,48.73202c5.97796,2.0737 12.22764,4.1474 18.74905,5.96189c-1.63036,6.2211 -2.98899,12.44221 -4.07588,18.40412c-5.70624,34.21608 0.54344,58.32291 17.93386,67.65455c5.1628,2.85135 10.86901,4.1474 17.39041,4.1474c19.29249,0 43.47603,-13.47907 67.65959,-36.03057c24.45526,22.55153 48.63882,36.03057 67.65959,36.03057c6.5214,0 12.22764,-1.29608 17.39041,-4.1474c17.39041,-9.59086 23.64009,-33.69768 17.93386,-67.65455c-1.08689,-5.96189 -2.44552,-12.18302 -4.07588,-18.40412c6.5214,-1.81449 12.77109,-3.629 18.74905,-5.96189c33.96566,-12.44221 52.44296,-29.55028 52.44296,-48.73202s-18.47733,-36.28979 -52.44296,-48.73202zm-40.21534,-79.05992c11.14073,6.2211 14.94489,25.40287 10.32556,52.62021c-0.81519,5.44348 -2.1738,11.14615 -3.80416,17.10804c-14.12972,-3.11057 -29.07461,-5.18424 -44.83466,-6.48032c-9.23865,-12.44221 -18.74905,-23.58836 -28.25942,-33.69768c20.10766,-18.92253 40.48706,-31.88319 57.06231,-31.88319c3.53244,0 6.79313,0.77765 9.51037,2.33292l0,0l0,-0.00003l0,0.00006zm-30.43322,153.71322c-4.89105,8.2948 -10.59729,16.58964 -16.57525,24.88444c-10.05384,0.77765 -20.10766,1.03686 -30.43322,1.03686c-10.59729,0 -20.65113,-0.25922 -30.43322,-1.03686c-5.97796,-8.2948 -11.41248,-16.58964 -16.30352,-24.88444c-5.1628,-8.55402 -10.05384,-17.36726 -14.40144,-25.92131c4.3476,-8.55402 9.23865,-17.36726 14.40144,-25.92131c4.89105,-8.2948 10.59729,-16.58964 16.57525,-24.88444c10.05384,-0.77765 20.10766,-1.03686 30.43322,-1.03686c10.59729,0 20.65113,0.25922 30.43322,1.03686c5.97796,8.2948 11.41248,16.58964 16.30352,24.88444c5.1628,8.55402 10.05384,17.36726 14.40144,25.92131c-4.61932,8.55402 -9.23865,17.10804 -14.40144,25.92131zm22.55321,-8.55402c4.07588,9.07245 7.33657,17.88569 10.32556,26.69893c-9.23865,2.0737 -19.02077,3.629 -29.34631,4.92505c3.26069,-4.92505 6.79313,-10.10929 9.78209,-15.55277c3.26069,-5.44348 6.24968,-10.88694 9.23865,-16.07121l0,0zm-69.56165,70.24668c-6.5214,-6.73954 -12.77109,-13.9975 -18.74905,-21.51466c6.24968,0.25922 12.49937,0.51843 18.74905,0.51843c6.24968,0 12.49937,-0.25922 18.74905,-0.51843c-5.97796,7.51718 -12.22764,14.77512 -18.74905,21.51466zm-50.54088,-38.88192c-10.32556,-1.29608 -20.10766,-2.85135 -29.34631,-4.92505c2.98899,-8.55402 6.24968,-17.62647 10.32556,-26.69893c2.98899,5.18424 5.97796,10.62772 9.23865,15.81199c3.26069,5.70267 6.5214,10.62772 9.78209,15.81199l0,0l0,0zm-19.02077,-66.09928c-4.07588,-9.07245 -7.33657,-17.88569 -10.32556,-26.69893c9.23865,-2.0737 19.02077,-3.629 29.34631,-4.92505c-3.26069,4.92505 -6.79313,10.10929 -9.78209,15.55277c-3.26069,5.44348 -6.24968,10.88694 -9.23865,16.07121l0,0zm69.56165,-70.24668c6.5214,6.73954 12.77109,13.9975 18.74905,21.51466c-6.24968,-0.25922 -12.49937,-0.51843 -18.74905,-0.51843c-6.24968,0 -12.49937,0.25922 -18.74905,0.51843c5.97796,-7.51718 12.22764,-14.77512 18.74905,-21.51466zm60.323,54.43469l-9.78209,-15.55277c10.32556,1.29608 20.10766,2.85135 29.34631,4.92505c-2.98899,8.55402 -6.24968,17.62647 -10.32556,26.69893c-2.98899,-5.44348 -5.97796,-10.88694 -9.23865,-16.07121l0,0zm-148.09025,-41.99248c-4.61932,-27.21736 -0.81519,-46.3991 10.32556,-52.62021c2.71724,-1.55527 5.97796,-2.33292 9.51037,-2.33292c16.30352,0 36.6829,12.70142 57.06231,31.88319c-9.51037,9.8501 -19.02077,21.25544 -28.25942,33.69768c-15.76005,1.29608 -30.70494,3.629 -44.83466,6.48032c-1.63036,-5.96189 -2.71724,-11.66459 -3.80416,-17.10804l0,0l0,0.00003l0,-0.00006zm-67.11612,75.17173c0,-12.18302 15.48833,-25.14363 42.66086,-34.73452c5.43449,-2.0737 11.41248,-3.88819 17.39041,-5.44348c4.3476,12.96064 9.78209,26.69893 16.30352,40.43722c-6.5214,13.73829 -12.22764,27.21736 -16.30352,40.178c-37.4981,-10.36853 -60.05128,-25.92131 -60.05128,-40.43722zm77.44169,127.79194c-11.14073,-6.2211 -14.94489,-25.40287 -10.32556,-52.62021c0.81519,-5.44348 2.1738,-11.14615 3.80416,-17.10804c14.12972,3.11057 29.07461,5.18424 44.83466,6.48032c9.23865,12.44221 18.74905,23.58836 28.25942,33.69768c-20.10766,18.92253 -40.48706,31.88319 -57.06231,31.88319c-3.53244,0 -6.79313,-0.77765 -9.51037,-2.33292l0,0l0,0.00003l0,-0.00006zm165.20894,-52.62021c4.61932,27.21736 0.81519,46.3991 -10.32556,52.62021c-2.71724,1.55527 -5.97796,2.33292 -9.51037,2.33292c-16.30352,0 -36.6829,-12.70142 -57.06231,-31.88319c9.51037,-9.8501 19.02077,-21.25544 28.25942,-33.69768c15.76005,-1.29608 30.70494,-3.629 44.83466,-6.48032c1.63036,5.96189 2.71724,11.66459 3.80416,17.10804l0,0l0,-0.00003l0,0.00006zm24.45526,-40.43722c-5.43449,2.0737 -11.41248,3.88819 -17.39041,5.44348c-4.3476,-12.96064 -9.78209,-26.69893 -16.30352,-40.43722c6.5214,-13.73829 12.22764,-27.21736 16.30352,-40.178c37.4981,10.36853 60.05128,25.92131 60.05128,40.43722c0,12.18302 -15.76005,25.14363 -42.66086,34.73452z" id="svg_3"/>
  </g>
  <g stroke="null" id="svg_6">
   <title stroke="null">Angular</title>
   <g stroke="null" id="svg_7">
    <title stroke="null">Layer 1</title>
    <path stroke="null" id="svg_4" fill="url(#svg_5)" d="m333.5,41.84427l-10.36331,134.44464l-99.08536,-176.28889l109.44867,41.84425l0,0zm-68.62995,173.84392l-74.8694,35.29301l-74.87069,-35.29301l15.22769,-30.48848l119.28471,0l15.22769,30.48848zm-74.8694,-148.77176l39.2317,78.7975l-78.4647,0l39.23302,-78.7975l-0.00002,0zm-133.24331,109.37246l-10.25733,-134.44464l109.44867,-41.84425l-99.19134,176.28889l0,0z"/>
   </g>
  </g>
 </g>
 <defs>
  <linearGradient id="svg_5" y2="55.1837089%" x2="96.1321855%" y1="90.9292007%" x1="25.0714876%">
   <stop offset="0%" stop-color="#E40035"/>
   <stop offset="24%" stop-color="#F60A48"/>
   <stop offset="35.2%" stop-color="#F20755"/>
   <stop offset="49.4%" stop-color="#DC087D"/>
   <stop offset="74.5%" stop-color="#9717E7"/>
   <stop offset="100%" stop-color="#6C00F5"/>
  </linearGradient>
 </defs>
</svg>