<svg width="270" height="512" xmlns="http://www.w3.org/2000/svg" enable-background="new 0 0 128 128">
 <g>
  <title>Layer 1</title>
  <g stroke="null" fill="#61DAFB" id="svg_1">
   <circle stroke="null" cx="135.10003" cy="388.59999" r="7.2011" id="svg_2"/>
   <path stroke="null" d="m228.54779,347.09874c-4.74793,-1.76601 -9.71166,-3.53202 -14.89122,-5.07728c1.2949,-5.29802 2.37397,-10.59606 3.23722,-15.67335c4.53212,-29.13916 -0.43162,-49.66906 -14.24377,-57.61609c-4.10049,-2.42827 -8.63258,-3.53202 -13.81214,-3.53202c-15.10703,0 -34.31453,11.47907 -53.73787,30.68442c-19.42332,-19.20537 -38.63083,-30.68442 -53.73787,-30.68442c-5.17955,0 -9.71166,1.10377 -13.81214,3.53202c-13.81214,8.16779 -18.77588,28.69768 -14.24377,57.61609c0.86325,5.07728 1.94233,10.37533 3.23722,15.67335c-5.17955,1.54526 -10.14329,3.09054 -14.89122,5.07728c-26.97684,10.59606 -41.65223,25.16566 -41.65223,41.50125s14.89122,30.90518 41.65223,41.50125c4.74793,1.76601 9.71166,3.53202 14.89122,5.07728c-1.2949,5.29802 -2.37397,10.59606 -3.23722,15.67335c-4.53212,29.13916 0.43162,49.66906 14.24377,57.61609c4.10049,2.42827 8.63258,3.53202 13.81214,3.53202c15.32284,0 34.53035,-11.47907 53.73787,-30.68442c19.42332,19.20537 38.63083,30.68442 53.73787,30.68442c5.17955,0 9.71166,-1.10377 13.81214,-3.53202c13.81214,-8.16779 18.77588,-28.69768 14.24377,-57.61609c-0.86325,-5.07728 -1.94233,-10.37533 -3.23722,-15.67335c5.17955,-1.54526 10.14329,-3.09054 14.89122,-5.07728c26.97684,-10.59606 41.65223,-25.16566 41.65223,-41.50125s-14.67541,-30.90518 -41.65223,-41.50125zm-31.94058,-67.32915c8.84839,5.29802 11.86981,21.63364 8.20096,44.81252c-0.64746,4.63579 -1.72652,9.4923 -3.02141,14.56958c-11.22237,-2.64903 -23.09218,-4.41501 -35.60942,-5.51878c-7.3377,-10.59606 -14.89122,-20.08836 -22.44472,-28.69768c15.97028,-16.11484 32.15639,-27.15242 45.3211,-27.15242c2.8056,0 5.39537,0.66226 7.55351,1.98677l0,0l0,-0.00003l0,0.00005l0,-0.00001l-0.00001,0zm-24.17124,130.90553c-3.88466,7.06403 -8.41677,14.1281 -13.16471,21.19213c-7.98515,0.66226 -15.97028,0.88301 -24.17124,0.88301c-8.41677,0 -16.40193,-0.22076 -24.17124,-0.88301c-4.74793,-7.06403 -9.06423,-14.1281 -12.94889,-21.19213c-4.10049,-7.28479 -7.98515,-14.79034 -11.43818,-22.07515c3.45303,-7.28479 7.3377,-14.79034 11.43818,-22.07515c3.88466,-7.06403 8.41677,-14.1281 13.16471,-21.19213c7.98515,-0.66226 15.97028,-0.88301 24.17124,-0.88301c8.41677,0 16.40193,0.22076 24.17124,0.88301c4.74793,7.06403 9.06423,14.1281 12.94889,21.19213c4.10049,7.28479 7.98515,14.79034 11.43818,22.07515c-3.66884,7.28479 -7.3377,14.56958 -11.43818,22.07515zm17.91263,-7.28479c3.23722,7.7263 5.82699,15.23184 8.20096,22.73739c-7.3377,1.76601 -15.10703,3.09054 -23.30797,4.19428c2.58977,-4.19428 5.39537,-8.60929 7.76932,-13.24508c2.58977,-4.63579 4.96374,-9.27156 7.3377,-13.68659l0,0l0.00001,0l-0.00001,0zm-55.24855,59.8236c-5.17955,-5.73954 -10.14329,-11.92058 -14.89122,-18.32235c4.96374,0.22076 9.92748,0.44151 14.89122,0.44151c4.96374,0 9.92748,-0.22076 14.89122,-0.44151c-4.74793,6.40179 -9.71166,12.58281 -14.89122,18.32235zm-40.14152,-33.11269c-8.20096,-1.10377 -15.97028,-2.42827 -23.30797,-4.19428c2.37397,-7.28479 4.96374,-15.01109 8.20096,-22.73739c2.37397,4.41501 4.74793,9.0508 7.3377,13.46584c2.58977,4.85652 5.17955,9.0508 7.76932,13.46584l0,0l0,0l0.00001,0l-0.00001,0zm-15.10703,-56.29159c-3.23722,-7.7263 -5.82699,-15.23184 -8.20096,-22.73739c7.3377,-1.76601 15.10703,-3.09054 23.30797,-4.19428c-2.58977,4.19428 -5.39537,8.60929 -7.76932,13.24508c-2.58977,4.63579 -4.96374,9.27156 -7.3377,13.68659l0,0l-0.00001,0l0.00001,0zm55.24855,-59.8236c5.17955,5.73954 10.14329,11.92058 14.89122,18.32235c-4.96374,-0.22076 -9.92748,-0.44151 -14.89122,-0.44151c-4.96374,0 -9.92748,0.22076 -14.89122,0.44151c4.74793,-6.40179 9.71166,-12.58281 14.89122,-18.32235zm47.91086,46.35777l-7.76932,-13.24508c8.20096,1.10377 15.97028,2.42827 23.30797,4.19428c-2.37397,7.28479 -4.96374,15.01109 -8.20096,22.73739c-2.37397,-4.63579 -4.74793,-9.27156 -7.3377,-13.68659l0,0l-0.00001,0l0.00001,0zm-117.619,-35.76171c-3.66884,-23.1789 -0.64746,-39.51449 8.20096,-44.81252c2.15814,-1.3245 4.74793,-1.98677 7.55351,-1.98677c12.94889,0 29.13498,10.81681 45.3211,27.15242c-7.55351,8.38856 -15.10703,18.1016 -22.44472,28.69768c-12.51724,1.10377 -24.38705,3.09054 -35.60942,5.51878c-1.2949,-5.07728 -2.15814,-9.93382 -3.02141,-14.56958l0,0l0,0.00003l0,-0.00005l0,0.00001l-0.00001,0zm-53.30622,64.01788c0,-10.37533 12.30143,-21.41286 33.88291,-29.58067c4.31628,-1.76601 9.06423,-3.31127 13.81214,-4.63579c3.45303,11.03756 7.76932,22.73739 12.94889,34.43722c-5.17955,11.69983 -9.71166,23.1789 -12.94889,34.21646c-29.78245,-8.83007 -47.69505,-22.07515 -47.69505,-34.43722l0.00001,0zm61.50719,108.8304c-8.84839,-5.29802 -11.86981,-21.63364 -8.20096,-44.81252c0.64746,-4.63579 1.72652,-9.4923 3.02141,-14.56958c11.22237,2.64903 23.09218,4.41501 35.60942,5.51878c7.3377,10.59606 14.89122,20.08836 22.44472,28.69768c-15.97028,16.11484 -32.15639,27.15242 -45.3211,27.15242c-2.8056,0 -5.39537,-0.66226 -7.55351,-1.98677l0,0l0,0.00003l0,-0.00005l0,0.00001l0.00001,0zm131.21533,-44.81252c3.66884,23.1789 0.64746,39.51449 -8.20096,44.81252c-2.15814,1.3245 -4.74793,1.98677 -7.55351,1.98677c-12.94889,0 -29.13498,-10.81681 -45.3211,-27.15242c7.55351,-8.38856 15.10703,-18.1016 22.44472,-28.69768c12.51724,-1.10377 24.38705,-3.09054 35.60942,-5.51878c1.2949,5.07728 2.15814,9.93382 3.02141,14.56958l0,0l0,-0.00003l0,0.00005l0,-0.00001l0.00001,0zm19.42332,-34.43722c-4.31628,1.76601 -9.06423,3.31127 -13.81214,4.63579c-3.45303,-11.03756 -7.76932,-22.73739 -12.94889,-34.43722c5.17955,-11.69983 9.71166,-23.1789 12.94889,-34.21646c29.78245,8.83007 47.69505,22.07515 47.69505,34.43722c0,10.37533 -12.51724,21.41286 -33.88291,29.58067l-0.00001,0z" id="svg_3"/>
  </g>
  <g id="svg_6" stroke="null">
   <title stroke="null">Angular</title>
   <g id="svg_7" stroke="null">
    <title stroke="null">Layer 1</title>
    <path id="svg_4" fill="url(#svg_5)" d="m269.99999,41.84427l-9.74946,134.44464l-93.21619,-176.28889l102.96565,41.84425l0,0zm-64.56476,173.84392l-70.43463,35.29301l-70.43584,-35.29301l14.3257,-30.48848l112.21907,0l14.3257,30.48848zm-70.43463,-148.77176l36.90787,78.7975l-73.81697,0l36.90911,-78.7975l-0.00002,0l0.00001,0zm-125.35085,109.37246l-9.64975,-134.44464l102.96565,-41.84425l-93.3159,176.28889l0,0z" stroke="null"/>
   </g>
  </g>
 </g>
 <defs>
  <linearGradient id="svg_5" y2="55.1837089%" x2="96.1321855%" y1="90.9292007%" x1="25.0714876%">
   <stop offset="0%" stop-color="#E40035"/>
   <stop offset="24%" stop-color="#F60A48"/>
   <stop offset="35.2%" stop-color="#F20755"/>
   <stop offset="49.4%" stop-color="#DC087D"/>
   <stop offset="74.5%" stop-color="#9717E7"/>
   <stop offset="100%" stop-color="#6C00F5"/>
  </linearGradient>
 </defs>
</svg>