<svg width="256" height="256" xmlns="http://www.w3.org/2000/svg" enable-background="new 0 0 128 128">
 <g>
  <title>Layer 1</title>
  <g stroke="null" fill="#61DAFB" id="svg_1">
   <circle stroke="null" cx="128" cy="128" r="20.18205" id="svg_2"/>
   <path stroke="null" d="m215.91421,90.19822c-4.46677,-1.60858 -9.13658,-3.21718 -14.00942,-4.62469c1.21821,-4.82576 2.23339,-9.65152 3.04553,-14.27621c4.26374,-26.54168 -0.40607,-45.2415 -13.40032,-52.48014c-3.85767,-2.21181 -8.12141,-3.21718 -12.99425,-3.21718c-14.21246,0 -32.28259,10.45582 -50.55575,27.94919c-18.27316,-17.49338 -36.34329,-27.94919 -50.55575,-27.94919c-4.87284,0 -9.13658,1.00537 -12.99425,3.21718c-12.99425,7.43971 -17.66406,26.13953 -13.40032,52.48014c0.81214,4.62469 1.82732,9.45045 3.04553,14.27621c-4.87284,1.40751 -9.54265,2.81503 -14.00942,4.62469c-25.37939,9.65152 -39.18578,22.92236 -39.18578,37.80179s14.00942,28.15026 39.18578,37.80179c4.46677,1.60858 9.13658,3.21718 14.00942,4.62469c-1.21821,4.82576 -2.23339,9.65152 -3.04553,14.27621c-4.26374,26.54168 0.40607,45.2415 13.40032,52.48014c3.85767,2.21181 8.12141,3.21718 12.99425,3.21718c14.41549,0 32.48562,-10.45582 50.55575,-27.94919c18.27316,17.49338 36.34329,27.94919 50.55575,27.94919c4.87284,0 9.13658,-1.00537 12.99425,-3.21718c12.99425,-7.43971 17.66406,-26.13953 13.40032,-52.48014c-0.81214,-4.62469 -1.82732,-9.45045 -3.04553,-14.27621c4.87284,-1.40751 9.54265,-2.81503 14.00942,-4.62469c25.37939,-9.65152 39.18578,-22.92236 39.18578,-37.80179s-13.80639,-28.15026 -39.18578,-37.80179zm-30.0492,-61.32736c8.32444,4.82576 11.16693,19.70519 7.71533,40.81789c-0.60911,4.22254 -1.62428,8.64615 -2.84249,13.27084c-10.55783,-2.41288 -21.72476,-4.02146 -33.5008,-5.02683c-6.90319,-9.65152 -14.00942,-18.29767 -21.11565,-26.13953c15.0246,-14.67835 30.25223,-24.73202 42.63738,-24.73202c2.63946,0 5.07588,0.60322 7.10623,1.80966l0,0.00001zm-22.73993,119.23649c-3.65463,6.43434 -7.91837,12.8687 -12.38514,19.30304c-7.5123,0.60322 -15.0246,0.8043 -22.73993,0.8043c-7.91837,0 -15.43067,-0.20107 -22.73993,-0.8043c-4.46677,-6.43434 -8.52748,-12.8687 -12.18211,-19.30304c-3.85767,-6.63542 -7.5123,-13.47191 -10.76086,-20.10734c3.24856,-6.63542 6.90319,-13.47191 10.76086,-20.10734c3.65463,-6.43434 7.91837,-12.8687 12.38514,-19.30304c7.5123,-0.60322 15.0246,-0.8043 22.73993,-0.8043c7.91837,0 15.43067,0.20107 22.73993,0.8043c4.46677,6.43434 8.52748,12.8687 12.18211,19.30304c3.85767,6.63542 7.5123,13.47191 10.76086,20.10734c-3.4516,6.63542 -6.90319,13.27084 -10.76086,20.10734zm16.85192,-6.63542c3.04553,7.03757 5.48195,13.87406 7.71533,20.71055c-6.90319,1.60858 -14.21246,2.81503 -21.92779,3.82039c2.43642,-3.82039 5.07588,-7.84186 7.30926,-12.0644c2.43642,-4.22254 4.66981,-8.44508 6.90319,-12.46655l0.00001,0.00001zm-51.97699,54.49087c-4.87284,-5.22791 -9.54265,-10.85796 -14.00942,-16.68909c4.66981,0.20107 9.33962,0.40215 14.00942,0.40215c4.66981,0 9.33962,-0.20107 14.00942,-0.40215c-4.46677,5.83113 -9.13658,11.46118 -14.00942,16.68909zm-37.76453,-30.161c-7.71533,-1.00537 -15.0246,-2.21181 -21.92779,-3.82039c2.23339,-6.63542 4.66981,-13.67298 7.71533,-20.71055c2.23339,4.02146 4.46677,8.24401 6.90319,12.26547c2.43642,4.42361 4.87284,8.24401 7.30926,12.26547l0.00001,-0.00001zm-14.21246,-51.2737c-3.04553,-7.03757 -5.48195,-13.87406 -7.71533,-20.71055c6.90319,-1.60858 14.21246,-2.81503 21.92779,-3.82039c-2.43642,3.82039 -5.07588,7.84186 -7.30926,12.0644c-2.43642,4.22254 -4.66981,8.44508 -6.90319,12.46655l-0.00001,-0.00001zm51.97699,-54.49087c4.87284,5.22791 9.54265,10.85796 14.00942,16.68909c-4.66981,-0.20107 -9.33962,-0.40215 -14.00942,-0.40215c-4.66981,0 -9.33962,0.20107 -14.00942,0.40215c4.46677,-5.83113 9.13658,-11.46118 14.00942,-16.68909zm45.0738,42.2254l-7.30926,-12.0644c7.71533,1.00537 15.0246,2.21181 21.92779,3.82039c-2.23339,6.63542 -4.66981,13.67298 -7.71533,20.71055c-2.23339,-4.22254 -4.46677,-8.44508 -6.90319,-12.46655l-0.00001,0.00001zm-110.65414,-32.57388c-3.4516,-21.1127 -0.60911,-35.99213 7.71533,-40.81789c2.03035,-1.20644 4.46677,-1.80966 7.10623,-1.80966c12.18211,0 27.40974,9.85259 42.63738,24.73202c-7.10623,7.64079 -14.21246,16.48801 -21.11565,26.13953c-11.77604,1.00537 -22.94297,2.81503 -33.5008,5.02683c-1.21821,-4.62469 -2.03035,-9.0483 -2.84249,-13.27084l0,-0.00001zm-50.14968,58.31127c0,-9.45045 11.573,-19.50411 31.87651,-26.94383c4.0607,-1.60858 8.52748,-3.0161 12.99425,-4.22254c3.24856,10.05367 7.30926,20.71055 12.18211,31.36744c-4.87284,10.65689 -9.13658,21.1127 -12.18211,31.16637c-28.01885,-8.04294 -44.87076,-20.10734 -44.87076,-31.36744zm57.86501,99.12916c-8.32444,-4.82576 -11.16693,-19.70519 -7.71533,-40.81789c0.60911,-4.22254 1.62428,-8.64615 2.84249,-13.27084c10.55783,2.41288 21.72476,4.02146 33.5008,5.02683c6.90319,9.65152 14.00942,18.29767 21.11565,26.13953c-15.0246,14.67835 -30.25223,24.73202 -42.63738,24.73202c-2.63946,0 -5.07588,-0.60322 -7.10623,-1.80966l0,-0.00001zm123.44536,-40.81789c3.4516,21.1127 0.60911,35.99213 -7.71533,40.81789c-2.03035,1.20644 -4.46677,1.80966 -7.10623,1.80966c-12.18211,0 -27.40974,-9.85259 -42.63738,-24.73202c7.10623,-7.64079 14.21246,-16.48801 21.11565,-26.13953c11.77604,-1.00537 22.94297,-2.81503 33.5008,-5.02683c1.21821,4.62469 2.03035,9.0483 2.84249,13.27084l0,0.00001zm18.27316,-31.36744c-4.0607,1.60858 -8.52748,3.0161 -12.99425,4.22254c-3.24856,-10.05367 -7.30926,-20.71055 -12.18211,-31.36744c4.87284,-10.65689 9.13658,-21.1127 12.18211,-31.16637c28.01885,8.04294 44.87076,20.10734 44.87076,31.36744c0,9.45045 -11.77604,19.50411 -31.87651,26.94383z" id="svg_3"/>
  </g>
 </g>

</svg>