<svg width="256" height="256" xmlns="http://www.w3.org/2000/svg" enable-background="new 0 0 128 128">

 <g>
  <title>Layer 1</title>
  <g stroke="null" id="svg_1" fill="#61DAFB">
   <circle stroke="null" id="svg_2" r="22.51628" cy="128" cx="128"/>
   <path stroke="null" id="svg_3" d="m215.91421,85.82612c-4.46677,-1.79463 -9.13658,-3.58927 -14.00942,-5.15957c1.21821,-5.3839 2.23339,-10.7678 3.04553,-15.92737c4.26374,-29.61145 -0.40607,-50.47406 -13.40032,-58.54991c-3.85767,-2.46762 -8.12141,-3.58927 -12.99425,-3.58927c-14.21246,0 -32.28259,11.66512 -50.55575,31.18175c-18.27316,-19.51664 -36.34329,-31.18175 -50.55575,-31.18175c-4.87284,0 -9.13658,1.12165 -12.99425,3.58927c-12.99425,8.30018 -17.66406,29.16279 -13.40032,58.54991c0.81214,5.15957 1.82732,10.54347 3.04553,15.92737c-4.87284,1.5703 -9.54265,3.14061 -14.00942,5.15957c-25.37939,10.7678 -39.18578,25.57352 -39.18578,42.17388s14.00942,31.40608 39.18578,42.17388c4.46677,1.79463 9.13658,3.58927 14.00942,5.15957c-1.21821,5.3839 -2.23339,10.7678 -3.04553,15.92737c-4.26374,29.61145 0.40607,50.47406 13.40032,58.54991c3.85767,2.46762 8.12141,3.58927 12.99425,3.58927c14.41549,0 32.48562,-11.66512 50.55575,-31.18175c18.27316,19.51664 36.34329,31.18175 50.55575,31.18175c4.87284,0 9.13658,-1.12165 12.99425,-3.58927c12.99425,-8.30018 17.66406,-29.16279 13.40032,-58.54991c-0.81214,-5.15957 -1.82732,-10.54347 -3.04553,-15.92737c4.87284,-1.5703 9.54265,-3.14061 14.00942,-5.15957c25.37939,-10.7678 39.18578,-25.57352 39.18578,-42.17388s-13.80639,-31.40608 -39.18578,-42.17388zm-30.0492,-68.42039c8.32444,5.3839 11.16693,21.98426 7.71533,45.53882c-0.60911,4.71091 -1.62428,9.64615 -2.84249,14.80572c-10.55783,-2.69195 -21.72476,-4.48658 -33.5008,-5.60823c-6.90319,-10.7678 -14.00942,-20.41395 -21.11565,-29.16279c15.0246,-16.37603 30.25223,-27.59249 42.63738,-27.59249c2.63946,0 5.07588,0.67299 7.10623,2.01896zm-22.73993,133.02719c-3.65463,7.17853 -7.91837,14.35707 -12.38514,21.5356c-7.5123,0.67299 -15.0246,0.89732 -22.73993,0.89732c-7.91837,0 -15.43067,-0.22433 -22.73993,-0.89732c-4.46677,-7.17853 -8.52748,-14.35707 -12.18211,-21.5356c-3.85767,-7.40286 -7.5123,-15.03005 -10.76086,-22.43292c3.24856,-7.40286 6.90319,-15.03005 10.76086,-22.43292c3.65463,-7.17853 7.91837,-14.35707 12.38514,-21.5356c7.5123,-0.67299 15.0246,-0.89732 22.73993,-0.89732c7.91837,0 15.43067,0.22433 22.73993,0.89732c4.46677,7.17853 8.52748,14.35707 12.18211,21.5356c3.85767,7.40286 7.5123,15.03005 10.76086,22.43292c-3.4516,7.40286 -6.90319,14.80572 -10.76086,22.43292zm16.85192,-7.40286c3.04553,7.85152 5.48195,15.47871 7.71533,23.1059c-6.90319,1.79463 -14.21246,3.14061 -21.92779,4.26225c2.43642,-4.26225 5.07588,-8.74884 7.30926,-13.45975c2.43642,-4.71091 4.66981,-9.42182 6.90319,-13.90841zm-51.97699,60.7932c-4.87284,-5.83256 -9.54265,-12.11377 -14.00942,-18.61932c4.66981,0.22433 9.33962,0.44866 14.00942,0.44866c4.66981,0 9.33962,-0.22433 14.00942,-0.44866c-4.46677,6.50555 -9.13658,12.78676 -14.00942,18.61932zm-37.76453,-33.64937c-7.71533,-1.12165 -15.0246,-2.46762 -21.92779,-4.26225c2.23339,-7.40286 4.66981,-15.25438 7.71533,-23.1059c2.23339,4.48658 4.46677,9.1975 6.90319,13.68408c2.43642,4.93524 4.87284,9.1975 7.30926,13.68408zm-14.21246,-57.20394c-3.04553,-7.85152 -5.48195,-15.47871 -7.71533,-23.1059c6.90319,-1.79463 14.21246,-3.14061 21.92779,-4.26225c-2.43642,4.26225 -5.07588,8.74884 -7.30926,13.45975c-2.43642,4.71091 -4.66981,9.42182 -6.90319,13.90841zm51.97699,-60.7932c4.87284,5.83256 9.54265,12.11377 14.00942,18.61932c-4.66981,-0.22433 -9.33962,-0.44866 -14.00942,-0.44866c-4.66981,0 -9.33962,0.22433 -14.00942,0.44866c4.46677,-6.50555 9.13658,-12.78676 14.00942,-18.61932zm45.0738,47.10912l-7.30926,-13.45975c7.71533,1.12165 15.0246,2.46762 21.92779,4.26225c-2.23339,7.40286 -4.66981,15.25438 -7.71533,23.1059c-2.23339,-4.71091 -4.46677,-9.42182 -6.90319,-13.90841zm-110.65414,-36.34132c-3.4516,-23.55456 -0.60911,-40.15492 7.71533,-45.53882c2.03035,-1.34597 4.46677,-2.01896 7.10623,-2.01896c12.18211,0 27.40974,10.99213 42.63738,27.59249c-7.10623,8.52451 -14.21246,18.39499 -21.11565,29.16279c-11.77604,1.12165 -22.94297,3.14061 -33.5008,5.60823c-1.21821,-5.15957 -2.03035,-10.09481 -2.84249,-14.80572zm-50.14968,65.05546c0,-10.54347 11.573,-21.75993 31.87651,-30.06011c4.0607,-1.79463 8.52748,-3.36494 12.99425,-4.71091c3.24856,11.21646 7.30926,23.1059 12.18211,34.99535c-4.87284,11.88945 -9.13658,23.55456 -12.18211,34.77102c-28.01885,-8.97317 -44.87076,-22.43292 -44.87076,-34.99535zm57.86501,110.59428c-8.32444,-5.3839 -11.16693,-21.98426 -7.71533,-45.53882c0.60911,-4.71091 1.62428,-9.64615 2.84249,-14.80572c10.55783,2.69195 21.72476,4.48658 33.5008,5.60823c6.90319,10.7678 14.00942,20.41395 21.11565,29.16279c-15.0246,16.37603 -30.25223,27.59249 -42.63738,27.59249c-2.63946,0 -5.07588,-0.67299 -7.10623,-2.01896zm123.44536,-45.53882c3.4516,23.55456 0.60911,40.15492 -7.71533,45.53882c-2.03035,1.34597 -4.46677,2.01896 -7.10623,2.01896c-12.18211,0 -27.40974,-10.99213 -42.63738,-27.59249c7.10623,-8.52451 14.21246,-18.39499 21.11565,-29.16279c11.77604,-1.12165 22.94297,-3.14061 33.5008,-5.60823c1.21821,5.15957 2.03035,10.09481 2.84249,14.80572zm18.27316,-34.99535c-4.0607,1.79463 -8.52748,3.36494 -12.99425,4.71091c-3.24856,-11.21646 -7.30926,-23.1059 -12.18211,-34.99535c4.87284,-11.88945 9.13658,-23.55456 12.18211,-34.77102c28.01885,8.97317 44.87076,22.43292 44.87076,34.99535c0,10.54347 -11.77604,21.75993 -31.87651,30.06011z"/>
  </g>
 </g>
</svg>