<svg width="256" height="256" xmlns="http://www.w3.org/2000/svg" fill="none">
 <defs>
  <clipPath id="clip0_337_7900">
   <path id="svg_1" d="m0,0l289,0l0,177l-289,0l0,-177z" fill="#fff"/>
  </clipPath>
  <linearGradient y2="0.89734" x2="0.27804" y1="0.17471" x1="0.68181" id="paint0_linear_337_7900">
   <stop stop-color="#3F873F"/>
   <stop stop-color="#3F8B3D" offset="0.33"/>
   <stop stop-color="#3E9638" offset="0.637"/>
   <stop stop-color="#3DA92E" offset="0.934"/>
   <stop stop-color="#3DAE2B" offset="1"/>
  </linearGradient>
  <linearGradient y2="-0.1832" x2="1.59324" y1="0.55204" x1="0.43205" id="paint1_linear_337_7900">
   <stop stop-color="#3F873F" offset="0.138"/>
   <stop stop-color="#52A044" offset="0.402"/>
   <stop stop-color="#64B749" offset="0.713"/>
   <stop stop-color="#6ABF4B" offset="0.908"/>
  </linearGradient>
  <linearGradient y2="0.39286" x2="66.54269" y1="0.39286" x1="-55.13739" id="paint2_linear_337_7900">
   <stop stop-color="#6ABF4B" offset="0.092"/>
   <stop stop-color="#64B749" offset="0.287"/>
   <stop stop-color="#52A044" offset="0.598"/>
   <stop stop-color="#3F873F" offset="0.862"/>
  </linearGradient>
  <linearGradient y2="0.49981" x2="1.01959" y1="0.49981" x1="-0.04296" id="paint3_linear_337_7900">
   <stop stop-color="#6ABF4B" offset="0.092"/>
   <stop stop-color="#64B749" offset="0.287"/>
   <stop stop-color="#52A044" offset="0.598"/>
   <stop stop-color="#3F873F" offset="0.862"/>
  </linearGradient>
 </defs>
 <g>
  <title>Layer 1</title>
  <mask stroke="null" height="177" width="289" y="0" x="0" maskUnits="userSpaceOnUse" id="mask0_337_7900">
   <path stroke="null" id="svg_3" fill="#fff" d="m289,0l-289,0l0,177l289,0l0,-177z"/>
  </mask>
  <path stroke="null" id="svg_5" fill="#5FA04E" d="m126.54206,207.99987c-0.8579,0 -1.65889,-0.23593 -2.40211,-0.64994l-7.60551,-4.66531c-1.14415,-0.64994 -0.57164,-0.88588 -0.22936,-1.00429c1.54421,-0.53153 1.83047,-0.64994 3.43159,-1.59458c0.17158,-0.11842 0.40006,-0.05966 0.57164,0.05876l5.83282,3.60316c0.22936,0.11751 0.51474,0.11751 0.68632,0l22.81742,-13.64339c0.22936,-0.11842 0.34316,-0.35435 0.34316,-0.64994l0,-27.22802c0,-0.29469 -0.1138,-0.53153 -0.34316,-0.64904l-22.81742,-13.58463c-0.22848,-0.11842 -0.51474,-0.11842 -0.68632,0l-22.81654,13.58463c-0.22936,0.11751 -0.34316,0.41311 -0.34316,0.64904l0,27.22802c0,0.23593 0.1138,0.53153 0.34316,0.64994l6.23288,3.72068c3.37381,1.77175 5.48966,-0.29559 5.48966,-2.36294l0,-26.87276c0,-0.35435 0.28626,-0.7087 0.68632,-0.7087l2.91685,0c0.34316,0 0.68632,0.29469 0.68632,0.7087l0,26.87276c0,4.66621 -2.45901,7.3835 -6.74849,7.3835c-1.31486,0 -2.34433,0 -5.26118,-1.47706l-6.0044,-3.5435a4.82786,4.98531 0 0 1 -2.40123,-4.31186l0,-27.22712a4.82698,4.98441 0 0 1 2.40123,-4.31186l22.81742,-13.64339c1.42954,-0.82712 3.37381,-0.82712 4.80334,0l22.81742,13.64339a4.82611,4.9835 0 0 1 2.40211,4.31186l0,27.22712c0,1.77175 -0.9148,3.42599 -2.40211,4.31186l-22.81742,13.64339c-0.68632,0.29559 -1.54334,0.53153 -2.40123,0.53153z"/>
  <path stroke="null" id="svg_6" fill="#5FA04E" d="m133.63284,189.27716c-10.00762,0 -12.06658,-4.72497 -12.06658,-8.74124c0,-0.35435 0.28626,-0.7087 0.68632,-0.7087l2.97375,0c0.34316,0 0.62942,0.23593 0.62942,0.59028c0.45696,3.1304 1.77269,4.66621 7.834,4.66621c4.80422,0 6.8623,-1.12181 6.8623,-3.78034c0,-1.53492 -0.57164,-2.65763 -8.06335,-3.42508c-6.23288,-0.64994 -10.12143,-2.06734 -10.12143,-7.20542c0,-4.78463 3.88855,-7.61943 10.40768,-7.61943c7.32013,0 10.92242,2.59887 11.38026,8.26847c0,0.17718 -0.05778,0.35435 -0.17158,0.53153c-0.11468,0.11842 -0.28626,0.23684 -0.45784,0.23684l-3.03065,0a0.67144,0.69333 0 0 1 -0.62942,-0.53153c-0.68632,-3.24881 -2.45901,-4.31186 -7.14768,-4.31186c-5.26118,0 -5.8906,1.89017 -5.8906,3.30757c0,1.71299 0.74322,2.24452 7.83487,3.18915c7.03388,0.94463 10.35078,2.30328 10.35078,7.3826c0,5.19774 -4.1748,8.15096 -11.38026,8.15096zm32.93885,-28.58666c0,2.48136 -2.00117,4.5478 -4.40328,4.5478c-2.40123,0 -4.40328,-2.00768 -4.40328,-4.5478c0,-2.59797 2.05895,-4.5478 4.40328,-4.5478c2.34521,0 4.40328,2.00859 4.40328,4.5478zm-8.12025,0c0,2.12701 1.65889,3.8391 3.66007,3.8391c2.05895,0 3.71697,-1.77175 3.71697,-3.8391c0,-2.1261 -1.65802,-3.77943 -3.71697,-3.77943c-1.94427,0 -3.66007,1.65333 -3.66007,3.77943zm2.05895,-2.53921l1.71579,0c0.57164,0 1.71492,0 1.71492,1.35864c0,0.94463 -0.57164,1.12181 -0.9148,1.24023c0.68632,0.05876 0.74322,0.53153 0.801,1.18147c0.0569,0.41311 0.1138,1.12181 0.22848,1.35774l-1.02948,0c0,-0.23593 -0.17158,-1.53492 -0.17158,-1.59458c-0.0569,-0.29469 -0.17158,-0.41311 -0.51474,-0.41311l-0.8579,0l0,2.06734l-0.9717,0l0,-5.19774zm0.9148,2.24452l0.74322,0c0.62942,0 0.74409,-0.47277 0.74409,-0.7087c0,-0.7087 -0.45784,-0.7087 -0.74409,-0.7087l-0.80012,0l0,1.4174l0.0569,0z"/>
  <path stroke="null" id="svg_7" fill="#333" d="m55.80237,101.5104a2.90984,3.00475 0 0 0 -1.48731,-2.59887l-24.18918,-14.47051c-0.40006,-0.23503 -0.8579,-0.35435 -1.31573,-0.41311l-0.22761,0c-0.45784,0 -0.9148,0.17718 -1.31573,0.41311l-24.24783,14.41175a2.93261,3.02825 0 0 0 -1.48644,2.65763l0.0569,38.74531c0,0.53153 0.28626,1.06305 0.74409,1.29898c0.45696,0.29559 1.0286,0.29559 1.42954,0l14.41091,-8.50531a2.90984,3.00475 0 0 0 1.48644,-2.59797l0,-18.13333c0,-1.06215 0.57164,-2.06644 1.48731,-2.59797l6.11908,-3.66192c0.45696,-0.29559 0.9717,-0.41311 1.48644,-0.41311c0.51474,0 1.02948,0.11751 1.42954,0.41311l6.11908,3.66192a2.90984,3.00475 0 0 1 1.48644,2.59887l0,18.13062c0,1.06395 0.57251,2.06734 1.48731,2.59887l14.29623,8.50531a1.39452,1.44 0 0 0 1.48731,0c0.45696,-0.23593 0.74322,-0.76746 0.74322,-1.29898l0,-38.7444zm116.54523,-53.33333c-0.45696,-0.23593 -1.02948,-0.23593 -1.42954,0c-0.45696,0.29559 -0.74322,0.76836 -0.74322,1.29898l0,38.39096c0,0.35435 -0.17158,0.7087 -0.51474,0.94463a1.09426,1.12994 0 0 1 -1.02948,0l-6.0613,-3.60226a2.94749,3.04362 0 0 0 -2.91685,0l-24.24695,14.4696a2.91072,3.00565 0 0 0 -1.48644,2.59797l0,28.88135c0,1.06395 0.57164,2.06734 1.48644,2.59887l24.24695,14.47051a2.94749,3.04362 0 0 0 2.91685,0l24.24695,-14.47051a2.90984,3.00475 0 0 0 1.48644,-2.59797l0,-71.99637a2.93261,3.02825 0 0 0 -1.48644,-2.65763l-14.46869,-8.32813zm-2.22966,73.47344c0,0.29559 -0.11468,0.53153 -0.34316,0.64994l-8.29271,4.9609a0.84739,0.87503 0 0 1 -0.74322,0l-8.29183,-4.9609c-0.22848,-0.11751 -0.34316,-0.41311 -0.34316,-0.64994l0,-9.92181c0,-0.29469 0.11468,-0.53153 0.34316,-0.64904l8.29183,-4.96181a0.84739,0.87503 0 0 1 0.74322,0l8.29271,4.96181c0.22848,0.11751 0.34316,0.41311 0.34316,0.64904l0,9.92271l0,-0.0009zm82.91919,-10.15864c0.91567,-0.53153 1.43041,-1.53582 1.43041,-2.59887l0,-7.02825a2.97988,3.07706 0 0 0 -1.43041,-2.59887l-24.07538,-14.41085a2.94574,3.04181 0 0 0 -2.91597,0l-24.24695,14.47051a2.91072,3.00565 0 0 0 -1.48731,2.59797l0,28.88135c0,1.06395 0.57251,2.06734 1.48731,2.59887l24.07538,14.17491c0.9148,0.53243 2.00117,0.53243 2.85907,0l14.58249,-8.38599c0.45784,-0.23684 0.74322,-0.76836 0.74322,-1.29989s-0.28538,-1.06305 -0.74322,-1.29898l-24.36163,-14.47051c-0.45696,-0.29559 -0.74322,-0.76836 -0.74322,-1.29989l0,-9.03593c0,-0.53153 0.28626,-1.06305 0.74322,-1.29989l7.60639,-4.48814a1.39452,1.44 0 0 1 1.48644,0l7.60551,4.48814c0.45784,0.29559 0.74409,0.76836 0.74409,1.29989l0,7.087c0,0.53153 0.28538,1.06305 0.74322,1.29989a1.39539,1.4409 0 0 0 1.48644,0l14.41091,-8.68248z" clip-rule="evenodd" fill-rule="evenodd"/>
  <path stroke="null" id="svg_8" fill="#5FA04E" d="m227.13217,110.13322a0.51911,0.53605 0 0 1 0.57164,0l4.63177,2.77604c0.17158,0.11751 0.28626,0.29559 0.28626,0.53153l0,5.55209a0.60053,0.62011 0 0 1 -0.28626,0.53153l-4.63177,2.77514a0.51911,0.53605 0 0 1 -0.57164,0l-4.63264,-2.77514a0.59965,0.61921 0 0 1 -0.28538,-0.53153l0,-5.55209c0,-0.23593 0.1138,-0.41311 0.28538,-0.53153l4.63264,-2.77514l0,-0.0009z" clip-rule="evenodd" fill-rule="evenodd"/>
  <path stroke="null" id="svg_9" fill="url(#paint0_linear_337_7900)" d="m96.34761,84.97254a2.94749,3.04362 0 0 0 -2.91685,0l-24.07538,14.35209c-0.9148,0.53243 -1.42954,1.53672 -1.42954,2.59887l0,28.76384c0,1.06305 0.57164,2.06734 1.42954,2.59887l24.07538,14.35209a2.94749,3.04362 0 0 0 2.91685,0l24.07538,-14.35209c0.9148,-0.53153 1.42954,-1.53672 1.42954,-2.59887l0,-28.76384a2.98163,3.07887 0 0 0 -1.42954,-2.59797l-24.07538,-14.3539l0,0.0009z"/>
  <path stroke="null" id="svg_10" fill="url(#paint1_linear_337_7900)" d="m120.47988,99.32554l-24.19005,-14.3539a3.97696,4.10667 0 0 0 -0.74322,-0.29469l-27.04562,47.84271c0.22848,0.29559 0.58915,0.72678 0.8754,0.90395l24.05437,14.21469c0.68632,0.41311 1.48644,0.53153 2.23053,0.29469l25.44713,-48.07593a1.78933,1.84768 0 0 0 -0.62854,-0.53153z"/>
  <path stroke="null" id="svg_11" fill="url(#paint2_linear_337_7900)" d="m92.62976,79.71605l-0.34316,0.17718l0.45784,0l-0.11468,-0.17718z"/>
  <path stroke="null" id="svg_12" fill="url(#paint3_linear_337_7900)" d="m120.42036,133.28621c0.68632,-0.41401 1.30523,-1.1887 1.30523,-2.12249l-26.35318,-46.54463c-0.68632,-0.11842 -1.42954,-0.05966 -2.05895,0.35345l-24.0176,14.29333l25.90497,48.78553a3.97434,4.10395 0 0 0 1.08638,-0.35435l24.13315,-14.41085z"/>
 </g>
</svg>