<svg width="56" height="52" viewBox="0 0 56 52" fill="none" xmlns="http://www.w3.org/2000/svg">
<path d="M25.7933 2.0518C27.1166 1.33234 28.7144 1.33234 30.0378 2.0518L48.7101 12.2034C50.1404 12.9811 51.0309 14.4788 51.0309 16.1069V35.8933C51.0309 37.5214 50.1404 39.0191 48.7101 39.7968L30.0378 49.9484C28.7144 50.6679 27.1166 50.6679 25.7933 49.9484L7.12099 39.7968C5.69059 39.0191 4.8001 37.5214 4.8001 35.8933V16.1069C4.8001 14.4788 5.69059 12.9811 7.12099 12.2034L25.7933 2.0518Z" fill="url(#paint0_linear_21172_179712)" stroke="url(#paint1_linear_21172_179712)" stroke-width="1.26946"/>
<path d="M29.72 3.83771C28.5665 3.1923 27.0627 3.1952 25.9082 3.83771C24.4847 4.61927 23.0613 5.40089 21.6377 6.18252C17.2791 8.57581 12.9202 10.9692 8.56083 13.3612C7.43551 13.9502 6.67651 15.1525 6.68862 16.4004V35.582C6.68049 36.8542 7.47863 38.0682 8.63297 38.6491C9.25965 38.9808 9.8796 39.3252 10.4995 39.6696C11.5228 40.238 12.5459 40.8064 13.5991 41.3175C15.5525 42.2724 17.9965 42.4837 19.9739 41.4877C21.5789 40.6622 22.2918 38.8264 22.2898 37.1393C22.298 33.1412 22.2967 29.1429 22.2953 25.1447C22.2945 22.8124 22.2937 20.4801 22.2948 18.1478C22.333 17.8665 22.1207 17.5658 21.8123 17.5725C21.0733 17.5609 20.3334 17.5658 19.5945 17.5706C19.3152 17.5443 19.0427 17.7751 19.0638 18.0543C19.0586 21.3488 19.0594 24.6438 19.0602 27.9389C19.0609 30.9347 19.0616 33.9305 19.0578 36.9262C19.0739 37.7963 18.4831 38.6326 17.6402 38.9266C16.685 39.2742 15.6205 39.0046 14.7536 38.5509C14.2326 38.2648 13.7116 37.9792 13.1906 37.6935C12.1724 37.1352 11.1542 36.5769 10.1369 36.016C10.0349 35.969 9.95022 35.8928 9.89418 35.7976C9.83815 35.7024 9.81346 35.5927 9.82346 35.4835C9.82346 33.3739 9.82357 31.2644 9.82368 29.1549C9.8239 24.9359 9.82412 20.7171 9.82346 16.4987C9.79543 16.2437 9.95347 16.0139 10.1889 15.9098C13.3959 14.1536 16.6019 12.395 19.808 10.6363C22.3635 9.23455 24.919 7.83273 27.4752 6.43209C27.5752 6.36563 27.6936 6.33016 27.8148 6.33033C27.9359 6.3305 28.0542 6.36631 28.1541 6.43305C30.6994 7.82736 33.2444 9.22244 35.7894 10.6176C39.0067 12.3812 42.224 14.1449 45.4423 15.907C45.6786 16.011 45.8298 16.2446 45.8058 16.4987C45.8054 18.7998 45.8056 21.101 45.8057 23.4023C45.806 27.4291 45.8063 31.456 45.8038 35.4825C45.8209 35.7064 45.7046 35.9235 45.4944 36.0218C42.5256 37.654 39.5547 39.2826 36.5837 40.9113C33.8754 42.396 31.1671 43.8807 28.4604 45.3681C28.4255 45.387 28.3897 45.4074 28.3533 45.4282C28.1064 45.5691 27.8268 45.7287 27.5503 45.5735C26.698 45.1045 25.8517 44.625 25.0055 44.1456C24.3744 43.7881 23.7433 43.4306 23.1099 43.0775C22.9487 42.9773 22.7434 42.9345 22.5752 43.0463C22.535 43.0675 22.4947 43.0886 22.4544 43.1098C21.8295 43.438 21.2016 43.7677 20.5216 43.9779C20.4351 44.012 20.3433 44.0395 20.2509 44.0672C20 44.1423 19.7452 44.2186 19.5835 44.4305C19.7815 44.6948 20.0729 44.8524 20.3615 45.0084C20.4377 45.0495 20.5136 45.0906 20.5876 45.1335C21.3779 45.5784 22.1688 46.0226 22.9597 46.4668C23.9044 46.9973 24.8491 47.5279 25.793 48.0598C26.9346 48.7686 28.4685 48.8191 29.6469 48.164C32.3879 46.6612 35.1284 45.1576 37.8691 43.6539C40.9108 41.9851 43.9526 40.3161 46.9953 38.6483C48.1466 38.0641 48.9487 36.8551 48.9406 35.5818V16.4004C48.9517 15.1778 48.2217 13.9969 47.1304 13.3992C43.7322 11.5309 40.3331 9.66488 36.9339 7.79888C34.5292 6.47878 32.1244 5.15867 29.72 3.83771Z" fill="white"/>
<path d="M38.4455 18.2394C36.1758 17.0313 33.4756 16.967 30.9533 17.1248C29.1312 17.3039 27.2147 17.8042 25.8871 19.1038C24.5255 20.4102 24.2291 22.5198 24.8759 24.2253C25.3393 25.4303 26.506 26.2141 27.7124 26.6286C29.2665 27.1744 30.8987 27.3432 32.5314 27.512C34.0207 27.666 35.5104 27.82 36.9418 28.2603C37.5265 28.4531 38.2074 28.748 38.3865 29.3808C38.5518 30.1304 38.3706 31.0017 37.7588 31.5225C36.6595 32.3882 35.1687 32.4497 33.806 32.506C33.7314 32.5091 33.6572 32.5122 33.5836 32.5153C33.4396 32.5131 33.2944 32.5116 33.1484 32.51C31.5557 32.4928 29.8634 32.4745 28.4914 31.6139C27.7153 31.1009 27.3809 30.1926 27.2449 29.3273C27.2298 29.0576 27.0116 28.8102 26.7172 28.8307C25.9803 28.822 25.2433 28.8239 24.5064 28.8297C24.2492 28.8083 23.9819 28.9903 23.9678 29.2514C23.9087 30.7971 24.5034 32.3986 25.7209 33.4265C27.1447 34.6483 29.064 35.1194 30.9084 35.3238C32.8698 35.5097 34.8742 35.4991 36.8056 35.0804C38.2575 34.7515 39.7131 34.1459 40.7126 33.0332C41.945 31.6811 42.1873 29.668 41.6346 27.9838C41.212 26.7271 40.0045 25.921 38.77 25.5063C37.0914 24.9336 35.3369 24.7077 33.5816 24.4817C32.219 24.3063 30.856 24.1308 29.5277 23.793C29.5052 23.7861 29.4824 23.7792 29.4595 23.7722C28.9457 23.6158 28.3451 23.433 28.12 22.913C27.8706 22.1565 28.0828 21.2172 28.7816 20.7519C29.6919 20.1376 30.8472 20.0471 31.9216 19.9917C31.96 19.9913 31.9985 19.9909 32.0371 19.9906C33.4749 19.9767 34.9935 19.9621 36.308 20.6019C37.1872 21.04 37.6966 21.9395 37.9069 22.8477C37.9459 23.1146 38.1263 23.3929 38.4367 23.3812C38.9374 23.3912 39.4382 23.3893 39.939 23.3875C40.1701 23.3866 40.4012 23.3858 40.6323 23.3861C40.8837 23.4037 41.159 23.2624 41.2081 23.0064C41.177 21.1082 40.2028 19.1652 38.4455 18.2394Z" fill="white"/>
<defs>
<linearGradient id="paint0_linear_21172_179712" x1="0.49121" y1="51.8247" x2="57.1245" y2="2.21278" gradientUnits="userSpaceOnUse">
<stop stop-color="#77BB05"/>
<stop offset="0.53125" stop-color="#B2E633"/>
<stop offset="1" stop-color="#B4E246"/>
</linearGradient>
<linearGradient id="paint1_linear_21172_179712" x1="27.9155" y1="0.175537" x2="27.9155" y2="51.8247" gradientUnits="userSpaceOnUse">
<stop stop-color="white"/>
<stop offset="1" stop-color="white" stop-opacity="0.35"/>
</linearGradient>
</defs>
</svg>
