<svg width="100px" height="29px" version="1.1" viewBox="0 0 6.27 1.81" xmlns="http://www.w3.org/2000/svg">
 <defs>
  <style type="text/css"><![CDATA[
    .fil1 {fill:#767676}
    .fil2 {fill:lightgrey}
    .fil0 {fill:white}
   ]]></style>
 </defs>
 <rect class="fil0" width="6.27" height="1.81"/>
 <path class="fil1" d="m2.94 0.64v0.39l-0.2-0.39h-0.04-0.07-0.04v0.53h0.11v-0.39l0.21 0.39h0.03 0.08 0.03v-0.53h-0.11zm3.13 0v0.39l-0.21-0.39h-0.03-0.08-0.03v0.53h0.11v-0.39l0.2 0.39h0.04 0.07 0.04v-0.53h-0.11zm-1.76 0.09h0.12c0.07 0 0.09 0.02 0.09 0.07s-0.02 0.07-0.08 0.07h-0.13v-0.14zm0.33 0.44-0.1-0.22s0.01 0 0.02-0.01c0.05-0.03 0.08-0.07 0.08-0.14 0-0.1-0.07-0.16-0.18-0.16h-0.25v0.53h0.11v-0.2h0.13l0.09 0.2h0.1zm-2.44-0.23 0.07-0.23 0.08 0.23h-0.15zm0.22 0.23h0.11l-0.17-0.53h-0.06-0.04-0.06l-0.18 0.53h0.11l0.04-0.13h0.21l0.04 0.13zm2.59-0.39c-0.01-0.04-0.04-0.06-0.1-0.06-0.04 0-0.08 0.02-0.08 0.06s0.03 0.05 0.06 0.06l0.1 0.02c0.09 0.01 0.15 0.06 0.15 0.15s-0.07 0.17-0.22 0.17c-0.13 0-0.21-0.06-0.22-0.17h0.11c0.01 0.06 0.06 0.08 0.12 0.08s0.1-0.03 0.1-0.07-0.03-0.06-0.07-0.06l-0.1-0.02c-0.09-0.02-0.13-0.07-0.13-0.15s0.07-0.16 0.2-0.16c0.11 0 0.19 0.06 0.21 0.16l-0.13-0.01zm0.6 0.29v0.1h-0.39v-0.53h0.39v0.1h-0.27v0.11h0.27v0.1h-0.27v0.12h0.27zm-1.51 0v0.1h-0.39v-0.53h0.39v0.1h-0.28v0.11h0.28v0.1h-0.28v0.12h0.28zm-0.74 0c0.11 0 0.14-0.08 0.14-0.17s-0.03-0.16-0.14-0.16h-0.09v0.33h0.09zm0.02-0.43c0.16 0 0.24 0.1 0.24 0.26s-0.09 0.27-0.24 0.27h-0.22v-0.53h0.22z"/>
 <path class="fil1" d="m1.54 0.44c0.09 0.13 0.15 0.29 0.15 0.47 0 0.01 0 0.02-0.01 0.02-0.45-0.1-0.91 0.17-1.05 0.63-0.01 0.03-0.01 0.06-0.02 0.09-0.17-0.06-0.32-0.19-0.41-0.35 0.01 0.02 0.02 0.04 0.03 0.05 0.17 0.05 0.3 0.04 0.39 0.02-0.1-0.04-0.32-0.16-0.32-0.41 0.18 0.14 0.36 0.17 0.46 0.18-0.08-0.06-0.26-0.24-0.19-0.47 0.13 0.18 0.28 0.26 0.38 0.29-0.06-0.08-0.18-0.3-0.06-0.51 0.08 0.21 0.21 0.34 0.29 0.4-0.03-0.1-0.08-0.35 0.09-0.51 0.02 0.22 0.11 0.38 0.17 0.46 0-0.08 0.01-0.24 0.1-0.36z"/>
 <path class="fil2" d="m0.63 1.56c-0.01 0.03-0.01 0.06-0.02 0.09 0.09 0.03 0.18 0.05 0.28 0.05 0.43 0 0.78-0.34 0.8-0.77-0.46-0.1-0.92 0.17-1.06 0.63zm-0.01-0.19c-0.1-0.04-0.32-0.16-0.32-0.41 0.18 0.14 0.36 0.17 0.46 0.18-0.08-0.06-0.26-0.24-0.19-0.47 0.13 0.18 0.28 0.26 0.38 0.29-0.06-0.08-0.18-0.3-0.06-0.51 0.08 0.21 0.21 0.34 0.29 0.4-0.03-0.1-0.08-0.35 0.09-0.51 0.02 0.22 0.11 0.38 0.17 0.46 0-0.08 0.01-0.24 0.1-0.36-0.15-0.2-0.38-0.33-0.65-0.33-0.44 0-0.8 0.36-0.8 0.8 0 0.16 0.05 0.32 0.14 0.44 0.17 0.05 0.3 0.04 0.39 0.02z"/>
</svg>
