<svg width="99px" height="29px" version="1.1" viewBox="0 0 6.23 1.81" xmlns="http://www.w3.org/2000/svg">
 <defs>
  <style type="text/css"><![CDATA[
    .str0 {stroke:white;stroke-width:0.02;stroke-miterlimit:2.61313}
    .fil0 {fill:white}
    .fil1 {fill:#767676;fill-rule:nonzero}
   ]]></style>
 </defs>
 <rect class="fil0 str0" x=".01" y=".01" width="6.21" height="1.79"/>
 <path class="fil1" d="m1.88 0.83v0.26c0 0.06 0.03 0.1 0.09 0.1h0.03c0.07 0 0.1-0.04 0.1-0.1v-0.13h0.15v0.12c0 0.17-0.08 0.25-0.25 0.25h-0.03c-0.16 0-0.25-0.08-0.25-0.23v-0.62c0-0.19 0.09-0.27 0.25-0.27h0.03c0.17 0 0.25 0.08 0.25 0.25v0.37h-0.37zm0-0.15h0.22v-0.23c0-0.06-0.03-0.1-0.1-0.1h-0.02c-0.07 0-0.1 0.04-0.1 0.1v0.23zm1.11 0.26c0-0.14 0.04-0.19 0.16-0.24l0.21-0.07v-0.18c0-0.06-0.04-0.1-0.1-0.1h-0.03c-0.06 0-0.09 0.04-0.09 0.1v0.16h-0.15v-0.15c0-0.17 0.08-0.25 0.24-0.25h0.03c0.17 0 0.25 0.08 0.25 0.25v0.86h-0.15v-0.07c-0.01 0.01-0.03 0.02-0.04 0.03-0.02 0.01-0.03 0.02-0.05 0.03s-0.03 0.01-0.05 0.02h-0.05c-0.13 0-0.18-0.07-0.18-0.19v-0.2zm0.37 0.19v-0.36l-0.14 0.05c-0.06 0.03-0.08 0.06-0.08 0.12v0.17c0 0.05 0.03 0.07 0.08 0.07s0.09-0.01 0.14-0.05zm0.78 0.19h-0.16v-0.89c0-0.05-0.02-0.08-0.07-0.08-0.04 0-0.09 0.02-0.14 0.06v0.91h-0.16v-1.1h0.16v0.07c0.04-0.04 0.1-0.08 0.19-0.08 0.07 0 0.13 0.03 0.16 0.09 0.05-0.05 0.12-0.09 0.21-0.09 0.12 0 0.18 0.07 0.18 0.19v0.92h-0.16v-0.89c0-0.05-0.03-0.08-0.07-0.08s-0.09 0.02-0.14 0.06v0.91zm-2.62-1v0.2l-0.26 0.25 0.26 0.24v0.21l-0.39-0.37v-0.15l0.39-0.38zm3.58 0.38v0.15l-0.4 0.37v-0.21l0.26-0.24-0.26-0.25v-0.2l0.4 0.38zm-2.75-0.48h0.16v0.07c0.01-0.01 0.02-0.02 0.04-0.03 0.01-0.01 0.03-0.02 0.04-0.03 0.02-0.01 0.04-0.01 0.05-0.02h0.06c0.13 0 0.19 0.09 0.19 0.22v0.68c0 0.13-0.06 0.22-0.19 0.22h-0.06c-0.01-0.01-0.03-0.01-0.05-0.02-0.01-0.01-0.03-0.02-0.04-0.02-0.02-0.01-0.03-0.03-0.04-0.04v0.36h-0.16v-1.39zm0.16 0.91c0.01 0.01 0.02 0.01 0.03 0.02s0.02 0.01 0.03 0.02c0.01 0 0.03 0.01 0.04 0.01h0.04c0.06 0 0.09-0.02 0.09-0.09v-0.65c0-0.06-0.03-0.09-0.09-0.09-0.01 0-0.03 0.01-0.04 0.01s-0.03 0.01-0.04 0.01c-0.01 0.01-0.02 0.01-0.03 0.02-0.01 0-0.02 0.01-0.03 0.02v0.72z"/>
</svg>
