<svg width="100px" height="29px" version="1.1" viewBox="0 0 10.76 3.11" xmlns="http://www.w3.org/2000/svg">
 <defs>
  <style type="text/css"><![CDATA[
    .fil1 {fill:#767676}
    .fil0 {fill:white}
   ]]></style>
 </defs>
 <rect class="fil0" width="10.76" height="3.11"/>
 <path class="fil1" d="m4.56 1.72c0-0.15 0.03-0.25 0.08-0.31 0.04-0.04 0.1-0.06 0.15-0.06h0.01c0.07 0 0.12 0.02 0.16 0.06 0.02 0.02 0.03 0.05 0.04 0.07h0.31c-0.02-0.09-0.06-0.17-0.11-0.24-0.1-0.11-0.24-0.16-0.41-0.16s-0.3 0.06-0.39 0.17-0.14 0.26-0.14 0.46v0.02c0 0.19 0.05 0.35 0.14 0.46s0.22 0.17 0.39 0.17 0.31-0.06 0.41-0.17c0.05-0.07 0.09-0.15 0.11-0.23h-0.25c-0.03 0-0.06 0.01-0.08 0.04-0.01 0.01-0.01 0.02-0.02 0.03-0.04 0.04-0.09 0.06-0.16 0.06h-0.01c-0.06 0-0.11-0.02-0.15-0.07-0.05-0.06-0.08-0.16-0.08-0.3zm1.68-0.61c-0.05-0.02-0.11-0.03-0.17-0.03-0.04 0-0.07 0-0.11 0.01-0.09 0.03-0.18 0.09-0.22 0.18v-0.42c0-0.05-0.05-0.1-0.11-0.1h-0.19v1.59h0.3v-0.64c0-0.1 0.02-0.19 0.06-0.25s0.11-0.09 0.18-0.09h0.01 0.01c0.07 0 0.13 0.03 0.17 0.09 0.03 0.04 0.04 0.08 0.05 0.12s0.01 0.09 0.01 0.13v0.63h0.3v-0.71c0-0.14-0.03-0.25-0.09-0.33-0.05-0.08-0.12-0.14-0.2-0.18zm-2.22 0.14c-0.1-0.11-0.23-0.17-0.41-0.17-0.17 0-0.3 0.06-0.39 0.17s-0.14 0.27-0.14 0.46c0 0.21 0.05 0.37 0.14 0.48 0.1 0.11 0.23 0.17 0.4 0.17 0.13 0 0.25-0.04 0.34-0.11s0.15-0.17 0.18-0.29h-0.23c-0.04 0-0.07 0.01-0.09 0.04-0.03 0.04-0.09 0.09-0.19 0.09-0.07 0-0.13-0.03-0.17-0.07-0.04-0.05-0.06-0.12-0.06-0.22h0.76c0-0.24-0.05-0.44-0.14-0.55zm-0.62 0.35c0-0.08 0.02-0.14 0.06-0.19 0.04-0.04 0.1-0.06 0.15-0.06h0.01c0.07 0 0.13 0.02 0.16 0.06 0.04 0.04 0.06 0.1 0.06 0.19h-0.44zm-0.13-0.75c0-0.05-0.05-0.1-0.1-0.1h-1.02v0.28h0.4v1.3h0.31v-1.3h0.41v-0.18zm5.22 0.29c-0.07 0.02-0.14 0.06-0.2 0.1-0.06 0.06-0.1 0.12-0.13 0.2-0.04 0.09-0.05 0.18-0.05 0.28v0.02 0.59h0.3v-0.63c0-0.09 0.02-0.16 0.06-0.2 0.05-0.04 0.11-0.06 0.19-0.06h0.1v-0.33h-0.04c-0.08 0-0.15 0.01-0.23 0.03zm0.92 0.3c0.06 0 0.1-0.05 0.1-0.11v-0.22h-0.35v-0.26c0-0.05-0.04-0.1-0.1-0.1h-0.2v0.98c-0.01 0.1 0.01 0.2 0.05 0.3 0.03 0.07 0.07 0.14 0.13 0.19s0.13 0.09 0.2 0.1c0.08 0.03 0.15 0.04 0.23 0.04h0.04v-0.33h-0.1c-0.08 0-0.14-0.02-0.19-0.06-0.04-0.05-0.06-0.11-0.06-0.21v-0.32h0.25zm-2.17-0.69c-0.06 0-0.12 0.04-0.14 0.1l-0.5 1.48h0.33l0.1-0.32h0.59l0.1 0.32h0.33l-0.55-1.58h-0.26zm-0.13 0.99 0.21-0.67 0.21 0.67h-0.42zm-5.41 0.59h0.31v-1.17h-0.31v1.17zm-0.46-1.06v0.23h0.32v-0.34h-0.21c-0.06 0-0.11 0.05-0.11 0.11zm0.77-0.52h-0.21c-0.03 0-0.05 0.01-0.07 0.03h-0.01c-0.01 0.02-0.02 0.05-0.02 0.07v0.18h0.31v-0.28zm-0.45 1.24h-0.32v0.34h0.32v-0.34z"/>
</svg>
