<svg width="100px" height="29px" version="1.1" viewBox="0 0 6.21 1.79" xmlns="http://www.w3.org/2000/svg">
 <defs>
  <style type="text/css"><![CDATA[
    .fil1 {fill:#767676}
    .fil0 {fill:white}
   ]]></style>
 </defs>
 <rect class="fil0" width="6.21" height="1.79"/>
 <path class="fil1" d="m1.16 0.54c0-0.19 0.16-0.35 0.36-0.35h0.71c0.19 0 0.35 0.16 0.35 0.35v0.71c0 0.2-0.16 0.36-0.35 0.36h-0.71c-0.2 0-0.36-0.16-0.36-0.36v-0.71zm0.95-0.08h-0.13l0.11 0.19-0.24-0.19h-0.13l0.12 0.23-0.25-0.23h-0.13l0.13 0.29-0.13 0.59h0.13l0.25-0.63-0.12 0.63h0.13l0.24-0.67-0.11 0.67h0.13l0.23-0.74-0.23-0.14zm1.99 0.45v0.31h0.13v-0.29c0-0.13 0.18-0.13 0.18-0.13v-0.13s-0.05 0-0.09 0.01c-0.11 0.03-0.22 0.08-0.22 0.23zm-0.96-0.25c0.05 0 0.11 0.03 0.14 0.08 0.04-0.04 0.1-0.07 0.17-0.07 0.09-0.01 0.2 0.05 0.2 0.22v0.33h-0.13v-0.33c0-0.06-0.04-0.1-0.1-0.1s-0.1 0.04-0.1 0.1v0.33h-0.13v-0.33c0-0.06-0.04-0.1-0.1-0.1s-0.11 0.04-0.11 0.1v0.33h-0.13v-0.54h0.13v0.06c0.04-0.05 0.09-0.08 0.16-0.08zm0.81 0.03v0.53h-0.13v-0.53h0.13zm-0.07-0.09c0.04 0 0.07-0.03 0.07-0.07s-0.03-0.07-0.07-0.07-0.07 0.03-0.07 0.07 0.03 0.07 0.07 0.07zm0.88 0.06c-0.16 0-0.29 0.13-0.29 0.29s0.13 0.28 0.29 0.28 0.29-0.12 0.29-0.28-0.13-0.29-0.29-0.29zm0 0.45c-0.09 0-0.16-0.08-0.16-0.17s0.07-0.16 0.16-0.16 0.16 0.07 0.16 0.16-0.07 0.17-0.16 0.17z"/>
</svg>
