<svg width="100px" height="29px" version="1.1" viewBox="0 0 6.27 1.81" xmlns="http://www.w3.org/2000/svg">
 <defs>
  <style type="text/css"><![CDATA[
    .fil1 {fill:#767676}
    .fil0 {fill:white}
   ]]></style>
 </defs>
 <rect class="fil0" width="6.27" height="1.81"/>
 <path class="fil1" d="m0.08 0.17h1.47v1.47h-1.47v-1.47zm1.07 0.54c-0.03-0.03-0.08-0.04-0.12-0.04-0.07 0-0.13 0.02-0.17 0.07l0.06 0.07c0.03-0.03 0.07-0.05 0.11-0.05 0.07 0 0.13 0.06 0.13 0.14v0.01c0.01 0.07-0.05 0.14-0.12 0.14h-0.01c-0.21 0-0.15-0.38-0.42-0.38-0.13 0-0.23 0.1-0.24 0.22v0.01 0.42h0.1v-0.22c0.04 0.03 0.08 0.04 0.13 0.04 0.06 0 0.12-0.02 0.17-0.07l-0.07-0.07c-0.02 0.03-0.06 0.05-0.1 0.05-0.08 0-0.14-0.06-0.14-0.14l0.01-0.01c-0.01-0.07 0.04-0.14 0.12-0.14h0.01c0.2 0 0.15 0.38 0.42 0.38 0.13 0 0.23-0.1 0.23-0.22v-0.02-0.41h-0.09v0.22h-0.01zm1.04-0.18h-0.25v0.65h0.1v-0.25h0.15c0.15 0 0.24-0.07 0.24-0.2 0-0.12-0.09-0.2-0.24-0.2zm0 0.3h-0.15v-0.2h0.15c0.09 0 0.13 0.03 0.13 0.1s-0.05 0.1-0.13 0.1zm0.62-0.09v0.05c-0.03-0.04-0.09-0.06-0.14-0.06-0.12 0-0.22 0.1-0.22 0.22v0.01c-0.01 0.13 0.08 0.23 0.21 0.24h0.01c0.05 0 0.11-0.02 0.14-0.07v0.06h0.1v-0.45h-0.1zm-0.13 0.37c-0.08 0-0.14-0.06-0.14-0.14v-0.01c0-0.07 0.05-0.14 0.13-0.14 0.07-0.01 0.13 0.05 0.14 0.12v0.02c0.01 0.07-0.05 0.14-0.12 0.14 0 0.01-0.01 0.01-0.01 0.01zm0.75-0.2v0.28h-0.1v-0.25c0-0.08-0.04-0.12-0.1-0.12-0.07 0-0.12 0.04-0.12 0.11v0.01 0.25h-0.1v-0.45h0.1v0.05c0.03-0.04 0.08-0.07 0.14-0.06 0.09-0.01 0.17 0.07 0.18 0.16v0.02zm0.42-0.4v0.28c-0.03-0.04-0.08-0.06-0.14-0.06-0.12 0-0.22 0.1-0.22 0.22v0.01c-0.01 0.13 0.09 0.23 0.21 0.24h0.01c0.06 0 0.11-0.02 0.14-0.07v0.06h0.1v-0.68h-0.1zm-0.13 0.6c-0.07 0-0.13-0.06-0.13-0.14v-0.01c-0.01-0.07 0.05-0.14 0.12-0.14 0.08-0.01 0.14 0.05 0.15 0.12v0.02c0 0.07-0.05 0.14-0.12 0.14-0.01 0.01-0.01 0.01-0.02 0.01zm0.67-0.37v0.05c-0.03-0.04-0.09-0.06-0.14-0.06-0.12 0-0.22 0.1-0.22 0.22v0.01c-0.01 0.13 0.09 0.23 0.21 0.24h0.01c0.05 0 0.11-0.02 0.14-0.07v0.06h0.1v-0.45h-0.1zm-0.13 0.37c-0.07 0-0.13-0.06-0.13-0.14v-0.01c-0.01-0.07 0.04-0.14 0.12-0.14 0.07-0.01 0.14 0.05 0.14 0.12v0.02c0.01 0.07-0.05 0.14-0.12 0.14 0 0.01-0.01 0.01-0.01 0.01zm0.6-0.58h-0.26v0.66h0.26c0.2 0 0.34-0.13 0.34-0.33s-0.13-0.33-0.34-0.33zm0 0.56h-0.15v-0.46h0.15c0.15 0 0.23 0.1 0.23 0.23s-0.08 0.23-0.23 0.23zm0.63-0.36c-0.13 0-0.23 0.11-0.23 0.24s0.11 0.23 0.24 0.23c0.13-0.01 0.23-0.11 0.23-0.24 0-0.12-0.1-0.23-0.23-0.23h-0.01zm0 0.38c-0.08 0-0.14-0.06-0.14-0.14v-0.01c0-0.08 0.05-0.14 0.13-0.15 0.08 0 0.15 0.06 0.15 0.13v0.02c0 0.08-0.05 0.14-0.13 0.14 0 0.01-0.01 0.01-0.01 0.01zm0.7-0.31-0.06 0.07c-0.03-0.03-0.07-0.05-0.11-0.05-0.07 0-0.13 0.06-0.13 0.14v0.01c-0.01 0.07 0.05 0.13 0.12 0.14h0.01c0.04 0 0.08-0.02 0.11-0.05l0.06 0.07c-0.04 0.05-0.1 0.07-0.17 0.07-0.12 0.01-0.23-0.09-0.23-0.21v-0.02c-0.01-0.13 0.09-0.23 0.21-0.24h0.02c0.07 0 0.13 0.02 0.17 0.07z"/>
</svg>
