<svg width="100px" height="29px" version="1.1" viewBox="0 0 8.69 2.51" xmlns="http://www.w3.org/2000/svg">
 <defs>
  <style type="text/css"><![CDATA[
    .fil1 {fill:#767676}
    .fil0 {fill:white}
   ]]></style>
 </defs>
 <rect class="fil0" width="8.69" height="2.51"/>
 <path class="fil1" d="m0.95 1.98c-0.04-0.03-0.05-0.06-0.03-0.08l0.07-0.1c0.02-0.04 0.05-0.04 0.1-0.01 0.03 0.02 0.07 0.05 0.13 0.07 0.05 0.03 0.11 0.04 0.17 0.04 0.04 0 0.08-0.01 0.12-0.02s0.07-0.02 0.09-0.05 0.03-0.06 0.03-0.1c0-0.02 0-0.04-0.01-0.06s-0.03-0.04-0.05-0.05c-0.02-0.02-0.04-0.03-0.06-0.03-0.04-0.02-0.09-0.03-0.14-0.05-0.06-0.01-0.12-0.03-0.17-0.05s-0.1-0.05-0.14-0.08-0.07-0.07-0.09-0.11c-0.03-0.04-0.04-0.09-0.04-0.16 0-0.08 0.03-0.15 0.08-0.21 0.06-0.06 0.12-0.09 0.19-0.11 0.07-0.01 0.14-0.02 0.21-0.02s0.14 0.01 0.22 0.03c0.07 0.02 0.13 0.05 0.17 0.08s0.05 0.06 0.03 0.08l-0.08 0.09c-0.02 0.04-0.05 0.04-0.1 0.01-0.02-0.01-0.06-0.03-0.1-0.06-0.05-0.02-0.1-0.03-0.15-0.03-0.03 0-0.06 0.01-0.09 0.01-0.03 0.01-0.06 0.02-0.08 0.04s-0.04 0.05-0.04 0.08c0 0.04 0.01 0.06 0.03 0.08s0.03 0.03 0.06 0.04l0.06 0.03c0.06 0.02 0.12 0.04 0.17 0.05 0.05 0.02 0.1 0.03 0.14 0.05 0.06 0.03 0.11 0.05 0.14 0.08s0.06 0.06 0.08 0.11c0.02 0.04 0.03 0.1 0.03 0.16 0 0.09-0.03 0.17-0.09 0.23-0.07 0.06-0.13 0.1-0.21 0.12-0.07 0.01-0.14 0.02-0.21 0.02-0.11 0-0.19-0.01-0.26-0.03-0.06-0.02-0.13-0.05-0.18-0.09zm1.11-0.15c0-0.12 0.05-0.2 0.17-0.25 0.11-0.05 0.24-0.08 0.39-0.09v-0.03c0-0.05-0.01-0.09-0.04-0.11-0.03-0.03-0.07-0.04-0.12-0.04-0.03 0-0.06 0.01-0.09 0.02s-0.05 0.02-0.07 0.03-0.03 0.03-0.05 0.04c-0.03 0.02-0.05 0.02-0.07 0l-0.07-0.09c-0.02-0.02-0.02-0.04 0.01-0.06 0.02-0.02 0.05-0.04 0.07-0.05 0.03-0.01 0.07-0.03 0.11-0.04 0.05-0.01 0.11-0.02 0.18-0.02 0.13 0 0.22 0.03 0.29 0.09 0.07 0.05 0.1 0.13 0.1 0.24v0.58c0 0.03-0.02 0.05-0.05 0.05h-0.15c-0.03 0-0.05-0.02-0.05-0.05v-0.06c-0.04 0.04-0.08 0.06-0.13 0.08-0.05 0.01-0.09 0.02-0.13 0.02-0.1 0-0.18-0.02-0.23-0.07s-0.07-0.11-0.07-0.19zm0.26-0.01c0 0.02 0.01 0.04 0.01 0.06 0.01 0.01 0.03 0.02 0.04 0.03 0.02 0.01 0.04 0.01 0.06 0.01 0.03 0 0.06 0 0.09-0.01s0.06-0.03 0.1-0.06v-0.19c-0.1 0.01-0.17 0.03-0.2 0.04-0.04 0.02-0.06 0.04-0.08 0.06-0.01 0.02-0.02 0.04-0.02 0.06zm0.7-0.49c-0.03 0-0.05-0.01-0.05-0.04v-0.09c0-0.03 0.02-0.04 0.05-0.04h0.07v-0.03c0-0.03 0-0.05 0.01-0.07l0.07-0.12c0.02-0.02 0.03-0.03 0.05-0.03h0.06c0.04 0 0.06 0.02 0.06 0.05v0.2h0.14c0.04 0 0.05 0.01 0.05 0.04v0.09c0 0.03-0.01 0.04-0.05 0.04h-0.14v0.43c0 0.06 0 0.11 0.01 0.13 0.01 0.03 0.03 0.04 0.07 0.04 0.02 0 0.04 0 0.06-0.01 0.02 0 0.04-0.01 0.05-0.02 0.02-0.01 0.04 0 0.05 0.02l0.02 0.1c0.01 0.02 0 0.04-0.02 0.05s-0.05 0.01-0.08 0.02c-0.04 0.01-0.07 0.01-0.11 0.01-0.08 0-0.15-0.02-0.21-0.05s-0.09-0.1-0.09-0.21v-0.51h-0.07zm0.67 0.29c0-0.14 0.03-0.26 0.11-0.34 0.07-0.09 0.18-0.13 0.32-0.13 0.16 0 0.28 0.04 0.36 0.12 0.07 0.08 0.11 0.21 0.11 0.39 0 0.03-0.01 0.05-0.05 0.05h-0.59c0.01 0.1 0.03 0.16 0.07 0.18 0.04 0.03 0.09 0.04 0.14 0.04s0.08 0 0.12-0.02c0.02-0.02 0.04-0.03 0.06-0.05 0.02-0.03 0.05-0.03 0.08-0.02l0.09 0.06c0.03 0.02 0.03 0.04 0.01 0.07-0.04 0.04-0.06 0.07-0.13 0.1-0.08 0.03-0.12 0.03-0.23 0.03-0.17 0-0.29-0.04-0.37-0.13-0.07-0.08-0.1-0.2-0.1-0.35zm0.26-0.08h0.39c0-0.07-0.01-0.12-0.05-0.16-0.03-0.04-0.08-0.06-0.15-0.06-0.06 0-0.1 0.02-0.13 0.06-0.04 0.04-0.06 0.09-0.06 0.16zm0.89 0.56c-0.03 0-0.05-0.02-0.05-0.05v-1.03c0-0.02 0-0.05 0.02-0.07l0.07-0.11c0.01-0.03 0.02-0.04 0.04-0.04h0.06c0.04 0 0.06 0.02 0.06 0.05v1.2c0 0.03-0.02 0.05-0.06 0.05h-0.14zm0.5 0c-0.04 0-0.06-0.02-0.06-0.05v-1.03c0-0.02 0.01-0.05 0.02-0.07l0.07-0.11c0.01-0.03 0.03-0.04 0.05-0.04h0.06c0.04 0 0.05 0.02 0.05 0.05v1.2c0 0.03-0.01 0.05-0.05 0.05h-0.14zm0.49 0c-0.03 0-0.05-0.02-0.05-0.05v-0.81c0-0.03 0.02-0.05 0.05-0.05h0.14c0.04 0 0.06 0.02 0.06 0.05v0.81c0 0.03-0.02 0.05-0.06 0.05h-0.14zm0.38-0.77c-0.04 0-0.05-0.01-0.05-0.04v-0.09c0-0.03 0.01-0.04 0.05-0.04h0.06v-0.03c0-0.03 0.01-0.05 0.02-0.07l0.07-0.12c0.01-0.02 0.03-0.03 0.04-0.03h0.07c0.03 0 0.05 0.02 0.05 0.05v0.2h0.15c0.03 0 0.05 0.01 0.05 0.04v0.09c0 0.03-0.02 0.04-0.05 0.04h-0.15v0.43c0 0.06 0 0.11 0.01 0.13 0.01 0.03 0.03 0.04 0.07 0.04 0.02 0 0.04 0 0.06-0.01 0.03 0 0.05-0.01 0.06-0.02 0.02-0.01 0.03 0 0.04 0.02l0.03 0.1c0 0.02-0.01 0.04-0.03 0.05s-0.04 0.01-0.08 0.02c-0.03 0.01-0.07 0.01-0.1 0.01-0.09 0-0.16-0.02-0.22-0.05s-0.09-0.1-0.09-0.21v-0.51h-0.06zm0.66 0.29c0-0.14 0.04-0.26 0.11-0.34 0.08-0.09 0.19-0.13 0.32-0.13 0.16 0 0.28 0.04 0.36 0.12s0.12 0.21 0.12 0.39c0 0.03-0.02 0.05-0.05 0.05h-0.59c0 0.1 0.03 0.16 0.07 0.18 0.04 0.03 0.08 0.04 0.14 0.04 0.05 0 0.07 0 0.11-0.02 0.03-0.02 0.05-0.03 0.07-0.05 0.02-0.03 0.04-0.03 0.07-0.02l0.09 0.06c0.04 0.02 0.04 0.04 0.01 0.07-0.03 0.04-0.06 0.07-0.12 0.1-0.09 0.03-0.13 0.03-0.23 0.03-0.18 0-0.3-0.04-0.37-0.13-0.07-0.08-0.11-0.2-0.11-0.35zm0.27-0.08h0.39c0-0.07-0.02-0.12-0.05-0.16s-0.09-0.06-0.16-0.06c-0.05 0-0.1 0.02-0.13 0.06s-0.05 0.09-0.05 0.16zm-1.23-0.48c0.06 0 0.12-0.06 0.12-0.12 0-0.07-0.06-0.12-0.12-0.12-0.07 0-0.13 0.05-0.13 0.12 0 0.06 0.06 0.12 0.13 0.12zm0-0.45c-0.11 0-0.21 0.05-0.28 0.13-0.01 0.03-0.01 0.06 0.02 0.08 0.02 0.02 0.06 0.01 0.07-0.01 0.05-0.06 0.11-0.09 0.19-0.09 0.07 0 0.13 0.03 0.18 0.09 0.01 0.01 0.02 0.02 0.04 0.02 0.01 0 0.02-0.01 0.03-0.01 0.03-0.02 0.03-0.05 0.02-0.08-0.07-0.08-0.17-0.13-0.27-0.13zm0.4-0.03c-0.1-0.11-0.25-0.17-0.4-0.17-0.16 0-0.31 0.06-0.41 0.17-0.02 0.02-0.02 0.06 0.01 0.08 0.01 0.01 0.02 0.01 0.03 0.01 0.02 0 0.03-0.01 0.04-0.02 0.09-0.09 0.2-0.14 0.33-0.14 0.12 0 0.23 0.05 0.32 0.14 0.02 0.02 0.05 0.03 0.07 0.01 0.03-0.02 0.03-0.06 0.01-0.08z"/>
</svg>
