<svg width="100px" height="29px" version="1.1" viewBox="0 0 8.69 2.51" xmlns="http://www.w3.org/2000/svg">
 <defs>
  <style type="text/css"><![CDATA[
    .fil1 {fill:#767676}
    .fil0 {fill:white}
   ]]></style>
 </defs>
 <rect class="fil0" width="8.69" height="2.51"/>
 <path class="fil1" d="m0.52 0.96 0.07 0.43v0.06h0.02c0-0.01 0.01-0.05 0.01-0.06l0.06-0.43h0.36l-0.2 0.71h-0.47l-0.2-0.71h0.35zm0.91-0.01v0.72h-0.35v-0.7l0.35-0.02zm-0.01-0.21c0 0.09-0.07 0.16-0.17 0.16-0.09 0-0.16-0.07-0.16-0.16 0-0.1 0.07-0.17 0.16-0.17 0.1 0 0.17 0.07 0.17 0.17zm0.67 0.44c-0.06-0.03-0.13-0.05-0.2-0.05-0.03 0-0.06 0.01-0.06 0.03 0 0.08 0.3 0.08 0.3 0.28s-0.15 0.25-0.35 0.25c-0.09 0-0.18-0.01-0.27-0.04l-0.01-0.2c0.07 0.03 0.14 0.04 0.21 0.05 0.05 0 0.08-0.01 0.08-0.04 0-0.02-0.29-0.05-0.29-0.29 0-0.16 0.17-0.23 0.33-0.23 0.08 0.01 0.16 0.02 0.24 0.04l0.02 0.2zm0.45-0.23v0.43c0 0.07 0.01 0.1 0.06 0.1 0.04 0 0.04-0.02 0.05-0.06v-0.45l0.35-0.02v0.7l-0.3 0.04-0.03-0.12h-0.01c-0.04 0.07-0.12 0.12-0.21 0.12-0.15 0-0.26-0.08-0.26-0.25v-0.47l0.35-0.02zm0.89 0.46c-0.01-0.01-0.02-0.01-0.04-0.01-0.03 0-0.06 0.02-0.06 0.07 0 0.06 0.03 0.08 0.06 0.08 0.02 0 0.04-0.02 0.04-0.04v-0.1zm-0.29-0.41c0.1-0.04 0.21-0.06 0.31-0.06 0.31 0 0.4 0.1 0.4 0.29v0.26l0.02 0.17-0.32 0.03-0.02-0.1h-0.01c-0.04 0.06-0.11 0.11-0.19 0.11h-0.01c-0.12 0-0.26-0.07-0.26-0.23s0.19-0.23 0.3-0.23h0.01 0.14v-0.02c0-0.05-0.05-0.07-0.13-0.07s-0.17 0.02-0.25 0.05l0.01-0.2zm1.15-0.31v0.74l0.02 0.22-0.32 0.03-0.05-0.19v-0.77l0.35-0.03zm0.15 0.29v-0.05c0-0.13 0.06-0.24 0.3-0.24 0.06 0 0.11 0.01 0.17 0.03l0.01 0.19c-0.02 0-0.05-0.01-0.07-0.01-0.04 0-0.07 0.02-0.07 0.06v0.03h0.13l-0.03 0.21h-0.1v0.47h-0.34v-0.46l-0.09-0.02v-0.19l0.09-0.02zm0.79 0.43c-0.02-0.01-0.03-0.01-0.05-0.01-0.03 0-0.05 0.02-0.05 0.07 0 0.06 0.02 0.08 0.05 0.08 0.02 0 0.04-0.02 0.05-0.04v-0.1zm-0.27-0.41c0.11-0.04 0.21-0.06 0.32-0.06 0.31 0 0.39 0.1 0.39 0.29v0.26l0.02 0.17-0.32 0.03-0.02-0.1h-0.01c-0.04 0.06-0.11 0.11-0.19 0.11h-0.01c-0.12 0-0.26-0.07-0.26-0.23s0.19-0.23 0.3-0.23h0.01 0.14v-0.02c0-0.05-0.05-0.07-0.13-0.07s-0.17 0.02-0.25 0.05l0.01-0.2zm1.13 0.49c0.01 0.01 0.03 0.02 0.04 0.02 0.06 0 0.1-0.07 0.1-0.19s-0.03-0.16-0.07-0.16-0.07 0.03-0.07 0.11v0.22zm0.02-0.8v0.27c0 0.03 0 0.07-0.01 0.1h0.02c0.03-0.07 0.11-0.12 0.19-0.12h0.01c0.17 0 0.27 0.14 0.27 0.34 0 0.26-0.17 0.41-0.41 0.41-0.15 0-0.29-0.04-0.42-0.1v-0.87l0.35-0.03zm0.85 0.27 0.02 0.14h0.02c0.01-0.09 0.07-0.15 0.14-0.15 0.03 0 0.06 0.01 0.09 0.02l-0.02 0.28-0.09-0.02c-0.05 0-0.09 0.02-0.11 0.06v0.38h-0.34v-0.46l-0.03-0.22 0.32-0.03zm0.66-0.01v0.72h-0.35v-0.7l0.35-0.02zm-0.01-0.21c0 0.09-0.07 0.16-0.17 0.16-0.09 0-0.16-0.07-0.16-0.16 0-0.1 0.07-0.17 0.16-0.17 0.1 0 0.17 0.07 0.17 0.17zm0.91 1.18-0.34 0.02v-0.27c-0.01 0-0.01-0.01-0.01-0.01 0-0.03 0.01-0.06 0.01-0.09h-0.01c-0.04 0.07-0.12 0.12-0.2 0.12-0.17 0-0.28-0.14-0.28-0.34 0-0.26 0.17-0.41 0.41-0.41 0.15 0 0.29 0.03 0.42 0.09v0.89zm-0.34-0.77c-0.02-0.01-0.04-0.02-0.05-0.02-0.06 0-0.1 0.07-0.1 0.19s0.03 0.16 0.07 0.16c0.05 0 0.06-0.04 0.08-0.12v-0.21z"/>
</svg>
