<svg width="100px" height="29px" version="1.1" viewBox="0 0 10.76 3.11" xmlns="http://www.w3.org/2000/svg">
 <defs>
  <style type="text/css"><![CDATA[
    .fil1 {fill:#767676}
    .fil0 {fill:white}
   ]]></style>
 </defs>
 <rect class="fil0" width="10.76" height="3.11"/>
 <path class="fil1" d="m3.73 0.99c-0.23 0-0.38 0.16-0.4 0.39 0 0.01 0.02 0.02 0.03 0.02h0.1c0.02 0 0.03 0 0.03-0.02 0.01-0.15 0.1-0.25 0.25-0.25 0.16 0 0.25 0.11 0.25 0.27v0.17h-0.26c-0.25 0-0.42 0.17-0.42 0.38 0 0.24 0.17 0.41 0.42 0.41s0.41-0.17 0.41-0.41v-0.55c0-0.23-0.16-0.41-0.41-0.41zm0.27 0.96c0 0.16-0.1 0.27-0.26 0.27-0.17 0-0.27-0.11-0.27-0.27 0-0.13 0.1-0.23 0.26-0.23h0.27v0.23zm0.77-0.17c0.25 0 0.42-0.16 0.42-0.38 0-0.24-0.17-0.41-0.42-0.41-0.26 0-0.42 0.17-0.42 0.42v0.54c0 0.25 0.16 0.41 0.42 0.41 0.24 0 0.41-0.16 0.42-0.41 0-0.02-0.02-0.03-0.03-0.03h-0.11c-0.01 0-0.02 0.01-0.02 0.03-0.01 0.16-0.11 0.27-0.26 0.27-0.16 0-0.26-0.11-0.26-0.27v-0.17h0.26zm-0.26-0.14v-0.23c0-0.17 0.09-0.27 0.26-0.27 0.16 0 0.26 0.11 0.26 0.26 0 0.14-0.1 0.24-0.26 0.24h-0.26zm1.39 0.56h-0.03c-0.15 0-0.23-0.1-0.23-0.3v-0.74h0.23c0.02 0 0.03-0.01 0.03-0.03v-0.09c0-0.01-0.01-0.02-0.03-0.02h-0.23v-0.35c0-0.01-0.02-0.02-0.03-0.02h-0.1c-0.02 0-0.03 0.01-0.03 0.02v0.35h-0.17c-0.02 0-0.03 0.01-0.03 0.02v0.09c0 0.02 0.01 0.03 0.03 0.03h0.17v0.74c0 0.28 0.14 0.45 0.38 0.45h0.04c0.01 0 0.02-0.01 0.02-0.03v-0.09c0-0.02-0.01-0.03-0.02-0.03zm0.31-0.85c0-0.13 0.09-0.22 0.24-0.22 0.16 0 0.24 0.11 0.25 0.25 0 0.02 0.01 0.03 0.03 0.03h0.1c0.02 0 0.03-0.02 0.03-0.03-0.01-0.24-0.15-0.39-0.41-0.39-0.24 0-0.39 0.17-0.39 0.36 0 0.44 0.66 0.34 0.66 0.66 0 0.12-0.08 0.21-0.24 0.21-0.18 0-0.27-0.09-0.28-0.27 0-0.02-0.01-0.03-0.03-0.03h-0.1c-0.02 0-0.03 0.01-0.03 0.03 0.01 0.25 0.17 0.41 0.44 0.42 0.24 0 0.4-0.17 0.4-0.36 0-0.46-0.67-0.36-0.67-0.66zm1.24-0.36c-0.26 0-0.42 0.18-0.42 0.41v0.55c0 0.24 0.16 0.42 0.42 0.42 0.25 0 0.42-0.18 0.42-0.42v-0.55c0-0.23-0.17-0.41-0.42-0.41zm0.26 0.96c0 0.16-0.1 0.27-0.26 0.27s-0.26-0.11-0.26-0.27v-0.55c0-0.16 0.09-0.27 0.26-0.27 0.16 0 0.26 0.11 0.26 0.27v0.55zm0.93-0.93h-0.31v-0.09c0-0.21 0.11-0.31 0.28-0.31 0.01 0 0.03-0.01 0.03-0.02v-0.09c0-0.02-0.02-0.03-0.03-0.03-0.25 0-0.44 0.17-0.44 0.45v0.08h-0.17c-0.01 0-0.03 0.02-0.03 0.03v0.09c0 0.02 0.02 0.03 0.03 0.03h0.17v1.15c0 0.02 0.02 0.03 0.03 0.03h0.1c0.02 0 0.03-0.01 0.03-0.03v-1.15h0.31c0.02 0 0.03-0.01 0.03-0.03v-0.09c0-0.01-0.01-0.02-0.03-0.02zm0.71 1.18h-0.03c-0.15 0-0.23-0.1-0.23-0.3v-0.74h0.23c0.02 0 0.03-0.01 0.03-0.03v-0.09c0-0.01-0.01-0.02-0.03-0.02h-0.23v-0.35c0-0.01-0.01-0.02-0.03-0.02h-0.1c-0.02 0-0.03 0.01-0.03 0.02v0.35h-0.17c-0.02 0-0.03 0.01-0.03 0.02v0.09c0 0.02 0.01 0.03 0.03 0.03h0.17v0.74c0 0.28 0.14 0.45 0.38 0.45h0.04c0.01 0 0.03-0.01 0.03-0.03v-0.09c0-0.02-0.01-0.03-0.03-0.03zm-6.88-1.14c0-0.35-0.21-0.58-0.54-0.58s-0.55 0.23-0.55 0.58v1.54c0 0.02 0.02 0.03 0.04 0.03h0.13c0.02 0 0.03-0.02 0.03-0.03v-0.48c0.03 0.01 0.06 0.01 0.09 0.01 0.36 0 0.28-0.5 0.52-0.5 0.03 0 0.06 0.01 0.08 0.02v0.35h-0.11c-0.01 0-0.02 0.01-0.02 0.02v0.08c0 0.01 0.01 0.02 0.02 0.02h0.11v0.48c0 0.02 0.02 0.03 0.04 0.03h0.13c0.02 0 0.03-0.02 0.03-0.03v-1.54zm-0.89 0c0-0.25 0.13-0.4 0.35-0.4s0.34 0.15 0.34 0.4v0.47c-0.02-0.01-0.05-0.01-0.08-0.01-0.35 0-0.27 0.5-0.53 0.5-0.03 0-0.06-0.01-0.08-0.02v-0.38h0.13c0.02 0 0.02 0 0.02-0.02v-0.07c0-0.01-0.01-0.02-0.02-0.02h-0.13v-0.45z"/>
</svg>
