<svg width="100px" height="29px" style="clip-rule:evenodd;fill-rule:evenodd;image-rendering:optimizeQuality;shape-rendering:geometricPrecision;text-rendering:geometricPrecision" version="1.1" viewBox="0 0 7.28 2.1" xmlns="http://www.w3.org/2000/svg">
 <defs>
  <style type="text/css"><![CDATA[
    .fil1 {fill:#767676}
    .fil3 {fill:#DEDEDE}
    .fil2 {fill:#EFEFEF}
    .fil0 {fill:white}
   ]]></style>
 </defs>
 <rect class="fil0" width="7.28" height="2.1"/>
 <path class="fil1" d="m3.01 1.1c0.04 0 0.08 0.01 0.11 0.03 0.04 0.04 0.07 0.09 0.07 0.15 0 0.05-0.02 0.1-0.05 0.13-0.04 0.03-0.08 0.05-0.13 0.05-0.06 0-0.11-0.02-0.14-0.06-0.03-0.03-0.04-0.07-0.04-0.12 0-0.04 0.01-0.09 0.04-0.12s0.08-0.06 0.14-0.06zm1.35 0.01h0.02c0.09 0.01 0.15 0.08 0.15 0.17 0 0.05-0.01 0.09-0.04 0.12s-0.08 0.06-0.13 0.06-0.09-0.02-0.12-0.05-0.05-0.08-0.05-0.13c0-0.09 0.07-0.17 0.16-0.17h0.01zm0.19-0.17h0.2v0.68h-0.2v-0.1c-0.06 0.07-0.14 0.11-0.24 0.11-0.17 0-0.31-0.16-0.31-0.35 0-0.2 0.14-0.36 0.31-0.36 0.1 0 0.18 0.04 0.24 0.12v-0.1zm-2.8-0.35h0.35c0.04 0 0.08 0.01 0.12 0.02l0.02 0.01c0.02 0 0.03 0.01 0.05 0.02s0.03 0.01 0.05 0.03c0.05 0.03 0.1 0.07 0.14 0.11 0.01 0.02 0.03 0.04 0.04 0.06l0.01 0.01c0 0.02 0.01 0.03 0.02 0.05 0 0.01 0.03 0.08 0.03 0.11v0.19l-0.01 0.03c-0.01 0.03-0.01 0.06-0.03 0.09 0 0.01-0.01 0.02-0.01 0.03l-0.01 0.01c-0.01 0.03-0.03 0.05-0.05 0.07v0.01c-0.01 0.01-0.02 0.02-0.04 0.03-0.02 0.03-0.05 0.05-0.07 0.06-0.04 0.02-0.07 0.04-0.11 0.05 0 0-0.01 0-0.02 0.01-0.06 0.01-0.1 0.01-0.17 0.02h-0.31v-1.02zm0.24 0.19v0.63h0.1c0.03-0.01 0.06-0.01 0.09-0.03 0.06-0.02 0.11-0.08 0.14-0.15v-0.02c0.01 0 0.01-0.01 0.01-0.02 0.01-0.07 0.01-0.14-0.01-0.21v-0.02c-0.01-0.01-0.02-0.03-0.03-0.05v-0.01l-0.05-0.05c-0.01-0.01-0.03-0.02-0.05-0.03l-0.03-0.02c-0.02 0-0.04-0.02-0.06-0.02h-0.11zm1.21 0.16h0.2v0.68h-0.2v-0.1c-0.06 0.07-0.14 0.11-0.24 0.11-0.17 0-0.31-0.16-0.31-0.35 0-0.2 0.14-0.36 0.31-0.36 0.1 0 0.18 0.04 0.24 0.12v-0.1zm0.4-0.35h0.22v0.34h0.14v0.19h-0.14v0.49h-0.22v-0.49h-0.08v-0.19h0.08v-0.34zm1.63 0h0.27c0 0.02 0.01 0.05 0.02 0.07s0.01 0.03 0.02 0.05c0 0.01 0 0.01 0.01 0.02 0 0.01 0 0.02 0.01 0.03v0.02c0.01 0.01 0.01 0.02 0.01 0.03 0.01 0.01 0.02 0.03 0.02 0.04s0.01 0.02 0.01 0.03c0.01 0.01 0.01 0.03 0.02 0.05 0 0.01 0.01 0.02 0.01 0.03 0.01 0.01 0.01 0.03 0.02 0.05 0 0 0 0.01 0.01 0.02v0.02c0.01 0.01 0.01 0.02 0.02 0.03v0.02c0.01 0.01 0.01 0.02 0.01 0.02 0.01 0.02 0.01 0.04 0.02 0.05 0 0.01 0.01 0.02 0.01 0.03 0.01 0.02 0.01 0.04 0.02 0.06 0 0 0 0.01 0.01 0.01 0.01 0.03 0.01 0.05 0.02 0.08 0.01 0 0.01 0.01 0.01 0.02 0.01 0.01 0.01 0.02 0.01 0.03 0.01 0.01 0.01 0.01 0.01 0.02 0.01 0.02 0.02 0.04 0.02 0.06 0.01 0.01 0.01 0.01 0.01 0.02s0.01 0.02 0.01 0.02c0.01 0.02 0.01 0.04 0.02 0.05 0 0.01 0 0.02 0.01 0.03v0.01h-0.24-0.01v-0.01l-0.03-0.09v-0.01c-0.01-0.02-0.02-0.05-0.03-0.07h-0.41v0.02c-0.01 0.01-0.01 0.01-0.01 0.02s-0.01 0.02-0.01 0.02c0 0.01-0.01 0.02-0.01 0.03s0 0.01-0.01 0.02l-0.02 0.08h-0.25l0.03-0.09 0.01-0.02c0.01-0.02 0.02-0.04 0.02-0.06l0.01-0.01v-0.02c0.01-0.01 0.02-0.03 0.02-0.05 0.01-0.01 0.01-0.02 0.01-0.03 0.01-0.01 0.02-0.03 0.02-0.05 0-0.01 0.01-0.01 0.01-0.02s0.01-0.02 0.01-0.03c0.01-0.02 0.01-0.03 0.02-0.05s0.02-0.04 0.02-0.06c0.01-0.01 0.01-0.03 0.02-0.05 0 0 0.01-0.01 0.01-0.02s0.01-0.02 0.01-0.03 0.01-0.02 0.01-0.03 0.01-0.01 0.01-0.02c0.01-0.02 0.01-0.04 0.02-0.06 0.01-0.01 0.01-0.03 0.02-0.04 0-0.02 0.01-0.03 0.01-0.04 0 0 0.01-0.01 0.01-0.02 0 0 0-0.01 0.01-0.02 0-0.01 0-0.02 0.01-0.03 0-0.01 0.01-0.02 0.01-0.03 0.01-0.02 0.01-0.03 0.02-0.05 0-0.01 0-0.02 0.01-0.02 0-0.02 0.01-0.04 0.02-0.07l0.01-0.01zm0.12 0.25c0 0.02-0.01 0.04-0.02 0.06-0.01 0.03-0.02 0.06-0.02 0.09l-0.01-0.01v0.02c0 0.01 0 0.02-0.01 0.03v0.02s-0.01 0.01-0.01 0.02v0.01c-0.01 0.01-0.01 0.02-0.01 0.02-0.01 0.02-0.01 0.03-0.02 0.04v0.02s-0.01 0.01-0.01 0.02-0.01 0.03-0.01 0.04v0.02h-0.01v0.02h0.28c0-0.01 0-0.02-0.01-0.03 0-0.01 0-0.02-0.01-0.04 0 0 0-0.01-0.01-0.02 0-0.01 0-0.02-0.01-0.03v-0.02h-0.01c0-0.03-0.01-0.05-0.02-0.08 0-0.01 0-0.01-0.01-0.02v-0.01c-0.01-0.02-0.01-0.03-0.02-0.05v-0.01c-0.01-0.01-0.01-0.02-0.01-0.03-0.01-0.02-0.02-0.05-0.03-0.08h-0.01zm1.14-0.25h0.22v0.03 0.32h0.14v0.18h-0.14v0.41 0.09h-0.22v-0.11-0.92zm-0.54 0.35c0.07 0 0.14 0.01 0.21 0v0.17l0.02-0.03c0-0.01 0.01-0.03 0.02-0.05 0.01-0.01 0.02-0.02 0.02-0.03h0.01c0.01-0.01 0.02-0.02 0.04-0.03 0-0.01 0.01-0.01 0.02-0.02 0.05-0.01 0.1-0.01 0.15 0-0.01 0.02-0.01 0.13-0.01 0.17-0.05 0-0.11-0.01-0.16 0.01-0.03 0.01-0.05 0.02-0.06 0.04-0.02 0.02-0.03 0.04-0.03 0.06l-0.01 0.03c-0.01 0.11 0 0.23-0.01 0.35h-0.21v-0.1-0.57z"/>
 <polygon class="fil1" points="0.92 1.1 1.43 1.62 0.4 1.62"/>
 <polygon class="fil2" points="0.92 1.1 1.43 0.58 0.4 0.58"/>
 <polygon class="fil1" points="0.92 1.1 1.43 0.58 1.43 1.62"/>
 <polygon class="fil3" points="0.92 1.1 0.4 0.58 0.4 1.62"/>
 <polygon class="fil2" points="1.43 1.62 0.93 1.62 1.43 1.11"/>
 <polygon class="fil2" points="0.92 1.1 1.17 1.36 0.66 1.36"/>
 <polygon class="fil3" points="1.17 0.84 1.43 0.58 1.43 1.1"/>
</svg>
