<svg width="100px" height="29px" version="1.1" viewBox="0 0 10.76 3.11" xmlns="http://www.w3.org/2000/svg">
 <defs>
  <style type="text/css"><![CDATA[
    .fil1 {fill:#767676}
    .fil0 {fill:white}
   ]]></style>
 </defs>
 <rect class="fil0" width="10.76" height="3.11"/>
 <path class="fil1" d="m6.7 2.04c-0.18-0.02-0.17-0.21-0.17-0.35v-0.31h0.3c0.03 0 0.05-0.02 0.05-0.04v-0.33c0-0.02-0.02-0.04-0.05-0.04h-0.3v-0.29c0-0.03-0.02-0.05-0.04-0.05h-0.36c-0.03 0-0.05 0.02-0.05 0.05v0.96c0 0.19 0 0.39 0.09 0.56 0.1 0.18 0.3 0.26 0.51 0.26h0.28c0.03 0 0.05-0.02 0.05-0.04v-0.32c0-0.03-0.02-0.04-0.05-0.04-0.08-0.01-0.18 0-0.26-0.02zm1.11 0c-0.18-0.02-0.17-0.21-0.17-0.35v-0.31h0.3c0.03 0 0.05-0.02 0.05-0.04v-0.33c0-0.02-0.02-0.04-0.05-0.04h-0.3v-0.29c0-0.03-0.02-0.05-0.04-0.05h-0.36c-0.02 0-0.04 0.02-0.04 0.05v0.96c0 0.19-0.01 0.39 0.08 0.56 0.1 0.18 0.31 0.26 0.51 0.26h0.29c0.02 0 0.04-0.02 0.04-0.04v-0.32c0-0.03-0.02-0.04-0.04-0.04-0.09-0.01-0.19 0-0.27-0.02zm-2.7-1.07c-0.41 0-0.74 0.34-0.74 0.75 0 0.42 0.33 0.75 0.74 0.75s0.74-0.33 0.74-0.75c0-0.41-0.33-0.75-0.74-0.75zm0 1.11c-0.2 0-0.35-0.16-0.35-0.36s0.15-0.36 0.35-0.36 0.35 0.16 0.35 0.36-0.15 0.36-0.35 0.36zm-1.42-1.41v0.36c-0.51-0.22-1.09 0.19-1.05 0.75 0.04 0.52 0.61 0.85 1.08 0.62 0.25-0.14 0.41-0.39 0.41-0.68v-1.04c0-0.03-0.02-0.05-0.05-0.05h-0.35c-0.03 0-0.04 0.02-0.04 0.04zm-0.3 1.41c-0.2 0-0.36-0.16-0.36-0.36s0.16-0.36 0.36-0.36c0.19 0 0.35 0.16 0.35 0.36s-0.16 0.36-0.35 0.36z"/>
</svg>
