<svg width="100px" height="29px" version="1.1" viewBox="0 0 6.27 1.81" xmlns="http://www.w3.org/2000/svg">
 <defs>
  <style type="text/css"><![CDATA[
    .fil1 {fill:#767676}
    .fil0 {fill:white}
   ]]></style>
 </defs>
 <rect class="fil0" width="6.27" height="1.81"/>
 <path class="fil1" d="m4.42 0.47h0.08v0.08c0.06 0 0.11 0 0.16 0.04 0.08 0.05 0.12 0.17 0.08 0.27-0.04 0.09-0.14 0.14-0.24 0.13v0.07h-0.08v-0.07c-0.11 0.01-0.22-0.05-0.25-0.15s0.02-0.22 0.11-0.26c0.04-0.03 0.09-0.03 0.14-0.03v-0.08zm-0.11 0.19c-0.07 0.04-0.08 0.14-0.03 0.19 0.03 0.05 0.09 0.06 0.14 0.06 0-0.09-0.01-0.18 0-0.27-0.04 0-0.08-0.01-0.11 0.02zm0.19-0.02v0.26c0.05 0.01 0.1 0 0.13-0.04 0.05-0.05 0.05-0.15-0.01-0.19-0.03-0.03-0.08-0.03-0.12-0.03zm-2.68-0.05c0.08-0.06 0.2-0.05 0.27 0.02v-0.05h0.08c0.01 0.14 0.01 0.28 0 0.42h-0.09c0.01-0.02 0.01-0.04 0.01-0.05-0.08 0.09-0.24 0.08-0.31-0.02-0.08-0.09-0.07-0.25 0.04-0.32zm0.1 0.05c-0.1 0.02-0.14 0.15-0.07 0.22 0.06 0.08 0.2 0.05 0.23-0.05 0.04-0.09-0.07-0.2-0.16-0.17zm1-0.09c0.13-0.03 0.27 0.08 0.27 0.21 0.01 0.11-0.09 0.22-0.2 0.23s-0.22-0.07-0.24-0.18c-0.03-0.12 0.06-0.24 0.17-0.26zm0.01 0.09c-0.1 0.02-0.13 0.16-0.05 0.23 0.06 0.07 0.19 0.03 0.22-0.06 0.03-0.1-0.07-0.2-0.17-0.17zm0.34 0.03c0.05-0.1 0.18-0.15 0.28-0.11 0.03 0.01 0.06 0.03 0.08 0.05l-0.06 0.06c-0.03-0.01-0.06-0.04-0.1-0.03-0.07-0.01-0.14 0.06-0.13 0.13 0 0.07 0.06 0.13 0.13 0.13 0.04 0.01 0.07-0.02 0.1-0.04 0.02 0.03 0.04 0.05 0.06 0.07-0.07 0.06-0.17 0.08-0.26 0.04-0.1-0.05-0.15-0.2-0.1-0.3zm0.57-0.12c0.09-0.01 0.17 0.02 0.22 0.09 0.06 0.08 0.05 0.2-0.01 0.27-0.05 0.07-0.16 0.1-0.24 0.07-0.09-0.03-0.15-0.12-0.15-0.21-0.01-0.1 0.08-0.2 0.18-0.22zm0 0.09c-0.04 0.01-0.08 0.05-0.09 0.09-0.02 0.07 0.02 0.15 0.09 0.17 0.08 0.03 0.18-0.04 0.17-0.13 0.01-0.09-0.09-0.16-0.17-0.13zm-2.57-0.08h0.08v0.17h0.21v-0.17h0.09v0.42h-0.09v-0.17h-0.21c0.01 0.06 0 0.11 0 0.17h-0.08v-0.42zm1.01 0h0.09v0.17h0.21v-0.17h0.09v0.42h-0.09v-0.17h-0.21v0.17h-0.09v-0.42zm2.5 0h0.39v0.08c-0.05 0.01-0.1 0.01-0.15 0v0.34h-0.09v-0.33h-0.15v-0.09zm0.53 0.38h0.14c0 0.07 0.01 0.14 0 0.21-0.01 0.11-0.1 0.21-0.21 0.22h-0.18v-0.14h0.17c0.04-0.01 0.08-0.05 0.08-0.09v-0.2zm-2.75 0.22c0.04-0.05 0.11-0.05 0.17-0.06 0.01 0.01 0.01 0.02 0.01 0.04-0.04 0.01-0.09 0.01-0.13 0.03-0.02 0.01-0.03 0.04-0.04 0.07 0.03-0.03 0.08-0.05 0.13-0.03s0.07 0.09 0.04 0.14c-0.04 0.07-0.16 0.07-0.2 0-0.02-0.06-0.02-0.14 0.02-0.19zm0.05 0.09c-0.04 0.02-0.04 0.08 0 0.11s0.1-0.01 0.09-0.06c0.01-0.05-0.05-0.07-0.09-0.05zm-1.34-0.06h0.04v0.03c0.04-0.04 0.11-0.04 0.15 0 0.05 0.05 0.03 0.16-0.04 0.18-0.04 0.01-0.08 0-0.11-0.02v0.1h-0.04v-0.29zm0.08 0.17c0.05 0.03 0.11-0.04 0.08-0.09-0.01-0.04-0.05-0.04-0.08-0.04-0.05 0.03-0.05 0.1 0 0.13zm0.22-0.16c0.04-0.02 0.09-0.01 0.12 0.01v-0.02h0.05c0 0.07 0 0.14-0.01 0.21h-0.03c-0.01 0-0.01-0.02-0.01-0.02-0.03 0.03-0.09 0.03-0.13 0.01-0.06-0.04-0.06-0.16 0.01-0.19zm0.03 0.04c-0.05 0.02-0.05 0.11 0.01 0.12 0.04 0.02 0.09-0.03 0.08-0.07 0-0.05-0.05-0.07-0.09-0.05zm0.18-0.03c0.06-0.02 0.14-0.04 0.18 0.02 0.01 0.03-0.02 0.05-0.03 0.07 0.03 0 0.04 0.04 0.03 0.07-0.04 0.05-0.13 0.04-0.18 0.01v-0.03c0.05 0.01 0.11 0.03 0.14-0.01-0.01-0.04-0.06-0.03-0.09-0.03v-0.03c0.03 0 0.05 0 0.08-0.01 0-0.01 0-0.02-0.01-0.03-0.03-0.02-0.07-0.01-0.11 0 0-0.01-0.01-0.03-0.01-0.03zm0.23-0.02h0.04v0.03c0.04-0.04 0.1-0.04 0.14-0.01 0.06 0.05 0.05 0.16-0.03 0.19-0.03 0.01-0.07 0-0.11-0.02 0.01 0.03 0.01 0.06 0.01 0.1h-0.05v-0.29zm0.08 0.04c-0.02 0.02-0.04 0.04-0.04 0.07 0 0.04 0.06 0.08 0.1 0.06s0.04-0.09 0.01-0.12c-0.02-0.01-0.04-0.01-0.07-0.01zm0.23-0.03c0.03-0.02 0.08-0.01 0.11 0.01v-0.02h0.05v0.21h-0.05c0.01-0.01 0.01-0.02 0.01-0.03-0.04 0.04-0.1 0.04-0.14 0.01-0.06-0.05-0.05-0.15 0.02-0.18zm0.02 0.04c-0.04 0.02-0.05 0.1 0 0.12s0.11-0.03 0.09-0.07c0-0.05-0.05-0.07-0.09-0.05zm0.5-0.04c0.05-0.02 0.11-0.01 0.14 0.03 0.03 0.02 0.03 0.07 0.02 0.11-0.03 0.08-0.16 0.09-0.2 0.01-0.04-0.05-0.02-0.13 0.04-0.15zm-0.01 0.07c-0.02 0.05 0.04 0.12 0.09 0.09s0.04-0.1 0-0.13c-0.03 0-0.08 0-0.09 0.04zm0.19-0.08h0.2v0.04h-0.08v0.17h-0.05v-0.17h-0.07v-0.04zm0.22 0h0.05v0.09h0.04c0.03-0.03 0.05-0.06 0.07-0.09h0.05c-0.03 0.03-0.05 0.07-0.08 0.1 0.03 0.04 0.06 0.08 0.08 0.11h-0.06l-0.06-0.09c-0.01 0.01-0.02 0.01-0.04 0.01v0.08h-0.05c0-0.07 0.01-0.14 0-0.21zm0.27 0.01c0.04-0.02 0.09-0.01 0.12 0.02v-0.03h0.05v0.21h-0.05v-0.02c-0.03 0.03-0.08 0.03-0.12 0.01-0.07-0.04-0.07-0.15 0-0.19zm0 0.06c-0.03 0.05 0.03 0.13 0.09 0.1 0.05-0.03 0.04-0.1-0.01-0.13-0.02 0-0.06 0-0.08 0.03zm-2.55-0.58h-0.14v-0.21c0.01-0.11 0.1-0.2 0.21-0.21 0.06-0.01 0.12-0.01 0.18-0.01v0.14c-0.05 0.01-0.11 0-0.16 0.01s-0.08 0.04-0.08 0.09c-0.01 0.06 0 0.13-0.01 0.19z"/>
</svg>
