<svg width="100px" height="29px" version="1.1" viewBox="0 0 8.69 2.51" xmlns="http://www.w3.org/2000/svg">
 <defs>
  <style type="text/css"><![CDATA[
    .fil1 {fill:#767676}
    .fil0 {fill:white}
   ]]></style>
 </defs>
 <rect class="fil0" width="8.69" height="2.51"/>
 <path class="fil1" d="m5.85 0.28h0.17v0.18h-0.17v-0.18zm1.54 0.41c0.13 0 0.26 0.05 0.34 0.15 0.09 0.11 0.15 0.24 0.14 0.38v0.07h-0.8c0.01 0.18 0.16 0.32 0.34 0.31 0.12 0 0.23-0.04 0.32-0.12l0.09 0.12c-0.11 0.11-0.27 0.16-0.42 0.16-0.14 0-0.27-0.05-0.37-0.15s-0.15-0.24-0.14-0.38c-0.01-0.15 0.04-0.29 0.14-0.39 0.09-0.1 0.22-0.15 0.36-0.15zm0 0.16c-0.08-0.01-0.16 0.02-0.22 0.08-0.05 0.06-0.09 0.13-0.1 0.21h0.63c-0.01-0.08-0.05-0.15-0.1-0.21-0.06-0.05-0.13-0.08-0.21-0.08zm-0.8 0.91h-0.17v-1.48h0.17v1.48zm-5.62-0.89c0.1-0.1 0.24-0.16 0.38-0.16 0.15 0 0.29 0.06 0.39 0.16s0.16 0.23 0.15 0.38c0.01 0.14-0.05 0.28-0.15 0.37-0.1 0.11-0.24 0.16-0.39 0.16-0.14 0-0.28-0.05-0.38-0.16-0.1-0.09-0.16-0.23-0.15-0.37-0.01-0.15 0.05-0.29 0.15-0.38zm0.38 0.01c-0.09-0.01-0.19 0.03-0.25 0.1-0.07 0.07-0.11 0.16-0.1 0.26-0.01 0.1 0.03 0.2 0.1 0.26 0.06 0.07 0.16 0.11 0.25 0.1 0.1 0.01 0.19-0.03 0.26-0.1s0.11-0.16 0.1-0.26c0.01-0.1-0.03-0.19-0.1-0.26s-0.16-0.1-0.26-0.1zm2.8 0.88h-0.18v-0.14c-0.08 0.1-0.22 0.16-0.36 0.16s-0.27-0.05-0.36-0.16c-0.1-0.1-0.15-0.24-0.15-0.37 0-0.15 0.05-0.28 0.15-0.38 0.09-0.1 0.23-0.16 0.36-0.15 0.14-0.01 0.28 0.05 0.36 0.16v-0.15h0.18v1.03zm-0.52-0.88c-0.09-0.01-0.19 0.03-0.25 0.1-0.07 0.08-0.1 0.17-0.1 0.27 0 0.09 0.04 0.18 0.1 0.26 0.14 0.13 0.37 0.13 0.5 0 0.07-0.08 0.11-0.17 0.1-0.26 0.01-0.1-0.03-0.19-0.1-0.27-0.06-0.07-0.15-0.1-0.25-0.1zm2.39 0.88h-0.17v-1.03h0.17v1.03zm-1.08-1.05c0.14 0 0.27 0.06 0.36 0.16v-0.14h0.17v0.95c0.01 0.14-0.04 0.28-0.15 0.38-0.1 0.1-0.25 0.14-0.39 0.14-0.25 0-0.36-0.08-0.36-0.08l0.1-0.13c0.08 0.04 0.17 0.06 0.26 0.06 0.1 0 0.2-0.03 0.27-0.1 0.06-0.06 0.1-0.15 0.09-0.25v-0.09c-0.08 0.1-0.21 0.16-0.35 0.15-0.13 0.01-0.27-0.05-0.36-0.14-0.1-0.11-0.15-0.24-0.15-0.38s0.05-0.28 0.15-0.38 0.23-0.15 0.36-0.15zm0.03 0.17c-0.1-0.01-0.19 0.03-0.25 0.1-0.07 0.07-0.1 0.16-0.1 0.26-0.01 0.09 0.03 0.18 0.1 0.25 0.13 0.14 0.35 0.14 0.49 0 0.07-0.06 0.1-0.16 0.1-0.25 0-0.1-0.03-0.19-0.1-0.26-0.06-0.07-0.15-0.1-0.24-0.1zm-1.63-0.6h-0.22l-0.63 0.82-0.3-0.37h-0.22l0.41 0.52-0.77 0.97h0.21l0.66-0.85 0.3 0.39h0.21l-0.4-0.53 0.75-0.95z"/>
</svg>
