<svg width="100px" height="29px" version="1.1" viewBox="0 0 7.28 2.1" xmlns="http://www.w3.org/2000/svg">
 <defs>
  <style type="text/css"><![CDATA[
    .fil0 {fill:white}
    .fil1 {fill:#767676;fill-rule:nonzero}
   ]]></style>
 </defs>
 <rect class="fil0" width="7.28" height="2.1"/>
 <path class="fil1" d="m2.82 1.66v0.16h-0.24c-0.06 0-0.1 0-0.12-0.01s-0.04-0.03-0.05-0.05c0-0.02-0.01-0.05-0.01-0.1-0.07 0-0.13-0.02-0.18-0.06s-0.09-0.09-0.1-0.15c-0.02-0.07-0.03-0.16-0.03-0.28v-0.42c0-0.09 0.01-0.16 0.02-0.2 0-0.05 0.03-0.1 0.06-0.14s0.06-0.08 0.11-0.1 0.1-0.03 0.16-0.03c0.07 0 0.13 0.01 0.19 0.04s0.1 0.06 0.12 0.1c0.03 0.04 0.05 0.09 0.06 0.13 0 0.04 0.01 0.11 0.01 0.2v0.44c0 0.12-0.01 0.2-0.02 0.24s-0.03 0.08-0.06 0.1c-0.03 0.03-0.07 0.05-0.12 0.06 0.01 0.03 0.01 0.05 0.02 0.06 0.01 0 0.03 0.01 0.07 0.01h0.11zm-0.32-1c0-0.07 0-0.11-0.01-0.12 0-0.02-0.01-0.03-0.03-0.03s-0.03 0.01-0.04 0.02-0.01 0.06-0.01 0.13v0.63 0.14c0.01 0.02 0.02 0.03 0.04 0.03s0.04-0.01 0.04-0.03c0.01-0.02 0.01-0.07 0.01-0.15v-0.62z"/>
 <path class="fil1" d="m3.62 0.55v1.11h-0.31l0.01-0.09c-0.02 0.03-0.05 0.06-0.08 0.08s-0.07 0.03-0.11 0.03-0.08-0.01-0.11-0.03-0.05-0.04-0.06-0.07c-0.02-0.03-0.03-0.06-0.03-0.09s-0.01-0.1-0.01-0.19v-0.75h0.31v0.75 0.16c0.01 0.01 0.02 0.02 0.04 0.02s0.04-0.01 0.04-0.02c0.01-0.02 0.01-0.07 0.01-0.16v-0.75h0.3z"/>
 <polygon class="fil1" points="4.04 0.31 4.04 1.66 3.73 1.66 3.73 0.31"/>
 <path class="fil1" d="m4.46 0.31v0.17h-0.31v-0.17h0.31zm0 0.24v1.11h-0.31v-1.11h0.31z"/>
 <path class="fil1" d="m5.17 0.55-0.12 0.53 0.14 0.58h-0.29c-0.03-0.15-0.05-0.27-0.07-0.38-0.02 0.13-0.04 0.26-0.06 0.38h-0.26l0.14-0.58-0.14-0.53h0.26c0.04 0.23 0.06 0.36 0.06 0.39 0.03-0.19 0.05-0.32 0.07-0.39h0.27z"/>
</svg>
