<svg width="60" height="54" viewBox="0 0 60 54" fill="none" xmlns="http://www.w3.org/2000/svg">
<path d="M29.9768 5.77972C29.3286 5.17641 28.6819 4.61226 28.0393 4.09005C25.7983 2.26863 23.5182 0.883408 21.3328 0.176399C19.1485 -0.530227 16.8063 -0.628937 14.7706 0.546372C12.7349 1.72168 11.6492 3.79947 11.1691 6.0444C10.6886 8.29056 10.7482 10.9578 11.2051 13.8093C11.3361 14.6269 11.5013 15.469 11.6997 16.332C10.853 16.5917 10.0409 16.8697 9.2673 17.1651C6.56938 18.1952 4.22969 19.4772 2.52469 21.0164C0.820599 22.5547 -0.436 24.5337 -0.436 26.8844C-0.436 29.235 0.820599 31.2141 2.52469 32.7524C4.22969 34.2915 6.56937 35.5735 9.2673 36.6036C10.0409 36.899 10.8529 37.1771 11.6996 37.4367C11.5012 38.2997 11.336 39.1419 11.205 39.9595C10.7481 42.811 10.6885 45.4782 11.169 47.7244C11.6491 49.9693 12.7348 52.0471 14.7705 53.2224C16.8062 54.3977 19.1484 54.299 21.3326 53.5924C23.5181 52.8854 25.7982 51.5001 28.0392 49.6787C28.6818 49.1565 29.3286 48.5923 29.9768 47.989C30.625 48.5923 31.2717 49.1565 31.9143 49.6787C34.1554 51.5001 36.4355 52.8853 38.6209 53.5924C40.8052 54.299 43.1474 54.3977 45.1831 53.2224C47.2188 52.0471 48.3044 49.9693 48.7846 47.7244C49.265 45.4782 49.2054 42.811 48.7486 39.9594C48.6176 39.1418 48.4524 38.2996 48.2539 37.4366C49.1004 37.1769 49.9123 36.8989 50.6857 36.6036C53.3836 35.5735 55.7233 34.2915 57.4283 32.7524C59.1324 31.2141 60.389 29.235 60.389 26.8844C60.389 24.5337 59.1324 22.5547 57.4283 21.0164C55.7233 19.4772 53.3836 18.1952 50.6857 17.1651C49.9122 16.8698 49.1003 16.5918 48.2538 16.3321C48.4523 15.4691 48.6175 14.6269 48.7484 13.8093C49.2053 10.9578 49.2649 8.29057 48.7845 6.04442C48.3043 3.79948 47.2187 1.7217 45.183 0.546388C43.1473 -0.628921 40.805 -0.530211 38.6208 0.176415C36.4353 0.883424 34.1553 2.26865 31.9142 4.09006L32.3145 4.58263L31.9142 4.09006C31.2717 4.61228 30.6249 5.17641 29.9768 5.77972Z" fill="url(#paint0_linear_21172_180118)" stroke="url(#paint1_linear_21172_180118)" stroke-width="1.26946"/>
<path fill-rule="evenodd" clip-rule="evenodd" d="M17.1322 4.71274C17.8548 4.29555 18.919 4.18565 20.4395 4.67756C21.9598 5.1694 23.7607 6.21449 25.7263 7.812C26.402 8.36119 27.0893 8.96916 27.7829 9.63213C26.2454 11.3175 24.7174 13.217 23.2409 15.2933C20.7045 15.5338 18.2955 15.9073 16.0672 16.3962C15.8399 15.464 15.657 14.5648 15.5192 13.705C15.1185 11.2041 15.1139 9.12189 15.4481 7.55933C15.7824 5.99654 16.4096 5.12994 17.1322 4.71274ZM27.73 5.34664C28.4806 5.9567 29.2389 6.62813 29.9998 7.35643C30.7607 6.62814 31.519 5.95671 32.2696 5.34666C34.4113 3.60598 36.558 2.30973 38.5822 1.65489C40.6062 1.00013 42.6835 0.93821 44.4558 1.96147C46.2281 2.98472 47.2132 4.81467 47.6581 6.89486C48.1031 8.97527 48.0539 11.4825 47.6172 14.2076C47.4642 15.1627 47.2619 16.1552 47.0116 17.1783C48.0227 17.4731 48.9833 17.7941 49.8869 18.1391C52.4652 19.1235 54.6612 20.3345 56.2404 21.7601C57.8194 23.1855 58.9117 24.9536 58.9117 27.0001C58.9117 29.0466 57.8194 30.8146 56.2404 32.24C54.6612 33.6656 52.4652 34.8766 49.8869 35.8611C48.9833 36.2061 48.0228 36.527 47.0117 36.8218C47.262 37.845 47.4643 38.8374 47.6174 39.7926C48.054 42.5177 48.1032 45.0249 47.6582 47.1053C47.2133 49.1855 46.2282 51.0155 44.4559 52.0387C42.6836 53.062 40.6063 53.0001 38.5823 52.3453C36.5581 51.6905 34.4114 50.3942 32.2697 48.6535C31.519 48.0435 30.7607 47.372 29.9998 46.6437C29.2389 47.372 28.4805 48.0435 27.7299 48.6536C25.5882 50.3942 23.4414 51.6905 21.4173 52.3453C19.3933 53.0001 17.316 53.062 15.5437 52.0387C13.7713 51.0155 12.7863 49.1856 12.3414 47.1054C11.8964 45.0249 11.9456 42.5177 12.3822 39.7926C12.5352 38.8375 12.7376 37.8451 12.9879 36.8219C11.9766 36.5271 11.0159 36.2061 10.1122 35.8611C7.53383 34.8766 5.3379 33.6656 3.7587 32.24C2.17967 30.8146 1.0874 29.0466 1.0874 27.0001C1.0874 24.9536 2.17967 23.1855 3.7587 21.7601C5.3379 20.3345 7.53383 19.1235 10.1122 18.1391C11.0159 17.794 11.9766 17.473 12.9879 17.1782C12.7377 16.1551 12.5353 15.1627 12.3823 14.2076C11.9457 11.4825 11.8965 8.97525 12.3415 6.89484C12.7864 4.81466 13.7714 2.98471 15.5438 1.96145C17.3161 0.938195 19.3934 1.00011 21.4174 1.65488C23.4415 2.30972 25.5883 3.60596 27.73 5.34664ZM27.3979 15.0246C28.2603 13.915 29.1308 12.8766 29.9998 11.9164C30.8688 12.8766 31.7393 13.9151 32.6017 15.0246C31.7441 14.9944 30.8761 14.9789 29.9995 14.9789C29.1232 14.9789 28.2554 14.9944 27.3979 15.0246ZM16.937 19.4582C18.203 19.1858 19.5376 18.9511 20.9297 18.759C20.4747 19.4866 20.0273 20.2305 19.5891 20.9895C19.1509 21.7485 18.7304 22.5078 18.3278 23.2656C17.7981 21.9639 17.3341 20.6908 16.937 19.4582ZM22.3404 22.578C21.4835 24.0622 20.7007 25.5412 19.9935 27C20.7007 28.4588 21.4836 29.938 22.3405 31.4222C23.1974 32.9064 24.0869 34.324 24.9967 35.6658C26.6135 35.7827 28.2858 35.8443 29.9995 35.8443C31.7134 35.8443 33.3859 35.7827 35.0029 35.6657C35.9126 34.324 36.8022 32.9064 37.659 31.4222C38.516 29.938 39.2989 28.4588 40.0061 27C39.2989 25.5412 38.516 24.0621 37.6592 22.578C36.8023 21.0938 35.9127 19.6762 35.003 18.3344C33.386 18.2174 31.7134 18.1559 29.9995 18.1559C28.2858 18.1559 26.6135 18.2174 24.9966 18.3344C24.0869 19.6762 23.1973 21.0938 22.3404 22.578ZM13.8503 20.2359C14.5411 22.4101 15.4221 24.6831 16.482 27C15.4221 29.3169 14.541 31.59 13.8502 33.7642C12.9292 33.495 12.0589 33.2038 11.2454 32.8931C8.87911 31.9896 7.07359 30.9526 5.88748 29.8818C4.7012 28.811 4.26432 27.8345 4.26432 27.0001C4.26432 26.1657 4.7012 25.1892 5.88748 24.1183C7.07359 23.0476 8.87911 22.0105 11.2454 21.107C12.059 20.7964 12.9292 20.5052 13.8503 20.2359ZM18.3278 30.7344C17.7981 32.0361 17.334 33.3093 16.9369 34.5419C18.203 34.8144 19.5376 35.049 20.9298 35.2411C20.4748 34.5136 20.0274 33.7697 19.5892 33.0107C19.151 32.2516 18.7304 31.4923 18.3278 30.7344ZM15.5191 40.2952C15.6569 39.4353 15.8398 38.5362 16.0671 37.604C18.2955 38.0928 20.7045 38.4663 23.2409 38.7069C24.7175 40.7832 26.2454 42.6826 27.7829 44.368C27.0892 45.031 26.402 45.639 25.7262 46.1882C23.7606 47.7857 21.9597 48.8308 20.4394 49.3226C18.9188 49.8146 17.8547 49.7047 17.1321 49.2875C16.4095 48.8703 15.7823 48.0037 15.448 46.4409C15.1138 44.8783 15.1184 42.7962 15.5191 40.2952ZM34.2734 46.1882C33.5976 45.639 32.9104 45.031 32.2167 44.368C33.7542 42.6826 35.2821 40.7831 36.7587 38.7068C39.2951 38.4663 41.7041 38.0927 43.9324 37.6039C44.1598 38.5361 44.3427 39.4353 44.4804 40.2951C44.8811 42.7961 44.8858 44.8783 44.5516 46.4409C44.2173 48.0036 43.5901 48.8702 42.8675 49.2874C42.1448 49.7046 41.0807 49.8145 39.5602 49.3226C38.0399 48.8308 36.239 47.7857 34.2734 46.1882ZM29.9998 42.0837C30.8687 41.1235 31.7392 40.0851 32.6016 38.9755C31.744 39.0058 30.876 39.0212 29.9995 39.0212C29.1232 39.0212 28.2554 39.0058 27.398 38.9755C28.2603 40.0851 29.1309 41.1235 29.9998 42.0837ZM43.0626 34.5418C41.7966 34.8143 40.462 35.049 39.0699 35.2411C39.5248 34.5135 39.9721 33.7696 40.4103 33.0107C40.8486 32.2516 41.2692 31.4923 41.6718 30.7344C42.2015 32.0361 42.6656 33.3092 43.0626 34.5418ZM46.1493 33.7641C45.4585 31.5899 44.5775 29.3168 43.5176 27C44.5775 24.6831 45.4584 22.4102 46.1492 20.2361C47.0701 20.5053 47.9402 20.7964 48.7537 21.107C51.1199 22.0105 52.9255 23.0476 54.1116 24.1183C55.2979 25.1892 55.7347 26.1657 55.7347 27.0001C55.7347 27.8345 55.2979 28.811 54.1116 29.8818C52.9255 30.9526 51.1199 31.9896 48.7537 32.8931C47.9403 33.2037 47.0702 33.4948 46.1493 33.7641ZM36.7588 15.2933C39.2951 15.5339 41.7041 15.9074 43.9323 16.3963C44.1597 15.464 44.3426 14.5649 44.4803 13.7051C44.881 11.2041 44.8857 9.12191 44.5514 7.55934C44.2172 5.99656 43.59 5.12995 42.8673 4.71276C42.1447 4.29556 41.0806 4.18566 39.5601 4.67757C38.0397 5.16941 36.2389 6.2145 34.2733 7.81201C33.5976 8.3612 32.9103 8.96917 32.2167 9.63213C33.7542 11.3175 35.2822 13.217 36.7588 15.2933ZM41.6718 23.2655C42.2014 21.9639 42.6655 20.6909 43.0625 19.4583C41.7966 19.1859 40.462 18.9512 39.07 18.7591C39.525 19.4866 39.9722 20.2305 40.4104 20.9895C40.8486 21.7485 41.2692 22.5078 41.6718 23.2655ZM35.0913 27.0001C35.0913 29.8124 32.8115 32.0922 29.9992 32.0922C27.1869 32.0922 24.907 29.8124 24.907 27.0001C24.907 24.1878 27.1869 21.9079 29.9992 21.9079C32.8115 21.9079 35.0913 24.1878 35.0913 27.0001Z" fill="#FEFEFE"/>
<path fill-rule="evenodd" clip-rule="evenodd" d="M28.1751 9.6187L27.9903 9.82131C26.461 11.4976 24.9401 13.3881 23.4696 15.456L23.3952 15.5606L23.2674 15.5727C20.7414 15.8123 18.3437 16.1841 16.1274 16.6703L15.8595 16.7291L15.7945 16.4627C15.5656 15.5238 15.3811 14.6173 15.2421 13.7495C14.8382 11.2287 14.8296 9.10894 15.1736 7.50062C15.5178 5.89139 16.177 4.94013 16.9919 4.46965C17.8068 3.99917 18.9602 3.90396 20.5259 4.41048C22.0908 4.91673 23.9222 5.98401 25.9033 7.59417C26.5854 8.14852 27.2783 8.76152 27.9768 9.42921L28.1751 9.6187ZM29.9998 7.74499L29.8057 7.55921C29.0498 6.8357 28.2972 6.16934 27.553 5.56447C25.4268 3.83645 23.3106 2.56239 21.331 1.92195C19.3511 1.28145 17.3635 1.23499 15.6841 2.20455C14.0048 3.17411 13.0512 4.91868 12.616 6.95355C12.1808 8.98821 12.2261 11.4579 12.6595 14.1632C12.8112 15.1102 13.012 16.0951 13.2606 17.1115L13.3244 17.3725L13.0665 17.4477C12.0619 17.7406 11.1084 18.0592 10.2123 18.4013C7.6527 19.3786 5.49126 20.5742 3.94679 21.9685C2.40216 23.3628 1.3681 25.061 1.3681 27.0001C1.3681 28.9392 2.40216 30.6373 3.94679 32.0317C5.49126 33.4259 7.6527 34.6215 10.2123 35.5988C11.1083 35.9409 12.0618 36.2596 13.0664 36.5525L13.3244 36.6277L13.2605 36.8886C13.0119 37.905 12.8111 38.89 12.6594 39.837C12.2259 42.5423 12.1807 45.012 12.6159 47.0466C13.0511 49.0815 14.0047 50.8261 15.684 51.7957C17.3633 52.7652 19.351 52.7188 21.3309 52.0783C23.3105 51.4378 25.4267 50.1638 27.5528 48.4357C28.2971 47.8308 29.0498 47.1644 29.8057 46.4409L29.9998 46.2551L30.1939 46.4409C30.9498 47.1644 31.7025 47.8308 32.4467 48.4357C34.5729 50.1637 36.6891 51.4378 38.6687 52.0782C40.6486 52.7187 42.6362 52.7652 44.3156 51.7956C45.9949 50.8261 46.9485 49.0815 47.3837 47.0466C47.8189 45.012 47.7736 42.5423 47.3402 39.837C47.1885 38.89 46.9877 37.9049 46.739 36.8885L46.6752 36.6275L46.9331 36.5523C47.9376 36.2595 48.8909 35.9409 49.7868 35.5988C52.3464 34.6215 54.5078 33.4259 56.0523 32.0317C57.5969 30.6373 58.631 28.9392 58.631 27.0001C58.631 25.061 57.5969 23.3628 56.0523 21.9685C54.5078 20.5742 52.3464 19.3786 49.7868 18.4013C48.8909 18.0593 47.9375 17.7407 46.933 17.4478L46.6751 17.3726L46.7389 17.1116C46.9876 16.0952 47.1884 15.1102 47.3401 14.1632C47.7735 11.4579 47.8188 8.98823 47.3836 6.95357C46.9484 4.9187 45.9948 3.17412 44.3155 2.20456C42.6361 1.235 40.6485 1.28146 38.6686 1.92197C36.6889 2.56241 34.5728 3.83646 32.4466 5.56449C31.7024 6.16935 30.9498 6.83571 30.1939 7.55921L29.9998 7.74499ZM29.9998 11.4981L30.2079 11.7281C31.0818 12.6937 31.9569 13.7376 32.8234 14.8524L33.1917 15.3263L32.5918 15.3052C31.7375 15.275 30.8728 15.2596 29.9995 15.2596C29.1265 15.2596 28.262 15.275 27.4078 15.3051L26.8079 15.3263L27.1763 14.8524C28.0427 13.7376 28.9178 12.6937 29.7917 11.7281L29.9998 11.4981ZM21.486 18.3989L21.1677 18.9079C20.7144 19.6326 20.2688 20.3737 19.8322 21.1299C19.3957 21.886 18.9767 22.6424 18.5757 23.3972L18.2941 23.9274L18.0678 23.3714C17.5356 22.0636 17.0691 20.7839 16.6698 19.5443L16.5747 19.249L16.878 19.1838C18.1512 18.9098 19.4927 18.6739 20.8913 18.481L21.486 18.3989ZM19.6816 27L19.7409 26.8775C20.451 25.4127 21.2371 23.9276 22.0973 22.4377C22.9576 20.9476 23.8507 19.5243 24.7643 18.1768L24.8407 18.0642L24.9764 18.0544C26.6 17.9369 28.2791 17.8752 29.9995 17.8752C31.7201 17.8752 33.3994 17.937 35.0232 18.0545L35.159 18.0643L35.2353 18.1769C36.1489 19.5243 37.042 20.9476 37.9022 22.4376C38.7625 23.9276 39.5485 25.4127 40.2586 26.8775L40.318 27L40.2586 27.1224C39.5485 28.5874 38.7624 30.0725 37.9021 31.5626C37.0419 33.0525 36.1488 34.4758 35.2352 35.8233L35.1589 35.9359L35.0231 35.9457C33.3994 36.0632 31.7201 36.125 29.9995 36.125C28.2791 36.125 26.6001 36.0632 24.9765 35.9457L24.8407 35.9359L24.7644 35.8233C23.8508 34.4758 22.9577 33.0525 22.0974 31.5626C21.2372 30.0725 20.4511 28.5874 19.7409 27.1224L19.6816 27ZM16.7906 27L16.7372 27.1168C15.6817 29.4242 14.8049 31.6866 14.1177 33.8492L14.0347 34.1106L13.7715 34.0336C12.8438 33.7625 11.9665 33.4689 11.1453 33.1554C8.76026 32.2447 6.92024 31.1923 5.69939 30.0902C4.47786 28.9875 3.98362 27.941 3.98362 27.0001C3.98362 26.0591 4.47786 25.0126 5.69939 23.9099C6.92024 22.8079 8.76026 21.7554 11.1453 20.8448C11.9665 20.5312 12.8439 20.2377 13.7715 19.9665L14.0348 19.8896L14.1178 20.1509C14.8049 22.3135 15.6817 24.5758 16.7372 26.8832L16.7906 27ZM16.5747 34.7511L16.6698 34.4559C17.0691 33.2162 17.5356 31.9364 18.0678 30.6286L18.2941 30.0726L18.5757 30.6027C18.9767 31.3577 19.3957 32.1141 19.8323 32.8703C20.2689 33.6265 20.7145 34.3675 21.1677 35.0923L21.486 35.6012L20.8914 35.5192C19.4927 35.3262 18.1511 35.0903 16.8779 34.8163L16.5747 34.7511ZM15.8594 37.271L16.1273 37.3298C18.3437 37.816 20.7414 38.1879 23.2674 38.4274L23.3953 38.4396L23.4697 38.5442C24.9402 40.612 26.461 42.5025 27.9903 44.1788L28.1751 44.3814L27.9768 44.5709C27.2782 45.2386 26.5853 45.8517 25.9032 46.406C23.9221 48.0162 22.0906 49.0835 20.5258 49.5897C18.9601 50.0963 17.8067 50.001 16.9918 49.5306C16.1769 49.0601 15.5177 48.1088 15.1735 46.4996C14.8295 44.8913 14.8381 42.7715 15.242 40.2508C15.381 39.3829 15.5655 38.4763 15.7944 37.5375L15.8594 37.271ZM31.8245 44.3814L32.0093 44.1788C33.5386 42.5025 35.0594 40.612 36.5299 38.5442L36.6043 38.4395L36.7322 38.4274C39.2582 38.1878 41.6559 37.8159 43.8723 37.3297L44.1402 37.2709L44.2051 37.5374C44.4341 38.4762 44.6186 39.3828 44.7576 40.2507C45.1615 42.7715 45.1701 44.8912 44.8261 46.4996C44.4818 48.1088 43.8227 49.0601 43.0078 49.5305C42.1929 50.001 41.0395 50.0962 39.4738 49.5897C37.9089 49.0835 36.0775 48.0162 34.0964 46.406C33.4142 45.8516 32.7214 45.2386 32.0227 44.5709L31.8245 44.3814ZM33.1916 38.6738L32.8233 39.1478C31.9568 40.2626 31.0818 41.3064 30.2079 42.272L29.9998 42.502L29.7917 42.272C28.9178 41.3064 28.0428 40.2626 27.1763 39.1478L26.8079 38.6738L27.4078 38.695C28.262 38.7251 29.1265 38.7405 29.9995 38.7405C30.8727 38.7405 31.7374 38.7251 32.5917 38.695L33.1916 38.6738ZM38.5136 35.6012L38.8319 35.0922C39.2851 34.3675 39.7307 33.6264 40.1672 32.8703C40.6038 32.1141 41.0228 31.3576 41.4239 30.6027L41.7055 30.0726L41.9318 30.6286C42.464 31.9364 42.9305 33.2161 43.3298 34.4557L43.4249 34.751L43.1217 34.8162C41.8484 35.0902 40.5069 35.3261 39.1082 35.5191L38.5136 35.6012ZM43.2089 27L43.2623 26.8832C44.3178 24.5759 45.1946 22.3135 45.8817 20.1511L45.9648 19.8897L46.228 19.9666C47.1555 20.2378 48.0327 20.5313 48.8538 20.8448C51.2388 21.7554 53.0788 22.8079 54.2997 23.9099C55.5212 25.0126 56.0154 26.0591 56.0154 27.0001C56.0154 27.941 55.5212 28.9875 54.2997 30.0902C53.0788 31.1923 51.2388 32.2447 48.8538 33.1554C48.0328 33.4689 47.1555 33.7624 46.2281 34.0335L45.9648 34.1104L45.8818 33.8491C45.1947 31.6865 44.3179 29.4241 43.2623 27.1167L43.2089 27ZM44.1401 16.7292L43.8722 16.6704C41.6559 16.1842 39.2582 15.8123 36.7323 15.5728L36.6044 15.5606L36.53 15.456C35.0595 13.3882 33.5386 11.4976 32.0093 9.82131L31.8245 9.6187L32.0228 9.42921C32.7213 8.76153 33.4142 8.14853 34.0962 7.59418C36.0774 5.98403 37.9088 4.91674 39.4737 4.4105C41.0394 3.90397 42.1928 3.99918 43.0077 4.46966C43.8226 4.94014 44.4817 5.89141 44.8259 7.50063C45.1699 9.10895 45.1614 11.2287 44.7575 13.7495C44.6185 14.6174 44.434 15.5239 44.205 16.4628L44.1401 16.7292ZM43.4248 19.2491L43.3297 19.5444C42.9304 20.784 42.4639 22.0636 41.9318 23.3713L41.7055 23.9274L41.4239 23.3972C41.0229 22.6424 40.6039 21.886 40.1674 21.1299C39.7308 20.3737 39.2852 19.6327 38.832 18.9079L38.5137 18.399L39.1083 18.481C40.507 18.674 41.8484 18.9099 43.1216 19.1839L43.4248 19.2491ZM27.7829 9.63213C26.2454 11.3175 24.7174 13.217 23.2409 15.2933C20.7045 15.5338 18.2955 15.9073 16.0672 16.3962C16.0672 16.3962 16.0672 16.3962 16.0672 16.3962C15.8399 15.464 15.657 14.5648 15.5192 13.705C15.1185 11.2041 15.1139 9.12189 15.4481 7.55933C15.7824 5.99654 16.4096 5.12994 17.1322 4.71274C17.8548 4.29555 18.919 4.18565 20.4395 4.67756C21.9598 5.1694 23.7607 6.21449 25.7263 7.812C26.402 8.36119 27.0893 8.96916 27.7829 9.63213ZM29.9998 7.35641C30.7607 6.62813 31.519 5.9567 32.2696 5.34666C34.4113 3.60598 36.558 2.30973 38.5822 1.65489C40.6062 1.00013 42.6835 0.93821 44.4558 1.96147C46.2281 2.98472 47.2132 4.81467 47.6581 6.89486C48.1031 8.97527 48.0539 11.4825 47.6172 14.2076C47.4642 15.1627 47.2619 16.1552 47.0116 17.1783C48.0227 17.4731 48.9833 17.7941 49.8869 18.1391C52.4652 19.1235 54.6612 20.3345 56.2404 21.7601C57.8194 23.1855 58.9117 24.9536 58.9117 27.0001C58.9117 29.0466 57.8194 30.8146 56.2404 32.24C54.6612 33.6656 52.4652 34.8766 49.8869 35.8611C48.9833 36.2061 48.0228 36.527 47.0117 36.8218C47.262 37.845 47.4643 38.8374 47.6174 39.7926C48.054 42.5177 48.1032 45.0249 47.6582 47.1053C47.2133 49.1855 46.2282 51.0155 44.4559 52.0387C42.6836 53.062 40.6063 53.0001 38.5823 52.3453C36.5581 51.6905 34.4114 50.3942 32.2697 48.6535C31.5191 48.0435 30.7607 47.372 29.9998 46.6437C29.9998 46.6437 29.9998 46.6437 29.9998 46.6437C29.2389 47.372 28.4805 48.0435 27.7299 48.6536C25.5882 50.3942 23.4414 51.6905 21.4173 52.3453C19.3933 53.0001 17.316 53.062 15.5437 52.0387C13.7713 51.0155 12.7863 49.1856 12.3414 47.1054C11.8964 45.0249 11.9456 42.5177 12.3822 39.7926C12.5352 38.8375 12.7376 37.8451 12.9879 36.8219C11.9766 36.5271 11.0159 36.2061 10.1122 35.8611C7.53383 34.8766 5.3379 33.6656 3.7587 32.24C2.17967 30.8146 1.0874 29.0466 1.0874 27.0001C1.0874 24.9536 2.17967 23.1855 3.7587 21.7601C5.3379 20.3345 7.53383 19.1235 10.1122 18.1391C11.0159 17.794 11.9766 17.473 12.9879 17.1782C12.7377 16.1551 12.5353 15.1627 12.3823 14.2076C11.9457 11.4825 11.8965 8.97525 12.3415 6.89484C12.7864 4.81466 13.7714 2.98471 15.5438 1.96145C17.3161 0.938195 19.3934 1.00011 21.4174 1.65488C23.4415 2.30972 25.5883 3.60596 27.73 5.34664C28.4806 5.9567 29.2389 6.62813 29.9998 7.35643C29.9998 7.35642 29.9998 7.35642 29.9998 7.35641ZM27.6235 14.7362C27.5483 14.8318 27.473 14.9279 27.3979 15.0246C27.5195 15.0203 27.6413 15.0163 27.7633 15.0126C28.5017 14.9903 29.2475 14.9789 29.9995 14.9789C30.7518 14.9789 31.4978 14.9903 32.2363 15.0127C32.3583 15.0164 32.4801 15.0204 32.6017 15.0246C32.5266 14.9279 32.4513 14.8318 32.3761 14.7362C31.6501 13.8141 30.919 12.9427 30.1886 12.1262C30.1256 12.0559 30.0627 11.9859 29.9998 11.9164C29.9369 11.9859 29.874 12.0559 29.811 12.1262C29.0806 12.9427 28.3495 13.8141 27.6235 14.7362ZM17.2131 19.3996C18.2854 19.1753 19.4056 18.9778 20.567 18.8102C20.6875 18.7928 20.8084 18.7758 20.9297 18.759C20.8652 18.8622 20.8008 18.9657 20.7366 19.0695C20.348 19.6979 19.9652 20.3381 19.5891 20.9895C19.2131 21.6409 18.85 22.2925 18.5002 22.9431C18.4423 23.0506 18.3849 23.1581 18.3278 23.2656C18.2817 23.1521 18.236 23.0389 18.1908 22.9259C17.7553 21.8362 17.3662 20.7674 17.0243 19.7266C16.9949 19.6369 16.9658 19.5474 16.937 19.4582C17.0287 19.4385 17.1207 19.419 17.2131 19.3996ZM24.9967 35.6658C24.0869 34.324 23.1974 32.9064 22.3405 31.4222C21.4836 29.938 20.7007 28.4588 19.9935 27C20.7007 25.5412 21.4835 24.0622 22.3404 22.578C23.1973 21.0938 24.0869 19.6762 24.9966 18.3344C26.6135 18.2174 28.2858 18.1559 29.9995 18.1559C31.7134 18.1559 33.386 18.2174 35.003 18.3344C35.9127 19.6762 36.8023 21.0938 37.6592 22.578C38.516 24.0621 39.2989 25.5412 40.0061 27C39.2989 28.4588 38.516 29.938 37.659 31.4222C36.8022 32.9064 35.9126 34.324 35.0029 35.6657C33.3859 35.7827 31.7134 35.8443 29.9995 35.8443C28.2858 35.8443 26.6135 35.7827 24.9967 35.6658ZM13.8503 20.236C14.5411 22.4101 15.4221 24.6831 16.482 27C15.4221 29.3169 14.541 31.59 13.8502 33.7642C12.9292 33.495 12.0589 33.2038 11.2454 32.8931C8.87911 31.9896 7.07359 30.9526 5.88748 29.8818C4.7012 28.811 4.26432 27.8345 4.26432 27.0001C4.26432 26.1657 4.7012 25.1892 5.88748 24.1183C7.07359 23.0476 8.87911 22.0105 11.2454 21.107C12.059 20.7964 12.9292 20.5052 13.8503 20.2359C13.8503 20.2359 13.8503 20.2359 13.8503 20.236ZM16.9369 34.5419C17.0286 34.5616 17.1206 34.5812 17.213 34.6005C18.2853 34.8249 19.4056 35.0223 20.5671 35.1899C20.6876 35.2073 20.8084 35.2244 20.9298 35.2411C20.8652 35.138 20.8009 35.0345 20.7367 34.9307C20.3481 34.3023 19.9653 33.662 19.5892 33.0107C19.2131 32.3592 18.85 31.7076 18.5001 31.0569C18.4423 30.9494 18.3849 30.8419 18.3278 30.7344C18.2816 30.8479 18.236 30.9611 18.1908 31.0741C17.7552 32.1638 17.3661 33.2327 17.0242 34.2736C16.9948 34.3632 16.9657 34.4527 16.9369 34.5419ZM27.7829 44.368C26.2454 42.6826 24.7175 40.7832 23.2409 38.7069C20.7045 38.4663 18.2955 38.0928 16.0671 37.604C15.8398 38.5362 15.6569 39.4353 15.5191 40.2952C15.1184 42.7962 15.1138 44.8783 15.448 46.4409C15.7823 48.0037 16.4095 48.8703 17.1321 49.2875C17.8547 49.7047 18.9188 49.8146 20.4394 49.3226C21.9597 48.8308 23.7606 47.7857 25.7262 46.1882C26.402 45.639 27.0892 45.031 27.7829 44.368ZM32.6016 38.9755C32.48 38.9798 32.3582 38.9838 32.2362 38.9875C31.4977 39.0098 30.7518 39.0212 29.9995 39.0212C29.2475 39.0212 28.5017 39.0098 27.7634 38.9875C27.6414 38.9838 27.5196 38.9798 27.398 38.9755C27.4731 39.0722 27.5483 39.1684 27.6236 39.264C28.3495 40.186 29.0806 41.0574 29.811 41.8739C29.874 41.9442 29.9369 42.0141 29.9998 42.0837C30.0627 42.0141 30.1256 41.9442 30.1885 41.8739C30.919 41.0574 31.6501 40.186 32.376 39.264C32.4513 39.1684 32.5265 39.0722 32.6016 38.9755ZM43.0626 34.5418C43.0339 34.4526 43.0048 34.3631 42.9753 34.2735C42.6335 33.2326 42.2443 32.1638 41.8088 31.074C41.7636 30.9611 41.7179 30.8478 41.6718 30.7344C41.6147 30.8419 41.5572 30.9493 41.4994 31.0569C41.1495 31.7076 40.7864 32.3593 40.4103 33.0107C40.0343 33.662 39.6515 34.3023 39.2629 34.9306C39.1987 35.0344 39.1344 35.1379 39.0699 35.2411C39.1912 35.2243 39.3121 35.2072 39.4325 35.1899C40.594 35.0222 41.7142 34.8248 42.7866 34.6004C42.8789 34.5811 42.971 34.5615 43.0626 34.5418ZM46.1494 33.764C47.0702 33.4948 47.9403 33.2037 48.7537 32.8931C51.1199 31.9896 52.9255 30.9526 54.1116 29.8818C55.2979 28.811 55.7347 27.8345 55.7347 27.0001C55.7347 26.1657 55.2979 25.1892 54.1116 24.1183C52.9255 23.0476 51.1199 22.0105 48.7537 21.107C47.9402 20.7964 47.0701 20.5053 46.1492 20.2361C45.4584 22.4102 44.5775 24.6831 43.5176 27C44.5775 29.3168 45.4585 31.5899 46.1493 33.7641C46.1493 33.764 46.1493 33.764 46.1494 33.764ZM32.2167 9.63213C32.9103 8.96917 33.5976 8.3612 34.2733 7.81201C36.2389 6.2145 38.0397 5.16941 39.5601 4.67757C41.0806 4.18566 42.1447 4.29556 42.8673 4.71276C43.59 5.12995 44.2172 5.99656 44.5514 7.55934C44.8857 9.12191 44.881 11.2041 44.4803 13.7051C44.3426 14.5649 44.1597 15.464 43.9323 16.3963C41.7041 15.9074 39.2951 15.5339 36.7588 15.2933C35.2822 13.217 33.7542 11.3175 32.2167 9.63216C32.2167 9.63215 32.2167 9.63214 32.2167 9.63213ZM43.0625 19.4583C42.9709 19.4386 42.8788 19.4191 42.7865 19.3997C41.7142 19.1754 40.5941 18.9779 39.4326 18.8103C39.3122 18.7929 39.1913 18.7759 39.07 18.7591C39.1345 18.8623 39.1988 18.9658 39.2631 19.0696C39.6516 19.6979 40.0344 20.3382 40.4104 20.9895C40.7865 21.6409 41.1496 22.2924 41.4994 22.9431C41.5572 23.0506 41.6147 23.1581 41.6718 23.2655C41.7179 23.1521 41.7636 23.0389 41.8088 22.9259C42.2443 21.8362 42.6334 20.7675 42.9752 19.7267C43.0047 19.637 43.0338 19.5476 43.0625 19.4583ZM29.9992 31.8115C32.6565 31.8115 34.8106 29.6574 34.8106 27.0001C34.8106 24.3428 32.6565 22.1886 29.9992 22.1886C27.3419 22.1886 25.1877 24.3428 25.1877 27.0001C25.1877 29.6574 27.3419 31.8115 29.9992 31.8115ZM32.2167 44.368C32.9104 45.031 33.5976 45.639 34.2734 46.1882C36.239 47.7857 38.0399 48.8308 39.5602 49.3226C41.0807 49.8145 42.1448 49.7046 42.8675 49.2874C43.5901 48.8702 44.2173 48.0036 44.5516 46.4409C44.8858 44.8783 44.8811 42.7961 44.4804 40.2951C44.3427 39.4353 44.1598 38.5361 43.9324 37.6039C41.7041 38.0927 39.2951 38.4663 36.7587 38.7068C35.2821 40.7831 33.7542 42.6826 32.2167 44.368ZM29.9992 32.0922C32.8115 32.0922 35.0913 29.8124 35.0913 27.0001C35.0913 24.1878 32.8115 21.9079 29.9992 21.9079C27.1869 21.9079 24.907 24.1878 24.907 27.0001C24.907 29.8124 27.1869 32.0922 29.9992 32.0922Z" fill="#FEFEFE"/>
<defs>
<linearGradient id="paint0_linear_21172_180118" x1="0.19873" y1="53.4822" x2="59.6056" y2="0.121086" gradientUnits="userSpaceOnUse">
<stop stop-color="#68CDF8"/>
<stop offset="0.507812" stop-color="#2CB6F1"/>
<stop offset="1" stop-color="#009FCB"/>
</linearGradient>
<linearGradient id="paint1_linear_21172_180118" x1="6.17364" y1="-9.27788" x2="52.8643" y2="67.6243" gradientUnits="userSpaceOnUse">
<stop stop-color="white" stop-opacity="0.59"/>
<stop offset="0.507812" stop-color="#00ADF7" stop-opacity="0.63"/>
<stop offset="1" stop-color="#00ADF7" stop-opacity="0.58"/>
</linearGradient>
</defs>
</svg>
