<svg width="57" height="57" viewBox="0 0 57 57" fill="none" xmlns="http://www.w3.org/2000/svg">
<g clip-path="url(#clip0_20960_32044)">
<path d="M39.2066 22.4884C39.0878 22.0138 38.8459 21.5789 38.5052 21.2278C38.1646 20.8766 37.7373 20.6215 37.2666 20.4884C35.5466 20.0684 28.6666 20.0684 28.6666 20.0684C28.6666 20.0684 21.7866 20.0684 20.0666 20.5284C19.5958 20.6615 19.1686 20.9166 18.8279 21.2678C18.4873 21.6189 18.2454 22.0538 18.1266 22.5284C17.8118 24.2739 17.6578 26.0447 17.6666 27.8184C17.6554 29.6054 17.8094 31.3897 18.1266 33.1484C18.2575 33.6082 18.5049 34.0265 18.8447 34.3628C19.1846 34.6992 19.6054 34.9422 20.0666 35.0684C21.7866 35.5284 28.6666 35.5284 28.6666 35.5284C28.6666 35.5284 35.5466 35.5284 37.2666 35.0684C37.7373 34.9352 38.1646 34.6801 38.5052 34.329C38.8459 33.9778 39.0878 33.5429 39.2066 33.0684C39.5189 31.3359 39.6729 29.5787 39.6666 27.8184C39.6778 26.0313 39.5238 24.2471 39.2066 22.4884Z" 
stroke="black" 
stroke-width="2" 
stroke-linecap="round" 
stroke-linejoin="round"></path>
<path d="M26.4165 31.0883L32.1665 27.8183L26.4165 24.5483V31.0883Z" 
stroke="black" 
stroke-width="2" 
stroke-linecap="round" 
stroke-linejoin="round"></path>
</g>
<defs>
<clipPath id="clip0_20960_32044">
<rect width="24" 
height="24" 
fill="white" 
transform="translate(16.6665 16.0684)"></rect>
</clipPath>
</defs>
</svg>