<svg width="38" height="38" viewBox="0 0 38 38" fill="none" xmlns="http://www.w3.org/2000/svg">
<path d="M33.25 19C33.25 26.8701 26.8701 33.25 19 33.25C11.1299 33.25 4.75 26.8701 4.75 19C4.75 11.1299 11.1299 4.75 19 4.75M26.9167 19C26.9167 23.3722 23.3722 26.9167 19 26.9167C14.6278 26.9167 11.0833 23.3722 11.0833 19C11.0833 14.6278 14.6278 11.0833 19 11.0833M23.3667 14.8067L29.6351 15.4651L33.0329 10.708L28.9554 9.34879L27.5962 5.27125L22.8391 8.66919L23.3667 14.8067ZM23.3667 14.8067L19 18.9998" stroke="black" stroke-width="2" stroke-linecap="round" stroke-linejoin="round"/>
</svg>
