<svg width="38" height="38" viewBox="0 0 38 38" fill="none" xmlns="http://www.w3.org/2000/svg">
<path d="M25.378 24.375C26.1528 25.2516 26.6 26.402 26.6 27.6184V31.1562C26.6 33.8314 24.4734 36 21.85 36H4.75C2.12665 36 0 33.8314 0 31.1562V27.6187C0 26.4021 0.44732 25.2516 1.22222 24.375H0.95C0.42533 24.375 0 23.9413 0 23.4062C0 22.8712 0.42533 22.4375 0.95 22.4375H4.10703L7.98707 20.2292C6.57589 18.8221 5.7 16.8591 5.7 14.6875C5.7 10.4073 9.10264 6.9375 13.3 6.9375C17.4974 6.9375 20.9 10.4073 20.9 14.6875C20.9 14.8525 20.8949 15.0163 20.885 15.1787L21.906 14.1109C21.2715 13.1738 20.9 12.0374 20.9 10.8125C20.9 7.60234 23.452 5 26.6 5C29.748 5 32.3 7.60234 32.3 10.8125C32.3 12.0359 31.9294 13.171 31.2964 14.1074L31.3037 14.1151L34.753 17.727C35.6167 18.6314 36.1 19.8439 36.1 21.1063V22.4375H37.05C37.5747 22.4375 38 22.8712 38 23.4062C38 23.9413 37.5747 24.375 37.05 24.375H25.378ZM22.4938 22.4375H34.2V21.1063C34.2 20.3489 33.91 19.6214 33.3918 19.0787L29.9729 15.4986C29.0285 16.2067 27.8621 16.625 26.6 16.625C25.3393 16.625 24.1743 16.2077 23.2304 15.5011L19.8095 19.0788C19.4106 19.4959 19.3566 19.5543 19.2512 19.6895C19.0699 19.9222 19.0058 20.0953 19.0004 20.4488L22.4938 22.4375ZM21.3617 24.012L16.9379 21.4936C15.8574 22.0954 14.6179 22.4375 13.3 22.4375C11.9825 22.4375 10.7433 22.0956 9.66304 21.4941L3.36102 25.0809C2.45899 25.5943 1.9 26.5653 1.9 27.6187V31.1562C1.9 32.7613 3.17599 34.0625 4.75 34.0625H21.85C23.424 34.0625 24.7 32.7613 24.7 31.1562V27.6184C24.7 26.5651 24.1411 25.5943 23.2392 25.0808L21.9867 24.3678C21.7346 24.3364 21.513 24.2042 21.3617 24.012ZM13.3 20.5C16.448 20.5 19 17.8977 19 14.6875C19 11.4773 16.448 8.875 13.3 8.875C10.152 8.875 7.6 11.4773 7.6 14.6875C7.6 17.8977 10.152 20.5 13.3 20.5ZM26.6 14.6875C28.6987 14.6875 30.4 12.9526 30.4 10.8125C30.4 8.6724 28.6987 6.9375 26.6 6.9375C24.5013 6.9375 22.8 8.6724 22.8 10.8125C22.8 12.9526 24.5013 14.6875 26.6 14.6875Z" fill="black"/>
</svg>
