<svg width="48" height="48" viewBox="0 0 48 48" fill="none" xmlns="http://www.w3.org/2000/svg">
<g clip-path="url(#clip0_1527_82655)">
<mask id="mask0_1527_82655" style="mask-type:luminance" maskUnits="userSpaceOnUse" x="0" y="0" width="48" height="48">
<path d="M48 0H0V48H48V0Z" fill="white"/>
</mask>
<g mask="url(#mask0_1527_82655)">
<path d="M24 48C37.2548 48 48 37.2548 48 24C48 10.7452 37.2548 0 24 0C10.7452 0 0 10.7452 0 24C0 37.2548 10.7452 48 24 48Z" fill="black"/>
<path fill-rule="evenodd" clip-rule="evenodd" d="M9.75 16.1322V31.8751L14.48 31.8467V25.4606C15.0425 25.4606 15.5712 25.4832 16.0537 25.8201C16.4209 26.159 16.7128 26.5752 16.9095 27.0406L19.4402 31.8467H24.75C23.6968 29.7507 22.853 27.0996 21.0414 25.5079C20.6591 25.2563 20.2439 25.0619 19.8082 24.9308C20.3905 24.8085 20.9518 24.5981 21.4739 24.3064C22.7891 23.5032 23.5436 22.0357 23.5077 20.5031C23.5348 19.5997 23.2871 18.71 22.7991 17.9582C21.6942 16.2663 19.4503 16.0661 17.5997 16.1322H9.75ZM16.4954 22.5088H14.4985V19.2732H16.5782C17.6105 19.1696 18.886 19.6316 18.8144 20.8532C18.8624 22.1717 17.5235 22.4346 16.4954 22.5088Z" fill="#97E0FF"/>
<path d="M29.6076 26.3168L24.75 26.6C24.8447 28.0253 25.5016 29.37 26.5977 30.3816C27.6838 31.3742 29.6307 31.8706 32.4386 31.8706C34.7673 31.9367 37.4293 31.361 38.8657 29.3677C39.4447 28.5701 39.7525 27.632 39.7499 26.673C39.7663 24.8886 38.5754 23.4223 36.9783 22.736C35.4474 22.1075 33.8398 21.6506 32.1903 21.375C31.583 21.3075 30.9995 21.1172 30.4817 20.8178C29.9279 20.4448 30.0585 19.6704 30.5513 19.3197C31.9563 18.3905 34.2224 19.1659 34.3956 20.9274L39.2134 20.6716C39.1277 19.326 38.3883 18.0409 37.2267 17.2187C35.774 16.4165 34.0899 16.0406 32.399 16.1409C31.012 16.0895 29.6278 16.2914 28.3261 16.7346C26.7061 17.3344 25.3718 18.798 25.3758 20.5894C25.3448 21.7033 25.8869 22.8066 26.8163 23.5216C28.2341 24.4679 29.8744 25.0937 31.6042 25.3485C32.5375 25.4728 33.4295 25.7846 34.2168 26.2619C34.9408 26.7982 34.9355 27.8753 34.1969 28.4177C33.3809 28.9899 32.1776 29.0562 31.2614 28.6851C30.2788 28.287 29.7036 27.3588 29.6076 26.3168Z" fill="#97E0FF"/>
</g>
</g>
<defs>
<clipPath id="clip0_1527_82655">
<rect width="48" height="48" fill="white"/>
</clipPath>
</defs>
</svg>
