<svg width="100px" height="29px" version="1.1" viewBox="0 0 7.28 2.1" xmlns="http://www.w3.org/2000/svg">
 <defs>
  <style type="text/css"><![CDATA[
    .fil1 {fill:#767676}
    .fil0 {fill:white}
   ]]></style>
 </defs>
 <rect class="fil0" width="7.28" height="2.1"/>
 <path class="fil1" d="m2.99 1.13c0.05-0.03 0.11-0.03 0.17-0.02 0.04 0.01 0.08 0.03 0.1 0.07 0.03 0.04 0.03 0.08 0.03 0.13h-0.13c0-0.03 0-0.07-0.02-0.09-0.03-0.03-0.08-0.02-0.1 0.02s-0.01 0.09-0.02 0.13c0 0.07 0 0.13 0.01 0.2 0 0.02 0.01 0.04 0.02 0.05 0.02 0.03 0.07 0.04 0.09 0.01s0.02-0.07 0.02-0.11h0.13c0.01 0.06 0 0.13-0.04 0.17-0.04 0.05-0.11 0.06-0.17 0.05-0.05 0-0.11-0.02-0.14-0.06-0.04-0.05-0.04-0.11-0.05-0.17 0-0.08 0-0.16 0.01-0.24 0.01-0.05 0.03-0.11 0.09-0.14zm1.52-0.02c0.06-0.01 0.12-0.01 0.18 0.02 0.04 0.03 0.07 0.07 0.08 0.12 0.01 0.07 0.01 0.15 0.01 0.22s-0.01 0.14-0.04 0.2c-0.03 0.05-0.09 0.07-0.14 0.07-0.05 0.01-0.11 0-0.16-0.03-0.04-0.03-0.06-0.08-0.07-0.12-0.01-0.06-0.01-0.13-0.01-0.19 0-0.07 0-0.15 0.04-0.21 0.02-0.04 0.06-0.07 0.11-0.08zm0.04 0.1c-0.02 0-0.04 0.02-0.04 0.04-0.02 0.04-0.02 0.08-0.02 0.12 0 0.07 0 0.13 0.01 0.19 0 0.03 0.01 0.05 0.03 0.07s0.06 0.02 0.08 0 0.03-0.05 0.03-0.07c0.01-0.06 0.01-0.13 0.01-0.19 0-0.04 0-0.09-0.02-0.13-0.01-0.03-0.05-0.04-0.08-0.03zm0.78-0.1c0.06-0.01 0.12-0.01 0.17 0.02 0.05 0.02 0.08 0.07 0.09 0.12 0.01 0.07 0.01 0.14 0.01 0.22 0 0.07 0 0.15-0.05 0.21-0.03 0.05-0.1 0.07-0.16 0.07-0.06-0.01-0.13-0.02-0.16-0.07-0.04-0.06-0.05-0.14-0.05-0.21 0-0.06 0-0.12 0.01-0.19 0-0.05 0.02-0.1 0.06-0.13 0.02-0.02 0.05-0.03 0.08-0.04zm0.04 0.1c-0.02 0-0.04 0.02-0.04 0.04-0.02 0.04-0.02 0.08-0.02 0.12 0 0.07 0 0.14 0.01 0.21 0 0.02 0.01 0.05 0.04 0.06 0.02 0.01 0.06 0.01 0.08-0.02 0.02-0.02 0.02-0.05 0.02-0.08 0.01-0.07 0.01-0.15 0.01-0.22-0.01-0.03-0.01-0.06-0.03-0.09-0.01-0.02-0.04-0.03-0.07-0.02zm0.37-0.07c0.05-0.03 0.1-0.03 0.15-0.03s0.11 0.01 0.14 0.05c0.04 0.04 0.05 0.1 0.05 0.15h-0.13c0-0.04-0.01-0.07-0.03-0.1-0.02-0.02-0.06-0.02-0.09 0-0.02 0.02-0.03 0.05-0.03 0.08-0.01 0.06-0.01 0.11-0.01 0.17 0 0.05 0 0.09 0.01 0.13 0.01 0.03 0.03 0.05 0.05 0.06 0.04 0.01 0.07 0 0.11-0.01v-0.13h-0.07v-0.1h0.19v0.31c-0.09 0.02-0.18 0.03-0.27 0.02-0.04-0.01-0.08-0.03-0.11-0.07-0.04-0.06-0.04-0.13-0.04-0.2s0-0.15 0.01-0.22c0.01-0.04 0.03-0.09 0.07-0.11zm1.08 0c0.05-0.04 0.11-0.04 0.16-0.03 0.05 0 0.09 0.02 0.12 0.05 0.03 0.04 0.03 0.09 0.03 0.13h-0.13c0-0.02 0-0.05-0.02-0.07-0.03-0.03-0.09-0.02-0.1 0.02-0.01 0.03 0 0.06 0.02 0.08 0.06 0.06 0.14 0.08 0.2 0.14 0.02 0.03 0.04 0.07 0.03 0.11 0 0.05-0.01 0.11-0.06 0.14-0.05 0.04-0.12 0.04-0.18 0.03-0.04 0-0.09-0.01-0.12-0.05s-0.04-0.1-0.03-0.15h0.13c0 0.03 0 0.06 0.02 0.09 0.03 0.03 0.1 0.02 0.11-0.03 0.01-0.03-0.01-0.06-0.03-0.08-0.06-0.05-0.13-0.08-0.18-0.13-0.07-0.06-0.06-0.2 0.03-0.25zm-4.79-0.03h0.42v0.11h-0.14v0.52h-0.14v-0.52h-0.14v-0.11zm0.47 0h0.34v0.1h-0.21v0.15h0.19v0.1c-0.06 0-0.12-0.01-0.19 0v0.17h0.22v0.11h-0.35v-0.63zm0.85 0h0.13v0.25h0.14v-0.25h0.13v0.63h-0.13v-0.28h-0.14v0.28h-0.13v-0.63zm0.48 0h0.18l0.12 0.33c0.02 0.07 0.04 0.13 0.06 0.19-0.01-0.1-0.01-0.21-0.02-0.31v-0.21h0.12v0.63h-0.17c-0.04-0.12-0.08-0.23-0.13-0.35-0.02-0.06-0.04-0.13-0.06-0.2 0.02 0.18 0.02 0.37 0.02 0.55h-0.12v-0.63zm1.02 0h0.13v0.52h0.19v0.11h-0.32v-0.63zm1.3 0h0.12v0.63h-0.12v-0.63zm0.2 0h0.34v0.1h-0.2v0.15h0.18v0.1h-0.18v0.17h0.21v0.11h-0.35v-0.63zm-5.51-0.83c0.18-0.02 0.36 0.03 0.51 0.12 0.13 0.09 0.23 0.22 0.29 0.36 0.06 0.15 0.07 0.32 0.03 0.48-0.04 0.18-0.16 0.35-0.32 0.46-0.14 0.09-0.31 0.14-0.48 0.12-0.17-0.01-0.33-0.07-0.45-0.18-0.15-0.13-0.25-0.31-0.27-0.5-0.02-0.17 0.02-0.35 0.11-0.49 0.13-0.21 0.35-0.35 0.58-0.37zm-0.21 0.39v0.77h0.62v-0.31h0.16v-0.15h-0.48v0.15h0.16v0.15h-0.32v-0.46h0.32v-0.15h-0.46zm1.48-0.28c0.06-0.03 0.12-0.04 0.18-0.03 0.04 0 0.09 0.02 0.12 0.07 0.03 0.03 0.04 0.08 0.04 0.13h-0.13c0-0.03 0-0.06-0.02-0.09s-0.07-0.03-0.1-0.01-0.03 0.06-0.03 0.09c-0.01 0.09-0.01 0.17 0 0.25 0 0.03 0.01 0.07 0.04 0.09s0.08 0.01 0.12 0v-0.13h-0.07v-0.1h0.19v0.31c-0.09 0.02-0.17 0.03-0.26 0.02-0.04-0.01-0.09-0.02-0.11-0.06-0.04-0.06-0.05-0.14-0.05-0.21s0-0.14 0.01-0.21c0.01-0.05 0.03-0.1 0.07-0.12zm0.55-0.03c0.06-0.01 0.12 0 0.17 0.02 0.05 0.03 0.07 0.07 0.08 0.11 0.01 0.06 0.02 0.11 0.02 0.17s0 0.12-0.01 0.18c-0.01 0.04-0.03 0.09-0.07 0.12-0.05 0.03-0.12 0.04-0.18 0.03-0.04-0.01-0.09-0.02-0.11-0.06-0.04-0.04-0.05-0.1-0.05-0.15-0.01-0.08-0.01-0.16 0-0.24 0.01-0.05 0.02-0.09 0.05-0.13 0.03-0.03 0.06-0.04 0.1-0.05zm0.03 0.1c-0.03 0.01-0.04 0.03-0.04 0.06-0.01 0.03-0.01 0.07-0.01 0.11 0 0.06 0 0.13 0.01 0.19 0 0.02 0.01 0.05 0.03 0.06 0.03 0.03 0.08 0.02 0.1-0.02 0.01-0.04 0.01-0.09 0.01-0.14 0.01-0.06 0.01-0.12 0-0.18-0.01-0.02-0.01-0.05-0.03-0.07s-0.05-0.02-0.07-0.01zm0.31-0.1h0.19c0.07 0 0.14 0.01 0.18 0.06s0.05 0.12 0.05 0.19c0.01 0.08 0.01 0.15-0.01 0.23-0.01 0.04-0.03 0.08-0.06 0.1-0.03 0.03-0.08 0.04-0.13 0.05h-0.22v-0.63zm0.14 0.1v0.43c0.03 0 0.07 0 0.1-0.01 0.02-0.01 0.04-0.03 0.04-0.05 0.02-0.05 0.02-0.1 0.02-0.15s0-0.09-0.01-0.14c-0.01-0.03-0.02-0.05-0.04-0.07-0.04-0.02-0.08-0.01-0.11-0.01zm0.34-0.1h0.34v0.1h-0.21v0.15h0.19v0.09h-0.19v0.18h0.21v0.11h-0.34v-0.63zm0.4 0h0.13v0.51h0.19v0.12h-0.32v-0.63z"/>
</svg>
