<svg width="100px" height="29px" version="1.1" viewBox="0 0 10.76 3.11" xmlns="http://www.w3.org/2000/svg">
 <defs>
  <style type="text/css"><![CDATA[
    .fil0 {fill:white}
    .fil1 {fill:#767676;fill-rule:nonzero}
   ]]></style>
 </defs>
 <rect class="fil0" width="10.76" height="3.11"/>
 <path class="fil1" d="m4.82 1.23 0.22-0.17h-0.73v0.98h0.73v-0.16h-0.52v-0.25h0.45v-0.16h-0.45v-0.24h0.3zm-1.07 0.21h-0.25v-0.21h0.41l0.22-0.17h-0.84v0.98h0.44c0.24 0 0.38-0.11 0.38-0.3s-0.12-0.3-0.36-0.3zm-0.03 0.44h-0.22v-0.27h0.22c0.13 0 0.19 0.04 0.19 0.14 0 0.09-0.06 0.13-0.19 0.13zm1.92-0.82h-0.4v0.98h0.21v-0.27h0.19c0.26 0 0.41-0.14 0.41-0.36 0-0.21-0.15-0.35-0.41-0.35zm-0.01 0.54h-0.18v-0.37h0.18c0.14 0 0.21 0.06 0.21 0.18s-0.07 0.19-0.21 0.19zm-2.7 0.23c-0.06 0.03-0.12 0.05-0.18 0.05-0.19 0-0.33-0.14-0.33-0.33 0-0.18 0.14-0.32 0.33-0.32 0.07 0 0.13 0.02 0.19 0.06l0.15-0.11-0.01-0.01c-0.09-0.08-0.2-0.12-0.34-0.12s-0.27 0.05-0.37 0.14c-0.09 0.09-0.15 0.22-0.15 0.36 0 0.13 0.06 0.27 0.15 0.36 0.1 0.1 0.23 0.15 0.37 0.15 0.15 0 0.28-0.06 0.37-0.15l-0.13-0.1-0.05 0.02zm5.65-0.77v0.99h0.21v-0.41h0.45v0.41h0.21v-0.99h-0.21v0.41h-0.45v-0.41h-0.21zm-0.36 0.99h0.22l-0.41-0.99h-0.22l-0.41 0.99h0.21l0.08-0.2h0.45l0.08 0.2zm-0.46-0.37 0.16-0.39 0.15 0.39h-0.31zm2.16-0.03h0.13l0.32 0.39h0.27l-0.43-0.5 0.37-0.48h-0.24l-0.31 0.42h-0.11v-0.42h-0.21v0.98h0.21v-0.39zm-3.22-0.2v-0.22h0.55v-0.17h-0.76v0.99h0.44c0.25 0 0.39-0.12 0.39-0.31s-0.13-0.29-0.36-0.29h-0.26zm0 0.43v-0.27h0.22c0.14 0 0.2 0.05 0.2 0.14s-0.07 0.13-0.2 0.13h-0.22zm-5.13-0.82c0.04 0.05 0.07 0.1 0.09 0.16l-0.73 0.55-0.31-0.2v-0.23l0.31 0.19 0.64-0.47zm-1.18-0.11c-0.17 0.15-0.27 0.36-0.27 0.6 0 0.21 0.08 0.41 0.21 0.55 0.15 0.17 0.36 0.27 0.59 0.27h0.01c0.21 0 0.4-0.08 0.54-0.21 0.16-0.15 0.27-0.37 0.27-0.61 0-0.05-0.01-0.09-0.02-0.14l-0.17 0.13v0.01c0 0.18-0.07 0.33-0.18 0.45-0.12 0.11-0.27 0.18-0.44 0.18h-0.02-0.01c-0.16-0.01-0.31-0.08-0.41-0.18-0.11-0.12-0.18-0.27-0.18-0.45v-0.01-0.02c0.01-0.16 0.07-0.3 0.18-0.41s0.27-0.18 0.44-0.18h0.03c0.12 0 0.23 0.04 0.32 0.11l0.16-0.12c-0.14-0.11-0.32-0.18-0.51-0.18-0.21 0-0.4 0.08-0.54 0.21z"/>
</svg>
