<svg width="100px" height="29px" version="1.1" viewBox="0 0 7.28 2.1" xmlns="http://www.w3.org/2000/svg">
 <defs>
  <style type="text/css"><![CDATA[
    .fil1 {fill:#767676}
    .fil0 {fill:white}
   ]]></style>
 </defs>
 <rect class="fil0" width="7.28" height="2.1"/>
 <path id="Fill-1_1_" class="fil1" d="m1.5 1.14 0.39-0.37 0.08 0.08-0.39 0.37-0.08-0.08zm0.78-0.26-0.65-0.61-0.13 0.12 0.24 0.23-0.52 0.5 0.64 0.62 0.13-0.12-0.24-0.24 0.53-0.5zm0.82 0.2c0 0.18 0.11 0.32 0.26 0.32 0.14 0 0.25-0.14 0.25-0.32 0-0.15-0.07-0.32-0.25-0.32-0.18-0.01-0.26 0.16-0.26 0.32zm0.66-0.01c0 0.31-0.22 0.44-0.42 0.44-0.22 0-0.39-0.17-0.39-0.43 0-0.28 0.18-0.44 0.41-0.44 0.24 0 0.4 0.17 0.4 0.43zm0.22 0.08c0 0.03 0 0.05 0.01 0.06 0.03 0.11 0.12 0.18 0.23 0.18 0.16 0 0.25-0.13 0.25-0.32 0-0.17-0.09-0.31-0.25-0.31-0.1 0-0.19 0.07-0.22 0.18-0.01 0.02-0.02 0.05-0.02 0.06v0.15zm-0.15-0.49h0.13l0.01 0.14c0.06-0.1 0.16-0.16 0.3-0.16 0.2 0 0.35 0.17 0.35 0.42 0 0.3-0.19 0.45-0.38 0.45-0.11 0-0.2-0.05-0.26-0.13v0.46h-0.15v-0.91-0.27zm1.08-0.2v0.2h0.21v0.12h-0.21v0.44c0 0.11 0.03 0.17 0.11 0.17 0.04 0 0.07-0.01 0.09-0.02l0.01 0.12c-0.03 0.01-0.08 0.02-0.14 0.02-0.07 0-0.12-0.03-0.16-0.07-0.04-0.05-0.06-0.12-0.06-0.22v-0.46h-0.12v-0.11h0.12v-0.16l0.15-0.03zm0.75 0.61c-0.16-0.01-0.35 0.02-0.35 0.18 0 0.11 0.06 0.15 0.13 0.15 0.11 0 0.18-0.07 0.21-0.14v-0.05-0.14h0.01zm0.16 0.42h-0.14l-0.01-0.1c-0.05 0.06-0.14 0.12-0.26 0.12-0.16 0-0.25-0.12-0.25-0.24 0-0.2 0.18-0.31 0.5-0.31v-0.02c0-0.06-0.02-0.19-0.19-0.19-0.07 0-0.16 0.03-0.21 0.06l-0.04-0.1c0.07-0.04 0.17-0.07 0.28-0.07 0.25 0 0.32 0.17 0.32 0.34v0.31 0.2zm0.1 0h0.15v-1.22h-0.15v1.22zm-3.62-1.09h0.9v0.18h-0.37v0.92h-0.16v-0.92h-0.37v-0.18z"/>
</svg>
