<svg width="100px" height="29px" version="1.1" viewBox="0 0 8.69 2.51" xmlns="http://www.w3.org/2000/svg">
 <defs>
  <style type="text/css"><![CDATA[
    .fil1 {fill:#767676}
    .fil0 {fill:white}
   ]]></style>
 </defs>
 <rect class="fil0" width="8.69" height="2.51"/>
 <path class="fil1" d="m2.61 1.46c-0.06 0-0.12-0.02-0.16-0.06-0.06-0.06-0.06-0.13-0.06-0.25s0-0.18 0.06-0.24c0.04-0.04 0.1-0.07 0.15-0.06 0.11-0.01 0.2 0.07 0.21 0.18h-0.09c-0.01-0.07-0.08-0.11-0.14-0.1-0.03 0.01-0.05 0.02-0.06 0.03-0.03 0.04-0.04 0.07-0.04 0.19 0 0.13 0.01 0.16 0.04 0.19 0.04 0.05 0.12 0.05 0.17 0 0.02-0.02 0.03-0.04 0.03-0.06h0.09c-0.01 0.1-0.1 0.18-0.2 0.18zm0.71-0.07c-0.09 0.09-0.22 0.09-0.31 0-0.06-0.06-0.06-0.12-0.06-0.24s0-0.18 0.06-0.24c0.09-0.09 0.22-0.09 0.31 0 0.06 0.06 0.06 0.12 0.06 0.24s0 0.18-0.06 0.24zm-0.07-0.43c-0.04-0.05-0.12-0.05-0.17 0-0.03 0.03-0.04 0.07-0.04 0.19s0.01 0.15 0.04 0.19c0.05 0.05 0.12 0.05 0.17 0 0.03-0.04 0.04-0.07 0.04-0.19s-0.01-0.15-0.04-0.19zm0.63 0.49v-0.26h-0.24v0.26h-0.09v-0.6h0.09v0.26h0.24v-0.26h0.09v0.6h-0.09zm0.28 0v-0.6h0.38v0.08h-0.29v0.18h0.25v0.08h-0.25v0.18h0.29v0.08h-0.38zm0.87 0-0.13-0.25h-0.11v0.25h-0.09v-0.6h0.23c0.11 0 0.18 0.07 0.18 0.18 0 0.07-0.05 0.14-0.12 0.16l0.14 0.26h-0.1zm-0.11-0.52h-0.13v0.19h0.13c0.06 0 0.1-0.04 0.1-0.09 0-0.06-0.04-0.1-0.09-0.1h-0.01zm0.36 0.52v-0.6h0.38v0.08h-0.29v0.18h0.25v0.08h-0.25v0.18h0.29v0.08h-0.38zm0.91 0-0.28-0.42v0.42h-0.09v-0.6h0.09l0.27 0.42v-0.42h0.09v0.6h-0.08zm0.47-0.52v0.52h-0.09v-0.52h-0.16v-0.08h0.41v0.08h-0.16zm-1.88 1.04c-0.03 0-0.07-0.01-0.09-0.03l0.03-0.03c0.02 0.01 0.04 0.02 0.06 0.02 0.03 0 0.04-0.01 0.04-0.04v-0.02c-0.01 0-0.02-0.01-0.03-0.01h-0.02c-0.02 0-0.04-0.01-0.05-0.02s-0.02-0.03-0.02-0.05c0-0.04 0.03-0.08 0.09-0.08 0.02 0 0.05 0.01 0.07 0.03l-0.03 0.03c-0.01-0.01-0.03-0.01-0.05-0.01s-0.04 0.01-0.04 0.03c0 0.01 0.01 0.01 0.01 0.02 0.01 0 0.02 0.01 0.02 0.01h0.03c0.02 0 0.04 0.01 0.05 0.02 0.01 0.02 0.02 0.03 0.02 0.05 0 0.05-0.04 0.08-0.09 0.08zm0.42-0.03c-0.04 0.04-0.1 0.04-0.13 0-0.03-0.02-0.03-0.05-0.03-0.1 0-0.04 0-0.07 0.03-0.1s0.09-0.03 0.13 0c0.02 0.03 0.02 0.06 0.02 0.1 0 0.05 0 0.08-0.02 0.1zm-0.04-0.17c-0.01-0.01-0.02-0.01-0.03-0.01s-0.02 0-0.03 0.01-0.01 0.03-0.01 0.07c0 0.05 0 0.06 0.01 0.07s0.02 0.02 0.03 0.02 0.02-0.01 0.03-0.02 0.01-0.02 0.01-0.07c0-0.04 0-0.06-0.01-0.07zm0.24 0.2v-0.25h0.05v0.21h0.11v0.04h-0.16zm0.42 0c-0.05 0-0.09-0.03-0.09-0.08v-0.01-0.16h0.05v0.16c0 0.02 0.02 0.04 0.04 0.04s0.04-0.02 0.04-0.04v-0.16h0.05v0.16c0 0.05-0.04 0.09-0.09 0.09zm0.37-0.21v0.21h-0.05v-0.21h-0.06v-0.04h0.17v0.04h-0.06zm0.24 0.21h0.04v-0.25h-0.04v0.25zm0.38-0.03c-0.03 0.04-0.09 0.04-0.13 0-0.02-0.02-0.02-0.05-0.02-0.1 0-0.04 0-0.07 0.02-0.1 0.02-0.01 0.04-0.02 0.07-0.02 0.02 0 0.04 0.01 0.06 0.02 0.03 0.03 0.03 0.06 0.03 0.1 0 0.05 0 0.08-0.03 0.1zm-0.03-0.17c-0.01-0.01-0.02-0.01-0.03-0.01-0.02 0-0.03 0-0.03 0.01-0.01 0.01-0.02 0.03-0.02 0.07 0 0.05 0.01 0.06 0.02 0.07 0 0.01 0.02 0.02 0.03 0.02s0.02-0.01 0.03-0.02 0.01-0.02 0.01-0.07c0-0.04 0-0.06-0.01-0.07zm0.38 0.2-0.09-0.15v0.15h-0.05v-0.25h0.04l0.1 0.15v-0.15h0.05v0.25h-0.05zm0.31 0c-0.04 0-0.07-0.01-0.09-0.03l0.03-0.03c0.01 0.01 0.04 0.02 0.06 0.02s0.04-0.01 0.04-0.04c0 0 0-0.01-0.01-0.02 0 0-0.01-0.01-0.02-0.01h-0.03c-0.02 0-0.03-0.01-0.05-0.02-0.01-0.01-0.02-0.03-0.01-0.05 0-0.04 0.03-0.08 0.08-0.08 0.03 0 0.06 0.01 0.08 0.03l-0.03 0.03c-0.02-0.01-0.03-0.01-0.05-0.01-0.03 0-0.04 0.01-0.04 0.03 0 0.01 0 0.01 0.01 0.02 0 0 0.01 0.01 0.02 0.01h0.03c0.02 0 0.03 0.01 0.05 0.02 0.01 0.02 0.02 0.03 0.01 0.05 0 0.05-0.03 0.08-0.08 0.08zm-5.58-0.35c-0.08-0.13-0.12-0.28-0.11-0.44 0.01-0.2 0.13-0.39 0.31-0.56 0.45-0.09 0.89-0.15 1.34-0.18v0.05l0.17-0.06-0.17-0.05v0.04c-0.41 0.01-0.82 0.05-1.22 0.11 0.13-0.08 0.26-0.16 0.41-0.21 0.41-0.1 0.82-0.16 1.24-0.18l0.54-0.02v0.05l0.2-0.07-0.2-0.06v0.05c-0.24-0.01-0.53 0-0.53 0-1.48 0.03-2.68 0.53-2.74 1.14-0.06 0.65 1.2 1.2 2.82 1.24h0.09c-0.11-0.01-0.22-0.01-0.32-0.02h0.01c-0.04 0-0.07 0-0.1-0.01h-0.01c-0.48-0.04-0.91-0.18-1.23-0.37 0.59 0.11 1.18 0.15 1.78 0.14 0.05 0 0.11 0 0.16-0.01-0.71 0.01-1.41-0.07-2.11-0.23-0.09-0.07-0.17-0.15-0.25-0.24 0.78 0.18 1.58 0.25 2.37 0.22 0.06 0 0.11 0 0.17-0.01-0.89 0.02-1.77-0.09-2.62-0.32zm0.51-1.24c-0.12 0.05-0.24 0.11-0.34 0.18-0.07 0.01-0.13 0.02-0.19 0.04 0.17-0.09 0.35-0.17 0.53-0.22zm-1.06 1.06c-0.02-0.07-0.03-0.14-0.03-0.21 0.02-0.18 0.15-0.35 0.35-0.5 0.09-0.03 0.17-0.05 0.26-0.07-0.17 0.15-0.27 0.33-0.29 0.53-0.01 0.13 0.02 0.26 0.09 0.38-0.13-0.05-0.26-0.09-0.38-0.13zm0.85 0.6c0.24 0.14 0.5 0.25 0.77 0.31-0.44-0.09-0.83-0.22-1.11-0.39 0.11 0.03 0.23 0.06 0.34 0.08zm-0.17-0.12c-0.14-0.04-0.28-0.08-0.42-0.13-0.07-0.06-0.14-0.13-0.19-0.21 0.13 0.04 0.25 0.08 0.39 0.11 0.06 0.08 0.14 0.16 0.22 0.23z"/>
</svg>
