<svg width="100px" height="29px" version="1.1" viewBox="0 0 10.76 3.11" xmlns="http://www.w3.org/2000/svg">
 <defs>
  <style type="text/css"><![CDATA[
    .fil0 {fill:white}
    .fil1 {fill:#767676;fill-rule:nonzero}
   ]]></style>
 </defs>
 <rect class="fil0" width="10.76" height="3.11"/>
 <path class="fil1" d="m5.28 1.55v0.58h0.15c0-0.23 0.01-0.46 0-0.69-0.05 0.04-0.1 0.07-0.15 0.11zm2.52-0.45c0.05 0.06 0.09 0.11 0.14 0.17 0.09 0.12 0.2 0.23 0.29 0.35-0.14 0.17-0.29 0.34-0.43 0.51 0.07 0 0.14 0.01 0.2 0 0.12-0.13 0.22-0.26 0.33-0.39 0.11 0.13 0.22 0.26 0.34 0.39 0.06 0.01 0.14 0 0.21 0-0.13-0.15-0.26-0.3-0.39-0.46-0.02-0.02-0.04-0.04-0.04-0.07 0.05-0.04 0.08-0.1 0.13-0.15 0.09-0.12 0.19-0.23 0.29-0.35h-0.21c-0.11 0.13-0.21 0.27-0.33 0.39-0.11-0.13-0.21-0.26-0.33-0.39h-0.2zm-2.52 0.09v0.19c0.05-0.04 0.1-0.08 0.15-0.11v-0.19c-0.05 0.04-0.1 0.08-0.15 0.11zm1.66 0.04c-0.05 0.05-0.09 0.11-0.12 0.17-0.07 0.15-0.06 0.32 0.01 0.46 0.07 0.16 0.23 0.27 0.4 0.3 0.22 0.04 0.47-0.09 0.57-0.3-0.04-0.04-0.09-0.06-0.13-0.09-0.04 0.09-0.12 0.17-0.22 0.21-0.13 0.06-0.3 0.02-0.4-0.08 0.25-0.18 0.5-0.35 0.75-0.53-0.03-0.03-0.05-0.07-0.08-0.1-0.11-0.13-0.28-0.2-0.44-0.19-0.13 0.01-0.24 0.06-0.34 0.15zm-3.21 0.13c-0.06 0.11-0.08 0.23-0.06 0.35 0.02 0.16 0.12 0.3 0.26 0.38s0.32 0.09 0.48 0.03c0.12-0.05 0.21-0.14 0.27-0.25-0.04-0.03-0.08-0.06-0.13-0.09-0.05 0.1-0.15 0.19-0.27 0.21-0.12 0.03-0.25-0.01-0.34-0.09 0.25-0.18 0.49-0.35 0.74-0.52-0.09-0.2-0.31-0.32-0.52-0.3-0.18 0.01-0.35 0.12-0.43 0.28zm2.08-0.28c-0.05 0.03-0.1 0.07-0.16 0.11v0.94h0.16c0.01-0.25 0-0.51 0-0.77 0.18 0.26 0.36 0.52 0.55 0.77h0.22c0-0.35 0-0.7-0.01-1.05-0.05 0.04-0.1 0.07-0.15 0.11v0.76c-0.2-0.29-0.41-0.58-0.61-0.87zm3.2-0.15v0.16h-0.08c-0.01 0.05-0.01 0.1 0 0.16h0.08s0 0.02 0.01 0.02c-0.01 0.18-0.01 0.36-0.01 0.53 0 0.1 0.05 0.19 0.12 0.25 0.11 0.09 0.27 0.12 0.41 0.07v-0.17c-0.08 0.04-0.17 0.05-0.26 0.01-0.06-0.03-0.1-0.09-0.11-0.16v-0.53-0.02h0.3l-0.03-0.03c-0.14-0.09-0.27-0.19-0.4-0.28-0.01-0.01-0.02-0.01-0.03-0.01zm-4.12 0.1v1.1h0.16v-1.2c-0.06 0.03-0.11 0.07-0.16 0.1zm-3.67-0.31v0.28c0.15 0.1 0.3 0.21 0.44 0.31 0.01-0.09 0.01-0.19 0-0.28-0.05-0.04-0.11-0.08-0.16-0.12-0.1-0.06-0.19-0.13-0.28-0.19zm0.89-0.61v0.53c0 0.41 0.01 0.82 0 1.23-0.1-0.07-0.21-0.15-0.32-0.22-0.1-0.07-0.21-0.15-0.31-0.22-0.09-0.06-0.17-0.12-0.26-0.18v1.35c0.05 0.04 0.1 0.08 0.14 0.12 0.1 0.1 0.21 0.18 0.3 0.27 0.01-0.04 0.01-0.09 0.01-0.13 0-0.34-0.01-0.68 0-1.02 0.01 0.01 0.03 0.02 0.04 0.03 0.28 0.19 0.57 0.39 0.85 0.59v-2.04c-0.05-0.04-0.1-0.07-0.15-0.11-0.09-0.07-0.19-0.13-0.28-0.2h-0.02zm2 1.14c0.12-0.03 0.26 0 0.35 0.09-0.2 0.14-0.41 0.28-0.61 0.43-0.03-0.09-0.04-0.19-0.01-0.28 0.04-0.12 0.15-0.21 0.27-0.24zm2.85 0.22c0.05-0.12 0.18-0.22 0.32-0.23 0.1-0.01 0.21 0.03 0.29 0.1-0.2 0.14-0.41 0.29-0.61 0.42-0.04-0.09-0.04-0.19 0-0.29z"/>
</svg>
