<svg
aria-label="logo-navbar"
className="logo"
width="35"
height="18"
viewBox="0 0 35 18"
fill="none"
xmlns="http://www.w3.org/2000/svg">
<path
d="M0 18V0.00821229H8.89632C10.1793 -0.0380478 11.4619 0.111319 12.7031 0.451523C13.5549 0.744392 14.2887 1.32252 14.7889 2.09499C15.3421 2.95422 15.6228 3.97099 15.592 5.00352C15.613 5.9064 15.4006 6.79867 14.9767 7.58769C14.5664 8.3139 13.9851 8.9203 13.2871 9.35011C12.6954 9.68344 12.0592 9.92393 11.3994 10.0637C11.8931 10.2136 12.3637 10.4357 12.7969 10.7233C13.1158 11.0058 13.4028 11.325 13.6521 11.6748C13.9364 12.0085 14.1879 12.3707 14.4031 12.756L17 17.9676H10.9822L8.11411 12.4749C7.89127 11.9431 7.56044 11.4673 7.14418 11.0801C6.75684 10.8073 6.29827 10.664 5.83006 10.6692H5.36073V17.9676L0 18ZM5.3816 7.29573H7.64479C8.12353 7.26089 8.59826 7.18127 9.06319 7.05786C9.41265 6.99083 9.72316 6.78527 9.92884 6.48481C10.165 6.17889 10.2872 5.79512 10.273 5.40357C10.2876 5.15298 10.2473 4.90223 10.1552 4.67005C10.0631 4.43788 9.92151 4.2303 9.7411 4.06285C9.13862 3.69019 8.43689 3.52727 7.73865 3.59792H5.3816V7.29573Z"
fill="#FFC043"></path>
<path
d="M17 11.9714L22.8291 11.6478C22.895 12.3292 23.162 12.9839 23.6039 13.5477C23.9288 13.8965 24.3433 14.1729 24.8137 14.3544C25.284 14.5358 25.7967 14.6172 26.3098 14.5917C27.0377 14.6285 27.7565 14.436 28.3363 14.0488C28.5516 13.8982 28.7263 13.7079 28.8479 13.4913C28.9694 13.2748 29.0349 13.0374 29.0396 12.7961C29.0341 12.563 28.9704 12.3339 28.8531 12.1247C28.7357 11.9155 28.5674 11.7313 28.3601 11.5851C27.4154 11.0396 26.345 10.6832 25.2251 10.5412C23.1492 10.25 21.1809 9.53469 19.4795 8.45327C18.9218 8.04472 18.4767 7.53119 18.1775 6.95094C17.8782 6.37068 17.7324 5.7387 17.751 5.10221C17.7488 4.19839 18.0561 3.31477 18.6331 2.56542C19.2894 1.72665 20.2143 1.07651 21.2913 0.696751C22.8533 0.190138 24.5144 -0.0404824 26.1787 0.0181924C28.2079 -0.0965092 30.2288 0.333198 31.972 1.25004C32.669 1.71984 33.2426 2.31533 33.6539 2.99615C34.0652 3.67698 34.3047 4.42723 34.3561 5.19616L28.5747 5.48846C28.5073 4.83543 28.1628 4.22829 27.6091 3.78686C27.0227 3.40435 26.3007 3.21576 25.5708 3.25443C24.9978 3.21686 24.428 3.35733 23.9615 3.65114C23.7941 3.76459 23.6587 3.91019 23.5657 4.07671C23.4727 4.24322 23.4246 4.42619 23.4251 4.61155C23.4306 4.75872 23.4742 4.90288 23.5527 5.03311C23.6312 5.16333 23.7424 5.27619 23.8781 5.36319C24.4994 5.70544 25.1996 5.92293 25.9284 6.00002C27.9078 6.31491 29.8369 6.83715 31.674 7.55549C32.7043 7.97709 33.5795 8.64238 34.2011 9.47635C34.7323 10.2555 35.0086 11.1475 34.9998 12.0549C35.0029 13.1509 34.6336 14.2229 33.9389 15.1345C33.219 16.0859 32.1949 16.8303 30.9945 17.2746C29.4769 17.794 27.855 18.039 26.2264 17.995C22.8569 17.995 20.5205 17.4277 19.2172 16.2933C17.9019 15.1371 17.1135 13.6004 17 11.9714Z"
fill="#FFC043"></path>
</svg>
