<svg width="44" height="44" viewBox="0 0 44 44" fill="none" xmlns="http://www.w3.org/2000/svg"><mask id="path-1-inside-1_20906_221290" fill="white"><path d="M16.2195 39.0466C12.1937 37.6814 8.78104 34.9356 6.58584 31.2954C4.39064 27.6551 3.5546 23.3554 4.2258 19.1579C4.897 14.9603 7.03212 11.1357 10.253 8.36153C13.4739 5.58734 17.5726 4.04259 21.8233 4.00087C26.074 3.95915 30.2023 5.42316 33.4771 8.13359C36.7518 10.844 38.9615 14.626 39.715 18.8096C40.4685 22.9932 39.717 27.3084 37.5936 30.991C35.4703 34.6736 32.1122 37.4859 28.114 38.9298L24.0111 27.5688C25.3262 27.0938 26.4308 26.1688 27.1292 24.9574C27.8277 23.7461 28.0749 22.3267 27.827 20.9506C27.5792 19.5744 26.8523 18.3304 25.7752 17.4389C24.698 16.5473 23.3401 16.0658 21.9419 16.0795C20.5437 16.0932 19.1955 16.6014 18.136 17.5139C17.0766 18.4264 16.3743 19.6844 16.1535 21.0651C15.9327 22.4459 16.2077 23.8602 16.9298 25.0575C17.6519 26.2549 18.7744 27.1581 20.0986 27.6072L16.2195 39.0466Z"></path></mask><path d="M16.2195 39.0466C12.1937 37.6814 8.78104 34.9356 6.58584 31.2954C4.39064 27.6551 3.5546 23.3554 4.2258 19.1579C4.897 14.9603 7.03212 11.1357 10.253 8.36153C13.4739 5.58734 17.5726 4.04259 21.8233 4.00087C26.074 3.95915 30.2023 5.42316 33.4771 8.13359C36.7518 10.844 38.9615 14.626 39.715 18.8096C40.4685 22.9932 39.717 27.3084 37.5936 30.991C35.4703 34.6736 32.1122 37.4859 28.114 38.9298L24.0111 27.5688C25.3262 27.0938 26.4308 26.1688 27.1292 24.9574C27.8277 23.7461 28.0749 22.3267 27.827 20.9506C27.5792 19.5744 26.8523 18.3304 25.7752 17.4389C24.698 16.5473 23.3401 16.0658 21.9419 16.0795C20.5437 16.0932 19.1955 16.6014 18.136 17.5139C17.0766 18.4264 16.3743 19.6844 16.1535 21.0651C15.9327 22.4459 16.2077 23.8602 16.9298 25.0575C17.6519 26.2549 18.7744 27.1581 20.0986 27.6072L16.2195 39.0466Z" stroke="#545454" stroke-width="4" mask="url(#path-1-inside-1_20906_221290)"></path></svg>