<svg width="299" height="193" viewBox="0 0 299 193" fill="none" xmlns="http://www.w3.org/2000/svg"><path d="M96 176.568C140.183 176.568 176 140.751 176 96.5681C176 52.3854 140.183 16.5681 96 16.5681C51.8172 16.5681 16 52.3854 16 96.5681C16 140.751 51.8172 176.568 96 176.568Z" fill="#FFDB20"></path><path d="M51.2542 98.15L67.7513 57.246L88.7683 65.8337C92.6101 67.4156 95.5479 68.9975 97.3558 70.5794C99.1637 72.1613 100.294 73.9692 100.746 76.2291C101.198 78.489 100.972 80.9749 100.068 83.6867C99.1638 85.9466 97.8078 87.7545 96.2259 88.8844C94.644 90.0144 92.6101 90.9184 90.5762 91.3704C89.2202 91.5964 87.6383 91.5963 85.3784 91.1443C86.7344 92.2743 87.6383 93.1783 88.0903 94.0823C88.3163 94.5343 88.7682 95.6642 89.2202 97.0201C89.6722 98.376 89.8982 99.5059 89.8982 100.184L91.2542 114.421L77.0168 108.545L75.435 93.4042C75.209 91.3703 74.9829 90.0144 74.531 89.3364C73.853 88.4325 72.9491 87.5285 71.8191 87.0765L70.6892 86.6245L63.9095 103.348L51.2542 98.15ZM73.853 78.941L79.2767 81.2009C79.9547 81.4269 81.0847 81.6528 82.8926 82.1048C83.7965 82.3308 84.7005 82.1049 85.3784 81.6529C86.2824 81.2009 86.7344 80.5229 87.1863 79.619C87.6383 78.263 87.6383 77.1331 87.1863 76.0032C86.7344 74.8733 85.1524 73.9692 82.8926 73.0652L77.2428 70.8053L73.853 78.941Z" fill="black"></path><path d="M98.712 101.766L111.141 105.834C110.689 107.867 110.463 109.675 110.915 111.031C111.593 113.291 113.175 114.873 115.435 115.777C117.243 116.455 118.825 116.681 120.181 116.229C121.537 115.777 122.441 115.099 122.893 113.969C123.345 112.839 123.345 111.709 122.667 110.579C121.989 109.449 120.181 107.642 117.243 105.608C112.271 102.218 108.881 98.828 107.3 95.8902C105.718 92.9523 105.718 89.7884 106.848 86.6246C107.752 84.5907 109.107 82.7828 111.141 81.4268C113.175 80.0709 115.661 79.393 118.373 79.167C121.311 79.167 124.927 79.845 128.994 81.6529C134.192 83.6868 137.808 86.3986 139.842 89.3364C141.876 92.2743 142.102 96.1161 140.972 100.636L128.768 96.5681C129.22 94.5342 128.994 92.9523 128.317 91.8224C127.639 90.4665 126.509 89.5624 124.701 88.8844C123.119 88.2065 121.989 88.2066 121.085 88.4326C120.181 88.6586 119.503 89.3365 119.051 90.2405C118.825 90.9184 118.825 91.5963 119.277 92.2743C119.729 92.9522 120.859 94.0822 122.893 95.4382C127.865 98.828 131.48 101.766 133.288 103.8C135.096 106.06 136.226 108.093 136.678 110.353C137.13 112.613 136.678 114.873 135.774 117.133C134.644 119.845 133.062 121.879 130.576 123.461C128.317 125.043 125.605 125.947 122.441 125.947C119.277 125.947 115.887 125.269 111.819 123.687C104.814 120.975 100.52 117.585 98.938 113.743C97.5821 109.901 97.3561 106.06 98.712 101.766Z" fill="black"></path><path d="M239.5 103.568C263.524 103.568 283 84.0925 283 60.0681C283 36.0437 263.524 16.5681 239.5 16.5681C215.476 16.5681 196 36.0437 196 60.0681C196 84.0925 215.476 103.568 239.5 103.568Z" fill="black"></path><path d="M217.2 70.0681V46.0681H229.6C231.9 46.0681 233.6 46.2681 234.9 46.6681C236.1 47.0681 237.1 47.7681 237.8 48.8681C238.5 49.9681 238.9 51.2681 238.9 52.7681C238.9 54.0681 238.6 55.2681 238 56.1681C237.4 57.0681 236.7 57.9681 235.7 58.5681C235.1 58.9681 234.2 59.2681 233.1 59.5681C234 59.8681 234.6 60.1681 235 60.4681C235.3 60.6681 235.7 61.0681 236.2 61.7681C236.7 62.3681 237.1 62.8681 237.2 63.2681L240.8 70.2681H232.4L228.4 62.9681C227.9 61.9681 227.4 61.3681 227.1 61.0681C226.6 60.6681 226 60.4681 225.3 60.4681H224.6V70.2681H217.2V70.0681ZM224.7 55.7681H227.8C228.1 55.7681 228.8 55.6681 229.8 55.4681C230.3 55.3681 230.7 55.1681 231 54.6681C231.3 54.1681 231.5 53.7681 231.5 53.2681C231.5 52.4681 231.3 51.8681 230.8 51.4681C230.3 51.0681 229.4 50.8681 228 50.8681H224.7V55.7681Z" fill="white"></path><path d="M241.9 62.1681L249 61.7681C249.2 62.8681 249.5 63.7681 249.9 64.3681C250.7 65.3681 251.8 65.8681 253.2 65.8681C254.3 65.8681 255.1 65.6681 255.7 65.1681C256.3 64.6681 256.6 64.0681 256.6 63.4681C256.6 62.8681 256.3 62.2681 255.8 61.7681C255.3 61.2681 254 60.7681 252 60.3681C248.7 59.6681 246.4 58.6681 245 57.4681C243.6 56.2681 242.9 54.6681 242.9 52.8681C242.9 51.6681 243.3 50.4681 244 49.3681C244.7 48.2681 245.8 47.3681 247.2 46.7681C248.6 46.1681 250.6 45.8681 253.1 45.8681C256.2 45.8681 258.5 46.4681 260.1 47.5681C261.7 48.6681 262.7 50.5681 263 52.9681L256 53.3681C255.8 52.2681 255.4 51.4681 254.8 50.9681C254.2 50.4681 253.4 50.2681 252.3 50.2681C251.4 50.2681 250.8 50.4681 250.4 50.7681C250 51.1681 249.7 51.5681 249.7 52.0681C249.7 52.4681 249.9 52.7681 250.2 53.0681C250.5 53.3681 251.4 53.6681 252.7 53.9681C255.9 54.6681 258.3 55.3681 259.7 56.0681C261.1 56.7681 262.1 57.6681 262.8 58.7681C263.4 59.8681 263.8 60.9681 263.8 62.3681C263.8 63.8681 263.4 65.3681 262.5 66.6681C261.6 67.9681 260.5 68.9681 258.9 69.6681C257.3 70.3681 255.4 70.6681 253.1 70.6681C249 70.6681 246.2 69.8681 244.6 68.2681C243 66.6681 242.1 64.5681 241.9 62.1681Z" fill="white"></path></svg>