<svg width="120" height="120" viewBox="0 0 120 120" fill="none" xmlns="http://www.w3.org/2000/svg">
<g clip-path="url(#clip0_378_25562)">
<rect width="120" height="120" rx="60" fill="#2AB4EF"/>
<g clip-path="url(#clip1_378_25562)">
<path d="M22.0563 130C21.0219 129.988 20.0349 129.574 19.3046 128.845C18.9374 128.478 18.6492 128.044 18.4518 127.571C18.0412 126.806 17.8794 125.899 18.0491 124.984C18.1952 124.211 18.3768 123.395 18.5979 122.555C18.9611 121.001 19.498 119.526 19.9284 118.406C19.9323 118.395 19.9402 118.379 19.9441 118.367C20.9548 115.662 22.0918 113.288 22.8933 111.679L23.7302 109.408C23.5684 108.753 23.4776 108 23.5526 107.176C23.5763 106.509 23.7144 105.859 23.9671 105.243C24.2553 104.329 24.7922 102.968 25.6687 101.836C25.7161 100.965 25.7595 99.9277 25.7911 98.9458C25.5542 98.6697 25.3528 98.3582 25.1989 98.0151C24.5238 96.5324 24.3777 95.172 24.4646 94.0086C24.3343 93.8272 24.2158 93.638 24.1171 93.4329C23.5092 92.1986 23.142 90.9091 22.9959 89.4974C22.8577 88.1291 22.9643 86.9303 23.0433 86.0548C23.0591 85.8813 23.0788 85.6684 23.0907 85.4988C16.9042 71.689 14.9184 58.7823 17.1806 47.1178C16.6239 46.5696 16.2252 45.8559 16.0712 45.0475C15.7356 43.2887 16.6239 41.526 18.2386 40.7531C18.2939 40.7255 18.5703 40.5954 19.0124 40.41C19.6165 38.7026 20.3192 37.0345 21.1127 35.4295C20.5363 35.2758 19.9876 34.9879 19.5178 34.5699C18.2465 33.4421 17.8359 31.6281 18.5071 30.0665C19.123 28.6311 20.0626 27.318 21.2825 26.1626C20.8522 25.0308 20.9548 23.7374 21.626 22.6648C22.0721 21.955 22.5774 21.2885 23.1341 20.6852C23.8605 19.8926 24.6383 19.2419 25.4279 18.7096C25.3884 18.469 25.3686 18.2206 25.3726 17.9721C25.3963 16.7103 26.024 15.5391 27.0584 14.8174C30.3865 12.4948 34.1963 11.292 38.0811 11.3275C38.2271 11.3275 38.3732 11.3315 38.5193 11.3354C38.7798 10.0617 39.3286 8.8077 40.1695 7.64834C40.6867 6.9267 41.4447 6.38251 42.3488 6.13802C42.7041 6.04338 43.0634 6 43.4147 6C44.7689 6.01183 46.052 6.72164 46.7666 7.92832C47.7062 9.50568 50.983 10.7991 54.0032 11.505C54.2242 11.154 54.4927 10.8228 54.8046 10.5152C55.2705 10.0578 55.8311 9.73439 56.4312 9.553C56.8181 9.43864 57.2168 9.37949 57.6155 9.38343C58.5078 9.39132 59.4 9.70285 60.1264 10.318C60.2646 10.4284 60.9358 10.8701 63.5848 11.7455C64.4218 12.0216 65.3101 12.2976 66.2537 12.5934L66.6287 12.7117C68.6224 13.3308 70.553 13.9459 72.2624 14.6439C88.1767 21.1347 100.625 32.9058 108.272 48.6951C114.296 61.1365 117.36 76.2279 116.965 91.41C118.256 92.518 119.421 93.8351 120.483 95.3928C120.534 95.4677 120.645 95.6373 120.645 95.6373C121.632 96.9622 122.516 98.3898 123.345 100.01C127.846 108.788 130.349 117.176 130.996 125.658C131.079 126.735 130.716 127.8 129.989 128.6C129.263 129.401 128.241 129.87 127.163 129.901C123.12 130.008 73.735 130.004 44.232 130C32.3052 130 22.8854 130 22.1392 130.004C22.1116 130.004 22.0879 130.004 22.0603 130.004L22.0563 130Z" fill="white"/>
<path d="M113.183 93.4447C112.192 92.7941 111.161 92.313 110.099 91.9265C110.099 91.9226 110.092 91.9226 110.084 91.9187C108.039 91.0353 105.646 90.4714 102.843 90.432C101.631 90.4162 100.466 90.4793 99.3531 90.6292C99.0017 90.6725 98.6503 90.7278 98.3108 90.7908C93.5496 91.6544 89.7359 94.052 86.7986 97.7667C86.7788 97.7904 86.7591 97.814 86.7393 97.8416C85.0338 99.9356 83.8218 102.187 83.0875 104.171C83.0875 104.175 83.0875 104.179 83.0835 104.183C82.8664 104.699 82.6532 105.235 82.4519 105.78C81.453 106.166 80.2726 106.517 79.0014 106.821C78.9658 106.829 78.9303 106.837 78.8948 106.844C72.9965 108.169 60.8842 109.719 47.1216 108.165C46.9361 108.15 46.7505 108.126 46.561 108.102C45.2898 107.949 44.0027 107.771 42.6881 107.566C42.6367 107.558 42.5894 107.554 42.542 107.546C38.7204 106.927 34.808 106.056 30.9034 104.861C30.8916 104.861 30.8797 104.857 30.8679 104.849C30.4376 104.687 30.1612 104.557 30.0191 104.47C30.0507 104.175 29.9875 104.072 29.8651 104.112C29.8335 104.013 29.7901 103.95 29.7388 103.918C29.9006 101.982 30.1612 95.5426 29.9243 95.4519C29.4545 95.5663 29.0439 96.0553 29.0281 96.5245C27.8674 93.9732 29.6045 92.1868 29.4624 90.8579C28.8781 90.5818 28.3017 90.9407 27.8911 91.8279C26.3041 88.6141 27.7174 85.763 27.1371 84.4854C20.5242 69.9145 17.2396 52.7963 24.9104 37.2751C26.6949 33.655 29.0558 30.9223 31.9694 28.8835C29.6717 28.8638 25.9329 29.6998 22.3758 31.7583C23.4694 29.2108 26.5212 26.62 32.1312 25.504C31.1245 24.5734 28.3096 23.9937 25.2105 24.8967C28.8386 19.1157 35.7041 20.7444 35.712 19.5968C35.7239 18.2324 29.9993 18.6741 29.5572 18.1851C34.4961 14.7386 40.1653 14.7465 44.1765 16.8443C42.0643 14.8253 42.0919 12.1754 43.6119 10.0814C46.7663 15.3735 58.7878 16.5841 59.1629 16.0438C57.1139 15.4247 57.11 14.1471 57.8048 13.4649C59.917 15.2512 66.5258 16.6077 71.0028 18.4296C103.992 31.8805 114.482 65.6162 113.175 93.4447H113.183Z" fill="#CAA77A"/>
<path d="M102.843 90.432C92.7284 90.2939 86.088 95.9093 82.4519 105.784C78.8553 107.183 72.9097 108.039 68.7288 108.402C59.4195 109.21 51.65 108.946 42.6763 107.566C33.7025 106.186 29.9244 104.581 29.9125 104.376C29.7862 102.692 27.982 105.701 27.7372 107.562C27.5674 108.871 28.4912 109.979 28.3965 110.192C26.7976 113.67 25.0368 116.884 23.8563 119.956C23.1062 121.908 22.3601 124.101 22.3403 126.187C24.9302 126.159 121.635 126.23 127.301 126.084C126.618 117.172 123.728 109.064 120.072 101.935C118.165 98.2162 113.4 90.57 102.843 90.4241V90.432Z" fill="#FFDB1F"/>
<path d="M22.1667 52.9658C24.4012 38.4936 36.9754 37.0858 47.8797 37.3697C53.6792 37.5195 51.0578 33.0044 51.2868 32.9255C51.5197 32.8466 55.3216 33.0438 66.2693 38.1189C77.6157 43.3794 86.8894 38.2175 93.1075 50.6077C94.505 53.3878 96.629 59.7406 95.0696 66.8032C92.7956 77.0915 91.623 81.4016 81.1215 89.0163C68.6459 98.0625 43.379 102.321 30.7535 84.8521C24.8434 76.6735 20.544 63.4592 22.1627 52.9658H22.1667Z" fill="#FFDBAF"/>
<path d="M51.7644 58.731C47.4691 56.3729 43.5014 69.3782 43.8133 72.7419C44.8911 84.2724 54.4885 85.8182 61.808 81.9852C72.3728 76.4526 63.5373 54.8547 55.9967 58.0015" fill="#9D7B51"/>
<path d="M21.3455 51.5265C20.169 56.5307 23.7024 73.1521 25.4711 74.6032C26.8331 75.7231 36.024 74.1892 42.775 65.8213C49.1983 57.8596 49.0799 49.6258 47.7533 48.1707C47.0032 47.3504 29.8178 40.4534 28.2702 40.7689C26.083 41.2145 22.9681 44.6413 21.3455 51.5265Z" fill="#9D7B51"/>
<path d="M63.4859 47.0034C62.57 75.2776 88.9976 82.2022 92.0573 77.5411C94.0194 74.5559 101.69 52.3034 85.6102 42.2517C79.7831 40.28 72.3135 46.4987 63.4859 47.0034Z" fill="#9D7B51"/>
<path d="M35.7278 96.2563L35.6686 100.101" stroke="#9D7B51" stroke-width="3.87" stroke-linecap="round" stroke-linejoin="round"/>
<path d="M39.2257 98.2596L39.1665 102.101" stroke="#9D7B51" stroke-width="3.87" stroke-linecap="round" stroke-linejoin="round"/>
<g style="mix-blend-mode:multiply">
<path d="M113.183 93.4447C114.486 65.6162 103.996 31.8844 71.0107 18.4296C66.5377 16.6038 59.9249 15.2512 57.8127 13.4649C57.1139 14.1471 57.1179 15.4247 59.1708 16.0438C58.7957 16.5841 46.7703 15.3695 43.6198 10.0814C42.0998 12.1675 42.0722 14.8214 44.1804 16.8404C40.1732 14.7425 34.504 14.7346 29.5611 18.1811C30.0033 18.6662 35.7278 18.2285 35.716 19.5929C35.7042 20.7404 28.8387 19.1118 25.2144 24.8928C28.3096 23.9898 31.1285 24.5694 32.1313 25.5001C26.5173 26.6121 23.4694 29.199 22.3759 31.7504C25.9369 29.688 29.6717 28.8559 31.9733 28.8756C29.0597 30.9183 26.6989 33.6511 24.9104 37.2711C17.2435 52.7884 20.5243 69.9106 27.1371 84.4814C27.7174 85.763 26.3041 88.6101 27.8951 91.824C28.3057 90.9367 28.8821 90.574 29.4664 90.8539C29.6085 92.1868 27.8714 93.9732 29.0321 96.5245C29.0479 96.0513 29.4545 95.5663 29.9243 95.4519C30.1928 95.5505 29.8296 103.69 29.6875 104.407" stroke="#2D1F04" stroke-width="2.62" stroke-linecap="round" stroke-linejoin="round"/>
</g>
<path d="M29.9994 104.577C54.5478 112.416 79.6607 107.274 82.4519 105.78" stroke="#2D1F04" stroke-width="2.62" stroke-linecap="round" stroke-linejoin="round"/>
<path d="M29.9954 104.62C30.2915 102.889 28.2701 105.961 27.8872 106.817C27.3226 108.075 28.5267 109.234 28.4596 109.893C28.3846 110.669 23.5642 118.335 22.1705 125.84" stroke="#2D1F04" stroke-width="2.62" stroke-linecap="round" stroke-linejoin="round"/>
<path d="M81.3307 116.711C83.964 119.38 86.3328 122.105 87.7935 125.93" stroke="#2D1F04" stroke-width="2.62" stroke-linecap="round" stroke-linejoin="round"/>
<path d="M86.6762 123.462C86.388 121.045 86.159 117.965 85.1799 115.788" stroke="#2D1F04" stroke-width="2.62" stroke-linecap="round" stroke-linejoin="round"/>
<path d="M82.4203 106.489C83.6955 100.081 91.7454 87.2812 107.667 91.201C111.304 92.0961 114.588 93.5394 117.458 97.747C123.605 106.754 125.737 118.036 127.068 125.804" stroke="#2D1F04" stroke-width="2.62" stroke-linecap="round" stroke-linejoin="round"/>
<path d="M48.6337 59.9614C48.5745 58.2184 50.359 56.5306 54.2754 56.3571C58.1917 56.1836 61.4133 57.4573 61.4764 59.2043C61.5357 60.9472 58.4128 62.5009 54.4965 62.6744C50.5801 62.848 48.6969 61.7083 48.6337 59.9614Z" fill="#251707"/>
<path d="M71.4055 113.521C64.3899 116.076 37.2122 115.607 28.7596 109.506" stroke="#2D1F04" stroke-width="2.62" stroke-linecap="round" stroke-linejoin="round"/>
<path d="M33.8209 105.965C33.4696 107.057 33.1024 107.897 33.0906 109.104" stroke="#2D1F04" stroke-width="2.62" stroke-linecap="round" stroke-linejoin="round"/>
<path d="M40.0863 107.373C39.6086 108.374 39.506 109.699 39.4941 110.811" stroke="#2D1F04" stroke-width="2.62" stroke-linecap="round" stroke-linejoin="round"/>
<path d="M47.6112 108.497L47.165 111.186" stroke="#2D1F04" stroke-width="2.62" stroke-linecap="round" stroke-linejoin="round"/>
<path d="M52.9054 109.297L52.9014 109.747V110.046L52.8935 110.496V110.796L52.8896 111.095L52.8856 111.395" stroke="#2D1F04" stroke-width="2.62" stroke-linecap="round" stroke-linejoin="round"/>
<path d="M49.976 109.419L49.9721 109.719L49.9681 110.019V110.319L49.9642 110.614L49.9602 110.914" stroke="#2D1F04" stroke-width="2.62" stroke-linecap="round" stroke-linejoin="round"/>
<path d="M70.7778 108.725L70.7738 109.025L70.7699 109.325L70.7659 109.924L70.762 110.224" stroke="#2D1F04" stroke-width="2.62" stroke-linecap="round" stroke-linejoin="round"/>
<path d="M72.8702 108.749L72.8663 109.195L72.8623 109.644L72.8584 109.944" stroke="#2D1F04" stroke-width="2.62" stroke-linecap="round" stroke-linejoin="round"/>
<path d="M75.5193 56.1126C75.3298 56.0889 75.1442 56.0653 74.9547 56.0416L75.5193 56.1126Z" fill="#2D1F04"/>
<path d="M79.4357 43.7186C86.3762 43.7856 91.9349 47.0232 91.8639 53.9556C91.7967 60.8881 86.1117 66.4522 79.1712 66.3813H79.0291C72.0886 66.3103 66.518 60.6357 66.5891 53.7033C66.6562 46.7708 72.4952 43.6476 79.4357 43.7186Z" fill="white"/>
<path d="M66.7825 56.0259C69.0525 60.1625 87.758 59.847 91.7533 52.2047C92.385 60.6436 86.7828 66.4561 79.1712 66.3812C71.5595 66.3063 68.0458 61.034 66.7825 56.0219V56.0259Z" fill="#9D7B51"/>
<path d="M79.4357 43.7186C86.3762 43.7856 91.9349 47.0232 91.8639 53.9556C91.7967 60.8881 86.1117 66.4522 79.1712 66.3813H79.0291C72.0886 66.3103 66.518 60.6357 66.5891 53.7033C66.6562 46.7708 72.4952 43.6476 79.4357 43.7186Z" stroke="#2D1F04" stroke-width="2.79" stroke-linecap="round" stroke-linejoin="round"/>
<path d="M80.3679 51.714C80.378 50.7035 79.7711 49.8783 79.0123 49.8707C78.2536 49.8632 77.6303 50.6762 77.6203 51.6867C77.6102 52.6972 78.2171 53.5225 78.9759 53.53C79.7346 53.5375 80.3579 52.7245 80.3679 51.714Z" fill="#2D1F04"/>
<path d="M33.1064 43.6791C39.4981 43.7422 44.7134 46.9285 44.6423 53.861C44.5752 60.7934 39.3362 66.3615 32.9445 66.2984H32.8142C26.4225 66.2353 21.298 60.5608 21.3652 53.6283C21.4046 49.815 23.0193 47.1651 25.5302 45.5641C27.5832 44.2588 30.2283 43.6515 33.1024 43.6791H33.1064Z" fill="white"/>
<path d="M21.7363 56.9171C27.3306 64.2242 38.4875 64.173 44.0107 57.8162C42.4157 62.4694 38.3256 66.3497 32.9446 66.2984C27.5635 66.2432 23.2563 62.8204 21.7363 56.9211V56.9171Z" fill="#9D7B51"/>
<path d="M33.1064 43.6792C39.4981 43.7423 44.7134 46.9285 44.6423 53.861C44.5752 60.7935 39.3362 66.3616 32.9445 66.2985H32.8142C26.4225 66.2354 21.298 60.5608 21.3652 53.6284C21.4323 46.6959 26.7107 43.6161 33.1024 43.6792H33.1064Z" stroke="#2D1F04" stroke-width="2.79" stroke-linecap="round" stroke-linejoin="round"/>
<path d="M34.0608 51.6269C34.0708 50.6164 33.5134 49.7916 32.8157 49.7847C32.118 49.7777 31.5443 50.5913 31.5342 51.6018C31.5242 52.6122 32.0816 53.437 32.7793 53.4439C33.477 53.4509 34.0507 52.6373 34.0608 51.6269Z" fill="#2D1F04"/>
<path d="M54.686 71.3105C52.4198 71.2869 52.029 69.9264 50.5209 69.9106C49.0127 69.8949 45.8702 71.7246 45.8583 72.9313C45.8465 74.1379 46.415 77.7659 54.6228 77.8487C62.8306 77.9315 63.9755 74.2681 63.9834 73.3138C63.9913 72.3595 62.0489 70.2774 60.2368 70.2576C58.4247 70.2379 57.0034 71.3342 54.686 71.3105Z" fill="#251707"/>
<path d="M53.7739 60.9867C53.0791 63.128 53.1501 69.0352 55.2347 72.7498" stroke="#2D1F04" stroke-width="2.62" stroke-linecap="round" stroke-linejoin="round"/>
<path d="M21.7363 56.9171C27.528 64.6501 39.1823 63.5933 44.0107 57.8162" stroke="#2D1F04" stroke-width="2.79" stroke-linecap="round" stroke-linejoin="round"/>
<path d="M66.7825 56.0259C69.0525 60.1625 87.8053 59.847 91.7533 52.2047" stroke="#2D1F04" stroke-width="2.79" stroke-linecap="round" stroke-linejoin="round"/>
<path d="M60.217 47.2598C64.9467 51.2742 71.0384 45.1028 80.9596 43.7462C87.375 42.8708 90.7347 44.6453 90.7347 44.6453" stroke="#2D1F04" stroke-width="10.65" stroke-linecap="round" stroke-linejoin="round"/>
<path d="M52.4553 46.7115C46.1939 51.2741 37.7847 43.8171 28.4557 42.6223C24.9223 42.1688 20.1926 44.4402 20.1926 44.4402" stroke="#2D1F04" stroke-width="10.65" stroke-linecap="round" stroke-linejoin="round"/>
<g style="mix-blend-mode:multiply" opacity="0.23">
<path d="M113.183 93.4447C112.192 92.7941 111.161 92.313 110.099 91.9265C110.096 91.9226 110.092 91.9226 110.084 91.9187C108.039 91.0353 105.646 90.4714 102.843 90.432C102.385 90.428 101.935 90.432 101.489 90.4557C101.753 80.9876 100.96 70.7821 97.9516 58.8967C93.1667 40.0118 81.1688 30.2953 65.0809 25.926C62.5306 25.2319 57.5364 24.5773 57.6153 23.1025C56.3402 23.0907 56.2809 24.5103 55.7164 24.4866C54.986 24.4551 53.1976 23.0315 55.2387 20.5866C52.5857 21.3161 52.3883 24.4709 51.8197 24.4985C51.2512 24.5261 50.0155 23.8084 50.1774 22.6254C48.768 23.0907 49.2062 24.6996 48.7522 24.7508C48.1995 24.8139 47.856 23.0907 45.9018 22.0812C46.5927 23.6664 46.2926 25.1097 45.886 25.1807C45.4517 25.2595 44.7766 23.6625 43.1106 23.7965C43.6751 24.3881 43.079 25.7801 42.3368 25.9772C36.5806 27.5191 31.3851 30.1375 27.2871 33.4184C28.6413 31.6202 30.2047 30.1217 31.9773 28.8835C29.6796 28.8638 25.9409 29.6998 22.3838 31.7583C23.4774 29.2108 26.5291 26.62 32.1392 25.504C31.1325 24.5734 28.3176 23.9937 25.2184 24.8967C28.8466 19.1157 35.7121 20.7444 35.72 19.5968C35.7318 18.2324 30.0073 18.6741 29.5651 18.1851C34.504 14.7386 40.1733 14.7465 44.1844 16.8443C42.0722 14.8253 42.0999 12.1754 43.6198 10.0814C46.7743 15.3735 58.7958 16.5841 59.1708 16.0438C57.1219 15.4247 57.1179 14.1471 57.8127 13.4649C59.9249 15.2512 66.5338 16.6077 71.0108 18.4296C103.996 31.8805 114.49 65.6162 113.183 93.4447Z" fill="#3F2719"/>
</g>
<path d="M100.478 101.276C102.385 100.787 104.233 100.401 106.108 100.2C107.648 100.038 108.536 100.945 108.955 101.856C109.535 103.118 109.247 104.045 108.149 104.632C108.09 104.664 108.027 104.687 107.904 104.743C109.724 105.362 110.53 106.971 111.88 108.288C110.79 108.315 109.819 108.374 108.797 108.469C108.023 107.657 107.229 106.837 106.432 106.044C105.998 105.61 105.524 105.31 104.837 105.586C105.208 106.643 105.587 107.724 105.978 108.84C105.05 108.986 104.225 109.139 103.352 109.325C102.397 106.635 101.457 104.001 100.474 101.276H100.478ZM103.716 102.321C103.909 102.869 104.091 103.374 104.304 103.989C104.868 103.847 105.437 103.749 105.97 103.591C106.44 103.453 106.59 103.114 106.459 102.704C106.321 102.274 105.926 101.978 105.382 102.018C104.829 102.057 104.296 102.199 103.716 102.317V102.321ZM114.6 99.695C113.357 99.3125 112.208 99.3362 111.169 99.6832C110.072 100.054 109.63 100.977 109.942 102.045C110.222 103.007 111.086 103.78 112.393 104.23C113.072 104.463 113.755 104.612 114.438 104.825C114.766 104.928 115.098 105.023 115.421 105.161C115.8 105.322 116.112 105.618 116.227 105.997C116.349 106.407 116.179 106.651 115.86 106.773C115.153 107.046 114.15 106.624 113.566 105.795C113.459 105.642 113.36 105.484 113.25 105.31C112.425 105.354 111.631 105.413 110.842 105.496C111.351 106.892 112.524 107.913 113.913 108.28C114.967 108.556 115.97 108.647 116.878 108.556C117.435 108.501 117.98 108.323 118.347 108.008C119.444 107.085 118.793 104.463 116.412 103.323C116.037 103.146 115.658 102.996 115.279 102.877C114.6 102.664 113.921 102.503 113.238 102.337C112.867 102.246 112.524 102.104 112.354 101.686C112.334 101.178 112.681 101.032 113.151 101.044C113.878 101.063 114.438 101.47 114.821 102.219C115.631 102.199 116.396 102.195 117.226 102.219C116.677 100.878 115.891 100.097 114.604 99.695H114.6Z" fill="black"/>
<path d="M53.0791 43.1901C53.3002 41.3131 52.6685 37.346 50.2682 35.2402" stroke="#2D1F04" stroke-width="2.79" stroke-linecap="round" stroke-linejoin="round"/>
<path d="M60.3433 34.6014C59.459 36.6717 58.2627 40.3864 58.8747 43.9315" stroke="#2D1F04" stroke-width="2.79" stroke-linecap="round" stroke-linejoin="round"/>
</g>
</g>
<defs>
<clipPath id="clip0_378_25562">
<rect width="120" height="120" rx="60" fill="white"/>
</clipPath>
<clipPath id="clip1_378_25562">
<rect width="115" height="124" fill="white" transform="translate(16 6)"/>
</clipPath>
</defs>
</svg>
