<svg width="120" height="120" viewBox="0 0 120 120" fill="none" xmlns="http://www.w3.org/2000/svg">
<g clip-path="url(#clip0_378_25619)">
<rect width="120" height="120" rx="60" fill="#2AB4EF"/>
<g clip-path="url(#clip1_378_25619)">
<path d="M49.7275 204.989C49.5392 204.989 49.0021 204.972 49.0021 204.972C48.7973 204.967 48.3433 204.945 48.3267 204.945C48.155 204.933 47.7342 204.906 47.7342 204.906C47.5515 204.894 47.3799 204.878 47.2193 204.861L47.1086 204.85C46.948 204.833 46.7929 204.811 46.649 204.794C46.6268 204.794 46.5992 204.788 46.577 204.783C46.4164 204.761 46.267 204.733 46.1341 204.705C46.0732 204.694 46.0067 204.677 45.9403 204.666C45.7576 204.627 45.5859 204.582 45.4309 204.532C45.3534 204.51 45.2814 204.487 45.2094 204.465C44.6225 204.259 44.1021 203.997 43.6425 203.668C43.2826 203.45 42.9116 203.177 42.5628 202.826C42.5296 202.792 42.5019 202.764 42.4687 202.731C41.4388 201.66 39.4068 198.711 42.7289 194.507C42.9559 194.223 43.2217 193.888 43.5318 193.52L29.8281 192.115C29.6011 192.293 29.3741 192.455 29.1526 192.606C26.0243 194.724 21.7388 195.706 15.6649 195.706C14.026 195.706 12.2653 195.633 10.2997 195.488C9.7294 195.577 9.11481 195.616 8.44485 195.616C6.29103 195.616 3.49493 195.198 -0.879171 194.223C-2.33536 194.033 -3.5147 193.888 -4.51133 193.799L-5.17575 193.743C-6.11148 193.671 -7.62303 193.565 -9.27855 193.453C-10.6074 193.381 -11.8864 193.33 -13.1377 193.308H-13.1543C-13.481 193.375 -13.8797 193.431 -14.3614 193.431C-14.9372 193.431 -15.4964 193.347 -16.0279 193.185C-16.7754 193.04 -17.4897 192.739 -18.1153 192.31C-19.4497 191.557 -20.4519 190.264 -20.8173 188.675C-21.5149 185.647 -20.4796 183.484 -13.2595 177.35C-11.2275 175.622 -8.50893 173.475 -5.39723 171.418C-5.79034 170.738 -6.12255 170.046 -6.39939 169.361C-9.20103 162.296 -7.64518 154.485 -2.86136 149.098C-5.15361 145.396 -6.82573 139.581 -4.42828 131.083C-3.47041 126.238 -1.03974 120.897 3.00215 114.775C3.55029 113.944 4.08183 113.119 4.6189 112.271C4.77947 110.911 5.29993 109.522 6.16368 108.201C6.22458 108.106 6.28549 108.022 6.34086 107.939C6.65092 107.493 7.50913 106.35 8.75492 105.374C9.50793 104.058 10.2111 102.803 10.8977 101.582C13.9429 96.1461 16.512 91.5573 20.349 87.2585C20.1774 87.0577 20.0168 86.8459 19.8673 86.6228C19.1697 85.5412 18.8652 84.2588 18.9981 82.9931C18.8098 82.8314 18.6326 82.6585 18.461 82.469C17.2982 81.1698 16.811 79.3968 17.1377 77.685C17.4588 76.0067 17.3591 73.7709 17.1986 73.1687C16.2352 70.1969 15.4877 67.4146 14.9396 64.7773C13.5387 63.5283 12.83 61.6103 13.1512 59.6867C13.1733 59.5417 13.3726 58.3764 13.8599 56.5755C13.5387 50.0909 14.6129 44.1974 17.2761 38.0697C15.5375 36.8096 14.6572 34.6351 15.0724 32.4773C15.5209 30.1578 16.5618 28.0614 18.1122 26.2549C17.9018 25.5189 17.8353 24.7327 17.9405 23.9409C18.245 21.5768 20.2715 18.9061 22.9458 17.0884C22.9624 17.0215 22.979 16.9546 22.9956 16.8877C23.8483 13.7207 27.9566 11.3009 31.4116 10.392C33.0838 9.95154 34.7282 9.70621 36.3117 9.65602C36.8931 8.25095 37.851 7.14696 38.8476 6.30503C39.8553 5.45753 41.1177 5.01147 42.3967 5.01147C42.9227 5.01147 43.4542 5.08953 43.9692 5.24008C44.5727 5.4185 45.1319 5.70286 45.6302 6.0597C45.8628 6.1991 46.0898 6.36079 46.3002 6.53364C47.1086 7.19714 47.7231 8.08926 48.0553 9.11518C48.7641 9.48318 49.8991 9.76196 51.1615 9.8679C51.5878 9.90693 52.0363 9.94038 52.4959 9.98499C52.9776 9.44972 53.5534 9.00367 54.2123 8.66913C54.24 8.6524 54.2732 8.64125 54.3009 8.62452C55.0484 8.2621 55.8789 8.07253 56.7094 8.07253C58.8466 8.07253 74.6155 12.4104 81.5421 15.8841C84.4545 17.3449 87.2063 18.9395 89.72 20.629C92.6213 22.547 95.3288 24.6769 97.7318 26.9295C110.356 38.75 113.96 53.1854 116.779 66.2047C118.229 67.3198 119.564 69.0148 121.003 71.1503C122.531 73.4196 123.113 75.9733 122.736 78.75C122.919 79.1905 123.096 79.6532 123.262 80.1495C126.977 88.4294 129.701 96.4639 131.745 105.201C133.5 106.667 134.197 108.697 134.496 109.556C134.801 110.442 135.006 111.173 135.139 111.842C135.726 114.596 134.834 116.503 134.114 117.518C134.38 119.241 134.629 121.003 134.867 122.843C136.75 137.49 134.469 149.74 128.605 156.453C127.077 158.209 125.322 159.57 123.401 160.512C125.067 161.014 126.678 161.599 128.24 162.268C129.325 162.731 130.394 163.311 131.407 163.986C136.312 167.08 139.413 171.936 139.928 177.317C140.471 182.993 137.996 188.703 132.963 193.392C132.282 194.027 131.484 194.63 130.61 195.17C130.587 195.182 130.571 195.198 130.549 195.209C130.316 195.354 130.089 195.488 129.84 195.616C129.773 195.65 129.414 195.845 129.286 195.906C129.076 196.012 128.843 196.129 128.605 196.241C128.506 196.286 128.406 196.33 128.301 196.369C128.051 196.481 127.775 196.592 127.492 196.704C127.492 196.704 127.038 196.882 126.966 196.91C126.822 196.966 126.678 197.01 126.529 197.061L126.379 197.111C126.141 197.194 125.898 197.278 125.648 197.35C125.532 197.384 125.405 197.423 125.278 197.456L125.073 197.518C124.923 197.562 124.768 197.607 124.613 197.646L124.314 197.724C124.209 197.752 123.556 197.914 123.423 197.941C123.273 197.975 123.124 198.008 122.969 198.042L122.182 198.204C122 198.237 121.285 198.371 121.285 198.371C121.285 198.371 120.638 198.482 120.538 198.493L120.056 198.566C120.056 198.566 119.265 198.672 119.076 198.7L118.722 198.744L118.279 198.795L117.349 198.889C117.111 198.912 116.873 198.934 116.629 198.956L115.632 199.034L114.237 199.118C113.96 199.135 113.683 199.146 113.401 199.157L112.548 199.19L111.125 199.224C110.826 199.229 110.522 199.235 110.223 199.235H108.778H108.34C107.792 199.235 107.233 199.224 106.668 199.213C106.668 199.213 106.574 199.213 106.569 199.213C106.148 199.202 105.721 199.196 105.301 199.185C105.284 199.185 104.669 199.168 104.669 199.168C104.298 199.157 103.235 199.112 103.235 199.112C102.864 199.096 101.89 199.051 101.89 199.051C101.342 199.023 100.799 198.995 100.257 198.967H100.218C100.057 198.967 99.8967 198.956 99.7361 198.94C98.7395 198.878 97.7706 198.817 96.8072 198.75C96.8072 198.75 95.4119 198.644 95.4063 198.644C94.9468 198.611 93.9944 198.533 93.9778 198.533C93.0476 198.454 92.1285 198.376 91.2205 198.298C91.1817 198.298 89.1663 198.114 89.1497 198.109C87.9814 198.003 86.8409 197.891 85.739 197.785C85.739 197.785 85.7113 197.785 85.7058 197.785C85.44 197.758 85.1798 197.741 84.9306 197.724L84.2385 197.691C84.1001 197.691 83.9728 197.685 83.8454 197.679H83.6073C83.4745 197.679 83.3416 197.679 83.2087 197.679H83.0647C82.9263 197.691 82.799 197.696 82.6716 197.702C82.6605 197.702 82.6162 197.702 82.6052 197.702C82.1678 197.735 81.7636 197.785 81.376 197.863C81.0327 197.93 80.706 198.014 80.3628 198.114C80.3351 198.126 80.3074 198.131 80.2908 198.137C80.1524 198.181 80.0029 198.231 79.8478 198.287L79.3495 198.477C79.2388 198.521 78.8567 198.677 78.8567 198.677C78.6962 198.744 78.5356 198.817 78.3695 198.889C78.2975 198.923 78.2311 198.956 78.1591 198.99C77.5611 199.257 76.941 199.558 76.2766 199.887C69.1285 203.367 60.2198 204.454 55.5522 204.794C55.5522 204.794 54.8047 204.844 54.7826 204.844C54.4338 204.867 54.096 204.883 53.7638 204.9L53.0108 204.933L52.0474 204.961L51.3276 204.978C51.0785 204.978 50.5414 204.978 50.5414 204.978C50.5192 204.978 49.7385 204.972 49.7164 204.972L49.7275 204.989Z" fill="white"/>
<path d="M111.74 70.6091C107.842 52.5105 104.404 33.4918 79.0838 20.8127C71.9911 17.2554 56.859 13.5141 56.7095 13.5866C55.8845 14.0047 58.1048 16.012 58.1048 16.012C58.1048 16.012 53.7694 15.6273 50.7076 15.3652C47.8561 15.1255 43.4986 14.1107 42.4023 10.5255C39.8886 12.6387 42.286 15.3931 43.0335 16.9041C40.0547 14.947 36.4502 14.7742 32.8125 15.7276C29.7396 16.5361 28.2779 18.2367 28.3443 18.3036C28.7983 18.7608 34.5511 18.2924 34.5511 19.5804C32.6021 19.4355 30.3265 19.7421 27.6134 20.8127C24.6955 21.9668 23.2781 24.5428 23.4442 24.6655C23.9647 25.0558 25.6755 24.2361 27.2259 24.2417C29.2191 24.2417 31.0629 25.0167 31.0075 25.1896C30.9355 25.407 30.5923 25.3903 30.3708 25.4461C24.6845 26.84 21.2184 29.8286 20.5097 33.4918C23.9038 30.1854 26.4507 28.8695 30.8802 28.3789C27.9678 30.3304 25.9192 33.2911 24.2969 36.2852C18.3891 47.1411 17.7413 56.7982 22.4808 71.4399C22.9791 72.9844 23.04 76.2908 22.5805 78.6939C23.9757 78.5712 24.2415 76.1235 24.8395 77.3111C25.443 78.4987 25.1108 81.0803 24.5073 83.5336C26.3067 83.8514 26.5614 80.4112 27.093 81.6267C27.6245 82.8366 26.9047 85.513 26.5559 86.4162C27.8294 86.5947 28.2612 84.7212 28.3775 85.7639C28.4274 86.2044 28.455 86.6393 28.455 87.0686C19.3303 94.7853 17.326 103.099 7.6144 117.813C-2.1415 132.594 -0.303268 140.333 4.96226 144.264C7.39293 146.076 10.1281 147.219 12.9685 147.899C0.64353 147.905 -4.55556 158.928 -1.2556 167.241C-0.447227 169.277 1.34671 171.618 3.40641 172.689C-6.62079 177.64 -16.2826 187.403 -15.3635 187.403C2.39871 187.403 16.3515 192.215 25.2105 187.754C27.2646 186.723 28.5602 184.437 28.9534 181.933C30.8193 181.972 37.4967 183.093 44.4233 184.56C50.3587 185.814 53.9909 185.535 58.6252 185.095C52.5569 191.273 46.2947 198.633 46.4553 198.8C47.0699 199.413 63.1211 199.614 73.4916 194.568C77.7328 192.505 80.1967 191.384 85.8664 191.925C100.511 193.324 122.039 195.298 128.816 188.975C138.217 180.21 133.605 170.553 126.075 167.331C122.16 165.652 118.179 164.699 114.42 164.214C120.106 131.869 112.643 74.7798 111.74 70.6036V70.6091Z" fill="#CAA77A"/>
<path d="M24.3578 106.578C22.4144 118.069 24.8782 120.138 24.762 122.212C24.5626 125.836 22.287 128.524 20.1553 131.395C18.9372 133.035 17.7634 134.73 17.0436 136.687C16.0415 139.424 15.4324 144.041 16.7945 146.896C16.728 146.896 12.4481 149.516 11.0085 150.007C8.7716 148.156 7.21575 147.052 5.3443 144.521C1.42976 139.229 -1.75945 132.851 7.99644 118.069C17.7523 103.294 19.3857 95.2928 28.6045 87.5481C28.6544 87.6485 28.7762 87.5704 28.9091 87.4478C28.8925 88.1391 28.8039 88.8863 28.6433 89.7059C27.5359 95.2816 25.299 100.986 24.3578 106.578Z" fill="#CAA77A"/>
<path d="M16.5785 148.73C23.7266 149.834 29.3797 152.672 32.6409 156.592L32.652 156.603C37.8732 162.524 41.3116 169.589 53.2766 170.637C65.0756 171.674 70.9502 171.055 78.1592 168.49C85.2629 165.97 94.9413 162.084 114.486 164.587C116.042 157.785 117.31 148.005 118.633 132.867C119.84 119.056 121.911 87.3362 116.939 79.4801C116.264 81.5933 116.197 81.5933 116.873 79.4801C116.873 79.4801 116.875 79.4764 116.878 79.4689C117.709 76.8762 117.144 75.315 116.402 74.211C114.652 71.6128 112.493 69.0034 112.111 70.8378C112.111 70.8433 112.105 70.8545 112.105 70.8601C107.477 95.3262 81.0439 101.638 61.3161 101.627C44.1243 101.621 34.9774 97.4505 28.2834 91.2727H28.2779C28.4052 90.743 28.5159 90.2189 28.6211 89.7003C28.754 88.9587 28.8205 88.2283 28.8205 87.4979C28.7153 87.5871 28.6211 87.6262 28.5824 87.5425C28.444 87.6596 28.3055 87.7767 28.1671 87.8938C28.1007 87.9495 28.0398 88.0053 27.9789 88.0611C21.4565 93.8932 18.6825 100.16 13.3727 109.338C13.3616 109.332 13.3561 109.327 13.345 109.321C12.7083 108.975 11.3961 110.336 10.8701 111.094C10.4437 111.708 9.61873 113.18 10.4603 114.088C12.9076 116.737 19.0922 121.259 23.267 126.89C23.2781 126.873 23.2892 126.851 23.3002 126.834C23.3169 126.807 23.3335 126.779 23.3501 126.745C23.3778 126.701 23.3999 126.656 23.4221 126.606C23.494 126.483 23.5605 126.36 23.6158 126.232C23.6657 126.137 23.71 126.043 23.7543 125.948C23.8041 125.853 23.8484 125.753 23.8871 125.658C23.937 125.558 23.9757 125.463 24.0145 125.362C24.0533 125.262 24.092 125.167 24.1252 125.067C24.1529 124.994 24.1806 124.928 24.2027 124.855C24.2526 124.727 24.2969 124.593 24.3356 124.459C24.3799 124.314 24.4242 124.169 24.4574 124.019C24.474 123.957 24.4907 123.902 24.5017 123.84C24.5405 123.684 24.5737 123.522 24.6014 123.361C24.6346 123.205 24.6568 123.043 24.6789 122.876C24.6844 122.837 24.69 122.792 24.6955 122.747C24.7121 122.569 24.7287 122.391 24.7398 122.207C24.762 121.783 24.6789 121.365 24.5516 120.863C24.546 120.852 24.546 120.846 24.5405 120.835C24.5017 120.684 24.4574 120.528 24.4131 120.361C24.3688 120.199 24.319 120.026 24.2692 119.848C24.2636 119.815 24.2526 119.781 24.2415 119.742C24.1972 119.564 24.1474 119.369 24.0975 119.162C24.0699 119.062 24.0477 118.95 24.0256 118.844C24.0256 118.833 24.0256 118.822 24.02 118.811C23.9923 118.688 23.9702 118.566 23.9425 118.432C23.8705 118.042 23.7986 117.618 23.7432 117.138C23.7044 116.82 23.6712 116.486 23.6491 116.124C23.6269 115.845 23.6158 115.549 23.6048 115.243C23.6048 115.098 23.5937 114.953 23.5937 114.802C23.5826 114.412 23.5882 113.994 23.5992 113.553C23.5992 113.319 23.6103 113.074 23.6214 112.823C23.6324 112.655 23.638 112.483 23.6491 112.31C23.6657 112.02 23.6878 111.719 23.7155 111.406C23.7598 110.866 23.8262 110.866 23.7819 111.406C23.7543 111.719 23.7377 112.02 23.7155 112.31C23.7044 112.483 23.6989 112.655 23.6878 112.823C23.6767 113.074 23.6712 113.313 23.6657 113.553C23.6546 113.994 23.6491 114.412 23.6601 114.802C23.6601 114.953 23.6657 115.098 23.6712 115.243C23.6823 115.549 23.6934 115.845 23.7155 116.124C23.7432 116.48 23.7709 116.82 23.8096 117.138C23.865 117.618 23.937 118.042 24.009 118.432C24.0366 118.566 24.0588 118.688 24.0865 118.811C24.092 118.822 24.092 118.833 24.092 118.844C24.1197 118.956 24.1418 119.056 24.164 119.162C24.2138 119.369 24.2636 119.564 24.3079 119.742C24.319 119.781 24.3301 119.815 24.3356 119.848C24.3855 120.026 24.4353 120.199 24.4796 120.361C24.5239 120.528 24.5682 120.684 24.6069 120.835C24.6125 120.846 24.6125 120.852 24.618 120.863C24.7454 121.365 24.8284 121.783 24.8063 122.207C24.7952 122.391 24.7786 122.569 24.762 122.747C24.7564 122.792 24.7509 122.837 24.7454 122.876C24.7232 123.043 24.7011 123.205 24.6678 123.361C24.6402 123.522 24.6069 123.684 24.5682 123.84C24.5571 123.902 24.5405 123.957 24.5239 124.019C24.4907 124.169 24.4464 124.314 24.4021 124.459C24.3633 124.593 24.319 124.727 24.2692 124.855C24.247 124.928 24.2249 124.994 24.1917 125.067C24.1585 125.167 24.1197 125.262 24.0809 125.362C24.0422 125.463 24.0034 125.558 23.9536 125.658C23.9148 125.753 23.8705 125.853 23.8207 125.948C23.7819 126.043 23.7376 126.137 23.6823 126.232C23.6269 126.36 23.5605 126.483 23.4885 126.606C23.4663 126.656 23.4442 126.701 23.4165 126.745C23.3999 126.779 23.3833 126.807 23.3667 126.834C23.3556 126.857 23.3501 126.873 23.339 126.89C23.3002 126.974 23.2504 127.057 23.2006 127.135C23.1065 127.303 23.0068 127.464 22.9016 127.632C22.6746 128 22.431 128.362 22.1763 128.719C22.0545 128.897 21.9271 129.076 21.7942 129.254C21.5451 129.606 21.2793 129.951 21.0191 130.302C20.7478 130.665 20.4765 131.027 20.2051 131.39" fill="#FFDB1F"/>
<path d="M23.9425 49.4159C25.2215 44.1803 27.5248 42.1006 32.1758 41.2364C37.6406 40.2216 39.3681 31.8859 44.6503 31.6685C45.6303 31.6295 47.917 31.1332 48.3987 30.2077C49.8936 27.3418 46.4553 26.1263 48.1662 26.4496C49.877 26.7786 60.8289 30.6091 64.5607 31.0217C75.3077 32.2149 85.3404 34.2835 91.7189 45.92C93.1529 48.535 96.6079 57.1661 95.1074 63.8458C92.9259 73.5754 91.7909 77.6568 81.3041 84.9498C68.8462 93.6088 35.6972 91.0273 28.0564 76.8706C28.2612 65.8419 21.5617 59.1901 23.9481 49.4159H23.9425Z" fill="#FFDBAF"/>
<path d="M53.8248 62.9202C49.4784 60.7346 44.5451 69.3936 44.3402 75.499C43.9194 88.022 60.8289 91.0775 70.3135 84.8215C80.1968 78.3036 68.2704 59.1288 60.7182 62.1731" fill="#9D7B51"/>
<path d="M23.876 47.0184C19.7566 55.9897 25.0443 74.0327 28.5823 77.5621C32.746 76.2295 36.0903 74.4787 38.7535 72.4324C55.8678 59.3128 45.071 34.278 43.9027 33.1015C43.1442 32.3376 29.053 41.0469 27.4971 41.3647C25.299 41.8052 24.7232 45.1785 23.876 47.0129V47.0184Z" fill="#9D7B51"/>
<path d="M66.244 32.6276C58.4536 70.4977 89.1498 78.4374 92.184 74.0103C94.1274 71.1723 97.9645 57.8687 92.8761 48.903C92.3778 48.0276 85.4568 38.0416 84.5377 38.1977C77.0131 39.4634 67.7998 25.0614 66.244 32.6276Z" fill="#9D7B51"/>
<path d="M35.7138 89.4159L35.6917 93.0457" stroke="#9D7B51" stroke-width="3.87" stroke-linecap="round" stroke-linejoin="round"/>
<path d="M39.2519 91.2727L39.2297 94.9025" stroke="#9D7B51" stroke-width="3.87" stroke-linecap="round" stroke-linejoin="round"/>
<path d="M127.974 114.568C127.088 114.562 125.615 114.574 123.755 114.635C112.953 114.986 106.519 118.543 101.536 122.123C100.528 121.515 99.5313 120.896 98.5513 120.266C91.9458 116.068 85.7999 111.451 79.4049 106.361C82.9263 105.747 86.1211 104.961 89.0168 104.047C95.6887 101.766 99.6863 99.8704 106.137 95.0363C114.398 88.1336 116.419 80.7569 116.834 79.4634C121.623 89.5498 124.746 99.0117 126.894 109.031C127.813 109.137 128.494 109.076 129.27 111.328C130.227 114.105 129.857 114.54 127.974 114.574V114.568Z" fill="#FFDB1F"/>
<path opacity="0.23" d="M18.7877 129.46C20.0114 127.347 24.2747 122.82 22.3534 116.826C22.9237 117.534 23.948 118.878 24.1751 119.491C24.4021 120.104 24.8838 121.482 24.7066 122.602C24.5294 123.723 23.9757 125.964 23.0732 127.342C22.1707 128.719 21.0246 130.308 20.1996 131.39C19.7345 130.905 19.3026 130.263 18.7877 129.455V129.46Z" fill="#3F2719"/>
<path opacity="0.23" d="M112.133 70.8433C112.133 70.8433 112.122 70.8656 112.122 70.8767C110.655 78.6325 107.001 84.5651 102.056 89.0479C105.533 61.8608 95.4064 41.833 83.624 32.7C75.7562 26.6002 67.5395 24.0744 60.0759 23.5558C59.262 23.5001 56.2721 23.1265 56.643 22.1285C55.292 22.1117 54.9931 23.4834 53.7085 23.5837C52.424 23.6841 51.0785 21.1694 48.3323 21.9723C49.5614 22.4351 48.5703 23.9406 47.1031 24.5985C45.9016 25.1393 43.6924 24.8271 43.6702 23.6172C42.7511 24.5818 43.5595 25.5464 42.8895 25.7638C42.0424 26.037 39.2408 23.6674 37.5908 25.5408C39.6893 25.6579 39.0857 27.1856 38.4435 27.4756C33.1724 29.8341 29.0032 32.962 24.7066 36.5305C26.3289 33.5419 28.372 30.5924 31.2788 28.6465C26.8493 29.1371 24.3024 30.453 20.9083 33.7594C21.617 30.0961 25.0831 27.1076 30.7694 25.7136C30.9909 25.6579 31.3342 25.6746 31.4062 25.4572C31.4615 25.2843 29.6178 24.5149 27.6245 24.5093C26.0742 24.5037 24.3633 25.3233 23.8428 24.933C23.6767 24.8104 25.0942 22.2344 28.0121 21.0802C30.7251 20.0097 33.0008 19.703 34.9497 19.848C34.9497 18.56 29.197 19.0284 28.7429 18.5712C28.6765 18.5043 30.1382 16.8037 33.2112 15.9952C36.8489 15.0418 40.4533 15.2146 43.4322 17.1717C42.6847 15.6607 40.2872 12.9063 42.801 10.7931C43.8973 14.3783 48.2547 15.393 51.1062 15.6328C54.1681 15.8948 58.5034 16.2796 58.5034 16.2796C58.5034 16.2796 56.2831 14.2723 57.1081 13.8541C57.2576 13.7817 72.3898 17.5229 79.4825 21.0802C104.786 33.7538 108.235 52.7557 112.133 70.8433Z" fill="#3F2719"/>
<path opacity="0.23" d="M116.884 79.4744C116.884 79.4744 116.878 79.48 116.878 79.4856C116.513 80.6342 114.802 86.9403 108.152 93.3077C108.922 89.4382 107.837 87.0852 104.503 86.5555C108.196 82.4295 110.898 77.272 112.111 70.8656C112.111 70.86 112.117 70.8488 112.117 70.8432C112.499 69.0088 114.658 71.6183 116.408 74.2165C117.15 75.3205 117.714 76.8817 116.884 79.4744Z" fill="#3F2719"/>
<path d="M33.2056 95.0808C32.4028 95.8893 32.0484 96.787 31.838 97.785" stroke="#2D1F04" stroke-width="2.62" stroke-linecap="round" stroke-linejoin="round"/>
<path d="M39.2518 98.2534C38.8421 99.1121 38.5597 100.255 38.4656 101.248" stroke="#2D1F04" stroke-width="2.62" stroke-linecap="round" stroke-linejoin="round"/>
<path d="M48.969 100.74C48.5703 101.939 48.5703 102.937 48.5703 103.79" stroke="#2D1F04" stroke-width="2.62" stroke-linecap="round" stroke-linejoin="round"/>
<path d="M52.9444 101.248C52.7728 102.078 52.5956 103.539 52.7008 104.822" stroke="#2D1F04" stroke-width="2.62" stroke-linecap="round" stroke-linejoin="round"/>
<path d="M56.9032 101.526C56.7316 102.257 56.6264 103.785 56.6984 104.816" stroke="#2D1F04" stroke-width="2.62" stroke-linecap="round" stroke-linejoin="round"/>
<path d="M76.9742 100.261C77.3175 101.013 77.5999 102.117 77.6442 103.037" stroke="#2D1F04" stroke-width="2.62" stroke-linecap="round" stroke-linejoin="round"/>
<path d="M81.3041 99.3351C81.6031 99.9707 81.9353 101.108 81.9796 101.961" stroke="#2D1F04" stroke-width="2.62" stroke-linecap="round" stroke-linejoin="round"/>
<path d="M103.468 87.6819C104.354 88.3342 105.035 88.942 105.539 89.5999" stroke="#2D1F04" stroke-width="2.62" stroke-linecap="round" stroke-linejoin="round"/>
<path d="M105.539 85.3624C106.253 85.775 107.15 86.3716 107.936 87.102" stroke="#2D1F04" stroke-width="2.62" stroke-linecap="round" stroke-linejoin="round"/>
<path d="M107.061 83.2548C107.947 83.6451 108.579 84.0019 109.11 84.4312" stroke="#2D1F04" stroke-width="2.62" stroke-linecap="round" stroke-linejoin="round"/>
<path d="M21.2073 115.521C22.2703 116.67 23.2614 117.902 24.0975 119.168" stroke="#2D1F04" stroke-width="2.62" stroke-linecap="round" stroke-linejoin="round"/>
<path d="M23.267 126.896C23.267 126.896 23.2892 126.857 23.3002 126.84C23.3169 126.812 23.3335 126.784 23.3501 126.751C23.3778 126.706 23.3999 126.662 23.4221 126.611C23.494 126.489 23.5605 126.366 23.6158 126.238C23.6657 126.143 23.71 126.048 23.7543 125.953C23.8041 125.859 23.8484 125.758 23.8871 125.664C23.937 125.563 23.9757 125.468 24.0145 125.368C24.0532 125.268 24.092 125.173 24.1252 125.072C24.1529 125 24.1806 124.933 24.2027 124.861C24.2526 124.732 24.2969 124.599 24.3356 124.465C24.3799 124.32 24.4242 124.175 24.4574 124.024C24.474 123.963 24.4907 123.907 24.5017 123.846C24.5405 123.69 24.5737 123.528 24.6014 123.366C24.6346 123.21 24.6568 123.049 24.6789 122.881C24.6844 122.842 24.69 122.798 24.6955 122.753C24.7121 122.575 24.7287 122.396 24.7398 122.212C24.762 121.788 24.6789 121.37 24.5516 120.868C24.546 120.857 24.546 120.852 24.5405 120.841C24.5017 120.69 24.4574 120.534 24.4131 120.367C24.3688 120.205 24.319 120.032 24.2692 119.854C24.2636 119.82 24.2526 119.787 24.2415 119.748C24.1972 119.569 24.1474 119.374 24.0975 119.168C24.0699 119.067 24.0477 118.956 24.0256 118.85C24.0256 118.839 24.0256 118.828 24.02 118.817C23.9923 118.694 23.9702 118.571 23.9425 118.437C23.8705 118.047 23.7986 117.623 23.7432 117.144C23.7044 116.826 23.6712 116.492 23.6491 116.129C23.6269 115.85 23.6158 115.555 23.6048 115.248C23.6048 115.103 23.5937 114.958 23.5937 114.808C23.5826 114.417 23.5882 113.999 23.5992 113.559C23.5992 113.325 23.6103 113.079 23.6214 112.828C23.6324 112.661 23.638 112.488 23.6491 112.315C23.6657 112.025 23.6878 111.724 23.7155 111.412C23.7598 110.871 25.8915 99.954 26.8493 96.6365C26.866 96.6532 23.8262 110.871 23.7819 111.412C23.7543 111.724 23.7376 112.025 23.7155 112.315C23.7044 112.488 23.6989 112.661 23.6878 112.828C23.6767 113.079 23.6712 113.319 23.6657 113.559C23.6546 113.999 23.6491 114.417 23.6601 114.808C23.6601 114.958 23.6657 115.103 23.6712 115.248C23.6823 115.555 23.6934 115.85 23.7155 116.129C23.7432 116.486 23.7709 116.826 23.8096 117.144C23.865 117.623 23.937 118.047 24.009 118.437C24.0366 118.571 24.0588 118.694 24.0865 118.817C24.092 118.828 24.092 118.839 24.092 118.85C24.1197 118.962 24.1418 119.062 24.164 119.168C24.2138 119.374 24.2636 119.569 24.3079 119.748C24.319 119.787 24.3301 119.82 24.3356 119.854C24.3855 120.032 24.4353 120.205 24.4796 120.367C24.5239 120.534 24.5682 120.69 24.6069 120.841C24.6125 120.852 24.6125 120.857 24.618 120.868C24.7454 121.37 24.8284 121.788 24.8063 122.212C24.7952 122.396 24.7786 122.575 24.762 122.753C24.7564 122.798 24.7509 122.842 24.7454 122.881C24.7232 123.049 24.7011 123.21 24.6678 123.366C24.6402 123.528 24.6069 123.69 24.5682 123.846C24.5571 123.907 24.5405 123.963 24.5239 124.024C24.4907 124.175 24.4464 124.32 24.4021 124.465C24.3633 124.599 24.319 124.732 24.2692 124.861C24.247 124.933 24.2249 125 24.1917 125.072C24.1584 125.173 24.1197 125.268 24.0809 125.368C24.0422 125.468 24.0034 125.563 23.9536 125.664C23.9148 125.758 23.8705 125.859 23.8207 125.953C23.7819 126.048 23.7376 126.143 23.6823 126.238C23.6269 126.366 23.5605 126.489 23.4885 126.611C23.4663 126.662 23.4442 126.706 23.4165 126.751C23.3999 126.784 23.3833 126.812 23.3667 126.84C23.3556 126.862 23.3501 126.879 23.339 126.896C23.3002 126.979 23.2504 127.063 23.2006 127.141C23.1065 127.308 23.0068 127.47 22.9016 127.637C22.6746 128.005 22.431 128.368 22.1763 128.725C22.0545 128.903 21.9271 129.081 21.7942 129.26C21.5451 129.611 21.2793 129.957 21.0191 130.308C20.7478 130.67 20.4765 131.033 20.2051 131.395M13.3727 109.343C13.3727 109.343 13.3561 109.332 13.345 109.327C12.7083 108.981 11.3961 110.342 10.8701 111.1C10.4437 111.713 9.61873 113.185 10.4603 114.094" stroke="#2D1F04" stroke-width="2.62" stroke-linecap="round" stroke-linejoin="round"/>
<path d="M89.0778 104.086C81.8357 106.366 72.7331 107.844 61.294 107.844C43.1498 107.844 26.0798 94.6906 26.2016 93.8542C26.4895 91.8358 27.6522 90.6147 28.3111 91.2671C35.0051 97.4449 44.1575 101.616 61.3439 101.621C81.0716 101.632 107.504 95.3206 112.133 70.8545C112.51 68.9755 114.675 71.5961 116.43 74.2055C117.172 75.3095 117.736 76.8762 116.9 79.4801C116.502 80.729 114.492 88.1391 106.198 95.0641" stroke="#2D1F04" stroke-width="2.62" stroke-linecap="round" stroke-linejoin="round"/>
<path d="M28.3055 91.2838C28.4273 90.7597 28.5436 90.23 28.6433 89.7059C28.8592 88.4625 28.898 87.2526 28.7596 86.0204C28.6433 84.9777 28.2114 86.8511 26.9379 86.6727C27.2868 85.7695 28.0065 83.0931 27.475 81.8832C26.9435 80.6733 26.6888 84.1135 24.8893 83.7901C25.4928 81.3368 25.825 78.7552 25.227 77.5676C24.6291 76.38 24.3633 78.8222 22.968 78.9504C23.4276 76.5473 23.3667 73.2409 22.8684 71.6964C18.1288 57.0547 18.7766 47.3976 24.6844 36.5417C26.3123 33.5531 28.3609 30.5924 31.2677 28.6354" stroke="#2D1F04" stroke-width="2.62" stroke-linecap="round" stroke-linejoin="round"/>
<g style="mix-blend-mode:multiply">
<path d="M43.4211 17.155C42.6736 15.6496 40.2761 12.8896 42.7899 10.782C43.8862 14.3672 48.2436 15.3819 51.0951 15.6217C54.157 15.8837 58.4923 16.2629 58.4923 16.2629C58.4923 16.2629 56.2721 14.2556 57.097 13.8375C57.241 13.765 72.3787 17.5063 79.4714 21.0636C104.786 33.7482 108.224 52.7669 112.128 70.86" stroke="#2D1F04" stroke-width="2.62" stroke-linecap="round" stroke-linejoin="round"/>
</g>
<path d="M13.3616 109.338C18.8154 99.8313 21.3844 93.6089 28.6045 87.5481" stroke="#2D1F04" stroke-width="2.62" stroke-linecap="round" stroke-linejoin="round"/>
<path d="M31.2622 28.6353C26.8327 29.1259 24.2858 30.4418 20.8972 33.7538C21.6059 30.0905 25.0665 27.0964 30.7583 25.7025C30.9798 25.6467 31.3175 25.6634 31.3895 25.446C31.4449 25.2731 29.6011 24.5037 27.6134 24.4981C26.0631 24.4981 24.3467 25.3122 23.8317 24.9219C23.6656 24.7936 25.0831 22.2232 28.001 21.0691C30.714 19.9985 32.9841 19.6919 34.9386 19.8368C34.9386 18.5489 29.1859 19.0172 28.7318 18.56C28.6654 18.4931 30.1271 16.7925 33.1945 15.984C36.8322 15.0306 40.4422 15.1979 43.421 17.1549" stroke="#2D1F04" stroke-width="2.62" stroke-linecap="round" stroke-linejoin="round"/>
<path d="M50.1871 71.819C49.2237 78.6994 52.4793 80.2829 55.962 80.5561C59.4502 80.8349 63.2374 77.7237 63.5253 73.7872C63.3758 73.1572 63.2097 71.9584 63.2983 71.1555C62.4401 72.3431 60.7403 73.3746 58.0328 72.3153C55.6575 72.9342 52.4517 72.7892 50.1816 71.8246L50.1871 71.819Z" fill="#251707"/>
<path d="M50.3199 76.9431C51.981 75.6606 54.8768 75.8781 55.9398 76.9431C57.4237 75.984 60.5686 75.6997 62.1245 77.2999C60.1478 80.1491 58.6972 80.8572 55.9066 80.7513C53.116 80.6453 51.2778 79.1845 50.3199 76.9431Z" fill="#FF8A8A"/>
<path d="M65.9505 65.1674C63.9074 67.2415 60.3528 73.4528 67.7389 81.0302" stroke="#2D1F04" stroke-width="2.62" stroke-linecap="round" stroke-linejoin="round"/>
<path d="M50.1872 71.8191C49.1906 78.4374 52.5238 80.3611 56.2002 80.5506C59.8767 80.7402 62.8389 77.5063 63.5254 73.949" stroke="#2D1F04" stroke-width="2.62" stroke-linecap="round" stroke-linejoin="round"/>
<path d="M50.5138 76.8038C52.197 75.6776 54.9211 75.9117 55.9399 76.9432C57.3296 76.04 60.1811 75.7333 61.8145 77.0213" stroke="#2D1F04" stroke-width="2.62" stroke-linecap="round" stroke-linejoin="round"/>
<path d="M58.0329 72.3098C54.4782 72.9788 52.0033 72.438 50.1816 71.8191" stroke="#2D1F04" stroke-width="2.62" stroke-linecap="round" stroke-linejoin="round"/>
<path d="M58.2156 65.8977C57.7117 67.7377 57.6065 70.2913 58.0716 72.4659C59.8213 72.9231 61.809 73.0959 63.2873 71.4455" stroke="#2D1F04" stroke-width="2.62" stroke-linecap="round" stroke-linejoin="round"/>
<path d="M79.3386 50.191C83.0317 50.191 86.0271 53.1852 86.0271 56.8874V57.3223C86.0271 61.019 83.0317 64.0132 79.3386 64.0132C75.6456 64.0132 72.6501 61.019 72.6501 57.3223V56.8874C72.6501 53.1908 75.6456 50.191 79.3386 50.191Z" fill="white"/>
<path d="M76.8969 57.1049C76.8969 55.9228 77.8104 54.9583 78.9399 54.9583C80.0695 54.9583 80.983 55.9173 80.983 57.1049C80.983 58.2925 80.0695 59.2515 78.9399 59.2515C77.8104 59.2515 76.8969 58.2925 76.8969 57.1049Z" fill="#2D1F04"/>
<path d="M79.3386 50.191C83.0317 50.191 86.0271 53.1852 86.0271 56.8874V57.3223C86.0271 61.019 83.0317 64.0187 79.3386 64.0187C75.6456 64.0187 72.6501 61.0246 72.6501 57.3223V56.8874C72.6501 53.1908 75.6456 50.191 79.3386 50.191Z" stroke="#2D1F04" stroke-width="2.6" stroke-linecap="round" stroke-linejoin="round"/>
<path d="M36.705 49.0201C33.0119 49.0201 30.0165 52.0143 30.0165 55.7165V56.1514C30.0165 59.8481 33.0119 62.8423 36.705 62.8423C40.398 62.8423 43.3935 59.8481 43.3935 56.1514V55.7165C43.3935 52.0199 40.398 49.0201 36.705 49.0201Z" fill="white"/>
<path d="M38.8533 56.4024C38.8533 55.2203 37.9397 54.2557 36.8102 54.2557C35.6807 54.2557 34.7671 55.2148 34.7671 56.4024C34.7671 57.5844 35.6807 58.549 36.8102 58.549C37.9397 58.549 38.8533 57.59 38.8533 56.4024Z" fill="#2D1F04"/>
<path d="M36.705 49.0201C33.0119 49.0201 30.0165 52.0143 30.0165 55.7165V56.1514C30.0165 59.8481 33.0119 62.8479 36.705 62.8479C40.398 62.8479 43.3935 59.8537 43.3935 56.1514V55.7165C43.3935 52.0199 40.398 49.0201 36.705 49.0201Z" stroke="#2D1F04" stroke-width="2.6" stroke-linecap="round" stroke-linejoin="round"/>
<path d="M50.7574 63.2827C50.6744 61.6378 53.8857 60.1436 57.9221 59.9428C61.9584 59.7421 65.2971 60.9186 65.3802 62.5634C65.4633 64.2082 62.2519 65.7025 58.2155 65.9033C54.1792 66.104 50.8405 64.9275 50.7574 63.2827Z" fill="#251707"/>
<path d="M45.1375 32.6888C22.8185 35.092 18.6161 60.5561 18.6161 60.5561" stroke="#2D1F04" stroke-width="7.6" stroke-linecap="round" stroke-linejoin="round"/>
<path d="M63.5254 30.8378C84.9861 31.0552 95.5504 52.806 95.5504 52.806" stroke="#2D1F04" stroke-width="7.6" stroke-linecap="round" stroke-linejoin="round"/>
<path d="M55.3142 80.9521C54.9155 80.7514 54.456 80.6454 53.9798 80.6566C52.4239 80.7012 51.2003 82.0115 51.2446 83.5782C51.2612 84.0968 51.4107 84.5763 51.6654 84.9889C50.6079 85.7918 49.9324 87.0798 49.9767 88.5127C50.0431 90.8657 51.9921 92.7112 54.3231 92.6443C55.519 92.6109 56.5821 92.0756 57.3296 91.2448C57.8334 91.6463 58.4757 91.8804 59.1678 91.8637C60.7236 91.8191 61.9473 90.5088 61.903 88.9421C61.8698 87.8158 61.1888 86.8623 60.2309 86.433C60.6185 85.9312 60.8455 85.2956 60.8233 84.6042C60.7956 83.5671 60.2143 82.6806 59.3782 82.2066C59.4003 82.0784 59.4114 81.939 59.4059 81.8052C59.3727 80.612 58.3816 79.6697 57.1967 79.7031C56.3606 79.7254 55.6519 80.2328 55.3142 80.9409V80.9521Z" fill="#E8E0AF"/>
<g style="mix-blend-mode:soft-light" opacity="0.6">
<path d="M59.7823 86.2379C59.201 86.946 59.5609 87.0575 60.026 87.4534C60.336 87.7154 60.8343 88.2618 60.9672 88.6856C61.2773 89.7004 59.8765 90.8044 58.9186 90.52C58.4203 90.375 58.3151 89.745 57.7669 89.7673C57.1745 89.7896 56.942 90.5423 56.6208 90.888C55.7792 91.7857 54.6109 91.5738 53.8469 90.7542C53.498 90.3806 53.3485 89.9122 53.0551 89.5387C52.6564 89.0313 52.3907 89.2933 51.7705 89.009C51.2667 88.7804 50.6964 88.1113 50.8625 87.4868C51.0729 86.6672 52.0585 86.7006 52.6731 86.4219C53.1935 86.1877 54.168 85.5744 53.9022 84.8384C53.6918 84.2529 52.8225 84.2027 53.0053 83.2995C53.1492 82.5969 54.0351 82.5245 54.6165 82.3181C55.3141 82.0672 55.7515 81.9167 56.2831 81.5041C57.0195 80.9242 57.5012 80.7904 58.1877 81.4316C59.0459 82.2345 58.6307 82.53 58.1434 83.489C57.7725 84.2195 57.5953 84.9164 58.2043 85.5799C58.7359 86.1598 59.2121 85.7249 59.7879 86.0873V86.2267L59.7823 86.2379Z" fill="white"/>
</g>
<path d="M56.953 90.8601C58.0493 92.2484 59.954 92.3321 61.2551 90.9493C62.822 89.126 61.6095 86.1821 59.0847 86.4664" stroke="#DEB88E" stroke-width="2.62" stroke-linecap="round" stroke-linejoin="round"/>
<path d="M56.4935 92.0811C54.0352 92.3655 51.7263 93.0736 50.4473 90.1296C49.4617 87.8157 50.6964 84.0856 53.6753 84.7101" stroke="#DEB88E" stroke-width="2.62" stroke-linecap="round" stroke-linejoin="round"/>
<path d="M51.5104 83.0709C52.1471 80.7793 55.5744 79.6865 56.4935 82.3572" stroke="#DEB88E" stroke-width="2.62" stroke-linecap="round" stroke-linejoin="round"/>
<path d="M56.0837 80.1659C56.499 79.9429 57.695 79.7644 58.1933 79.9652C59.1899 80.361 59.6771 82.4798 58.7027 83.0764" stroke="#DEB88E" stroke-width="2.62" stroke-linecap="round" stroke-linejoin="round"/>
<path d="M59.5277 82.413C60.8012 82.5858 61.3881 85.8364 60.1312 86.1598" stroke="#DEB88E" stroke-width="2.62" stroke-linecap="round" stroke-linejoin="round"/>
<path d="M55.3529 85.5465C55.4471 86.394 56.1447 88.5741 54.6664 88.6187" stroke="#DEB88E" stroke-width="2.62" stroke-linecap="round" stroke-linejoin="round"/>
<path d="M55.5634 87.8883C55.8845 86.8122 57.4348 86.84 58.0937 87.5314" stroke="#DEB88E" stroke-width="2.62" stroke-linecap="round" stroke-linejoin="round"/>
<path d="M72.9989 101.192C70.3855 102.714 67.6946 104.944 66.0944 108.451C63.2153 106.388 60.1146 103.595 56.4603 98.8389C52.5624 93.7594 55.5025 86.327 56.0395 85.9311C57.468 84.8718 58.52 88.022 61.4767 90.8378C65.358 94.5233 71.5427 97.9356 72.9989 101.192Z" fill="#B6B1AE"/>
<path d="M115.516 156.363C104.293 155.51 91.4199 148.658 82.8212 133.793C75.1029 120.461 69.6325 114.59 66.0059 108.39C66.1166 108.15 66.2329 107.911 66.3491 107.682C67.977 104.582 70.4796 102.552 72.9103 101.13C75.1084 102.92 77.2512 104.654 79.3718 106.338C85.7668 111.429 91.9127 116.045 98.5181 120.244C99.4982 120.874 100.495 121.493 101.502 122.101C106.486 118.521 112.919 114.964 123.722 114.613C125.582 114.551 127.055 114.54 127.941 114.546C128.456 117.439 128.899 120.395 129.286 123.433C131.689 142.145 126.739 157.216 115.516 156.363Z" fill="#CAA77A"/>
<path d="M72.9989 101.192C86.3537 112.059 97.7375 120.952 112.931 128.317" stroke="#2D1F04" stroke-width="2.62" stroke-linecap="round" stroke-linejoin="round"/>
<path d="M72.9989 101.192C70.3855 102.714 67.6946 104.944 66.0944 108.451C63.2153 106.388 60.1146 103.595 56.4603 98.8389C52.5624 93.7594 55.5025 86.327 56.0395 85.9311C57.468 84.8718 58.52 88.022 61.4767 90.8378C65.358 94.5233 71.5427 97.9356 72.9989 101.192Z" stroke="#2D1F04" stroke-width="2.62" stroke-linecap="round" stroke-linejoin="round"/>
<path d="M56.3717 85.7583C56.9254 91.4622 58.1546 95.0363 69.6269 103.64" stroke="#2D1F04" stroke-width="2.62" stroke-linecap="round" stroke-linejoin="round"/>
<path d="M66.1 108.451C69.6325 114.127 75.6898 120.835 82.5499 133.397C89.9416 146.935 104.387 155.566 115.61 156.419C126.833 157.272 131.783 142.201 129.38 123.489C128.987 120.445 128.544 117.49 128.035 114.596" stroke="#2D1F04" stroke-width="2.62" stroke-linecap="round" stroke-linejoin="round"/>
<path opacity="0.23" d="M127.974 114.568C127.088 114.562 125.615 114.574 123.755 114.635C122.598 114.674 121.496 114.746 120.438 114.858V114.83C121.43 114.702 121.391 113.994 121.075 112.142C120.754 110.291 119.835 109.472 118.633 109.5C117.432 103.762 114.326 94.6683 111.281 89.929C111.408 89.7784 111.519 89.5944 111.618 89.3881C115.383 84.5484 116.535 80.4001 116.834 79.4634C121.623 89.5498 124.746 99.0117 126.894 109.031C127.813 109.137 128.495 109.076 129.27 111.323C130.228 114.1 129.857 114.534 127.974 114.568Z" fill="#3F2719"/>
<path opacity="0.23" d="M115.516 156.363C104.293 155.51 91.4198 148.658 82.8211 133.793C75.1027 120.461 69.6268 114.59 66.0057 108.39C66.1165 108.145 66.2327 107.911 66.349 107.682C66.6369 107.13 66.9581 106.611 67.2958 106.126C67.3235 106.154 67.3512 106.182 67.3789 106.21C69.8594 108.725 71.9911 110.827 74.9643 114.551C80.6008 121.599 85.5508 132.209 94.0332 139.837C102.516 147.459 113.545 148.658 117.288 147.23C120.494 146.009 125.034 140.941 125.626 133.196C126.224 125.457 124.668 119.625 123.749 114.635C123.749 114.618 125.765 114.579 125.765 114.562C126.667 114.546 127.409 114.54 127.935 114.546C128.45 117.439 128.893 120.395 129.281 123.433C131.684 142.145 126.734 157.216 115.511 156.363H115.516Z" fill="#3F2719"/>
<path opacity="0.23" d="M67.3789 106.21C66.9028 106.89 66.4709 107.637 66.0999 108.451C66.0667 108.429 66.039 108.407 66.0058 108.384C63.1543 106.333 60.0814 103.55 56.4658 98.8445C52.5679 93.765 55.508 86.3271 56.045 85.9312C56.7094 85.4405 57.2908 85.8531 58.0217 86.7229C57.396 89.7282 57.0306 95.053 61.748 100.261C63.7634 102.485 65.513 104.325 67.2959 106.126C67.3236 106.154 67.3512 106.182 67.3789 106.21Z" fill="#3F2719"/>
<path d="M36.2177 131.379C36.334 131.858 36.561 132.315 36.9099 132.711C38.0394 133.988 39.9883 134.1 41.2563 132.962C41.6771 132.583 41.965 132.12 42.1311 131.618C43.543 131.947 45.0822 131.607 46.245 130.565C48.1496 128.853 48.3157 125.914 46.6159 124.002C45.7466 123.021 44.5562 122.502 43.3437 122.452C43.327 121.744 43.0668 121.041 42.563 120.473C41.4334 119.196 39.4845 119.084 38.2165 120.222C37.303 121.041 36.9929 122.285 37.3085 123.389C36.6164 123.417 35.9298 123.673 35.3762 124.175C34.5346 124.928 34.2079 126.043 34.4072 127.074C34.2854 127.147 34.1636 127.236 34.0528 127.336C33.0839 128.206 33.0008 129.7 33.8646 130.67C34.4736 131.356 35.3872 131.602 36.2177 131.384V131.379Z" fill="#E8E0AF"/>
<path d="M43.2938 123.032C43.6758 121.131 42.4079 119.469 40.3427 119.346C37.7293 119.307 36.1347 122.396 38.1501 124.325" stroke="#DEB88E" stroke-width="2.62" stroke-linecap="round" stroke-linejoin="round"/>
<path d="M42.0147 123.221C41.8818 123.606 41.8431 124.03 41.9095 124.465C42.1365 125.864 43.4487 126.818 44.8385 126.595C45.298 126.522 45.7078 126.322 46.0455 126.048C46.8871 126.913 48.1163 127.364 49.3898 127.158C51.4771 126.818 52.8946 124.838 52.5568 122.736C52.3852 121.66 51.7817 120.763 50.9567 120.183C51.2557 119.681 51.3886 119.073 51.2889 118.449C51.0619 117.049 49.7497 116.096 48.3599 116.319C47.3577 116.48 46.5937 117.211 46.3224 118.131C45.8296 117.835 45.2316 117.713 44.6226 117.807C43.7034 117.958 42.9781 118.588 42.657 119.402C42.5352 119.402 42.4189 119.402 42.2915 119.424C41.2285 119.597 40.5087 120.606 40.6803 121.671C40.8021 122.424 41.3337 123.01 42.0092 123.227L42.0147 123.221Z" fill="#E8E0AF"/>
<g style="mix-blend-mode:soft-light" opacity="0.6">
<path d="M46.2005 118.555C46.9037 119.001 46.9591 118.66 47.2581 118.187C47.4519 117.874 47.8837 117.356 48.2492 117.188C49.1184 116.787 50.2646 117.924 50.1261 118.822C50.0542 119.291 49.5116 119.458 49.5891 119.948C49.6777 120.478 50.3808 120.601 50.7241 120.852C51.6211 121.51 51.5713 122.586 50.9345 123.377C50.6411 123.74 50.2424 123.929 49.9434 124.236C49.5392 124.66 49.805 124.866 49.6223 125.463C49.4783 125.948 48.9523 126.539 48.3765 126.466C47.6235 126.372 47.5349 125.48 47.2138 124.961C46.9425 124.521 46.278 123.712 45.6579 124.041C45.1596 124.303 45.215 125.095 44.3955 125.033C43.7533 124.989 43.5816 124.197 43.3269 123.695C43.0224 123.093 42.8341 122.714 42.4023 122.285C41.7988 121.688 41.6216 121.264 42.1143 120.573C42.7289 119.703 43.039 120.043 43.9526 120.367C44.6502 120.618 45.2925 120.69 45.813 120.066C46.267 119.519 45.824 119.14 46.0787 118.571L46.2061 118.549L46.2005 118.555Z" fill="white"/>
</g>
<path d="M50.6632 120.562C51.7706 119.402 51.6211 117.668 50.2314 116.659C48.4208 115.454 45.9403 116.904 46.494 119.157" stroke="#DEB88E" stroke-width="2.62" stroke-linecap="round" stroke-linejoin="round"/>
<path d="M51.8038 120.829C52.3519 123.021 53.2544 125.022 50.7795 126.533C48.8305 127.699 45.3645 127.024 45.5638 124.259" stroke="#DEB88E" stroke-width="2.62" stroke-linecap="round" stroke-linejoin="round"/>
<path d="M41.2285 122.619C40.9793 122.268 40.6804 121.214 40.7966 120.735C41.0347 119.787 42.8619 119.095 43.5097 119.904" stroke="#DEB88E" stroke-width="2.62" stroke-linecap="round" stroke-linejoin="round"/>
<path d="M42.8175 119.235C42.823 118.064 45.6524 117.144 46.0842 118.248" stroke="#DEB88E" stroke-width="2.62" stroke-linecap="round" stroke-linejoin="round"/>
<path d="M48.1716 122.173C47.175 122.011 47.0144 120.601 47.5515 119.932" stroke="#DEB88E" stroke-width="2.62" stroke-linecap="round" stroke-linejoin="round"/>
<path d="M49.4562 111.925C49.1129 111.708 48.7143 111.568 48.2769 111.535C46.8705 111.429 45.6469 112.494 45.5472 113.91C45.514 114.378 45.6081 114.824 45.7964 115.22C44.7665 115.845 44.0467 116.943 43.9526 118.242C43.7976 120.367 45.3866 122.212 47.4962 122.368C48.5758 122.446 49.5835 122.067 50.331 121.387C50.7463 121.8 51.3055 122.067 51.9312 122.112C53.3375 122.212 54.5612 121.153 54.6608 119.737C54.7328 118.716 54.2068 117.796 53.3818 117.322C53.7805 116.904 54.0407 116.352 54.085 115.733C54.1514 114.797 53.714 113.944 52.9998 113.442C53.0275 113.325 53.0496 113.208 53.0607 113.079C53.1382 111.998 52.3298 111.061 51.2612 110.983C50.5027 110.927 49.8216 111.317 49.4507 111.925H49.4562Z" fill="#E8E0AF"/>
<g style="mix-blend-mode:soft-light" opacity="0.6">
<path d="M52.9943 117.099C52.4019 117.685 52.7175 117.819 53.105 118.22C53.3597 118.482 53.7639 119.023 53.8414 119.419C54.0297 120.361 52.6676 121.225 51.826 120.885C51.3886 120.707 51.3554 120.133 50.8571 120.099C50.3255 120.066 50.0432 120.724 49.722 121.002C48.8804 121.733 47.8506 121.437 47.2305 120.623C46.9481 120.255 46.8595 119.815 46.6269 119.452C46.3113 118.962 46.0511 119.168 45.5196 118.856C45.0877 118.605 44.6337 117.947 44.8385 117.4C45.1043 116.681 45.9902 116.804 46.566 116.609C47.0533 116.447 47.989 115.984 47.8174 115.298C47.6789 114.752 46.9038 114.624 47.1529 113.832C47.3467 113.213 48.1496 113.23 48.6922 113.096C49.34 112.934 49.7552 112.84 50.2702 112.516C50.9844 112.065 51.4329 111.986 51.9921 112.628C52.6898 113.431 52.2911 113.659 51.7651 114.479C51.3609 115.103 51.1395 115.717 51.6267 116.369C52.053 116.943 52.5181 116.592 53.0054 116.971L52.9943 117.099Z" fill="white"/>
</g>
<path d="M50.0265 121.008C50.8902 122.363 52.5956 122.614 53.8967 121.487C55.4747 119.993 54.6553 117.222 52.3464 117.25" stroke="#DEB88E" stroke-width="2.62" stroke-linecap="round" stroke-linejoin="round"/>
<path d="M49.5005 122.067C47.2581 122.095 45.1153 122.519 44.2294 119.748C43.5539 117.573 45.0046 114.328 47.6346 115.165" stroke="#DEB88E" stroke-width="2.62" stroke-linecap="round" stroke-linejoin="round"/>
<path d="M45.8351 113.481C46.6213 111.473 49.805 110.804 50.3919 113.297" stroke="#DEB88E" stroke-width="2.62" stroke-linecap="round" stroke-linejoin="round"/>
<path d="M50.2147 111.289C50.6134 111.128 51.7041 111.078 52.136 111.301C52.9997 111.752 53.2434 113.704 52.3132 114.15" stroke="#DEB88E" stroke-width="2.62" stroke-linecap="round" stroke-linejoin="round"/>
<path d="M53.1161 113.631C54.2456 113.904 54.4837 116.887 53.3154 117.06" stroke="#DEB88E" stroke-width="2.62" stroke-linecap="round" stroke-linejoin="round"/>
<path d="M49.0686 116.073C49.0742 116.849 49.5061 118.878 48.1661 118.778" stroke="#DEB88E" stroke-width="2.62" stroke-linecap="round" stroke-linejoin="round"/>
<path d="M49.0465 118.198C49.4341 117.261 50.8294 117.428 51.3554 118.109" stroke="#DEB88E" stroke-width="2.62" stroke-linecap="round" stroke-linejoin="round"/>
<path d="M66.327 110.637C65.9671 110.408 65.5518 110.263 65.0978 110.23C63.6305 110.124 62.3515 111.234 62.2463 112.711C62.2131 113.202 62.3128 113.665 62.5066 114.077C61.4324 114.73 60.6794 115.878 60.5797 117.233C60.4192 119.452 62.0747 121.376 64.2783 121.538C65.4079 121.621 66.4598 121.22 67.2405 120.517C67.6724 120.947 68.2538 121.225 68.9071 121.275C70.3744 121.381 71.6534 120.272 71.7586 118.794C71.8361 117.729 71.288 116.77 70.4242 116.274C70.8395 115.839 71.1108 115.259 71.1551 114.613C71.2271 113.637 70.7675 112.745 70.02 112.221C70.0533 112.098 70.0754 111.975 70.0809 111.841C70.164 110.715 69.3224 109.734 68.2039 109.65C67.4122 109.594 66.6979 109.996 66.3159 110.637H66.327Z" fill="#E8E0AF"/>
<g style="mix-blend-mode:soft-light" opacity="0.6">
<path d="M70.02 116.04C69.4055 116.653 69.7321 116.793 70.1363 117.205C70.4021 117.478 70.8229 118.042 70.9004 118.454C71.0942 119.441 69.6768 120.339 68.7964 119.982C68.3424 119.798 68.3036 119.196 67.7887 119.162C67.2295 119.123 66.9416 119.815 66.6038 120.105C65.729 120.868 64.6493 120.556 64.007 119.709C63.7136 119.318 63.6195 118.867 63.3814 118.488C63.0547 117.975 62.7779 118.192 62.2242 117.869C61.7702 117.607 61.2995 116.921 61.5099 116.352C61.7868 115.605 62.7114 115.728 63.3094 115.527C63.8188 115.354 64.7933 114.875 64.6161 114.155C64.4721 113.587 63.6638 113.453 63.9185 112.622C64.1178 111.975 64.9594 111.992 65.5241 111.853C66.2052 111.685 66.6315 111.585 67.1686 111.245C67.9161 110.771 68.3867 110.693 68.9681 111.362C69.6989 112.204 69.2781 112.438 68.73 113.291C68.3092 113.943 68.0822 114.579 68.586 115.265C69.029 115.862 69.5162 115.499 70.0256 115.895L70.0145 116.029L70.02 116.04Z" fill="white"/>
</g>
<path d="M66.9194 120.116C67.8219 121.526 69.6048 121.794 70.9613 120.612C72.6113 119.051 71.7476 116.163 69.3446 116.19" stroke="#DEB88E" stroke-width="2.62" stroke-linecap="round" stroke-linejoin="round"/>
<path d="M66.3712 121.22C64.0292 121.253 61.7978 121.694 60.8676 118.8C60.1645 116.531 61.676 113.141 64.4223 114.016" stroke="#DEB88E" stroke-width="2.62" stroke-linecap="round" stroke-linejoin="round"/>
<path d="M62.5453 112.265C63.3647 110.174 66.6868 109.472 67.3014 112.076" stroke="#DEB88E" stroke-width="2.62" stroke-linecap="round" stroke-linejoin="round"/>
<path d="M67.1188 109.974C67.534 109.801 68.6691 109.751 69.1231 109.985C70.0256 110.453 70.2748 112.488 69.3114 112.957" stroke="#DEB88E" stroke-width="2.62" stroke-linecap="round" stroke-linejoin="round"/>
<path d="M70.1473 112.416C71.3267 112.706 71.5703 115.817 70.3577 115.995" stroke="#DEB88E" stroke-width="2.62" stroke-linecap="round" stroke-linejoin="round"/>
<path d="M65.9228 114.964C65.9284 115.772 66.3768 117.891 64.9816 117.785" stroke="#DEB88E" stroke-width="2.62" stroke-linecap="round" stroke-linejoin="round"/>
<path d="M65.8951 117.183C66.2993 116.202 67.7555 116.38 68.3092 117.088" stroke="#DEB88E" stroke-width="2.62" stroke-linecap="round" stroke-linejoin="round"/>
<path d="M78.9067 121.716C79.1448 121.365 79.2998 120.947 79.3441 120.495C79.4936 119.023 78.425 117.702 76.9633 117.551C76.4815 117.501 76.0109 117.59 75.6012 117.774C74.9866 116.676 73.8682 115.884 72.5282 115.744C70.3301 115.521 68.3701 117.127 68.1431 119.341C68.0268 120.473 68.3978 121.543 69.0733 122.352C68.6359 122.775 68.3424 123.35 68.276 124.008C68.1265 125.48 69.1951 126.801 70.6568 126.946C71.7088 127.052 72.6777 126.528 73.1982 125.68C73.619 126.11 74.1838 126.4 74.826 126.466C75.795 126.567 76.6919 126.126 77.2346 125.396C77.3564 125.429 77.4782 125.457 77.6055 125.468C78.724 125.586 79.7206 124.766 79.8313 123.64C79.9088 122.848 79.5323 122.117 78.9067 121.71V121.716Z" fill="#E8E0AF"/>
<g style="mix-blend-mode:soft-light" opacity="0.6">
<path d="M73.4363 125.279C72.8439 124.643 72.6999 124.967 72.2736 125.362C71.9912 125.625 71.4209 126.026 71.0112 126.098C70.0256 126.266 69.173 124.811 69.555 123.941C69.7543 123.489 70.3468 123.467 70.3966 122.948C70.452 122.391 69.7765 122.073 69.4941 121.727C68.7632 120.824 69.101 119.748 69.9592 119.123C70.3523 118.839 70.8063 118.761 71.1884 118.527C71.7088 118.214 71.4984 117.93 71.8362 117.378C72.113 116.932 72.7996 116.475 73.3643 116.703C74.1007 117.005 73.9512 117.93 74.134 118.543C74.289 119.062 74.743 120.06 75.4573 119.898C76.0276 119.77 76.1826 118.956 76.9965 119.24C77.6332 119.463 77.5945 120.305 77.7163 120.88C77.8602 121.565 77.9488 122.006 78.27 122.552C78.7184 123.316 78.7849 123.79 78.1039 124.359C77.2457 125.067 77.0242 124.643 76.1937 124.063C75.5569 123.623 74.9313 123.372 74.2392 123.863C73.6356 124.292 73.9789 124.794 73.5747 125.296L73.4419 125.284L73.4363 125.279Z" fill="white"/>
</g>
<path d="M68.3978 121.459C68.4366 119.101 68.0601 116.837 70.9614 115.99C73.237 115.349 76.5536 116.965 75.6068 119.703" stroke="#DEB88E" stroke-width="2.62" stroke-linecap="round" stroke-linejoin="round"/>
<path d="M77.4006 117.863C79.4548 118.75 80.0528 122.112 77.4505 122.658" stroke="#DEB88E" stroke-width="2.62" stroke-linecap="round" stroke-linejoin="round"/>
<path d="M74.6212 121.186C73.8183 121.17 71.7033 121.56 71.8472 120.16" stroke="#DEB88E" stroke-width="2.62" stroke-linecap="round" stroke-linejoin="round"/>
<path d="M72.4231 121.097C73.381 121.532 73.1706 122.993 72.4452 123.528" stroke="#DEB88E" stroke-width="2.62" stroke-linecap="round" stroke-linejoin="round"/>
<path d="M63.5364 125.664C63.398 126.065 63.3537 126.506 63.4257 126.952C63.6582 128.407 65.0203 129.394 66.4654 129.16C66.9416 129.082 67.3679 128.875 67.7167 128.591C68.5915 129.489 69.865 129.957 71.1883 129.739C73.3532 129.388 74.826 127.331 74.4772 125.145C74.2945 124.024 73.6688 123.093 72.8162 122.497C73.1262 121.973 73.2646 121.348 73.1594 120.696C72.9269 119.24 71.5648 118.254 70.1197 118.488C69.0788 118.655 68.287 119.413 68.0046 120.367C67.4897 120.06 66.8751 119.932 66.2384 120.032C65.2805 120.188 64.5331 120.841 64.2008 121.688C64.079 121.688 63.9517 121.688 63.8243 121.711C62.7225 121.889 61.975 122.937 62.1522 124.047C62.2796 124.827 62.8332 125.435 63.5309 125.658L63.5364 125.664Z" fill="#E8E0AF"/>
<g style="mix-blend-mode:soft-light" opacity="0.6">
<path d="M67.8773 120.824C68.6082 121.281 68.6635 120.93 68.9736 120.445C69.1785 120.121 69.6214 119.586 69.9979 119.408C70.9004 118.995 72.0908 120.172 71.9469 121.108C71.8749 121.593 71.3046 121.772 71.3932 122.279C71.4873 122.831 72.2126 122.959 72.5725 123.216C73.5083 123.896 73.4529 125.017 72.7885 125.836C72.4839 126.21 72.0687 126.405 71.7642 126.729C71.3434 127.163 71.6147 127.381 71.432 128C71.2825 128.502 70.7343 129.115 70.1363 129.042C69.3556 128.942 69.2615 128.016 68.9293 127.476C68.6469 127.018 67.9604 126.177 67.3125 126.517C66.7976 126.784 66.8585 127.609 66.0003 127.548C65.3359 127.498 65.1532 126.678 64.893 126.16C64.5774 125.535 64.3836 125.139 63.9351 124.693C63.3094 124.074 63.1267 123.634 63.6361 122.915C64.2784 122.011 64.5995 122.363 65.5463 122.703C66.2716 122.959 66.936 123.037 67.4731 122.391C67.9437 121.822 67.4842 121.426 67.7444 120.841L67.8773 120.818V120.824Z" fill="white"/>
</g>
<path d="M72.5117 122.909C73.6633 121.705 73.5083 119.91 72.0632 118.861C70.1862 117.612 67.606 119.112 68.1819 121.454" stroke="#DEB88E" stroke-width="2.62" stroke-linecap="round" stroke-linejoin="round"/>
<path d="M64.3669 121.532C64.3725 120.317 67.307 119.363 67.761 120.506" stroke="#DEB88E" stroke-width="2.62" stroke-linecap="round" stroke-linejoin="round"/>
<path d="M52.4351 122.212C52.2801 122.669 52.2302 123.171 52.3133 123.679C52.579 125.335 54.1293 126.455 55.7683 126.188C56.3109 126.099 56.7981 125.87 57.1912 125.541C58.1823 126.561 59.633 127.097 61.139 126.851C63.6029 126.45 65.2805 124.114 64.8819 121.632C64.677 120.361 63.9628 119.296 62.9883 118.616C63.3426 118.025 63.4977 117.306 63.3814 116.57C63.1156 114.914 61.5653 113.793 59.9264 114.061C58.7471 114.256 57.839 115.114 57.5179 116.196C56.9365 115.85 56.2334 115.7 55.5136 115.817C54.4283 115.995 53.5757 116.737 53.1936 117.696C53.0497 117.696 52.9112 117.696 52.7673 117.724C51.516 117.93 50.6633 119.118 50.8682 120.378C51.0121 121.27 51.6378 121.956 52.4406 122.212H52.4351Z" fill="#E8E0AF"/>
<g style="mix-blend-mode:soft-light" opacity="0.6">
<path d="M57.374 116.703C58.2045 117.228 58.271 116.826 58.6198 116.268C58.8523 115.9 59.3562 115.287 59.7881 115.092C60.8124 114.618 62.1689 115.956 62.0083 117.021C61.9253 117.573 61.283 117.774 61.3771 118.354C61.4823 118.984 62.3128 119.123 62.717 119.419C63.7801 120.194 63.7192 121.465 62.9662 122.402C62.6229 122.831 62.1467 123.049 61.7979 123.417C61.3217 123.913 61.6318 124.158 61.4214 124.861C61.2498 125.429 60.6296 126.132 59.9486 126.043C59.0572 125.931 58.952 124.877 58.5755 124.264C58.2543 123.745 57.4737 122.792 56.7373 123.177C56.1503 123.483 56.2168 124.42 55.2479 124.348C54.4893 124.292 54.2844 123.361 53.9854 122.77C53.6256 122.062 53.4041 121.61 52.8947 121.103C52.186 120.4 51.97 119.898 52.5514 119.079C53.2767 118.053 53.6477 118.454 54.7218 118.839C55.5468 119.134 56.2998 119.224 56.9144 118.482C57.4515 117.835 56.9255 117.389 57.2245 116.72L57.374 116.698V116.703Z" fill="white"/>
</g>
<path d="M62.6395 119.073C63.9462 117.707 63.769 115.661 62.1301 114.468C59.9929 113.046 57.0639 114.758 57.7173 117.417" stroke="#DEB88E" stroke-width="2.62" stroke-linecap="round" stroke-linejoin="round"/>
<path d="M63.9849 119.391C64.6327 121.978 65.6958 124.337 62.7779 126.121C60.4801 127.492 56.3828 126.701 56.6209 123.433" stroke="#DEB88E" stroke-width="2.62" stroke-linecap="round" stroke-linejoin="round"/>
<path d="M55.198 125.976C52.6954 125.613 51.0675 122.112 53.7474 120.757" stroke="#DEB88E" stroke-width="2.62" stroke-linecap="round" stroke-linejoin="round"/>
<path d="M51.5049 121.504C51.2114 121.092 50.8571 119.843 50.9955 119.279C51.2724 118.159 53.4317 117.345 54.1958 118.298" stroke="#DEB88E" stroke-width="2.62" stroke-linecap="round" stroke-linejoin="round"/>
<path d="M53.3818 117.506C53.3874 116.123 56.7261 115.042 57.241 116.341" stroke="#DEB88E" stroke-width="2.62" stroke-linecap="round" stroke-linejoin="round"/>
<path d="M57.2687 121.526C58.149 121.303 60.3472 120.255 60.6019 121.827" stroke="#DEB88E" stroke-width="2.62" stroke-linecap="round" stroke-linejoin="round"/>
<path d="M59.6994 120.974C58.5256 120.779 58.3318 119.123 58.9686 118.326" stroke="#DEB88E" stroke-width="2.62" stroke-linecap="round" stroke-linejoin="round"/>
<path d="M62.5342 113.765C62.7613 113.425 62.9108 113.029 62.955 112.594C63.099 111.183 62.0747 109.918 60.6739 109.778C60.2088 109.728 59.7658 109.812 59.3672 109.996C58.7747 108.942 57.7061 108.184 56.4216 108.05C54.3176 107.833 52.4351 109.377 52.2247 111.496C52.1139 112.583 52.4683 113.609 53.1161 114.378C52.6953 114.785 52.4129 115.337 52.352 115.967C52.2081 117.378 53.2324 118.644 54.6332 118.783C55.6409 118.889 56.5711 118.382 57.0694 117.568C57.4736 117.98 58.0162 118.259 58.6308 118.32C59.561 118.415 60.4192 117.997 60.9396 117.294C61.0559 117.328 61.1722 117.356 61.294 117.367C62.3626 117.478 63.3205 116.692 63.4257 115.616C63.5032 114.858 63.1378 114.155 62.5398 113.771L62.5342 113.765Z" fill="#E8E0AF"/>
<g style="mix-blend-mode:soft-light" opacity="0.6">
<path d="M57.2964 117.177C56.7317 116.564 56.5932 116.882 56.1835 117.255C55.9122 117.506 55.3696 117.891 54.971 117.958C54.0297 118.12 53.2102 116.726 53.5757 115.889C53.7639 115.454 54.3342 115.432 54.384 114.936C54.4339 114.401 53.7861 114.1 53.5203 113.765C52.8227 112.895 53.1438 111.869 53.9688 111.267C54.3453 110.994 54.7772 110.916 55.1481 110.693C55.6464 110.392 55.4471 110.124 55.7683 109.594C56.034 109.165 56.6929 108.73 57.23 108.948C57.9332 109.238 57.7892 110.124 57.9664 110.71C58.1159 111.206 58.5477 112.159 59.2343 112.009C59.7825 111.886 59.932 111.105 60.7071 111.379C61.3162 111.591 61.2774 112.399 61.3937 112.951C61.5321 113.609 61.6152 114.027 61.9252 114.557C62.3515 115.293 62.418 115.744 61.7646 116.285C60.9452 116.965 60.7348 116.558 59.9375 116.001C59.3284 115.577 58.7305 115.337 58.066 115.806C57.4847 116.218 57.8169 116.698 57.4293 117.177L57.302 117.166L57.2964 117.177Z" fill="white"/>
</g>
<path d="M53.5037 114.077C52.1361 114.908 51.8371 116.62 52.9168 117.958C54.3564 119.592 57.1248 118.844 57.1691 116.519" stroke="#DEB88E" stroke-width="2.62" stroke-linecap="round" stroke-linejoin="round"/>
<path d="M52.4683 113.52C52.5015 111.262 52.1471 109.093 54.9211 108.279C57.1026 107.66 60.2807 109.215 59.3727 111.836" stroke="#DEB88E" stroke-width="2.62" stroke-linecap="round" stroke-linejoin="round"/>
<path d="M61.0947 110.074C63.0603 110.921 63.6361 114.144 61.1446 114.668" stroke="#DEB88E" stroke-width="2.62" stroke-linecap="round" stroke-linejoin="round"/>
<path d="M63.1432 114.546C63.2927 114.947 63.3094 116.051 63.0768 116.475C62.6062 117.333 60.6627 117.517 60.2419 116.57" stroke="#DEB88E" stroke-width="2.62" stroke-linecap="round" stroke-linejoin="round"/>
<path d="M60.7348 117.4C60.4303 118.532 57.4625 118.683 57.3241 117.501" stroke="#DEB88E" stroke-width="2.62" stroke-linecap="round" stroke-linejoin="round"/>
<path d="M58.4314 113.258C57.6618 113.241 55.6353 113.615 55.7737 112.276" stroke="#DEB88E" stroke-width="2.62" stroke-linecap="round" stroke-linejoin="round"/>
<path d="M56.3219 113.168C57.241 113.587 57.0362 114.986 56.3441 115.499" stroke="#DEB88E" stroke-width="2.62" stroke-linecap="round" stroke-linejoin="round"/>
<path d="M44.019 117.846C43.9803 117.863 43.9415 117.885 43.9083 117.908C43.4155 118.136 43.0058 118.482 42.8895 118.867C42.8175 118.989 42.7511 119.112 42.6957 119.246C42.5739 119.246 42.4577 119.246 42.3303 119.268C42.0867 119.307 41.8597 119.396 41.6603 119.514C41.2783 119.341 40.852 119.224 40.3758 119.196C38.8476 119.173 37.6738 120.222 37.3638 121.482C37.1921 122.051 37.1866 122.658 37.3472 123.233C37.1755 123.238 37.0039 123.266 36.8378 123.305" stroke="#2D1F04" stroke-width="2.62" stroke-linecap="round" stroke-linejoin="round"/>
<path d="M52.28 111.195C51.9976 110.994 51.6654 110.86 51.3 110.832C50.5414 110.776 49.8604 111.167 49.4894 111.774C49.1461 111.557 48.7475 111.418 48.3156 111.384C46.9093 111.278 45.6856 112.343 45.586 113.759C45.5527 114.228 45.6469 114.674 45.8351 115.07C45.6247 115.198 45.4254 115.349 45.2427 115.516" stroke="#2D1F04" stroke-width="2.62" stroke-linecap="round" stroke-linejoin="round"/>
<path d="M80.3905 135.282C81.4702 134.412 82.0681 132.996 81.8301 131.518C81.7249 130.871 81.4702 130.286 81.1047 129.795C81.0826 129.717 81.0604 129.633 81.0438 129.555L80.9552 129.606C80.7227 129.327 80.4625 129.081 80.169 128.875C80.9497 127.699 80.7005 126.165 79.4049 125.229C79.261 125.134 79.1059 125.056 78.9564 124.994C79.4492 124.665 79.798 124.136 79.8645 123.5C79.942 122.708 79.5655 121.978 78.9398 121.571C79.1779 121.22 79.3329 120.802 79.3772 120.35C79.5267 118.878 78.4581 117.556 76.9964 117.406C76.5147 117.356 76.0441 117.445 75.6343 117.629C75.0197 116.531 73.9013 115.739 72.5614 115.599C71.8914 115.533 71.2436 115.633 70.6623 115.873C70.7398 115.772 70.8062 115.666 70.8671 115.549C71.0609 115.298 71.1661 114.919 71.1883 114.501C71.1883 114.484 71.1938 114.473 71.1938 114.462C71.2159 114.178 71.1827 113.899 71.1218 113.631C71.0055 113.074 70.7619 112.572 70.402 112.354C70.2968 112.248 70.1861 112.154 70.0643 112.064C70.0975 111.942 70.1197 111.819 70.1252 111.685C70.2082 110.559 69.3666 109.578 68.2482 109.494C67.4564 109.438 66.7422 109.84 66.3601 110.481C66.0003 110.252 65.585 110.107 65.131 110.074C64.1786 110.001 63.3149 110.453 62.7889 111.172C62.4345 110.336 61.6649 109.711 60.707 109.617C60.2419 109.567 59.799 109.65 59.4004 109.834C59.3782 109.79 59.3505 109.751 59.3284 109.706" stroke="#2D1F04" stroke-width="2.62" stroke-linecap="round" stroke-linejoin="round"/>
<path d="M18.6161 129.059C20.244 133.447 27.7131 145.463 35.0218 147.626C38.4933 148.658 42.8342 149.645 48.1662 149.65C52.2358 149.65 59.5721 149.728 59.8877 151.49C60.0039 152.148 52.9832 158.482 46.6823 159.474C40.7856 160.406 38.6705 159.497 35.1657 159.006C32.0374 158.571 12.2598 159.302 2.63129 147.225C-1.47151 142.078 -1.75942 132.845 7.99648 118.064C9.0983 116.391 9.54125 115.594 10.4604 114.088L18.6161 129.054V129.059Z" fill="#CAA77A"/>
<path d="M18.6161 129.059C20.244 133.447 27.7131 145.463 35.0218 147.626C38.4933 148.658 42.8342 149.645 48.1662 149.65C52.2358 149.65 59.5721 149.728 59.8877 151.49C60.0039 152.148 52.9832 158.482 46.6823 159.474C40.7856 160.406 38.6705 159.497 35.1657 159.006C32.0374 158.571 12.2598 159.302 2.63129 147.225C-1.47151 142.078 -1.75942 132.845 7.99648 118.064C9.09831 116.391 9.54125 115.594 10.4604 114.088" stroke="#2D1F04" stroke-width="2.62" stroke-linecap="round" stroke-linejoin="round"/>
<path opacity="0.23" d="M59.8877 151.49C60.0039 152.148 52.9777 158.482 46.6823 159.475C40.7856 160.406 38.6705 159.502 35.1657 159.012C35.0218 158.989 34.839 158.973 34.6231 158.956C30.2213 158.61 11.8114 158.739 2.63129 147.23C-1.47151 142.084 -1.75942 132.851 7.99648 118.069C9.0983 116.402 9.54125 115.605 10.4604 114.094C7.70856 119.725 4.97337 123.957 3.18497 129.873C1.00346 137.071 4.08194 142.904 10.9642 148.005C17.2541 152.667 25.2659 153.581 34.2687 154.791C35.1159 154.908 35.9741 155.025 36.8378 155.148C42.9616 156.018 47.5904 155.181 51.4495 153.698C53.9134 152.756 56.0617 151.546 58.0771 150.342C59.107 150.609 59.7991 150.977 59.8877 151.49Z" fill="#3F2719"/>
<path d="M15.8865 119.073C17.5309 120.59 21.0634 124.074 23.3446 126.896" stroke="#2D1F04" stroke-width="2.62" stroke-linecap="round" stroke-linejoin="round"/>
<path d="M113.551 110.029C113.578 110.648 113.794 112.349 114.287 113.258" stroke="#2D1F04" stroke-width="2.62" stroke-linecap="round" stroke-linejoin="round"/>
<path d="M109.254 111.267C109.271 112.243 109.586 113.748 110.151 114.668" stroke="#2D1F04" stroke-width="2.62" stroke-linecap="round" stroke-linejoin="round"/>
<path d="M104.736 113.258C104.924 114.741 105.168 115.912 105.949 117.194" stroke="#2D1F04" stroke-width="2.62" stroke-linecap="round" stroke-linejoin="round"/>
<path d="M117.975 109.276C110.334 110.152 103.208 113.04 98.0365 118.142" stroke="#2D1F04" stroke-width="2.62" stroke-linecap="round" stroke-linejoin="round"/>
<path d="M95.7552 112.845L97.7873 118.142" stroke="#2D1F04" stroke-width="2.62" stroke-linecap="round" stroke-linejoin="round"/>
<path d="M126.944 109.037C124.796 99.0173 121.668 89.5609 116.878 79.4745" stroke="#2D1F04" stroke-width="2.62" stroke-linecap="round" stroke-linejoin="round"/>
<path d="M55.9399 76.9431C55.3807 77.3055 54.8325 77.8296 54.4781 78.3538" stroke="#2D1F04" stroke-width="2.62" stroke-linecap="round" stroke-linejoin="round"/>
</g>
</g>
<defs>
<clipPath id="clip0_378_25619">
<rect width="120" height="120" rx="60" fill="white"/>
</clipPath>
<clipPath id="clip1_378_25619">
<rect width="161" height="200" fill="white" transform="translate(-21 5)"/>
</clipPath>
</defs>
</svg>
