<svg width="49" height="52" viewBox="0 0 49 52" fill="none" xmlns="http://www.w3.org/2000/svg">
<path d="M1.59699 7.81255C0.762408 8.11016 0.243396 8.9441 0.344932 9.82432L3.82158 39.9634C3.89202 40.574 4.2529 41.1131 4.79062 41.4109L23.9799 52.0392C24.5539 52.3572 25.2511 52.3572 25.8251 52.0392L45.0144 41.4109C45.5522 41.1131 45.913 40.574 45.9835 39.9634L49.4601 9.82432C49.5617 8.9441 49.0427 8.11016 48.2081 7.81255L25.5421 -0.270261C25.1285 -0.417768 24.6766 -0.417768 24.2629 -0.270262L1.59699 7.81255Z" fill="white" stroke="url(#paint0_linear_21172_180006)" stroke-width="1.26946"/>
<path d="M1.29076 9.71521C1.23999 9.2751 1.49949 8.85814 1.91678 8.70933L24.5827 0.62652C24.7896 0.552767 25.0155 0.552766 25.2223 0.62652L47.8883 8.70933C48.3056 8.85814 48.5651 9.27511 48.5143 9.71521L45.0377 39.8543C45.0024 40.1596 44.822 40.4292 44.5531 40.5781L25.3638 51.2064C25.0768 51.3653 24.7282 51.3653 24.4412 51.2064L5.25192 40.5781C4.98306 40.4292 4.80262 40.1596 4.7674 39.8543L1.29076 9.71521ZM10.3795 37.668C9.91144 38.7176 10.6795 39.9012 11.8287 39.9012H14.6176C15.2661 39.9012 15.8494 39.5066 16.0906 38.9046L18.4731 32.9584C18.6179 32.5972 18.9678 32.3604 19.3569 32.3604H30.3964C30.7855 32.3604 31.1355 32.5972 31.2802 32.9584L33.6628 38.9046C33.904 39.5066 34.4872 39.9012 35.1357 39.9012H37.9273C39.0757 39.9012 39.8438 38.7193 39.3774 37.6699L26.3506 8.35951C25.7925 7.10391 24.0109 7.10277 23.4513 8.35765L10.3795 37.668ZM24.0233 19.7745C24.3485 18.9922 25.4566 18.9922 25.7817 19.7745L28.2695 25.7598C28.5301 26.3868 28.0693 27.0773 27.3903 27.0773H22.4147C21.7357 27.0773 21.2749 26.3868 21.5356 25.7598L24.0233 19.7745Z" fill="url(#paint1_linear_21172_180006)" stroke="url(#paint2_linear_21172_180006)" stroke-width="0.634731"/>
<defs>
<linearGradient id="paint0_linear_21172_180006" x1="24.9025" y1="0.175537" x2="24.9025" y2="51.8247" gradientUnits="userSpaceOnUse">
<stop stop-color="white"/>
<stop offset="1" stop-color="white" stop-opacity="0"/>
</linearGradient>
<linearGradient id="paint1_linear_21172_180006" x1="0.859863" y1="51.8247" x2="48.9773" y2="0.205422" gradientUnits="userSpaceOnUse">
<stop stop-color="#DE5170"/>
<stop offset="0.520833" stop-color="#F34C6E"/>
<stop offset="1" stop-color="#FF6385"/>
</linearGradient>
<linearGradient id="paint2_linear_21172_180006" x1="24.9025" y1="0.175537" x2="24.9025" y2="51.8247" gradientUnits="userSpaceOnUse">
<stop stop-color="white"/>
<stop offset="1" stop-color="white" stop-opacity="0"/>
</linearGradient>
</defs>
</svg>
