<svg width="70" height="64" viewBox="0 0 70 64" fill="none" xmlns="http://www.w3.org/2000/svg">
<mask id="mask0_21172_179533" style="mask-type:luminance" maskUnits="userSpaceOnUse" x="0" y="15" width="60" height="34">
<path d="M60 15.2344H0V48.7654H60V15.2344Z" fill="white"/>
</mask>
<g mask="url(#mask0_21172_179533)">
<mask id="mask1_21172_179533" style="mask-type:luminance" maskUnits="userSpaceOnUse" x="0" y="15" width="60" height="34">
<path d="M60 15.2344H0V48.7654H60V15.2344Z" fill="white"/>
</mask>
<g mask="url(#mask1_21172_179533)">
<mask id="mask2_21172_179533" style="mask-type:luminance" maskUnits="userSpaceOnUse" x="0" y="15" width="60" height="34">
<path d="M60 15.2344H0V48.7654H60V15.2344Z" fill="white"/>
</mask>
<g mask="url(#mask2_21172_179533)">
<mask id="mask3_21172_179533" style="mask-type:luminance" maskUnits="userSpaceOnUse" x="2" y="15" width="56" height="18">
<path d="M57.496 15.2344H2.57422V32.7075H57.496V15.2344Z" fill="white"/>
</mask>
<g mask="url(#mask3_21172_179533)">
<path fill-rule="evenodd" clip-rule="evenodd" d="M50.4706 32.7045C49.4373 32.7051 48.4073 32.5962 47.4002 32.3797C46.5993 32.2305 45.8242 31.9789 45.0965 31.632C44.8777 31.5464 44.6911 31.4018 44.5602 31.2167C44.4294 31.0316 44.3602 30.8142 44.3615 30.5922V29.6538C44.3615 29.2565 44.5142 29.0629 44.8197 29.0728C44.947 29.0763 45.0728 29.0994 45.192 29.1413L45.6979 29.332C46.4021 29.6223 47.1384 29.8391 47.8934 29.9785C48.6827 30.1302 49.4867 30.2051 50.2925 30.2019C51.3073 30.2582 52.3185 30.0455 53.2102 29.5882C53.5342 29.409 53.8008 29.1516 53.9822 28.8429C54.1635 28.5343 54.2529 28.1856 54.2411 27.8335C54.2481 27.5946 54.2038 27.3568 54.1109 27.1342C54.018 26.9116 53.8783 26.7087 53.7002 26.5375C53.0931 26.0658 52.3793 25.7297 51.6129 25.5544L48.7206 24.7083C47.5044 24.3938 46.4197 23.739 45.612 22.8314C44.9714 22.0657 44.62 21.1227 44.6129 20.1501C44.5975 19.4295 44.784 18.7176 45.1538 18.0855C45.5138 17.4894 46 16.9683 46.5824 16.5542C47.1962 16.122 47.8882 15.7971 48.6252 15.5949C49.4405 15.3768 50.2845 15.2675 51.1325 15.2701C51.5814 15.2699 52.0299 15.2968 52.4752 15.3506C52.9118 15.3984 53.3452 15.4691 53.7734 15.5621C54.1807 15.6515 54.5625 15.7468 54.9125 15.86C55.202 15.9453 55.4831 16.0539 55.7525 16.1847C55.9803 16.2994 56.1815 16.4554 56.3443 16.6435C56.4694 16.8262 56.5316 17.0404 56.5225 17.2573V18.151C56.5225 18.5483 56.3698 18.7419 56.0643 18.732C55.7958 18.7041 55.5355 18.6282 55.2975 18.5085C54.0885 18.0062 52.7796 17.7494 51.457 17.7548C50.5388 17.7105 49.6241 17.8912 48.8034 18.2791C48.496 18.4446 48.2438 18.6869 48.0752 18.9789C47.9066 19.2709 47.8282 19.6012 47.8488 19.9326C47.8439 20.1783 47.8937 20.4223 47.995 20.649C48.0964 20.8758 48.247 21.0802 48.4374 21.2494C49.0853 21.7324 49.8344 22.0826 50.6361 22.2772L53.4648 23.0697C54.6632 23.3591 55.7395 23.9824 56.5511 24.8572C57.1841 25.6233 57.5157 26.5703 57.4898 27.5385C57.4995 28.286 57.3173 29.0247 56.9584 29.6925C56.6095 30.3329 56.1141 30.8933 55.5075 31.334C54.8431 31.811 54.0869 32.164 53.2802 32.3738C52.3607 32.6069 51.4104 32.7162 50.4579 32.6985M24.8218 32.2069C24.551 32.2294 24.28 32.1665 24.0518 32.0282C23.8414 31.8278 23.6958 31.5758 23.6318 31.3013L18.964 16.9385C18.8729 16.6968 18.813 16.4457 18.7859 16.1907C18.7773 16.1386 18.7798 16.0855 18.7933 16.0344C18.8067 15.9832 18.8308 15.9351 18.8643 15.8927C18.8977 15.8503 18.9397 15.8146 18.988 15.7875C19.0362 15.7604 19.0897 15.7425 19.1454 15.7349C19.1884 15.7264 19.2328 15.7264 19.2759 15.7349H21.2327C21.5068 15.7076 21.7826 15.7709 22.0122 15.9136C22.2126 16.1167 22.35 16.3669 22.41 16.6376L25.7573 28.9239L28.8659 16.6376C28.9145 16.3665 29.0525 16.1165 29.2605 15.9226C29.5023 15.7857 29.7838 15.7232 30.0655 15.7438H31.6755C31.9572 15.7228 32.2389 15.7853 32.4805 15.9226C32.6875 16.1205 32.8213 16.3752 32.8623 16.6495L35.9964 29.0907L39.4519 16.6495C39.5165 16.377 39.6582 16.1259 39.8624 15.9226C40.0927 15.7812 40.3679 15.7181 40.6419 15.7438H42.4906C42.6035 15.7283 42.7184 15.7549 42.8106 15.8178C42.9028 15.8808 42.965 15.9751 42.9838 16.0805C42.987 16.1211 42.987 16.162 42.9838 16.2026C42.9905 16.3018 42.9905 16.4013 42.9838 16.5005C42.9436 16.6558 42.8948 16.8089 42.8374 16.9593L38.036 31.3221C37.9741 31.5974 37.8282 31.8499 37.616 32.049C37.3888 32.1868 37.1186 32.2487 36.8492 32.2248H35.096C34.8124 32.2534 34.5272 32.1869 34.291 32.0371C34.0852 31.8302 33.9519 31.5693 33.9091 31.2893L30.7973 19.3278L27.7268 31.2774C27.6822 31.5574 27.5479 31.8181 27.3418 32.0252C27.1056 32.175 26.8207 32.2425 26.5368 32.2159L24.8218 32.2069ZM8.79805 30.196C9.5018 30.186 10.1992 30.0693 10.8631 29.8504C11.592 29.6153 12.2418 29.2042 12.7467 28.6587C13.0565 28.3377 13.2858 27.956 13.4181 27.5415C13.5572 27.0154 13.6225 26.4746 13.6122 25.9327V25.1522C13.006 25.0152 12.392 24.9108 11.7731 24.8394C11.1526 24.7643 10.5277 24.7265 9.90215 24.7261C8.85161 24.6525 7.80561 24.9162 6.93667 25.4739C6.36611 25.998 6.02708 26.7039 5.98699 27.4513C5.9469 28.1987 6.20869 28.9328 6.7203 29.5078C7.28842 29.9857 8.03521 30.2342 8.79805 30.199M16.899 27.3747C16.8796 27.9328 16.957 28.4902 17.1281 29.0251C17.2985 29.4855 17.5115 29.9311 17.7645 30.3569C17.8502 30.484 17.8995 30.6297 17.9077 30.7799C17.8954 30.8932 17.854 31.002 17.7869 31.0969C17.7199 31.1919 17.6292 31.2702 17.5227 31.3251L16.3231 32.1086C16.1679 32.2108 15.9845 32.2687 15.7949 32.2755C15.6834 32.2725 15.5736 32.2482 15.4724 32.2042C15.3712 32.1601 15.2806 32.0972 15.2063 32.0193C14.9266 31.7636 14.6847 31.4741 14.4872 31.1583C14.2604 30.7979 14.0554 30.4259 13.8731 30.044C13.1678 30.8614 12.2728 31.5175 11.2561 31.9624C10.2395 32.4074 9.12788 32.6296 8.00577 32.6121C7.28033 32.6492 6.55426 32.5508 5.86981 32.3227C5.18536 32.0946 4.55619 31.7413 4.01892 31.2834C3.02862 30.2632 2.50438 28.9205 2.5585 27.5428C2.61262 26.1652 3.24079 24.8621 4.30847 23.9128C5.70127 22.8943 7.44064 22.3822 9.20533 22.4709C9.91222 22.4738 10.6181 22.5216 11.3181 22.6139C12.0541 22.7132 12.8178 22.8482 13.609 23.0191V21.6576C13.6673 21.1266 13.613 20.59 13.4492 20.0788C13.2854 19.5675 13.0153 19.0916 12.6544 18.6783C11.7265 18.0152 10.564 17.7074 9.4026 17.8174C8.67891 17.8221 7.95822 17.9051 7.25486 18.0646C6.52228 18.2279 5.80339 18.441 5.10393 18.7022C4.88501 18.7973 4.65968 18.8789 4.42938 18.9465H4.11119C3.83119 18.9465 3.69119 18.7528 3.69119 18.3655V17.4718C3.67319 17.247 3.7228 17.022 3.83438 16.8223C3.98628 16.6521 4.17935 16.5183 4.39756 16.432C5.20221 16.0747 6.04328 15.7942 6.90803 15.5949C7.92379 15.3524 8.96845 15.2322 10.0167 15.2374C11.9068 15.0859 13.7849 15.6347 15.2476 16.7657C15.8402 17.3825 16.2924 18.1057 16.5769 18.8914C16.8613 19.6771 16.972 20.5088 16.9022 21.3358L16.899 27.3747Z" fill="url(#paint0_linear_21172_179533)"/>
</g>
<path fill-rule="evenodd" clip-rule="evenodd" d="M54.2411 41.8506C47.6737 46.3611 38.1473 48.7624 30.0082 48.7624C19.0408 48.8348 8.43753 45.0815 0.264291 38.2339C-0.343441 37.7155 0.194289 37.0154 0.929295 37.4175C9.98415 42.2338 20.2211 44.7625 30.635 44.7554C38.415 44.7175 46.1113 43.2488 53.2865 40.4325C54.3906 39.9975 55.3261 41.1148 54.2411 41.8625" fill="url(#paint1_linear_21172_179533)"/>
<path fill-rule="evenodd" clip-rule="evenodd" d="M56.9771 38.9461C56.1371 37.9421 51.4184 38.4783 49.3057 38.7137C48.6693 38.7792 48.5643 38.2668 49.1402 37.8855C52.898 35.4276 59.0644 36.1307 59.7739 36.9589C60.4835 37.7871 59.583 43.537 56.0639 46.2839C55.5262 46.7099 55.0075 46.4864 55.2493 45.9264C56.0416 44.0733 57.8171 39.953 56.9771 38.9461Z" fill="url(#paint2_linear_21172_179533)"/>
</g>
</g>
</g>
<defs>
<linearGradient id="paint0_linear_21172_179533" x1="30.0229" y1="15.2126" x2="30.0229" y2="32.7045" gradientUnits="userSpaceOnUse">
<stop stop-color="#AB84E8"/>
<stop offset="1" stop-color="#9369D5"/>
</linearGradient>
<linearGradient id="paint1_linear_21172_179533" x1="27.3619" y1="37.2981" x2="27.3619" y2="48.7634" gradientUnits="userSpaceOnUse">
<stop stop-color="#AB84E8"/>
<stop offset="1" stop-color="#9369D5"/>
</linearGradient>
<linearGradient id="paint2_linear_21172_179533" x1="54.3807" y1="36.1885" x2="54.3807" y2="46.5061" gradientUnits="userSpaceOnUse">
<stop stop-color="#AB84E8"/>
<stop offset="1" stop-color="#9369D5"/>
</linearGradient>
</defs>
</svg>
