<svg width="143" height="96" viewBox="0 0 143 96" fill="none" xmlns="http://www.w3.org/2000/svg">
<path d="M98.1864 1.5542L56.7371 16.3353C55.9025 16.6329 55.3835 17.4668 55.4851 18.347L61.8266 73.3221C61.8971 73.9327 62.2579 74.4718 62.7957 74.7696L97.9034 94.2146C98.4774 94.5325 99.1746 94.5325 99.7486 94.2146L134.856 74.7696C135.394 74.4718 135.755 73.9327 135.825 73.3221L142.167 18.347C142.268 17.4668 141.749 16.6329 140.915 16.3353L99.4656 1.5542C99.052 1.4067 98.6 1.4067 98.1864 1.5542Z" fill="white" stroke="url(#paint0_linear_21282_3684)" stroke-width="1.26946"/>
<path d="M57.0569 17.232L98.5062 2.45098C98.713 2.37723 98.939 2.37723 99.1458 2.45098L140.595 17.232C141.012 17.3808 141.272 17.7978 141.221 18.2379L134.88 73.213C134.844 73.5183 134.664 73.7878 134.395 73.9367L99.2873 93.3817C99.0003 93.5407 98.6517 93.5407 98.3647 93.3817L63.257 73.9367C62.9881 73.7878 62.8077 73.5183 62.7724 73.213L56.4309 18.2379C56.3801 17.7978 56.6396 17.3808 57.0569 17.232ZM97.3747 14.6409L72.5609 70.2803C72.0928 71.3298 72.8609 72.5134 74.0101 72.5134H81.177C81.8256 72.5134 82.4088 72.1188 82.65 71.5168L87.3931 59.6794C87.5378 59.3182 87.8878 59.0814 88.2769 59.0814H109.283C109.672 59.0814 110.022 59.3182 110.167 59.6794L114.91 71.5168C115.151 72.1188 115.734 72.5134 116.383 72.5134H123.553C124.701 72.5134 125.469 71.3315 125.003 70.2821L100.274 14.6428C99.716 13.3872 97.9344 13.386 97.3747 14.6409ZM92.0292 48.8491L97.9468 34.6121C98.2719 33.8299 99.38 33.8299 99.7051 34.6121L105.623 48.8491C105.883 49.4762 105.423 50.1667 104.744 50.1667H92.9084C92.2293 50.1667 91.7686 49.4762 92.0292 48.8491Z" fill="url(#paint1_linear_21282_3684)" stroke="url(#paint2_linear_21282_3684)" stroke-width="0.634731"/>
<path d="M49.4413 14.5774C48.3345 13.5179 47.2306 12.5321 46.1352 11.6258C42.599 8.6997 39.0201 6.49076 35.6091 5.36731C32.1988 4.24409 28.5966 4.10519 25.4866 5.93324C22.3791 7.75978 20.7001 10.9996 19.9519 14.5611C19.203 18.1255 19.2921 22.382 20.0128 26.9618C20.237 28.3868 20.5251 29.8595 20.8751 31.372C19.4157 31.8192 18.021 32.301 16.6985 32.8151C12.4403 34.4704 8.77211 36.5215 6.11215 38.9662C3.45261 41.4105 1.53983 44.5104 1.53983 48.155C1.53983 51.7996 3.45261 54.8995 6.11215 57.3438C8.77211 59.7884 12.4403 61.8396 16.6985 63.4949C18.021 64.009 19.4157 64.4908 20.8749 64.9379C20.5249 66.4505 20.2369 67.9232 20.0126 69.3483C19.2919 73.9281 19.2028 78.1845 19.9517 81.7489C20.6999 85.3105 22.379 88.5503 25.4864 90.3768C28.5964 92.2049 32.1986 92.066 35.6089 90.9427C39.0199 89.8193 42.5988 87.6104 46.135 84.6843C47.2305 83.7779 48.3344 82.7921 49.4413 81.7325C50.5481 82.7921 51.6521 83.7778 52.7475 84.6843C56.2838 87.6103 59.8627 89.8193 63.2737 90.9427C66.684 92.0659 70.2862 92.2048 73.3962 90.3768C76.5036 88.5502 78.1827 85.3105 78.9309 81.7489C79.6797 78.1845 79.5907 73.928 78.87 69.3483C78.6457 67.9231 78.3577 66.4503 78.0076 64.9377C79.4666 64.4906 80.861 64.0089 82.1832 63.4949C86.4415 61.8396 90.1096 59.7884 92.7696 57.3438C95.4291 54.8995 97.3419 51.7996 97.3419 48.155C97.3419 44.5104 95.4291 41.4105 92.7696 38.9662C90.1096 36.5215 86.4415 34.4704 82.1832 32.8151C80.8609 32.3011 79.4665 31.8194 78.0075 31.3722C78.3575 29.8596 78.6455 28.3869 78.8698 26.9618C79.5905 22.382 79.6796 18.1255 78.9307 14.5612C78.1825 10.9996 76.5034 7.75981 73.396 5.93327C70.286 4.10521 66.6838 4.24412 63.2735 5.36734C59.8625 6.49078 56.2836 8.69972 52.7474 11.6258C51.652 12.5322 50.5481 13.5179 49.4413 14.5774Z" fill="url(#paint3_linear_21282_3684)" stroke="url(#paint4_linear_21282_3684)" stroke-width="1.26946"/>
<path fill-rule="evenodd" clip-rule="evenodd" d="M29.0536 12.3251C30.2005 11.6509 31.8896 11.4733 34.3032 12.2682C36.7164 13.0631 39.575 14.752 42.6949 17.3336C43.7675 18.2211 44.8583 19.2036 45.9594 20.275C43.5189 22.9985 41.0935 26.0681 38.7498 29.4235C34.7238 29.8122 30.9 30.4159 27.3631 31.2058C27.0022 29.6994 26.7119 28.2463 26.4932 26.8569C25.8572 22.8152 25.8499 19.4504 26.3804 16.9253C26.911 14.3998 27.9066 12.9993 29.0536 12.3251ZM45.8754 13.3495C47.0668 14.3354 48.2705 15.4204 49.4783 16.5974C50.686 15.4204 51.8897 14.3354 53.0811 13.3495C56.4807 10.5365 59.8881 8.44178 63.1011 7.38354C66.3138 6.32542 69.6111 6.22536 72.4243 7.87897C75.2375 9.53257 76.8011 12.4898 77.5073 15.8515C78.2136 19.2135 78.1355 23.2652 77.4425 27.6691C77.1996 29.2126 76.8784 30.8164 76.4811 32.4698C78.0861 32.9462 79.6108 33.4649 81.0451 34.0224C85.1377 35.6133 88.6233 37.5703 91.13 39.8741C93.6363 42.1776 95.3701 45.0348 95.3701 48.342C95.3701 51.6492 93.6363 54.5064 91.13 56.8099C88.6233 59.1137 85.1377 61.0707 81.0451 62.6616C79.6108 63.2191 78.0862 63.7377 76.4813 64.2141C76.8786 65.8676 77.1997 67.4715 77.4426 69.015C78.1357 73.4189 78.2138 77.4706 77.5075 80.8326C76.8012 84.1943 75.2377 87.1515 72.4245 88.8051C69.6112 90.4587 66.314 90.3587 63.1013 89.3005C59.8883 88.2423 56.4808 86.1475 53.0813 83.3345C51.8898 82.3486 50.6861 81.2635 49.4782 80.0865C48.2704 81.2635 47.0667 82.3487 45.8752 83.3346C42.4756 86.1476 39.0682 88.2423 35.8552 89.3005C32.6425 90.3587 29.3452 90.4587 26.532 88.8051C23.7188 87.1515 22.1553 84.1943 21.449 80.8326C20.7427 77.4706 20.8208 73.4189 21.5138 69.015C21.7567 67.4716 22.0779 65.8678 22.4752 64.2144C20.87 63.7379 19.3451 63.2192 17.9106 62.6616C13.818 61.0707 10.3324 59.1137 7.82572 56.8099C5.31933 54.5064 3.58557 51.6492 3.58557 48.342C3.58557 45.0348 5.31933 42.1776 7.82572 39.8741C10.3324 37.5703 13.818 35.6133 17.9106 34.0224C19.3451 33.4648 20.8701 32.946 22.4753 32.4696C22.0781 30.8162 21.7569 29.2125 21.514 27.6691C20.821 23.2652 20.7429 19.2134 21.4492 15.8514C22.1554 12.4898 23.719 9.53255 26.5322 7.87894C29.3454 6.22534 32.6427 6.32539 35.8553 7.38351C39.0683 8.44175 42.4758 10.5365 45.8754 13.3495ZM45.3482 28.9893C46.7172 27.1963 48.099 25.5181 49.4783 23.9664C50.8576 25.5181 52.2394 27.1963 53.6083 28.9894C52.2469 28.9405 50.8691 28.9155 49.4778 28.9155C48.0868 28.9155 46.7093 28.9405 45.3482 28.9893ZM28.7437 36.1541C30.7532 35.7139 32.8716 35.3346 35.0812 35.0242C34.359 36.2 33.649 37.4022 32.9534 38.6288C32.2578 39.8553 31.5903 41.0823 30.9513 42.3069C30.1105 40.2034 29.3739 38.1461 28.7437 36.1541ZM37.3205 41.1958C35.9604 43.5942 34.7177 45.9845 33.5953 48.3418C34.7178 50.6993 35.9605 53.0897 37.3207 55.4883C38.6808 57.8868 40.0928 60.1776 41.5368 62.346C44.1032 62.535 46.7577 62.6345 49.4778 62.6345C52.1983 62.6345 54.853 62.535 57.4197 62.3459C58.8637 60.1776 60.2757 57.8868 61.6358 55.4883C62.996 53.0897 64.2387 50.6993 65.3612 48.3418C64.2388 45.9845 62.9961 43.5942 61.636 41.1958C60.2758 38.7973 58.8639 36.5065 57.4198 34.3381C54.8531 34.149 52.1983 34.0495 49.4778 34.0495C46.7576 34.0495 44.1032 34.149 41.5367 34.338C40.0926 36.5064 38.6807 38.7973 37.3205 41.1958ZM23.8441 37.411C24.9407 40.9245 26.3391 44.5977 28.0214 48.3418C26.339 52.0861 24.9406 55.7594 23.844 59.273C22.382 58.8379 21.0007 58.3673 19.7094 57.8653C15.9534 56.4052 13.0875 54.7293 11.2047 52.999C9.32176 51.2684 8.6283 49.6904 8.6283 48.342C8.6283 46.9936 9.32176 45.4155 11.2047 43.685C13.0875 41.9547 15.9534 40.2787 19.7094 38.8187C21.0007 38.3167 22.3821 37.8461 23.8441 37.411ZM30.9513 54.3768C30.1105 56.4804 29.3738 58.5378 28.7436 60.5298C30.7532 60.9701 32.8716 61.3493 35.0814 61.6597C34.3591 60.484 33.6491 59.2818 32.9536 58.0552C32.258 56.8286 31.5903 55.6015 30.9513 54.3768ZM26.4931 69.8272C26.7117 68.4377 27.0021 66.9846 27.3629 65.4781C30.9 66.2681 34.7238 66.8718 38.7499 67.2605C41.0936 70.6158 43.5189 73.6854 45.9594 76.4089C44.8583 77.4804 43.7674 78.4629 42.6948 79.3505C39.5748 81.9321 36.7162 83.621 34.303 84.4158C31.8894 85.2108 30.2004 85.0332 29.0534 84.359C27.9064 83.6848 26.9108 82.2843 26.3802 79.7588C25.8497 77.2337 25.857 73.8688 26.4931 69.8272ZM56.2617 79.3505C55.1891 78.4629 54.0982 77.4804 52.9971 76.4089C55.4376 73.6854 57.8629 70.6158 60.2066 67.2604C64.2327 66.8716 68.0565 66.268 71.5935 65.478C71.9544 66.9845 72.2447 68.4376 72.4634 69.8272C73.0994 73.8688 73.1068 77.2336 72.5763 79.7588C72.0457 82.2843 71.0501 83.6847 69.9031 84.3589C68.7561 85.0331 67.067 85.2107 64.6535 84.4158C62.2402 83.621 59.3817 81.9321 56.2617 79.3505ZM49.4782 72.7174C50.8575 71.1658 52.2393 69.4877 53.6082 67.6946C52.2468 67.7435 50.8691 67.7684 49.4778 67.7684C48.0869 67.7684 46.7094 67.7435 45.3483 67.6946C46.7172 69.4877 48.099 71.1658 49.4782 72.7174ZM70.2129 60.5296C68.2033 60.9699 66.0849 61.3492 63.8752 61.6596C64.5974 60.4839 65.3074 59.2818 66.0029 58.0553C66.6985 56.8286 67.3662 55.6015 68.0052 54.3768C68.846 56.4803 69.5826 58.5377 70.2129 60.5296ZM75.1124 59.2727C74.0159 55.7592 72.6175 52.086 70.9351 48.3418C72.6174 44.5978 74.0158 40.9246 75.1123 37.4112C76.5741 37.8462 77.9552 38.3168 79.2463 38.8187C83.0023 40.2787 85.8682 41.9547 87.7509 43.685C89.6339 45.4155 90.3274 46.9936 90.3274 48.342C90.3274 49.6904 89.6339 51.2684 87.7509 52.999C85.8682 54.7293 83.0023 56.4052 79.2463 57.8653C77.9552 58.3672 76.5741 58.8377 75.1124 59.2727ZM60.2068 29.4236C64.2328 29.8123 68.0564 30.416 71.5934 31.206C71.9542 29.6995 72.2446 28.2464 72.4632 26.8569C73.0993 22.8152 73.1066 19.4504 72.5761 16.9253C72.0455 14.3998 71.0499 12.9993 69.9029 12.3251C68.7559 11.6509 67.0669 11.4733 64.6533 12.2683C62.2401 13.0631 59.3815 14.752 56.2616 17.3336C55.189 18.2211 54.0982 19.2036 52.9972 20.275C55.4377 22.9986 57.863 26.0682 60.2068 29.4236ZM68.0052 42.3069C68.8459 40.2035 69.5825 38.1462 70.2127 36.1543C68.2033 35.714 66.085 35.3348 63.8754 35.0244C64.5976 36.2001 65.3075 37.4022 66.0031 38.6288C66.6986 39.8553 67.3662 41.0823 68.0052 42.3069ZM57.5601 48.342C57.5601 52.8867 53.9413 56.571 49.4773 56.571C45.0133 56.571 41.3945 52.8867 41.3945 48.342C41.3945 43.7972 45.0133 40.113 49.4773 40.113C53.9413 40.113 57.5601 43.7972 57.5601 48.342Z" fill="#FEFEFE"/>
<defs>
<linearGradient id="paint0_linear_21282_3684" x1="98.826" y1="2" x2="98.826" y2="94" gradientUnits="userSpaceOnUse">
<stop stop-color="white"/>
<stop offset="1" stop-color="white" stop-opacity="0"/>
</linearGradient>
<linearGradient id="paint1_linear_21282_3684" x1="56" y1="94" x2="141.709" y2="2.05323" gradientUnits="userSpaceOnUse">
<stop stop-color="#CC002D"/>
<stop offset="0.520833" stop-color="#FF2652"/>
<stop offset="1" stop-color="#FF6385"/>
</linearGradient>
<linearGradient id="paint2_linear_21282_3684" x1="98.826" y1="2" x2="98.826" y2="94" gradientUnits="userSpaceOnUse">
<stop stop-color="white"/>
<stop offset="1" stop-color="white" stop-opacity="0"/>
</linearGradient>
<linearGradient id="paint3_linear_21282_3684" x1="2.17456" y1="91.1377" x2="97.9784" y2="6.61326" gradientUnits="userSpaceOnUse">
<stop stop-color="#47C8FF"/>
<stop offset="0.507812" stop-color="#42C3FB"/>
<stop offset="1" stop-color="#009FCB"/>
</linearGradient>
<linearGradient id="paint4_linear_21282_3684" x1="11.6585" y1="-10.2841" x2="87.729" y2="112.781" gradientUnits="userSpaceOnUse">
<stop stop-color="white" stop-opacity="0.59"/>
<stop offset="0.507812" stop-color="#00ADF7" stop-opacity="0.63"/>
<stop offset="1" stop-color="#00ADF7" stop-opacity="0.58"/>
</linearGradient>
</defs>
</svg>
