<svg width="427" height="272" viewBox="0 0 427 272" fill="none" xmlns="http://www.w3.org/2000/svg">
    <g clip-path="url(#clip0_378_25138)">
        <path
            d="M262.5 272H261.84C257.155 271.943 252.052 271.631 247.105 271.092C237.254 270.02 227.154 267.926 219.779 266.4C215.968 265.612 212.675 264.931 210.617 264.633C208.324 264.299 202.348 263.405 196.052 262.184C184.618 259.963 180.97 258.429 179.068 257.344C172.318 253.49 168.095 249.203 166.172 244.241C165.866 243.454 165.71 242.652 165.689 241.85C164.894 238.343 165.242 234.674 166.746 231.054C166.796 230.926 166.846 230.806 166.903 230.678C166.945 230.586 167.009 230.444 167.08 230.295C167.634 229.095 168.308 227.903 169.082 226.753C169.706 225.83 170.366 224.865 171.062 223.886C171.715 222.963 172.46 221.934 173.298 220.827C171.459 219.989 169.656 219.095 167.918 218.172L167.506 217.952C166.832 217.59 166.172 217.221 165.526 216.852L164.908 216.497C164.39 216.192 163.879 215.894 163.382 215.589C163.077 215.404 162.772 215.212 162.474 215.028C162.105 214.794 161.736 214.567 161.374 214.332C161.012 214.098 160.65 213.857 160.288 213.623C159.933 213.381 159.578 213.147 159.23 212.906C158.918 212.686 158.62 212.48 158.322 212.274C157.967 212.026 157.605 211.763 157.25 211.5C156.916 211.259 156.59 211.011 156.263 210.769C156.008 210.578 155.738 210.372 155.483 210.173C155.483 210.173 155.057 209.847 154.922 209.747C142.366 199.91 136.731 188.071 133.352 180.562C130.939 179.306 129.144 177.915 128.008 176.403C127.674 175.97 127.348 175.473 127.029 174.919C122.316 176.36 117.191 177.574 111.343 178.646L49.1824 195.573C46.9183 196.631 44.5761 197.589 42.0423 198.505C37.9896 199.96 34.1143 201.039 30.6933 201.997C29.586 202.309 28.5072 202.607 27.4497 202.912C27.2722 202.962 26.9528 203.061 26.4844 203.239C26.2005 203.345 25.9308 203.452 25.6469 203.572C25.6043 203.587 25.5688 203.608 25.5262 203.622C24.7597 203.934 23.8867 204.325 23.2124 204.63C22.7866 204.822 22.3962 204.999 22.0058 205.184C22.0058 205.184 20.3805 205.95 19.9192 206.177C19.543 206.355 18.2938 206.958 18.2938 206.958L16.0865 208.001C15.9658 208.065 15.8452 208.122 15.7174 208.179L15.5542 208.257C15.2206 208.413 14.8941 208.562 14.5818 208.704C13.2616 209.314 12.2538 209.747 11.4163 210.06C11.3453 210.088 11.2814 210.109 11.2175 210.131C10.9478 210.237 10.671 210.322 10.3871 210.407C9.52123 210.67 8.75469 210.805 7.98106 210.84C7.8604 210.84 7.73974 210.847 7.63327 210.847C7.34227 210.847 7.05127 210.833 6.76027 210.798C6.63962 210.784 6.52605 210.769 6.4054 210.748C4.31161 210.407 2.48044 209.201 1.37322 207.433C1.34483 207.391 1.32354 207.348 1.29515 207.306C1.03964 206.873 0.82671 206.404 0.663466 205.929C0.514417 205.51 0.407954 205.077 0.336978 204.644C0.280197 204.268 0.258905 203.963 0.251807 203.764C0.251807 203.729 0.251807 203.693 0.251807 203.665C0.24471 203.367 0.251807 203.061 0.2731 202.756C0.2731 202.756 0.2731 202.749 0.2731 202.742C0.280197 202.6 0.294392 202.458 0.315685 202.302C0.351173 202.025 0.407954 201.713 0.478929 201.365C0.486027 201.322 0.53571 201.117 0.549905 201.088C0.599588 200.882 0.649271 200.705 0.706051 200.52C0.748637 200.386 0.777027 200.293 0.805417 200.194C0.848003 200.066 0.911881 199.875 0.982856 199.676C0.982856 199.655 1.08222 199.399 1.08222 199.399C1.1461 199.222 1.20998 199.051 1.28095 198.881L1.58615 198.136L1.69261 197.894C1.77778 197.689 2.11137 196.95 2.11137 196.95L2.45205 196.226C2.74305 195.609 3.06954 194.956 3.41732 194.275C3.43861 194.239 3.70832 193.714 3.71542 193.707C6.14988 189.044 10.0393 182.542 12.8287 179.285C12.9139 179.192 12.999 179.086 13.0913 178.986C13.2191 178.844 13.3397 178.717 13.4533 178.589C13.6023 178.433 13.723 178.305 13.8507 178.184C13.9785 178.057 14.1134 177.929 14.2411 177.815C14.4753 177.602 14.7095 177.404 14.9509 177.219C15.036 177.155 15.1141 177.091 15.1993 177.035C17.2931 175.558 20.6147 173.976 25.8527 171.548C28.5711 170.285 31.6514 168.858 32.9148 168.099C33.8162 167.524 37.1237 164.635 39.7852 162.314C46.2795 156.65 55.1728 148.886 63.0298 143.91C69.8931 139.559 75.2802 138.353 78.5025 137.636C78.7438 137.579 79.0348 137.515 79.2832 137.459C79.8439 136.926 80.7311 136.039 81.9448 134.818C81.9448 134.818 85.2168 131.489 86.0685 130.624C85.8981 127.813 87.0053 124.449 90.5115 121.645C92.7473 119.353 95.6786 117.053 98.546 115.293C98.7092 114.91 98.9009 114.519 99.1351 114.136C100.768 110.758 104.011 108.862 106.829 107.585C109.334 106.165 112.003 104.987 114.196 104.327C114.501 104.235 114.799 104.143 115.098 104.064C115.083 103.653 115.09 103.312 115.098 103.057C114.899 102.702 114.608 102.226 114.388 101.871C114.182 101.545 113.99 101.225 113.806 100.913C105.97 87.6549 101.896 75.1277 101.704 63.6865C101.704 63.5232 101.704 63.0193 101.704 63.0193V62.8064C101.704 62.5012 101.704 62.196 101.704 61.8908C101.712 61.4081 101.733 60.9255 101.754 60.4429C101.754 60.4429 101.775 59.9177 101.782 59.8325C100.193 59.2434 98.8228 58.0865 97.9782 56.5108C96.4877 53.7002 97.0413 50.2437 99.3409 48.0505C99.9584 47.4614 100.519 46.9078 101.03 46.3968C102.826 44.6224 104.437 43.0325 106.389 41.9608C106.424 41.8827 106.46 41.8047 106.502 41.7266C107.212 40.3213 107.943 39.0437 108.724 37.8513C107.418 35.715 106.992 33.245 107.553 30.8105C106.864 29.242 106.517 27.5244 106.552 25.7642C106.644 21.7469 108.71 18.0775 112.372 15.423C113.422 14.6636 114.672 14.2022 115.963 14.0958C117.851 10.405 121.308 7.63698 125.581 6.55815C126.148 6.4162 126.73 6.34522 127.312 6.34522C128.15 6.34522 128.952 6.48717 129.69 6.74269C130.279 6.01164 130.946 5.30898 131.677 4.64181C135.013 1.61115 139.307 0.0141954 144.112 0.0141954C147.533 0.0141954 150.33 0.837513 151.43 1.21368C151.813 1.34144 152.083 1.4479 152.218 1.49759C154.666 2.50544 156.27 4.71988 156.597 7.18983C157.527 7.5873 158.371 8.1764 159.067 8.93583C159.557 9.47525 160.238 10.3979 160.628 11.6826C162.176 12.1155 163.73 12.5059 165.37 12.9176C168.485 13.6983 171.708 14.5074 174.951 15.6501C175.732 15.9198 176.477 16.1966 177.208 16.4876C193.135 22.6057 205.762 32.9114 214.769 47.142C215.344 46.702 215.904 46.3116 216.451 45.978C219.971 43.8204 224.379 42.7557 229.915 42.7415H230.135C232.179 42.7415 234.138 42.8835 235.799 43.0609C236.132 42.8693 236.466 42.6848 236.799 42.5002C238.567 41.4711 239.844 40.8252 240.455 40.5271C243.585 39.0082 246.523 38.2701 249.433 38.2701C253.919 38.2701 258.163 40.1083 261.712 43.5791C261.726 43.5932 261.747 43.6145 261.769 43.6358C263.153 44.9347 264.444 46.3755 265.807 47.8944C269.704 52.2452 274.069 57.1141 282.458 60.7907C286.277 59.1369 291.209 58.0723 296.398 56.9509C299.613 56.2553 302.92 55.5385 305.958 54.6867C305.894 54.5874 305.837 54.4809 305.774 54.3816C305.021 53.1111 304.361 51.6632 303.8 50.0662C303.24 48.4622 302.786 46.7091 302.452 44.8566C301.884 42.4292 301.636 38.625 301.87 35.9776C301.969 30.1221 307.406 25.8848 312.133 24.7705C313.02 24.0182 313.993 23.3723 314.951 22.7974C315.263 22.5419 315.597 22.3147 315.959 22.116C319.628 20.0648 325.484 17.68 329.92 17.68C332.113 17.68 334.008 18.2478 335.562 19.3622C338.273 21.314 341.588 26.1261 343.043 28.3619C343.1 28.4399 343.156 28.5251 343.206 28.6032C344.86 31.1583 347.181 35.0904 348.82 39.2779C349.949 42.1241 350.616 44.7998 350.801 47.2059C350.942 49.1152 350.886 50.9321 350.637 52.6214C350.609 52.8059 350.573 52.9904 350.531 53.175C350.41 53.906 350.247 54.6229 350.055 55.3042C349.956 56.163 349.715 57.0006 349.338 57.7955C348.721 59.1014 347.926 60.3861 346.904 61.7275C345.321 63.9349 343.49 65.7377 341.56 67.6398C341.354 67.8456 341.141 68.0515 340.928 68.2644C343.27 68.2076 345.563 68.1366 347.805 68.0657C350.29 67.9876 352.724 67.9166 355.095 67.8598C355.095 67.8598 356.578 67.8314 356.599 67.8314C357.43 67.8172 358.246 67.803 359.062 67.7959H361.213H362.412C362.98 67.7959 363.555 67.8101 364.13 67.8172L364.783 67.8314L366.479 67.8811L367.125 67.9024C377.395 68.2857 390.653 69.911 402.031 79.1946C412.478 87.7188 420.307 101.46 426.659 122.447C427.596 125.535 426.326 128.871 423.572 130.553C422.422 131.255 421.145 131.596 419.867 131.596C419.682 131.596 419.491 131.589 419.306 131.575C417.695 131.461 416.134 130.808 414.899 129.637C403.677 118.962 395.792 116.975 388.95 116.421C387.559 116.308 386.068 116.258 384.4 116.258C381.441 116.258 378.282 116.428 374.946 116.613C372.796 116.734 370.603 116.854 368.317 116.939C368.821 118.842 369.808 121.07 371.419 123.42C376.011 130.113 380.497 138.048 378.921 146.153C377.963 151.086 374.932 155.273 369.907 158.609C367.984 159.88 365.826 160.057 363.782 160.057C363.129 160.057 362.398 160.036 361.61 159.993C358.189 159.809 350.275 159.028 335.889 155.834L335.427 155.728C334.235 155.458 333.021 155.181 331.758 154.89C331.687 154.876 331.623 154.862 331.552 154.848L328.181 154.031C327.357 153.833 326.527 153.62 325.668 153.407L325.271 153.307C324.412 153.087 323.532 152.867 322.637 152.633L321.913 152.449C321.14 152.243 320.359 152.044 319.571 151.831L318.528 151.554C317.648 151.32 316.746 151.072 315.838 150.823L314.937 150.575C314.099 150.348 313.254 150.106 312.396 149.865C312.254 149.851 312.112 149.83 311.97 149.801C311.87 149.787 311.771 149.773 311.672 149.766C311.601 149.759 311.494 149.744 311.43 149.73C311.345 149.716 311.246 149.709 311.154 149.702C311.09 149.702 311.019 149.688 310.948 149.681C310.834 149.681 310.721 149.666 310.607 149.659C310.479 149.645 310.344 149.638 310.217 149.631C310.174 149.631 310.139 149.631 310.096 149.631C309.876 149.624 309.663 149.617 309.443 149.617C309.294 149.617 309.145 149.617 309.003 149.617C320.21 154.741 326.584 165.387 323.95 175.764C323.901 176.048 323.837 176.325 323.752 176.602C323.447 177.609 323.07 178.546 322.63 179.405C322.95 179.419 323.276 179.434 323.596 179.448C324.249 179.476 324.909 179.497 325.576 179.519C326.016 179.533 326.449 179.547 326.882 179.554C327.627 179.576 328.379 179.59 329.146 179.597H330.104C330.771 179.611 331.438 179.618 332.106 179.618H333.042C335.236 179.604 337.45 179.554 339.608 179.469C339.7 179.469 339.785 179.469 339.877 179.469C339.984 179.469 340.09 179.469 340.197 179.469C343.114 179.554 345.69 181.421 346.67 184.21C346.982 185.097 347.11 186.013 347.06 186.914C346.975 189.001 345.967 191.003 344.228 192.316L342.802 193.394C332.517 201.181 319.713 210.869 303.85 210.869C303.552 210.869 303.247 210.869 302.935 210.854C303.552 210.996 304.184 211.124 304.83 211.231C308.073 211.784 310.813 212.388 313.212 213.09C315.121 213.644 316.824 214.261 318.407 214.964C318.45 214.985 318.5 214.999 318.542 215.021C318.599 215.049 318.698 215.092 318.776 215.127C319.096 215.269 319.422 215.432 319.749 215.596L320.111 215.78C320.409 215.929 320.707 216.093 321.005 216.263C321.126 216.327 321.225 216.384 321.324 216.44C321.708 216.66 322.077 216.887 322.446 217.115C322.531 217.171 322.623 217.235 322.715 217.292C322.999 217.477 323.269 217.661 323.539 217.853C323.539 217.853 323.539 217.853 323.553 217.86C323.993 218.122 324.398 218.42 324.76 218.761C324.845 218.832 324.937 218.903 325.022 218.974C325.263 219.173 325.505 219.372 325.739 219.57C325.916 219.719 326.08 219.868 326.25 220.025C326.463 220.216 326.69 220.422 326.91 220.635C327.031 220.756 327.329 221.047 327.329 221.047C327.513 221.231 327.677 221.394 327.833 221.565C327.968 221.707 328.11 221.849 328.244 221.998C328.422 222.189 328.578 222.367 328.734 222.544L328.798 222.615C328.905 222.736 329.011 222.856 329.117 222.977C329.352 223.254 329.607 223.552 329.856 223.857C329.955 223.985 330.246 224.347 330.246 224.347C330.395 224.531 330.523 224.702 330.658 224.872C330.8 225.057 330.927 225.234 331.062 225.404C331.204 225.603 331.637 226.199 331.687 226.27C332.844 225.83 334.157 225.532 335.633 225.532C337.344 225.532 339.004 225.937 340.573 226.739C341.048 226.98 341.489 227.229 341.914 227.477L342.106 227.591C342.518 227.839 342.936 228.109 343.32 228.371C343.355 228.393 343.405 228.435 343.44 228.456C343.824 228.726 344.157 228.975 344.477 229.23C344.512 229.258 344.569 229.301 344.59 229.322C344.945 229.606 345.286 229.904 345.612 230.202C345.626 230.217 345.69 230.273 345.712 230.295C346.357 230.898 346.918 231.487 347.479 232.133L347.607 232.282C347.841 232.566 348.075 232.85 348.302 233.141C348.309 233.155 348.359 233.219 348.366 233.226C348.565 233.482 348.756 233.737 348.948 234C348.969 234.028 349.026 234.106 349.026 234.106C349.218 234.369 349.409 234.638 349.608 234.915C349.615 234.922 350.85 236.675 350.85 236.675L351.163 237.108L351.752 237.896L351.943 238.145C352.078 238.315 352.213 238.485 352.355 238.656L352.646 238.996L352.859 239.245C353.079 239.493 353.299 239.742 353.533 239.99L353.632 240.096C354.938 241.466 356.436 242.772 358.239 244.107C358.565 244.348 358.934 244.603 359.332 244.866L359.743 245.136C360.042 245.327 360.368 245.533 360.709 245.746L360.822 245.817C361.227 246.066 361.681 246.342 362.15 246.619C363.165 247.222 364.236 247.84 365.308 248.464L366.586 249.203C367.111 249.508 367.664 249.834 368.211 250.154C368.253 250.175 368.289 250.203 368.331 250.225C368.921 250.572 369.496 250.92 370.049 251.261C370.099 251.289 370.816 251.736 370.83 251.751C373.378 253.355 375.053 254.618 376.259 255.853L376.309 255.903C376.501 256.101 376.671 256.293 376.834 256.485L376.983 256.662C377.147 256.854 377.296 257.06 377.438 257.251L377.608 257.493C377.8 257.776 377.942 258.011 378.062 258.238C378.162 258.422 378.233 258.571 378.304 258.713C378.417 258.955 378.545 259.239 378.673 259.601C378.793 259.941 378.864 260.239 378.914 260.452C378.957 260.63 379.035 260.963 379.077 261.389C379.162 262.156 379.134 262.915 378.999 263.667C378.971 263.809 378.942 263.951 378.907 264.093C378.871 264.228 378.836 264.37 378.793 264.505C378.587 265.179 378.297 265.825 377.906 266.428C377.757 266.656 377.58 266.904 377.409 267.11C377.133 267.45 376.834 267.777 376.508 268.068C376.323 268.231 376.16 268.366 375.983 268.501C375.72 268.7 375.45 268.884 375.159 269.055C375.074 269.104 374.946 269.182 374.804 269.26C374.762 269.282 374.719 269.303 374.684 269.324C374.535 269.402 374.379 269.473 374.215 269.551C374.066 269.622 373.917 269.686 373.747 269.757C373.555 269.835 373.364 269.906 373.158 269.97C373.129 269.977 373.058 270.006 373.03 270.013C372.895 270.055 372.76 270.098 372.633 270.133C372.576 270.148 372.519 270.169 372.462 270.183C372.349 270.211 372.1 270.275 372.1 270.275C372.1 270.275 371.845 270.339 371.816 270.346C371.816 270.346 371.014 270.517 370.986 270.524L370.624 270.588C370.461 270.616 370.014 270.68 370.014 270.68C369.893 270.701 369.779 270.715 369.659 270.722C369.424 270.751 369.176 270.779 368.921 270.801L367.941 270.886C367.856 270.886 367.643 270.9 367.643 270.9C367.395 270.914 367.082 270.928 366.756 270.942H366.507C366.153 270.964 365.755 270.971 365.351 270.971H364.584C359.46 270.957 353.753 270.211 348.948 268.927C340.594 266.691 333.49 263.49 328.784 261.368C327.478 260.779 325.86 260.048 325.32 259.863C310.635 256.215 296.781 254.867 284.552 253.681C281.322 253.369 278.207 253.064 275.211 252.737C275.431 252.837 275.644 252.936 275.85 253.035C281.528 255.69 282.877 256.314 284.204 258.295C284.41 258.607 284.602 258.933 284.758 259.281C284.616 258.99 284.46 258.699 284.275 258.429C284.46 258.713 284.623 259.004 284.765 259.31C285.077 259.984 285.283 260.701 285.375 261.425C285.411 261.701 285.432 261.985 285.432 262.262C285.432 261.439 285.276 260.63 284.992 259.863C285.283 260.658 285.432 261.488 285.432 262.333C285.432 262.908 285.361 263.476 285.226 264.029C284.985 265.009 284.559 265.939 283.941 266.79C283.828 266.954 283.615 267.245 283.317 267.571C283.232 267.663 283.154 267.749 283.061 267.834C282.728 268.167 282.366 268.48 281.968 268.764C281.848 268.849 281.699 268.948 281.564 269.04C281.337 269.189 281.088 269.338 280.826 269.487C280.662 269.573 280.535 269.637 280.407 269.7C280.237 269.786 279.995 269.899 279.733 270.013C279.64 270.055 279.548 270.091 279.456 270.126C279.257 270.204 279.002 270.297 278.725 270.389C278.583 270.439 278.37 270.51 278.107 270.588C278.015 270.616 277.923 270.644 277.823 270.673L277.085 270.864C277.085 270.864 277 270.886 276.957 270.893C276.624 270.971 276.269 271.049 275.893 271.12C275.786 271.141 275.623 271.17 275.46 271.205C275.46 271.205 274.885 271.304 274.835 271.312C274.516 271.361 274.126 271.418 273.714 271.475L273.387 271.517C271.428 271.759 269.122 271.922 266.538 271.993L265.239 272.021L263.919 272.035H263.486C263.486 272.035 262.464 272.035 262.45 272.035L262.5 272Z"
            fill="white" />
        <path
            d="M267.766 77.7609C256.949 77.328 242.868 76.1569 230.951 76.4976C239.702 71.2737 247.957 68.5199 252.762 68.7683C256.147 68.9386 257.489 70.6776 267.766 77.7609Z"
            fill="#FF0F0F" />
        <path
            d="M361.454 110.005C359.864 114.448 361.007 120.893 365.528 127.479C372.689 137.913 375.607 146.331 365.947 152.74C364.548 153.669 347.784 152.569 313.283 142.782C313.276 142.782 313.261 142.782 313.254 142.775C302.871 141.149 295.475 146.323 293.232 152.101C296.213 153.052 299.102 153.904 301.792 154.62C311.551 157.204 319.337 165.387 317.016 174.188C316.633 175.643 315.419 178.852 312.907 178.461C309.315 177.908 305.589 177.169 301.763 176.268H301.749C296.419 176.339 292.714 178.66 290.237 182.329C304.361 185.474 320.863 187.333 339.927 186.616C329.756 194.282 317.953 203.743 303.8 203.743C297.008 203.743 285.034 199.151 272.202 192.5C272.202 192.436 272.202 192.372 272.195 192.316C272.188 191.996 272.174 191.684 272.152 191.372C272.138 191.13 272.124 190.889 272.103 190.648C272.089 190.406 272.067 190.172 272.046 189.938C271.847 187.511 271.478 185.275 270.988 183.295C270.385 180.853 269.626 178.653 268.767 176.595C268.696 176.403 268.618 176.225 268.54 176.041C266.694 171.719 264.423 167.992 262.23 163.847C262.053 163.521 261.875 163.187 261.705 162.854C260.952 161.399 260.214 159.88 259.505 158.262C259.306 157.821 259.114 157.367 258.93 156.913C258.738 156.437 258.539 155.955 258.355 155.458C258.17 154.975 257.986 154.479 257.808 153.975C257.631 153.471 257.453 152.953 257.283 152.427C257.106 151.874 256.985 151.221 256.914 150.49C256.9 150.312 256.886 150.135 256.871 149.95C256.864 149.844 256.857 149.737 256.85 149.631C256.843 149.524 256.843 149.411 256.836 149.297C256.836 149.205 256.836 149.113 256.829 149.028C256.822 148.9 256.822 148.779 256.822 148.651C256.822 148.424 256.815 148.19 256.822 147.949V147.715C256.829 147.069 256.857 146.394 256.886 145.685C256.921 144.982 256.964 144.251 257.006 143.506C257.056 142.746 257.106 141.98 257.155 141.199C257.205 140.411 257.255 139.616 257.297 138.807C257.318 138.509 257.333 138.211 257.347 137.913C257.361 137.643 257.368 137.366 257.375 137.089V137.068C257.397 136.649 257.411 136.231 257.418 135.805C257.432 135.322 257.439 134.84 257.439 134.364V134.059C257.439 133.718 257.439 133.37 257.432 133.03C257.425 132.689 257.418 132.341 257.397 132.001V131.908C257.389 131.809 257.389 131.717 257.382 131.624C257.382 131.596 257.382 131.568 257.375 131.539C257.354 131 257.318 130.467 257.269 129.942C257.24 129.651 257.212 129.36 257.169 129.076C257.169 129.005 257.155 128.934 257.141 128.863C257.084 128.388 257.013 127.912 256.928 127.451C256.793 126.67 256.616 125.918 256.403 125.194C257.12 124.974 257.837 124.761 258.546 124.548C258.553 124.548 258.553 124.555 258.561 124.548C265.147 122.554 271.379 120.609 276.695 119.303C288.86 116.301 292.16 111.794 299.215 104.739C300.649 103.305 302.778 100.793 305.298 97.7193C291.358 92.2612 280.989 86.349 273.955 81.8704C271.805 80.5077 269.973 79.2727 268.44 78.2223C268.213 78.0661 267.986 77.91 267.766 77.7609C257.489 70.6776 256.147 68.9387 252.762 68.7683C247.957 68.5199 239.702 71.2738 230.951 76.4976C221.256 82.2821 210.95 91.0902 204.058 102.191C198.373 111.347 193.455 112.482 193.206 109.601V109.586C193.171 109.246 193.213 108.841 193.32 108.394C196.152 97.0947 205.705 81.473 217.054 68.5767C223.548 61.2023 230.625 54.7293 237.374 50.4566C240.327 48.5899 243.223 47.142 245.977 46.2335C259.263 41.8473 258.575 59.8041 282.863 68.6619C284.779 69.3645 286.859 70.0104 289.108 70.5782C301.685 73.7721 313.283 75.0071 323.993 75.3832C371.142 77.0512 400.924 62.1179 419.824 124.548C398.077 103.859 384.798 110.126 361.454 110.005Z"
            fill="#FF0F0F" />
        <path
            d="M237.374 50.4566C230.625 54.7293 223.548 61.2023 217.054 68.5767C205.705 81.473 196.152 97.0947 193.32 108.394C193.213 108.841 193.171 109.246 193.206 109.586V109.601C192.156 116.088 183.071 120.957 185.505 112.865C185.803 111.865 186.116 110.871 186.442 109.877C193.355 88.5066 204.789 69.18 213.143 58.9808C215.926 55.581 218.367 53.1892 220.177 52.0819C225.017 49.1152 232.562 49.8036 237.374 50.4566Z"
            fill="#FF0F0F" />
        <path opacity="0.32"
            d="M402.741 89.8694C382.037 79.5992 356.855 85.4689 332.773 84.674C312.665 84.0139 294.098 76.9305 280.677 67.8101C281.379 68.1011 282.11 68.385 282.863 68.6618C284.779 69.3645 286.859 70.0104 289.109 70.5782C301.685 73.7721 313.283 75.0071 323.993 75.3832C358.871 76.6182 384.244 68.7683 402.741 89.8694Z"
            fill="white" />
        <g style="mix-blend-mode:multiply" opacity="0.5">
            <path
                d="M313.325 142.874C313.325 142.874 313.276 142.874 313.254 142.874C313.013 142.831 312.772 142.803 312.538 142.775C312.303 142.739 312.069 142.718 311.842 142.697C311.672 142.675 311.501 142.661 311.331 142.654C311.033 142.626 310.735 142.604 310.444 142.597C309.599 142.562 308.776 142.576 307.981 142.626C307.747 142.64 307.512 142.661 307.278 142.682C300.067 143.392 295.021 147.608 293.232 152.2C295.738 152.995 298.179 153.726 300.486 154.365C286.355 150.894 270.981 151.086 256.992 145.216C256.985 145.195 256.992 145.174 256.992 145.152C257.006 144.847 257.027 144.542 257.042 144.23C257.049 144.137 257.056 144.038 257.056 143.939C257.091 143.484 257.12 143.023 257.148 142.547C257.169 142.256 257.191 141.951 257.205 141.653C257.226 141.355 257.247 141.057 257.262 140.759V140.745C257.283 140.44 257.304 140.141 257.318 139.836C257.404 138.452 257.475 137.047 257.496 135.634C257.538 133.974 257.524 132.306 257.397 130.695C257.361 130.191 257.311 129.687 257.247 129.197C257.247 129.034 257.219 128.878 257.191 128.721C257.184 128.608 257.162 128.494 257.141 128.388C257.148 128.374 257.148 128.352 257.134 128.338C257.127 128.26 257.12 128.182 257.098 128.111C257.106 128.083 257.098 128.054 257.084 128.026C257.07 127.877 257.049 127.742 257.013 127.6C257.02 127.593 257.013 127.586 257.013 127.586C256.992 127.437 256.964 127.295 256.928 127.153C256.914 127.046 256.893 126.94 256.864 126.841C256.871 126.819 256.864 126.791 256.85 126.77C256.843 126.692 256.822 126.606 256.793 126.528C256.772 126.386 256.736 126.244 256.694 126.102C256.68 126.031 256.665 125.96 256.637 125.897C256.644 125.897 256.644 125.875 256.63 125.868C256.609 125.74 256.573 125.613 256.531 125.492C256.516 125.421 256.502 125.357 256.481 125.293C257.198 125.08 257.915 124.867 258.617 124.655C258.624 124.655 258.624 124.662 258.632 124.655C280.322 132.803 298.477 138.672 313.325 142.881V142.874Z"
                fill="#3F2719" />
        </g>
        <g style="mix-blend-mode:multiply" opacity="0.5">
            <path
                d="M299.563 176.431C297.391 176.744 295.532 177.475 293.942 178.553C293.935 178.561 293.928 178.568 293.921 178.568C292.473 179.434 291.266 180.669 290.237 182.322C288.172 181.868 286.149 181.378 284.183 180.867C278.59 179.412 273.402 177.773 268.611 176.041C267.347 173.088 265.885 170.405 264.395 167.687C277.241 172.442 288.534 174.678 299.563 176.431Z"
                fill="#3F2719" />
        </g>
        <g style="mix-blend-mode:multiply" opacity="0.5">
            <path
                d="M267.716 77.7609C266.957 77.7254 266.176 77.69 265.374 77.6545C265.332 77.6474 265.282 77.6474 265.225 77.6474C265.154 77.6403 265.083 77.6403 265.005 77.6403C263.777 77.5764 262.514 77.5125 261.222 77.4486C260.818 77.4202 260.406 77.3989 259.994 77.3777C259.59 77.3564 259.178 77.3351 258.766 77.3138C258.255 77.2854 257.737 77.257 257.219 77.2286C256.886 77.2073 256.545 77.186 256.204 77.1718C255.8 77.1505 255.395 77.1292 254.99 77.108C254.032 77.0512 253.074 77.0015 252.102 76.9589C251.775 76.9376 251.449 76.9163 251.122 76.9021H251.058C251.058 76.9021 251.044 76.895 251.03 76.895C250.696 76.8808 250.356 76.8666 250.015 76.8524C248.972 76.7957 247.928 76.7531 246.878 76.7105C246.559 76.6963 246.232 76.6821 245.913 76.6679C245.018 76.6324 244.131 76.5969 243.237 76.5756C242.776 76.5543 242.307 76.5401 241.846 76.533C241.604 76.526 241.37 76.5189 241.129 76.5118H241.101C240.93 76.5118 240.767 76.5118 240.597 76.4976C240.249 76.4905 239.908 76.4834 239.56 76.4763H239.404C238.978 76.4621 238.553 76.455 238.127 76.455H238.084C237.736 76.4479 237.389 76.4479 237.041 76.4479C236.849 76.4408 236.657 76.4408 236.473 76.4408H235.962C235.139 76.4337 234.322 76.4408 233.52 76.4479C232.846 76.455 232.186 76.4621 231.526 76.4834C231.349 76.4905 231.178 76.4976 231.008 76.4976C239.752 71.2808 247.999 68.527 252.804 68.7754C252.883 68.7825 252.968 68.7825 253.046 68.7896C253.067 68.7896 253.095 68.7967 253.117 68.7967C253.23 68.8109 253.337 68.818 253.436 68.8322C253.472 68.8322 253.5 68.8322 253.528 68.8464C253.606 68.8606 253.685 68.8748 253.763 68.889C253.897 68.9103 254.032 68.9387 254.167 68.967C254.245 68.9883 254.33 69.0096 254.408 69.0309C254.423 69.038 254.43 69.038 254.444 69.0451C254.465 69.0522 254.487 69.0522 254.508 69.0593C254.742 69.1303 254.969 69.2155 255.203 69.3077C255.317 69.3574 255.438 69.4071 255.558 69.4639C255.608 69.4852 255.665 69.5136 255.722 69.5419C255.75 69.5561 255.785 69.5774 255.821 69.5916C255.863 69.6129 255.899 69.6271 255.942 69.6555H255.949C256.069 69.7194 256.19 69.7833 256.311 69.8542C256.353 69.8755 256.396 69.9039 256.445 69.9252C256.531 69.9749 256.616 70.0246 256.701 70.0814C256.751 70.1098 256.8 70.1381 256.857 70.1736C256.878 70.1807 256.9 70.1949 256.921 70.2091C257.077 70.3085 257.233 70.4078 257.404 70.5143C257.482 70.564 257.56 70.6137 257.645 70.6705C257.9 70.8408 258.17 71.0182 258.454 71.217C258.49 71.2383 258.518 71.2596 258.553 71.2879C258.667 71.3589 258.781 71.437 258.894 71.5222C258.965 71.5648 259.029 71.6144 259.1 71.6641C259.228 71.7564 259.363 71.8487 259.497 71.9409C259.71 72.0971 259.937 72.2532 260.172 72.4236C261.648 73.4669 263.493 74.8012 265.907 76.4976C266.19 76.6963 266.489 76.9021 266.794 77.115C267.021 77.2712 267.262 77.4344 267.504 77.6048C267.567 77.6545 267.638 77.7041 267.709 77.7609H267.716Z"
                fill="#3F2719" />
        </g>
        <g style="mix-blend-mode:multiply" opacity="0.38">
            <path
                d="M371.192 138.296C364.456 125.911 358.863 124.555 342.071 120.389C325.278 116.223 314.582 113.533 302.984 109.984C300.5 109.224 297.498 109.097 294.467 109.437C294.616 109.288 294.765 109.139 294.921 108.99C296.05 107.869 297.207 106.662 298.484 105.37C298.704 105.158 298.924 104.93 299.144 104.71C299.294 104.561 299.457 104.391 299.627 104.221C299.79 104.043 299.961 103.859 300.138 103.667C300.237 103.561 300.33 103.461 300.429 103.355C300.614 103.149 300.805 102.929 301.004 102.702C301.004 102.702 301.006 102.702 301.011 102.702C301.21 102.475 301.416 102.24 301.629 101.992C301.629 101.992 301.629 101.99 301.629 101.985C301.842 101.744 302.062 101.488 302.289 101.218C302.629 100.814 302.984 100.395 303.353 99.955C303.715 99.5221 304.091 99.0678 304.475 98.5994C304.716 98.3084 304.964 98.0103 305.213 97.7051C314.766 101.438 325.995 104.959 338.969 107.649C347.465 109.416 354.775 109.948 361.291 109.991H361.298C359.708 114.434 360.851 120.872 365.372 127.458C368.041 131.355 370.127 134.967 371.185 138.303L371.192 138.296Z"
                fill="#3F2719" />
        </g>
        <g style="mix-blend-mode:multiply" opacity="0.23">
            <path
                d="M370.063 148.751C369.077 150.149 367.671 151.469 365.798 152.711C365.493 152.91 364.478 153.016 362.717 152.96C362.433 152.96 362.121 152.938 361.788 152.924C361.546 152.91 361.298 152.889 361.035 152.874C360.971 152.867 360.9 152.86 360.836 152.86C360.68 152.846 360.524 152.832 360.361 152.818C360.283 152.818 360.198 152.811 360.113 152.803C359.864 152.775 359.602 152.754 359.332 152.725C357.969 152.598 356.379 152.406 354.569 152.151C354.406 152.129 354.236 152.108 354.073 152.08C353.42 151.987 352.738 151.881 352.028 151.767C351.808 151.732 351.581 151.696 351.354 151.661C350.879 151.583 350.389 151.498 349.892 151.419C349.431 151.334 348.962 151.256 348.487 151.171C347.713 151.029 346.911 150.887 346.074 150.731C345.3 150.582 344.491 150.426 343.667 150.263C343.078 150.142 342.482 150.021 341.872 149.901C340.722 149.659 339.522 149.404 338.28 149.134C337.94 149.056 337.592 148.978 337.244 148.907C335.981 148.623 334.668 148.318 333.312 148.006C333.291 147.998 333.262 147.991 333.234 147.991C329.458 147.097 325.342 146.068 320.877 144.875C318.421 144.223 315.866 143.513 313.205 142.76C313.198 142.76 313.183 142.76 313.176 142.753C298.328 138.544 280.173 132.675 258.482 124.527C258.681 124.463 258.88 124.399 259.072 124.342C260.023 124.051 260.967 123.767 261.896 123.483C262.613 123.271 263.316 123.058 264.019 122.845C264.161 122.802 264.302 122.759 264.437 122.717C265.204 122.49 265.956 122.263 266.709 122.043C268.1 121.624 269.462 121.226 270.783 120.85C271.563 120.623 272.33 120.41 273.082 120.204C274.303 119.871 275.481 119.566 276.624 119.282C277.319 119.111 277.987 118.934 278.632 118.749C278.675 120.559 280.137 122.419 283.594 124.144C297.668 131.142 345.683 147.296 370.063 148.751Z"
                fill="#3F2719" />
        </g>
        <g style="mix-blend-mode:multiply" opacity="0.23">
            <path
                d="M419.824 124.378C407.886 113.057 398.489 109.863 388.574 109.26C388.254 109.239 387.935 109.224 387.616 109.21C387.105 109.182 386.601 109.168 386.082 109.153C385.529 109.146 384.975 109.139 384.415 109.139C383.911 109.139 383.414 109.146 382.903 109.153C382.583 109.161 382.264 109.168 381.938 109.175C381.618 109.182 381.292 109.189 380.965 109.203C380.561 109.217 380.149 109.232 379.73 109.253C379.177 109.274 378.609 109.302 378.041 109.324C377.161 109.366 376.267 109.409 375.365 109.466C374.89 109.487 374.414 109.515 373.931 109.544C373.016 109.593 372.086 109.643 371.135 109.686C370.659 109.714 370.184 109.735 369.701 109.757C369.247 109.778 368.786 109.799 368.324 109.814C367.998 109.828 367.671 109.842 367.338 109.849C366.99 109.863 366.635 109.877 366.28 109.885C365.571 109.906 364.847 109.92 364.116 109.927C363.498 109.934 362.873 109.941 362.242 109.941H361.489C354.967 109.906 347.656 109.366 339.16 107.606C326.52 104.987 314.773 101.296 305.333 97.6554C305.064 97.5418 304.794 97.4425 304.531 97.336C290.996 91.9702 280.889 86.1999 273.991 81.8065C271.84 80.4438 270.009 79.2088 268.476 78.1584C268.284 78.0235 268.085 77.8887 267.901 77.7609C270.059 77.8461 272.088 77.9029 273.941 77.91C276.95 79.7695 280.244 81.6717 283.601 83.4319C299.002 91.5373 316.973 98.2232 339.16 102.127C361.34 106.031 376.742 99.5079 392.513 101.325C402.073 102.425 410.03 107.649 416.829 115.392C417.865 118.196 418.859 121.184 419.824 124.378Z"
                fill="#3F2719" />
        </g>
        <g style="mix-blend-mode:multiply" opacity="0.31">
            <path
                d="M340.005 186.701C329.834 194.374 318.045 203.821 303.9 203.821C303.502 203.821 303.091 203.807 302.665 203.778C299.663 203.558 295.858 202.614 291.522 201.102C291.479 201.088 291.429 201.067 291.38 201.053C285.829 199.065 279.378 196.084 272.372 192.394C272.372 192.323 272.372 192.252 272.358 192.181C272.358 191.932 272.344 191.691 272.323 191.45C272.174 188.717 271.01 180.576 268.547 176.041C271.968 177.34 275.197 178.27 279.697 179.639C274.942 194.509 305.539 198.05 314.376 196.063C322.332 194.267 329.756 190.917 336.3 186.815C337.521 186.787 338.763 186.751 340.012 186.701H340.005Z"
                fill="#3F2719" />
        </g>
        <g style="mix-blend-mode:multiply" opacity="0.23">
            <path
                d="M317.016 174.607C316.59 176.02 315.554 178.404 313.623 178.568C313.517 178.568 313.403 178.568 313.29 178.568C313.219 178.561 313.148 178.546 313.077 178.539C312.601 178.468 312.126 178.39 311.65 178.326C311.594 178.312 311.544 178.305 311.487 178.298C308.371 177.773 305.156 177.12 301.863 176.346H301.849C301.096 176.346 300.387 176.41 299.698 176.509C299.329 176.453 298.953 176.389 298.577 176.332C296.866 176.055 295.149 175.764 293.417 175.459C293.161 175.409 292.906 175.367 292.65 175.317C291.692 175.147 290.727 174.962 289.761 174.77C289.151 174.65 288.534 174.529 287.916 174.401C287.533 174.323 287.142 174.238 286.752 174.16C285.744 173.94 284.736 173.72 283.721 173.486C282.195 173.138 280.648 172.762 279.094 172.35C277.369 171.903 275.623 171.42 273.849 170.888C273.089 170.661 272.33 170.427 271.556 170.185C270.257 169.781 268.951 169.348 267.624 168.887C267.142 168.723 266.659 168.553 266.176 168.376C265.616 168.177 265.055 167.978 264.494 167.765C263.713 166.346 262.918 164.919 262.138 163.429C262.038 163.244 261.946 163.059 261.854 162.875C261.691 162.57 261.534 162.257 261.378 161.945C261.201 161.604 261.031 161.257 260.867 160.909C260.463 160.078 260.065 159.227 259.675 158.34C259.632 158.24 259.59 158.141 259.54 158.034C259.49 157.914 259.434 157.786 259.384 157.658C259.285 157.438 259.192 157.211 259.1 156.991C258.873 156.43 258.646 155.855 258.426 155.266C258.277 154.869 258.128 154.464 257.986 154.053C257.801 153.549 257.631 153.031 257.46 152.505C256.928 150.837 256.928 148.282 257.084 145.287C259.022 146.103 260.988 146.799 262.975 147.402C263.231 147.487 263.479 147.565 263.735 147.636C270.392 149.673 277.149 150.596 283.885 151.505C284.027 151.526 284.162 151.54 284.296 151.561C289.804 152.349 295.283 153.13 300.578 154.436C300.01 154.28 299.435 154.117 298.853 153.946C299.528 154.095 300.202 154.251 300.876 154.422C300.919 154.429 300.961 154.443 301.004 154.457C301.302 154.542 301.6 154.62 301.891 154.699C307.896 156.288 313.155 160 315.767 164.671C310.87 161.477 301.522 159.532 291.458 158.127C278.469 156.317 269.448 152.796 269.406 158.127C269.384 161.235 270.861 165.373 279.25 167.765C291.394 171.222 310.38 175.558 317.016 174.607Z"
                fill="#3F2719" />
        </g>
        <path
            d="M220.255 78.1868C220.127 78.2223 220 78.2578 219.872 78.3003C219.815 78.3145 219.765 78.3358 219.716 78.35C214.719 79.9683 210.766 82.6299 207.501 86.0296C204.058 89.5997 201.368 93.9789 199.005 98.8194C197.025 100.714 193.44 104.178 191.936 105.619C179.401 117.756 149.286 126.535 127.241 126.046C126.695 121.113 125.957 116.698 125.339 113.625C125.339 113.618 125.332 113.604 125.332 113.597C124.779 110.885 124.331 109.224 124.204 109.189C123.65 109.047 123.366 110.317 123.245 110.452C122.884 110.878 123.409 109.352 123.43 108.791C123.487 107.329 123.537 105.619 123.253 104.164C123.189 103.837 122.557 104.959 122.387 104.675C121.989 104.001 122.358 102.624 122.188 101.843C121.847 100.267 120.726 98.7129 119.924 97.3573C111.251 82.6866 104.806 64.602 111.712 47.8163C112.067 46.9362 112.464 46.0632 112.897 45.1973C113.004 44.9915 113.11 44.7785 113.217 44.5798C114.892 41.4001 116.936 38.7811 119.47 36.5738C119.484 36.5596 119.498 36.5454 119.512 36.5383C119.633 36.4389 119.746 36.3395 119.867 36.2402C118.256 37.1912 113.99 35.2465 114.665 32.5636C114.728 32.301 115.573 33.2308 117.511 33.0605C119.441 32.8972 120.513 32.0029 120.548 31.8681C120.641 31.499 119.853 31.5132 119.47 31.4919C114.331 31.2861 111.244 25.3312 116.716 21.3708C116.879 21.2501 117.695 23.5852 119.242 24.5221C121.343 25.7997 124.31 25.7429 124.253 25.0189C119.732 22.4567 121.485 15.1604 127.497 13.6486C127.603 13.6486 126.908 19.7028 133.821 20.4623C132.799 16.4309 133.942 12.5556 136.653 10.0856C141.898 5.30188 149.357 8.12671 149.528 8.19769C150.159 8.4603 146.149 10.3128 146.242 14.1454C146.305 17.0271 148.385 18.5459 150.323 18.8298C150.77 18.9008 151.678 18.8866 151.678 18.8866C151.678 18.8866 149.343 14.9475 153.85 13.8615C153.9 13.8474 153.46 15.6572 154.375 16.8212C155.213 17.8717 157.363 18.2691 158.393 18.5601C163.929 20.1429 169.401 21.1365 174.646 23.2303C200.055 32.9824 214.52 54.488 220.255 78.1868Z"
            fill="#CAA77A" />
        <path
            d="M335.172 64.0626C333.596 65.5957 330.232 69.0238 326.122 73.2256C319.791 71.0253 315.433 64.1975 315.079 59.1227C316.548 56.816 314.106 54.5093 311.899 50.8044C309.706 47.0994 308.705 40.9955 309.003 36.2899C308.904 33.5857 314.078 30.7325 315.504 31.8894C315.909 29.1852 328.919 23.4787 331.424 25.2815C332.517 26.0694 334.881 28.951 337.251 32.6204H337.258C339.111 35.4807 340.97 38.8308 342.22 42.0247C343.043 44.1043 343.597 46.12 343.731 47.9015C344.328 55.9075 340.211 59.0021 335.172 64.0626Z"
            fill="#B6B1AE" />
        <path
            d="M46.6699 188.973C38.9832 192.642 31.7224 194.353 25.4482 196.17C20.4444 197.618 7.96685 204.651 7.40614 203.75C7.08675 203.246 8.13719 200.719 9.74834 197.568C9.74834 197.568 9.75071 197.563 9.75544 197.554C12.6654 191.883 17.4208 184.21 19.3584 182.847C22.3607 180.725 33.0354 176.36 36.57 174.238C40.6795 176.538 46.3789 184.381 46.6699 188.973Z"
            fill="#B6B1AE" />
        <path
            d="M326.122 73.2256C316.974 82.5873 304.162 99.8769 299.294 104.746C292.239 111.801 288.931 116.308 276.773 119.31C270.882 120.765 263.862 122.994 256.481 125.194C259.107 134.009 255.729 147.338 257.361 152.427C258.717 156.643 260.356 160.135 262.038 163.35C260.569 179.774 241.725 193.657 223.47 202.302C206.344 210.407 189.693 213.779 189.65 213.814C184.867 214.474 180.26 214.63 175.867 214.268C169.117 211.16 163.773 207.732 159.322 204.24C146.731 194.374 141.827 182.067 138.754 175.31C137.355 174.735 134.609 173.422 133.672 172.187C133.005 171.307 131.99 169.341 130.975 166.147C129.555 161.711 128.143 154.911 127.703 145.443C127.277 136.387 127.32 129.403 127.724 131.305C127.596 129.488 127.426 127.692 127.241 125.968C149.286 126.457 179.401 117.678 191.936 105.541C193.44 104.1 197.025 100.636 199.005 98.7413C201.368 93.9008 204.058 89.5216 207.501 85.9515C210.766 82.5518 214.719 79.8902 219.716 78.2719C219.765 78.2578 219.815 78.2365 219.872 78.2223C222.91 77.2499 226.338 76.6608 230.234 76.5259C245.558 75.9865 264.728 78.0945 275.9 77.8958C277.845 74.1128 280.237 70.5853 283.076 68.5696C287.732 65.2621 299.897 64.0626 309.649 61.0675C311.807 60.4003 313.588 59.7544 315.079 59.1227C315.433 64.1975 319.791 71.0253 326.122 73.2256Z"
            fill="#FFDB1F" />
        <path
            d="M130.975 166.147C117.759 171.186 104.522 172.591 94.2661 174.274C89.4824 175.054 85.5006 177.411 78.5237 179.448C68.651 182.336 54.3707 185.623 46.6698 188.973C46.3788 184.381 40.6795 176.538 36.57 174.238C40.1117 172.116 55.0947 157.396 66.834 149.957C75.124 144.698 80.7878 144.883 82.8035 143.818C84.216 143.08 93.5918 132.682 101.903 125.251C110.129 117.898 117.134 114.477 125.339 113.547C125.957 116.62 126.695 121.035 127.241 125.968C127.426 127.692 127.596 129.488 127.724 131.305C127.319 129.403 127.277 136.387 127.703 145.443C128.143 154.911 129.555 161.711 130.975 166.147Z"
            fill="#FFDB1F" />
        <path
            d="M372.065 262.454C371.703 264.384 360.226 264.576 351.077 262.127C339.48 259.026 329.948 253.695 327.428 253.064C290.471 243.858 259.59 248.869 244.997 236.037C251.513 233.872 257.255 230.039 260.981 225.319C267.234 218.435 270.428 210.159 271.67 202.302C284.126 209.08 291.075 216.128 303.687 218.279C318.187 220.748 322.503 224.361 329.061 235.249C330.345 237.385 333.291 231.019 337.393 233.12C344.739 236.874 343.313 241.892 354.065 249.863C359.438 253.852 372.547 259.863 372.065 262.454Z"
            fill="#FFDB1F" />
        <g style="mix-blend-mode:multiply" opacity="0.23">
            <path
                d="M129.96 162.371C129.889 162.08 129.825 161.782 129.754 161.477C129.577 160.675 129.399 159.83 129.236 158.943C129.158 158.56 129.087 158.169 129.023 157.765C128.924 157.211 127.405 147.608 127.383 136.394C119.25 141.717 103.394 137.778 94.5358 132.235C98.4963 143.804 124.452 140.858 124.942 144.712C125.006 145.237 125.46 149.844 124.857 151.441C122.514 157.616 115.899 159.589 111.137 161.179C99.9868 164.898 90.7741 166.232 86.0542 166.019C72.576 165.409 63.7608 174.472 54.8108 177.489C51.1058 178.731 47.6848 180.498 44.207 182.443C44.2922 182.592 44.3773 182.734 44.4625 182.883C44.3773 182.734 44.2922 182.592 44.1999 182.45C39.2742 185.19 34.2207 188.284 28.0671 190.783C21.2677 193.536 15.3767 193.785 12.7009 192.266C11.9769 193.508 11.2672 194.771 10.6142 195.978C10.529 196.134 10.4439 196.297 10.3587 196.454C10.0961 196.965 9.83348 197.461 9.59216 197.937C9.52829 198.065 9.45731 198.192 9.40053 198.32C8.50624 200.109 7.83906 201.635 7.54806 202.628C7.50548 202.763 7.46999 202.884 7.4487 202.997C7.37063 203.359 7.36353 203.615 7.4416 203.743C7.52677 203.87 7.86746 203.828 8.41397 203.658C8.52043 203.629 8.63399 203.594 8.74755 203.544C8.81853 203.523 8.8895 203.494 8.96758 203.466C9.67733 203.203 10.6 202.799 11.6505 202.309C12.0337 202.139 12.4383 201.947 12.8499 201.755C12.8499 201.755 12.8523 201.753 12.857 201.748C13.6236 201.386 14.4327 201.003 15.2702 200.606C15.4193 200.535 15.5612 200.464 15.7103 200.393C16.0935 200.208 16.4768 200.024 16.8672 199.839C17.5627 199.505 18.2583 199.179 18.9468 198.852C19.401 198.64 19.8552 198.427 20.3024 198.228C21.1967 197.823 22.0626 197.44 22.8646 197.114C23.2621 196.943 23.6382 196.794 24.0002 196.659C24.5467 196.453 25.0507 196.283 25.4907 196.155C29.806 194.906 34.5827 193.707 39.6433 191.89C41.9429 191.059 44.3064 190.101 46.7053 188.958C46.6911 188.788 46.6769 188.611 46.6486 188.433C46.6344 188.313 46.6131 188.185 46.5847 188.057C46.4995 187.589 46.3646 187.106 46.2014 186.602C46.4924 187.447 46.6698 188.249 46.7124 188.966C54.4133 185.616 68.6936 182.329 78.5663 179.441C80.0923 178.994 81.4763 178.532 82.7539 178.078C83.4778 177.815 84.1734 177.56 84.8476 177.304C88.3751 175.97 91.1645 174.778 94.3087 174.267C94.7346 174.196 95.1675 174.125 95.6005 174.061C96.147 173.968 96.7006 173.883 97.2613 173.798C98.2833 173.642 99.3267 173.479 100.391 173.315C109.54 171.91 120.151 170.193 130.975 166.019C130.634 164.94 130.286 163.72 129.96 162.364V162.371ZM46.0169 186.105C45.8181 185.587 45.591 185.062 45.3355 184.523C45.5981 185.055 45.8252 185.58 46.0169 186.098H46.024L46.0169 186.105Z"
                fill="#3F2719" />
        </g>
        <g style="mix-blend-mode:multiply" opacity="0.23">
            <path
                d="M264.395 77.6048C235.359 79.8405 217.054 94.5183 204.882 108.323C201.894 111.709 199.686 113.334 196.308 114.122C195.463 115.087 194.193 116.599 192.021 117.862C189.899 119.104 187.471 118.21 185.846 116.876C186.052 117.018 186.307 117.089 186.584 117.096C186.676 117.103 186.769 117.103 186.875 117.096C189.004 116.975 192.596 113.717 193.334 109.821C193.391 110.168 193.526 110.438 193.738 110.637C193.987 110.892 194.356 111.02 194.817 111.013C194.86 111.013 194.903 111.013 194.952 111.013C196.89 110.921 200.389 108.394 204.229 102.205C211.12 91.1043 221.426 82.2892 231.121 76.5118C231.462 76.4976 231.81 76.4905 232.158 76.4834C232.434 76.4763 232.704 76.4692 232.981 76.4692C233.386 76.4621 233.79 76.455 234.195 76.455C234.266 76.4479 234.344 76.4479 234.422 76.455C234.72 76.4479 235.025 76.4479 235.323 76.4479C235.564 76.4479 235.806 76.4408 236.047 76.4479C236.352 76.4479 236.657 76.4479 236.963 76.455H236.97C237.183 76.455 237.403 76.455 237.616 76.455C237.687 76.455 237.751 76.455 237.821 76.455H237.85C238.112 76.455 238.368 76.4621 238.631 76.4621C238.922 76.4621 239.206 76.4692 239.489 76.4763C239.901 76.4834 240.313 76.4976 240.724 76.5047H240.831C241.143 76.5118 241.448 76.5259 241.761 76.533C241.881 76.533 242.002 76.5401 242.116 76.5401H242.123C242.257 76.5401 242.399 76.5401 242.534 76.5543C242.797 76.5543 243.059 76.5614 243.322 76.5756C244.798 76.6253 246.275 76.6821 247.751 76.746C248.525 76.7815 249.291 76.8169 250.058 76.8524C251.555 76.9305 262.926 77.5196 264.395 77.6048Z"
                fill="#3F2719" />
        </g>
        <path
            d="M189.409 213.509C187.975 214.723 186.641 215.958 185.406 217.193C183.149 216.774 180.736 216.178 178.855 215.39C177.741 214.921 176.662 214.446 175.611 213.963C180.012 214.325 184.625 214.169 189.409 213.509Z"
            fill="#2D1F04" />
        <path
            d="M260.981 225.49C265.559 219.691 267.113 212.551 263.337 205.496C258.575 196.595 249.504 193.891 234.131 196.056C244.628 189.179 255.878 179.192 259.838 170.271C260.803 168.085 261.456 165.998 262.045 163.521C265.445 170.022 269.065 175.416 271.066 183.472C273.714 194.126 272.912 212.345 260.981 225.49Z"
            fill="#2D1F04" />
        <g style="mix-blend-mode:multiply" opacity="0.23">
            <path
                d="M322.339 49.4913C321.864 48.8809 321.587 48.5403 320.338 47.6885C317.776 48.377 311.274 41.7905 309.031 36.1763C308.747 38.1636 309.031 42.2447 309.528 43.7565C309.933 44.9915 323.915 56.3263 323.574 57.5045C322.872 59.9318 322.886 61.4649 322.758 63.3458C322.574 66.0641 321.488 69.2084 317.868 71.9835C314.248 74.7587 296.667 79.2017 291.408 88.2582C286.156 97.3218 280.897 106.563 266.403 107.826C251.903 109.097 242.776 109.934 234.166 112.468C225.621 114.981 224.783 118.26 223.335 124.427C221.887 130.595 221.831 131.049 220.83 133.165C234.77 131.497 251.648 126.564 267.936 121.638C284.225 116.712 288.519 115.683 294.091 109.892C299.656 104.1 314.61 86.0793 319.316 80.6709C324.029 75.2626 332.056 67.2494 336.172 62.9767C338.692 60.3648 341.489 57.9303 342.965 54.8003C343.54 53.5795 341.474 51.6987 339.153 52.1813C336.485 52.7349 336.492 54.3957 331.325 56.6954C329.494 57.5116 324.937 52.884 322.346 49.4842L322.339 49.4913Z"
                fill="#3F2719" />
        </g>
        <g style="mix-blend-mode:multiply" opacity="0.23">
            <path
                d="M343.646 51.6277C340.325 39.7535 332.858 30.4628 329.884 27.9999C327.953 26.3958 322.772 28.7877 319.451 28.3619C323.61 26.041 329.799 23.9827 331.446 25.168C332.539 25.9558 334.902 28.8374 337.273 32.5068H337.28C339.132 35.3672 340.992 38.7172 342.241 41.9111C343.064 43.9907 343.618 46.0064 343.753 47.7879C343.859 49.2074 343.817 50.4779 343.646 51.6277Z"
                fill="#3F2719" />
        </g>
        <path
            d="M120.662 35.5233C117.397 38.05 114.877 41.1588 112.904 45.1121C104.146 62.6218 110.803 81.8349 119.931 97.2792C120.733 98.6349 121.854 100.189 122.195 101.765C122.365 102.546 121.996 103.923 122.394 104.597C122.564 104.888 123.189 103.759 123.26 104.086C123.544 105.541 123.494 107.251 123.437 108.713C123.416 109.267 122.891 110.793 123.253 110.374C123.373 110.239 123.657 108.969 124.211 109.111C124.537 109.196 126.915 119.693 127.724 131.305"
            stroke="#2D1F04" stroke-width="2.78" stroke-linecap="round" stroke-linejoin="round" />
        <g style="mix-blend-mode:multiply" opacity="0.23">
            <path
                d="M140.72 179.448C151.494 177.716 168.351 167.403 168.713 167.353C169.075 167.304 172.673 166.644 181.935 165.473C191.198 164.302 201.773 162.435 206.826 160.412C208.736 159.646 210.425 157.005 211.873 153.024C213.356 148.928 215.187 135.89 215.791 130.986C213.889 139.879 208.395 153.769 206.919 154.876C205.088 156.246 204.449 156.508 201.447 157.459C191.808 160.504 169.997 162.705 167.74 163.251C166.165 163.634 146.007 176.062 138.236 174.132"
                fill="#3F2719" />
        </g>
        <g style="mix-blend-mode:multiply" opacity="0.23">
            <path
                d="M174.483 23.0955C169.238 20.9946 163.766 20.008 158.237 18.4324C157.2 18.1343 155.05 17.7368 154.219 16.6864C153.297 15.5224 153.737 13.7054 153.687 13.7196C149.173 14.8126 151.508 18.7518 151.508 18.7518C151.508 18.7518 150.607 18.7589 150.16 18.7021C148.222 18.4111 146.142 16.8922 146.078 14.0106C145.986 10.1779 149.996 8.33254 149.365 8.06283C149.194 7.99896 141.735 5.17413 136.49 9.94369C133.615 12.5698 132.394 15.9695 133.743 20.2565C126.83 19.4899 127.44 13.5067 127.334 13.5067C121.322 15.0184 119.569 22.3218 124.09 24.877C124.14 25.608 121.173 25.6648 119.079 24.3872C117.525 23.4433 116.716 21.1153 116.553 21.2359C111.08 25.1964 114.161 31.1512 119.306 31.357C119.683 31.3712 120.477 31.357 120.378 31.7332C120.343 31.861 119.271 32.7553 117.347 32.9256C115.41 33.0889 114.565 32.1662 114.494 32.4288C113.82 35.1117 118.299 37.0919 119.903 36.1479C116.794 38.554 114.721 41.2723 112.848 44.9844C115.701 41.0523 120.79 37.0209 127.781 34.118C126.865 33.465 127.433 31.3216 128.817 30.8744C128.59 32.4572 131.5 32.8475 134.694 31.8113C133.75 30.9596 132.657 27.9928 136.468 26.6797C134.829 29.5188 139.222 31.2577 141.046 30.697C143.034 30.0795 142.806 29.0574 141.976 28.3335C143.424 27.4179 145.021 29.1213 145.809 29.4265C147.37 30.044 149.059 29.6252 153.226 29.9659C176.839 31.9178 190.19 40.9317 196.911 53.4447C200.907 60.8758 205.442 72.5229 207.501 85.9515C210.766 82.5518 214.719 79.8902 219.716 78.272C214.151 54.1331 200.261 32.9824 174.483 23.0955Z"
                fill="#3F2719" />
        </g>
        <path
            d="M134.02 21.1011C132.671 16.8212 133.778 12.6266 136.653 10.0076C141.898 5.22381 149.357 8.04864 149.528 8.11961C150.16 8.38222 146.149 10.2347 146.242 14.0674C146.306 16.949 148.385 18.4679 150.323 18.7518C150.77 18.8227 151.678 18.8085 151.678 18.8085C151.678 18.8085 149.343 14.8694 153.85 13.7835C153.9 13.7693 153.46 15.5792 154.375 16.7432C155.213 17.7936 157.364 18.1911 158.393 18.4821C163.929 20.0648 169.401 21.0585 174.646 23.1523C200.424 33.0463 214.307 54.1118 219.872 78.2223"
            stroke="#2D1F04" stroke-width="2.78" stroke-linecap="round" stroke-linejoin="round" />
        <path
            d="M127.724 131.305C127.319 129.403 127.284 136.387 127.703 145.443C128.455 161.718 132.096 170.093 133.679 172.18C134.616 173.415 137.363 174.728 138.754 175.303C141.827 182.06 146.738 194.367 159.33 204.232C164.468 208.257 170.792 212.21 179.103 215.688C181.069 216.511 183.248 217.129 185.59 217.547"
            stroke="#2D1F04" stroke-width="2.78" stroke-linecap="round" stroke-linejoin="round" />
        <path
            d="M256.481 125.194C259.107 134.009 255.729 147.331 257.368 152.427C261.464 165.153 268.078 171.25 271.067 183.295C273.707 193.948 272.912 212.168 260.981 225.312"
            stroke="#2D1F04" stroke-width="2.78" stroke-linecap="round" stroke-linejoin="round" />
        <path d="M126.454 125.946C148.563 126.67 179.245 117.82 191.929 105.541" stroke="#2D1F04"
            stroke-width="2.78" stroke-linecap="round" stroke-linejoin="round" />
        <path
            d="M119.647 36.0414C118.036 36.9925 113.99 35.1613 114.665 32.4856C114.728 32.2229 115.573 33.1456 117.518 32.9824C119.462 32.8191 120.513 31.9248 120.548 31.79C120.641 31.4209 119.853 31.4351 119.477 31.4138C114.338 31.208 111.251 25.246 116.723 21.2927C116.886 21.172 117.695 23.5071 119.25 24.444C121.35 25.7216 124.317 25.6648 124.26 24.9408C119.739 22.3857 121.492 15.0823 127.504 13.5705C127.61 13.5422 126.603 19.6319 133.53 20.3913"
            stroke="#2D1F04" stroke-width="2.78" stroke-linecap="round" stroke-linejoin="round" />
        <path
            d="M111.094 62.1179C111.4 55.8933 114.892 48.6467 118.731 47.1278C121.116 46.1839 123.515 47.0356 125.907 47.9228C128.036 48.7177 129.669 47.9795 129.853 46.5529C130.024 45.247 129.193 44.523 127.724 43.8771C130.336 44.1114 131.28 45.0695 133.466 45.6515C137.086 46.6168 139.031 46.6097 139.854 46.2832C142.331 45.3109 144.545 42.4505 146.724 41.2014C156.398 35.6511 164.56 36.1337 171.757 48.9519C173.376 51.8264 176.151 58.5336 175.874 66.4616C175.469 78.0093 172.623 84.6527 167.25 92.5026C163.325 98.2374 152.118 104.164 140.585 106.172C131.855 107.698 127.525 104.377 121.556 93.8369C116.446 84.8088 112.053 74.1625 111.087 62.1179H111.094Z"
            fill="#FFDBAF" />
        <path
            d="M126.262 66.2345C122.933 67.1004 120.002 72.9985 124.111 80.7845C127.085 86.4058 127.128 90.4656 131.074 92.4245C137.505 95.6113 146.036 90.863 149.648 85.4476C153.999 78.9249 153.268 77.1931 150.642 69.982C147.782 62.125 138.825 62.3876 133.977 64.0413L126.255 66.2416L126.262 66.2345Z"
            fill="#9D7B51" />
        <path
            d="M111.102 62.3805C111.031 65.7022 111.918 70.053 113.55 75.3903C133.374 71.508 127.277 49.3281 125.921 47.8944C122.955 46.7659 120.96 46.0987 118.519 47.2201C116.73 48.0434 111.315 51.8051 111.102 62.3805Z"
            fill="#9D7B51" />
        <path
            d="M139.967 46.2335C144.694 69.1871 162.311 70.7982 175.853 67.0649C176.25 60.0383 174.362 53.5795 171.984 49.3707C169.671 45.2754 165.242 38.3552 158.279 37.8797C154.539 37.6242 150.159 39.1005 146.717 41.2014C144.077 42.8125 142.274 44.8779 139.96 46.2406L139.967 46.2335Z"
            fill="#9D7B51" />
        <path
            d="M128.555 68.6051C129.747 73.6656 131.819 77.8603 134.957 81.0826C138.903 81.0826 142.196 80.6638 143.126 79.9612C144.056 79.2585 145.66 76.3769 146.114 73.6231"
            stroke="#2D1F04" stroke-width="2.78" stroke-linecap="round" stroke-linejoin="round" />
        <path
            d="M134.964 81.0755C134.488 81.7143 133.828 82.4879 132.558 82.6298C131.905 82.5234 131.138 82.3105 130.407 82.0691"
            stroke="#2D1F04" stroke-width="2.78" stroke-linecap="round" stroke-linejoin="round" />
        <path
            d="M112.521 65.7235C113.522 68.8748 116.006 68.5909 119.313 68.1224C123.189 67.5688 126.773 64.7511 126.042 61.5217C125.226 57.8806 121.62 57.2561 116.836 58.7324C112.911 59.946 111.407 62.2102 112.521 65.7235Z"
            fill="white" />
        <path
            d="M112.372 65.2621C113.096 62.0895 115.381 61.1952 119.143 60.8332C122.905 60.4713 124.473 60.9681 126.113 62.5083C125.999 57.831 121.691 57.5045 116.836 58.7253C113.245 59.6266 111.613 61.8553 112.372 65.2621Z"
            fill="#D3E5EA" />
        <path
            d="M119.271 63.2819C119.086 61.4365 117.44 60.088 115.594 60.2725C113.749 60.4571 112.4 62.1037 112.585 63.9491C112.769 65.7944 114.416 67.143 116.261 66.9584C118.107 66.7739 119.455 65.1273 119.271 63.2819Z"
            fill="#2D1F04" />
        <path
            d="M112.521 65.7235C113.628 68.7896 116.041 68.5341 119.313 68.1224C123.238 67.6185 126.688 64.7582 126.042 61.5217C125.311 57.8594 121.656 57.3767 116.836 58.7324C113.011 59.8112 111.116 61.8269 112.521 65.7235Z"
            stroke="#2D1F04" stroke-width="2.62" stroke-linecap="round" stroke-linejoin="round" />
        <path
            d="M118.256 63.3813C119.075 63.3813 119.739 62.7171 119.739 61.8979C119.739 61.0786 119.075 60.4145 118.256 60.4145C117.437 60.4145 116.773 61.0786 116.773 61.8979C116.773 62.7171 117.437 63.3813 118.256 63.3813Z"
            fill="white" />
        <path
            d="M117.944 65.0279C118.253 65.0279 118.504 64.7769 118.504 64.4672C118.504 64.1575 118.253 63.9065 117.944 63.9065C117.634 63.9065 117.383 64.1575 117.383 64.4672C117.383 64.7769 117.634 65.0279 117.944 65.0279Z"
            fill="white" />
        <path
            d="M147.64 57.98C149.166 60.7481 153.119 59.2505 157.009 58.2639C162.005 57.0005 166.768 55.2475 164.88 50.3146C163.545 46.8155 158.982 46.851 152.963 48.888C146.944 50.925 145.631 54.3248 147.64 57.98Z"
            fill="white" />
        <path
            d="M147.065 56.6741C148.222 53.2459 151.771 51.578 156.583 50.6979C160.749 49.9385 163.482 50.2863 165.199 51.3651C165.128 51.0244 165.022 50.6766 164.887 50.3146C163.545 46.8084 158.989 46.8439 152.97 48.888C147.675 50.6766 146.022 53.5227 147.065 56.6741Z"
            fill="#D3E5EA" />
        <path
            d="M147.64 57.98C149.166 60.7481 153.119 59.2505 157.009 58.2639C162.005 57.0005 166.768 55.2475 164.88 50.3146C163.545 46.8155 158.982 46.851 152.963 48.888C146.944 50.925 145.631 54.3248 147.64 57.98Z"
            stroke="#2D1F04" stroke-width="2.78" stroke-linecap="round" stroke-linejoin="round" />
        <path
            d="M154.631 53.2885C154.042 51.216 151.891 50.0165 149.819 50.5985C147.746 51.1876 146.547 53.3382 147.129 55.4107C147.718 57.4832 149.868 58.6827 151.941 58.1007C154.013 57.5116 155.213 55.361 154.631 53.2885Z"
            fill="#2D1F04" />
        <path
            d="M153.19 53.6363C154.139 53.6363 154.908 52.8673 154.908 51.9187C154.908 50.9701 154.139 50.2011 153.19 50.2011C152.242 50.2011 151.473 50.9701 151.473 51.9187C151.473 52.8673 152.242 53.6363 153.19 53.6363Z"
            fill="white" />
        <path
            d="M153.36 55.5668C153.721 55.5668 154.013 55.2745 154.013 54.9139C154.013 54.5532 153.721 54.2609 153.36 54.2609C153 54.2609 152.708 54.5532 152.708 54.9139C152.708 55.2745 153 55.5668 153.36 55.5668Z"
            fill="white" />
        <path
            d="M122.358 68.1224C121.783 66.2842 123.977 63.8568 127.27 62.7141C130.563 61.5643 133.693 62.1321 134.275 63.9704C134.85 65.8086 132.657 68.236 129.364 69.3787C126.07 70.5285 122.94 69.9607 122.358 68.1224Z"
            fill="#251707" />
        <path
            d="M139.967 46.2335C152.8 41.9679 160.962 37.1345 165.306 37.8442C168.606 38.3836 173.936 40.7187 177.443 42.7202"
            stroke="#2D1F04" stroke-width="7.6" stroke-linecap="round" stroke-linejoin="round" />
        <path
            d="M127.227 48.228C119.15 48.2421 112.734 47.1917 110.434 47.9653C108.795 48.519 107.106 50.5063 104.252 53.2317"
            stroke="#2D1F04" stroke-width="7.6" stroke-linecap="round" stroke-linejoin="round" />
        <path
            d="M199.005 98.7413C201.368 93.9008 204.058 89.5216 207.501 85.9515C210.766 82.5518 214.719 79.8902 219.716 78.272C222.796 77.2712 226.274 76.6608 230.234 76.526C245.558 75.9865 264.728 78.0945 275.9 77.8958"
            stroke="#2D1F04" stroke-width="2.78" stroke-linecap="round" stroke-linejoin="round" />
        <path
            d="M335.172 64.0626C333.589 65.5957 330.225 69.0167 326.115 73.2256C319.791 71.0253 315.433 64.1975 315.071 59.1227C316.541 56.816 314.099 54.5093 311.899 50.8044C309.699 47.0994 308.698 40.9955 309.003 36.2899C309.102 38.9869 317.91 49.2997 320.309 47.795C320.494 47.6743 320.6 47.4685 320.643 47.1917C320.863 45.7793 319.493 42.5286 318.606 39.7748C317.371 35.9563 316.633 32.7908 315.504 31.8752C315.902 29.171 328.919 23.4646 331.424 25.2673C333.923 27.0701 343.128 39.8883 343.731 47.8873C344.335 55.8933 340.218 58.9879 335.179 64.0484L335.172 64.0626Z"
            stroke="#2D1F04" stroke-width="2.78" stroke-linecap="round" stroke-linejoin="round" />
        <path
            d="M232.64 131.17C247.652 128.615 264.615 122.312 276.773 119.31C288.931 116.308 292.238 111.801 299.293 104.746C304.162 99.8769 316.974 82.5873 326.115 73.2256"
            stroke="#2D1F04" stroke-width="2.78" stroke-linecap="round" stroke-linejoin="round" />
        <path
            d="M272.727 85.0856C274.977 79.2301 278.434 71.8699 283.083 68.5696C287.739 65.2621 299.897 64.0626 309.656 61.0675C311.814 60.4003 313.595 59.7544 315.086 59.1298"
            stroke="#2D1F04" stroke-width="2.78" stroke-linecap="round" stroke-linejoin="round" />
        <path
            d="M320.643 47.1988C321.161 48.0292 321.722 48.8383 322.311 49.6049C327.116 55.8082 330.012 58.5123 333.617 55.7088C337.223 52.9052 338.124 52.302 339.118 52.302"
            stroke="#2D1F04" stroke-width="2.78" stroke-linecap="round" stroke-linejoin="round" />
        <path
            d="M320.643 47.1988C320.6 47.4756 320.494 47.6814 320.309 47.8021C317.91 49.3068 309.102 38.994 309.003 36.297C308.904 33.5928 314.078 30.7325 315.504 31.8894C316.633 32.7979 317.371 35.9634 318.606 39.789C319.493 42.5428 320.856 45.7935 320.643 47.2059V47.1988Z"
            stroke="#2D1F04" stroke-width="2.78" stroke-linecap="round" stroke-linejoin="round" />
        <g style="mix-blend-mode:multiply" opacity="0.23">
            <path
                d="M262.038 163.35C261.584 168.439 259.341 172.847 255.537 177.68C249.497 185.353 240.263 192.543 231.604 197.838C211.752 209.996 192.191 215.354 176.002 214.155C173.667 213.09 171.488 211.99 169.458 210.869C171.715 210.989 174.731 211.245 177.038 211.408C181.815 211.749 184.703 210.755 185.15 208.278C185.378 207.015 185.413 204.559 183.908 202.302C181.822 199.158 176.726 191.279 175.888 184.203C177.932 191.847 184.845 197.759 187.258 203.04C189.636 208.981 200.339 207.057 206.514 205.042C211.305 203.48 215.84 201.663 224.074 197.298C232.697 192.734 233.201 189.54 231.093 183.948C229.546 179.838 225.848 172.336 222.406 170.093C219.268 168.049 208.544 167.623 197.671 167.439C209.722 166.26 219.836 163.847 225.379 166.154C230.724 168.383 233.307 172.428 235.785 175.253C240.043 180.115 242.925 182.805 251.25 176.772C252.904 175.572 254.345 174.316 254.962 172.244C255.594 170.129 247.261 163.521 247.63 142.945C247.765 135.443 245.537 128.303 240.732 129.502C245.984 128.267 251.321 126.734 256.481 125.194C259.107 134.009 255.729 147.338 257.361 152.427C258.717 156.643 260.356 160.135 262.038 163.35Z"
                fill="#3F2719" />
        </g>
        <path
            d="M278.391 262.39C277.788 265.016 263.252 265.747 248.127 264.107C233.506 262.518 218.388 258.614 211.887 257.677C203.363 256.456 187.046 253.66 182.858 251.261C176.669 247.712 167.967 241.189 174.98 230.799C181.985 220.408 193.49 205.155 221.242 198.42C225.961 197.277 230.248 196.418 234.131 195.879C249.504 193.714 258.575 196.418 263.337 205.318C267.113 212.373 265.559 219.514 260.981 225.312C255.466 232.296 245.551 237.335 235.245 237.925C236.736 238.727 238.198 239.72 239.426 240.643C256.098 253.149 278.583 261.531 278.391 262.39Z"
            fill="#FFDB1F" />
        <path
            d="M46.6699 188.973C54.3707 185.623 68.651 182.336 78.5237 179.448C85.5006 177.411 89.4824 175.054 94.2661 174.274C104.607 172.577 117.61 171.165 130.932 166.026"
            stroke="#2D1F04" stroke-width="2.78" stroke-linecap="round" stroke-linejoin="round" />
        <path d="M36.5771 174.238C40.6866 176.531 46.386 184.381 46.677 188.973" stroke="#2D1F04"
            stroke-width="2.78" stroke-linecap="round" stroke-linejoin="round" />
        <path
            d="M125.332 113.518C117.021 114.406 110.214 117.82 101.903 125.251C93.5919 132.675 84.216 143.073 82.8036 143.818C80.7879 144.883 75.124 144.698 66.8341 149.957C55.0947 157.396 40.1046 172.116 36.57 174.238C33.0354 176.36 22.3607 180.725 19.3513 182.847C16.342 184.97 6.51185 202.337 7.39905 203.75C7.95975 204.651 20.4444 197.618 25.4482 196.163C31.7224 194.346 38.9832 192.635 46.6699 188.973"
            stroke="#2D1F04" stroke-width="2.78" stroke-linecap="round" stroke-linejoin="round" />
        <path
            d="M7.40613 203.75C11.7285 199.896 20.6715 192.741 23.617 190.91C25.8243 189.54 30.5584 187.709 35.4486 185.992"
            stroke="#2D1F04" stroke-width="2.78" stroke-linecap="round" stroke-linejoin="round" />
        <path d="M318.613 39.7819C323.255 34.4587 329.636 31.499 337.258 32.6204" stroke="#2D1F04"
            stroke-width="2.78" stroke-linecap="round" stroke-linejoin="round" />
        <path d="M323.333 50.8966C328.032 45.4315 335.264 40.7968 342.22 42.0176" stroke="#2D1F04"
            stroke-width="2.78" stroke-linecap="round" stroke-linejoin="round" />
        <path
            d="M9.74835 197.568C14.1914 192.45 19.0817 187.56 21.1683 186.112C22.5737 185.133 27.691 182.933 33.1561 180.874"
            stroke="#2D1F04" stroke-width="2.78" stroke-linecap="round" stroke-linejoin="round" />
        <path
            d="M372.065 262.454C372.008 262.752 371.689 263.007 371.156 263.22C371.05 263.263 370.936 263.298 370.816 263.341C370.752 263.362 370.688 263.376 370.624 263.398C370.361 263.469 370.07 263.533 369.744 263.596C369.666 263.611 369.581 263.625 369.495 263.639C369.325 263.667 369.155 263.689 368.97 263.717C368.516 263.774 368.026 263.824 367.494 263.859H367.487C366.103 263.951 364.478 263.958 362.717 263.873C362.668 263.873 362.611 263.873 362.561 263.873C361.795 263.838 361.007 263.781 360.205 263.71C360.098 263.703 359.992 263.689 359.892 263.682C359.403 263.632 358.906 263.575 358.402 263.518C357.983 263.469 357.564 263.412 357.153 263.348C356.322 263.235 355.485 263.1 354.654 262.944C354.044 262.83 353.448 262.702 352.852 262.567C352.256 262.432 351.666 262.291 351.084 262.134C349.998 261.843 348.927 261.531 347.883 261.212C347.181 260.992 346.492 260.772 345.818 260.545C345.477 260.431 345.144 260.317 344.81 260.204C344.143 259.97 343.49 259.735 342.851 259.501C341.893 259.146 340.956 258.784 340.055 258.429C337.06 257.237 334.426 256.059 332.318 255.108C330.629 254.348 329.274 253.731 328.323 253.369C327.968 253.234 327.67 253.128 327.435 253.071C316.952 250.459 306.952 248.99 297.675 247.932C300.344 247.613 304.17 245.938 304.17 245.938L299.726 239.415C303.893 236.065 313.574 231.508 315.696 221.558C321.488 224.17 324.802 228.173 329.068 235.256C330.352 237.392 333.291 231.026 337.4 233.127C343.256 236.122 343.54 239.912 348.849 245.37C350.204 246.761 351.886 248.259 354.072 249.877C354.236 249.998 354.406 250.125 354.591 250.246C354.768 250.374 354.953 250.501 355.144 250.629C355.911 251.147 356.77 251.694 357.692 252.247C358.381 252.666 359.105 253.092 359.843 253.525C360.091 253.667 360.34 253.816 360.588 253.958C361.085 254.249 361.589 254.54 362.093 254.831C362.341 254.973 362.59 255.122 362.845 255.264C363.47 255.633 364.087 255.995 364.698 256.35C364.939 256.492 365.18 256.641 365.414 256.783C365.535 256.854 365.649 256.925 365.769 256.996C366.003 257.138 366.238 257.28 366.465 257.414C369.779 259.459 372.285 261.304 372.072 262.461L372.065 262.454Z"
            fill="#FF0F0F" />
        <path
            d="M278.384 262.397C278.349 262.553 278.263 262.702 278.129 262.851C277.816 263.185 277.248 263.483 276.454 263.738C276.375 263.767 276.297 263.795 276.212 263.817C276.148 263.838 276.077 263.859 275.999 263.88C275.659 263.973 275.29 264.065 274.892 264.143C274.566 264.214 274.225 264.278 273.856 264.335C273.096 264.462 272.259 264.569 271.343 264.654C271.272 264.668 271.194 264.675 271.116 264.675C265.346 265.215 256.829 265.059 248.12 264.107C247.204 264.008 246.289 263.902 245.373 263.788C244.458 263.667 243.542 263.547 242.634 263.419C229.851 261.595 217.572 258.508 211.88 257.684C208.097 257.145 202.759 256.286 197.642 255.292C200.297 255.15 204.647 253.248 204.647 253.248L200.204 246.726C204.378 243.376 213.179 241.211 215.166 231.87C222.562 238.372 225.287 246.286 226.558 239.742C227.466 235.057 231.455 235.888 235.245 237.932C235.43 238.031 235.614 238.138 235.799 238.244C235.983 238.343 236.168 238.457 236.345 238.563C236.714 238.783 237.076 239.011 237.424 239.245C237.601 239.358 237.779 239.479 237.949 239.593C238.12 239.713 238.29 239.827 238.46 239.947C238.787 240.182 239.113 240.423 239.418 240.65H239.426C240.462 241.431 241.526 242.19 242.598 242.935C243.138 243.312 243.677 243.681 244.216 244.043C244.756 244.412 245.302 244.767 245.849 245.122C246.126 245.299 246.41 245.476 246.686 245.654C247.233 246.009 247.786 246.349 248.34 246.69C249.17 247.201 250.008 247.705 250.846 248.202C251.953 248.862 253.06 249.494 254.16 250.111C254.437 250.26 254.714 250.416 254.99 250.572C255.814 251.034 256.623 251.474 257.432 251.907H257.439C257.979 252.198 258.511 252.482 259.036 252.758C259.299 252.893 259.568 253.035 259.831 253.17C260.881 253.717 261.911 254.242 262.911 254.746C263.415 254.994 263.912 255.243 264.402 255.484C265.374 255.974 266.311 256.428 267.22 256.861C267.901 257.187 268.561 257.5 269.193 257.805C269.611 258.004 270.023 258.202 270.428 258.387C272.032 259.139 273.444 259.799 274.622 260.353C274.92 260.488 275.197 260.623 275.46 260.75C275.722 260.871 275.971 260.992 276.205 261.105C276.319 261.162 276.432 261.212 276.539 261.268C276.752 261.375 276.95 261.474 277.128 261.567C277.958 261.992 278.405 262.276 278.377 262.397H278.384Z"
            fill="#FF0F0F" />
        <path
            d="M271.663 202.302C284.119 209.08 291.067 216.128 303.68 218.279C318.18 220.748 322.488 224.361 329.047 235.249C330.331 237.385 333.277 231.019 337.379 233.12C344.725 236.874 343.298 241.892 354.051 249.87C359.424 253.852 372.533 259.87 372.051 262.454C371.689 264.391 360.212 264.576 351.063 262.127C339.466 259.026 329.934 253.695 327.414 253.064C290.457 243.858 259.576 248.869 244.983 236.037"
            stroke="#2D1F04" stroke-width="2.78" stroke-linecap="round" stroke-linejoin="round" />
        <path
            d="M235.245 237.925C254.11 236.839 271.656 220.876 263.337 205.318C257.368 194.168 244.656 192.741 221.249 198.42C193.49 205.155 181.985 220.408 174.98 230.799C167.974 241.189 176.669 247.712 182.858 251.261C187.046 253.66 203.363 256.456 211.887 257.677C218.388 258.614 233.506 262.518 248.127 264.1C263.252 265.74 277.788 265.009 278.391 262.39C278.59 261.531 256.105 253.149 239.433 240.643C235.075 237.378 227.835 233.212 226.565 239.734C224.436 250.679 218.232 221.132 192.858 225.475"
            stroke="#2D1F04" stroke-width="2.78" stroke-linecap="round" stroke-linejoin="round" />
        <path
            d="M197.642 255.292C200.297 255.15 204.648 253.248 204.648 253.248L200.204 246.726C204.371 243.376 213.179 241.211 215.159 231.87"
            stroke="#2D1F04" stroke-width="2.78" stroke-linecap="round" stroke-linejoin="round" />
        <path
            d="M297.668 247.925C300.543 247.144 304.155 245.931 304.155 245.931L299.712 239.408C303.879 236.058 313.56 231.501 315.682 221.551"
            stroke="#2D1F04" stroke-width="2.78" stroke-linecap="round" stroke-linejoin="round" />
        <path
            d="M219.205 235.959C217.246 241.374 209.218 247.109 206.408 248.67C207.586 250.686 210.091 254.874 210.091 254.874L204.839 256.598"
            stroke="#2D1F04" stroke-width="2.78" stroke-linecap="round" stroke-linejoin="round" />
        <path
            d="M319.969 223.985C318.017 230.323 313.723 236.512 305.121 240.806C306.86 243.546 309.443 247.08 309.443 247.08L305.369 248.883"
            stroke="#2D1F04" stroke-width="2.78" stroke-linecap="round" stroke-linejoin="round" />
        <path
            d="M135.404 131.582C134.595 132.93 132.238 133.874 129.037 133.917C128.526 136.444 125.197 138.935 116.375 138.914C104.884 138.885 93.8261 133.03 93.2299 130.652C92.655 128.374 100.42 121.745 105.58 119.672C105.424 119.445 105.267 119.204 105.111 118.969C103.926 117.145 111.733 112.56 116.247 111.169C121.741 109.48 124.424 110.658 125.857 115.286C129.108 125.804 137.079 128.792 135.404 131.582Z"
            fill="#FF0F0F" />
        <path opacity="0.32"
            d="M95.274 126.997C95.5579 130.113 100.221 135.003 111.137 138.523C103.138 137.026 94.1526 133.463 93.237 130.659C92.9034 129.63 93.5706 128.246 95.2811 126.997H95.274Z"
            fill="white" />
        <path opacity="0.32"
            d="M110.058 113.966C111.591 118.6 114.785 128.551 130.18 133.86C123.466 134.187 116.957 131.369 110.882 125.982C104.806 120.595 104.934 118.856 105.416 117.55C105.899 116.244 107.446 115.13 110.065 113.966H110.058Z"
            fill="white" />
        <path
            d="M135.411 131.582C132.962 135.656 116.247 136.075 105.118 118.976C103.933 117.152 111.726 112.539 116.254 111.176C121.57 109.572 124.438 110.658 125.865 115.293C129.115 125.811 137.086 128.807 135.411 131.589V131.582Z"
            stroke="#2D1F04" stroke-width="2.78" stroke-linecap="round" stroke-linejoin="round" />
        <path
            d="M105.629 119.75C100.633 121.716 92.6408 128.281 93.2299 130.659C93.8261 133.037 104.884 138.892 116.375 138.921C125.368 138.942 128.654 136.507 129.066 133.931"
            stroke="#2D1F04" stroke-width="2.78" stroke-linecap="round" stroke-linejoin="round" />
        <path
            d="M305.312 97.698C314.88 101.445 326.129 104.973 339.132 107.677C347.628 109.444 354.938 109.977 361.461 110.019"
            stroke="#2D1F04" stroke-width="2.78" stroke-linecap="round" stroke-linejoin="round" />
        <path
            d="M361.454 110.012C384.848 110.147 398.127 103.844 419.902 124.555C400.987 62.0895 371.426 77.0796 324.227 75.3974"
            stroke="#2D1F04" stroke-width="2.78" stroke-linecap="round" stroke-linejoin="round" />
        <path
            d="M237.374 50.4566C230.625 54.7293 223.548 61.2023 217.054 68.5767C205.705 81.473 196.152 97.0947 193.32 108.394C193.213 108.841 193.171 109.246 193.206 109.586V109.601C192.156 116.088 183.071 120.957 185.505 112.865C185.803 111.865 186.116 110.871 186.442 109.877C193.355 88.5066 204.789 69.18 213.143 58.9808C215.926 55.581 218.367 53.1891 220.177 52.0819C225.017 49.1151 232.562 49.8036 237.374 50.4566Z"
            fill="#FF0F0F" />
        <path
            d="M245.977 46.2335C243.223 47.142 240.327 48.5899 237.374 50.4566C230.625 54.7293 223.548 61.2023 217.054 68.5767C205.705 81.473 196.152 97.0947 193.32 108.394C193.213 108.841 193.171 109.246 193.206 109.586V109.601C193.455 112.482 198.373 111.347 204.058 102.191C210.95 91.0901 221.256 82.2821 230.951 76.4976C239.702 71.2738 247.957 68.5199 252.762 68.7683C254.82 68.8748 256.126 69.5561 259.128 71.6641C259.285 65.5744 259.987 59.4847 261.194 53.4873C256.162 47.9015 253.046 43.8984 245.977 46.2335Z"
            fill="#FF0F0F" />
        <path opacity="0.32"
            d="M197.798 96.7469C208.729 82.0549 218.658 70.5782 226.678 64.2968C234.699 58.0155 241.704 52.1742 248.234 53.5227C254.756 54.8713 261.265 53.0969 256.772 48.6964C252.279 44.2959 247.687 44.9631 243.585 46.9575C239.475 48.9519 214.442 62.5083 197.798 96.7398V96.7469Z"
            fill="white" />
        <path
            d="M268.518 176.005C273.338 177.751 278.554 179.398 284.19 180.867C299.606 184.87 318.116 187.447 340.005 186.623C329.834 194.289 318.031 203.75 303.879 203.75C296.866 203.75 285.581 199.328 272.273 192.323"
            stroke="#2D1F04" stroke-width="2.78" stroke-linecap="round" stroke-linejoin="round" />
        <path
            d="M257.397 145.287C271.982 151.569 287.192 150.731 301.87 154.62C311.622 157.204 319.415 165.395 317.094 174.188C316.711 175.643 315.49 178.852 312.985 178.461C297.484 176.069 282.465 174.373 264.395 167.687"
            stroke="#2D1F04" stroke-width="2.78" stroke-linecap="round" stroke-linejoin="round" />
        <path
            d="M258.624 124.555C258.624 124.555 258.632 124.562 258.639 124.555C280.329 132.703 298.484 138.573 313.332 142.782C302.942 141.156 295.546 146.338 293.303 152.115"
            stroke="#2D1F04" stroke-width="2.78" stroke-linecap="round" stroke-linejoin="round" />
        <path
            d="M361.454 110.225C359.985 114.661 361.163 121.006 365.606 127.486C372.767 137.92 375.685 146.331 366.025 152.747C364.634 153.669 347.862 152.576 313.361 142.789C313.354 142.789 313.34 142.789 313.332 142.782C298.484 138.573 280.329 132.703 258.639 124.555"
            stroke="#2D1F04" stroke-width="2.78" stroke-linecap="round" stroke-linejoin="round" />
        <path
            d="M237.452 50.4566C232.64 49.7965 225.096 49.1152 220.255 52.0748C212.753 56.667 194.526 83.1338 185.583 112.858C183.113 121.07 192.496 115.939 193.32 109.31C193.32 109.295 193.32 109.281 193.327 109.267"
            stroke="#2D1F04" stroke-width="2.78" stroke-linecap="round" stroke-linejoin="round" />
        <path d="M304.099 177.127C297.171 176.41 293.048 177.808 290.237 182.322" stroke="#2D1F04"
            stroke-width="2.78" stroke-linecap="round" stroke-linejoin="round" />
        <path
            d="M282.87 68.6406C258.653 59.7686 259.327 41.8543 246.055 46.2335C226.04 52.8485 198.558 87.7898 193.391 108.394C192.354 112.645 197.763 112.447 204.129 102.191C217.239 81.0755 242.698 68.2431 252.833 68.7683C256.211 68.9457 257.56 70.6705 267.787 77.7183"
            stroke="#2D1F04" stroke-width="2.78" stroke-linecap="round" stroke-linejoin="round" />
        <path
            d="M145.425 167.737C144.73 167.737 144.048 167.559 143.431 167.212C142.494 166.679 141.813 165.792 141.536 164.756C138.732 154.251 137.256 146.025 136.745 138.097C136.617 136.153 137.909 134.392 139.804 133.931L142.579 133.25C146.504 132.277 150.216 131.362 153.978 130.602C154.674 130.46 155.355 130.396 156.015 130.396C157.86 130.396 159.514 130.936 160.905 131.944C161.856 130.368 163.169 129.012 164.795 127.997C167.513 126.308 170.338 125.457 173.191 125.457C173.972 125.457 174.767 125.52 175.555 125.648C180.083 126.372 183.192 129.452 184.803 134.79C185.115 135.833 184.994 136.962 184.462 137.913C184.32 138.168 184.157 138.403 183.965 138.615C185.598 140.12 186.776 142.115 187.365 144.443C188.43 148.651 187.344 153.315 184.604 156.331C183.149 157.978 181.19 159.347 179.075 160.199C176.775 161.122 174.419 161.59 172.07 161.59C171.367 161.59 170.657 161.548 169.962 161.463C169.479 161.406 169.011 161.313 168.556 161.193C168.003 161.81 167.265 162.25 166.434 162.442C163.936 163.003 161.629 163.549 159.18 164.16C158.854 164.238 158.528 164.28 158.208 164.28C157.172 164.28 156.178 163.883 155.426 163.166C155.043 164.479 154.006 165.558 152.601 165.934C150.443 166.509 148.534 167.034 146.518 167.602C146.164 167.701 145.794 167.751 145.433 167.751L145.425 167.737Z"
            fill="#2D1F04" />
        <path
            d="M157.236 148.616C157.562 148.417 157.733 148.325 157.882 148.204C160.785 146.039 161.835 142.973 160.891 139.141C160.195 136.366 158.478 133.789 154.773 134.534C150.216 135.457 145.61 136.642 140.762 137.828C141.323 146.558 143.126 155.089 145.425 163.705C147.462 163.13 149.386 162.605 151.558 162.023C150.798 158.51 150.096 155.096 149.478 151.76C151.224 150.845 152.303 151.732 153.226 153.045C154.943 155.444 156.64 157.871 158.201 160.228C160.628 159.624 162.935 159.071 165.547 158.489C162.935 154.89 161.487 150.113 157.236 148.609V148.616ZM152.906 145.323C151.536 145.89 150.117 146.245 148.676 146.714C148.378 144.769 148.158 143.158 147.945 141.433C149.407 141.05 150.763 140.574 152.126 140.397C153.467 140.212 154.297 141.085 154.454 142.427C154.61 143.704 154.106 144.826 152.906 145.323ZM174.923 129.609C172.063 129.154 169.451 129.829 166.924 131.397C164.262 133.058 162.85 136.117 163.226 139.417C163.567 142.384 165.426 144.535 168.507 145.337C170.104 145.756 171.75 145.855 173.361 146.132C174.142 146.267 174.93 146.359 175.682 146.6C176.57 146.877 177.23 147.608 177.343 148.737C177.464 149.957 176.91 150.859 176.059 151.462C174.149 152.796 171.899 152.051 170.799 149.723C170.593 149.297 170.423 148.836 170.217 148.346C168.145 148.921 166.165 149.489 164.184 150.071C164.915 154.315 167.293 157.069 170.437 157.452C172.843 157.743 175.242 157.381 177.57 156.452C178.997 155.877 180.487 154.904 181.602 153.634C185.087 149.83 184.441 142.065 178.734 140.078C177.854 139.772 176.946 139.531 176.051 139.396C174.433 139.155 172.808 139.034 171.182 138.871C170.295 138.779 169.493 138.509 169.202 137.246C169.295 135.634 170.16 135.003 171.289 134.783C173.021 134.449 174.313 135.407 175.086 137.572C177.066 136.997 178.933 136.479 180.942 135.947C179.763 132.029 177.868 130.091 174.916 129.623L174.923 129.609Z"
            fill="#FF0F0F" />
        <g style="mix-blend-mode:multiply" opacity="0.23">
            <path
                d="M259.419 200.215C264.09 205.042 267.085 211.791 264.501 219.081C264.437 219.265 264.366 219.45 264.295 219.641C264.196 219.89 264.097 220.131 263.99 220.379C263.884 220.628 263.77 220.869 263.657 221.118C263.536 221.359 263.415 221.6 263.288 221.842C263.167 222.083 263.032 222.317 262.89 222.551C262.748 222.793 262.606 223.027 262.457 223.261C262.308 223.495 262.159 223.722 262.003 223.957C261.989 223.978 261.982 223.999 261.967 224.013C261.662 224.453 261.336 224.886 261.002 225.312C259.966 226.625 258.781 227.86 257.46 229.017C257.24 229.209 257.02 229.4 256.793 229.592C256.772 229.613 256.751 229.628 256.729 229.649C256.524 229.812 256.311 229.975 256.105 230.146C255.871 230.33 255.629 230.508 255.395 230.685C255.154 230.863 254.912 231.04 254.664 231.21C254.423 231.388 254.167 231.558 253.919 231.721C253.415 232.055 252.897 232.381 252.372 232.694C252.336 232.715 252.301 232.736 252.265 232.758C251.775 233.041 251.271 233.318 250.76 233.588C250.484 233.737 250.207 233.879 249.93 234.014C249.887 234.035 249.845 234.056 249.802 234.078C249.568 234.191 249.327 234.305 249.085 234.418C248.801 234.553 248.518 234.681 248.234 234.802C247.943 234.929 247.652 235.05 247.361 235.171C246.793 235.398 246.211 235.618 245.629 235.824C245.43 235.902 245.224 235.966 245.018 236.037C244.607 236.171 244.195 236.306 243.776 236.427C243.471 236.512 243.166 236.604 242.861 236.683C242.549 236.768 242.243 236.846 241.931 236.924C241.633 236.995 241.335 237.066 241.03 237.13C241.03 237.137 241.008 237.137 240.994 237.137C240.682 237.208 240.37 237.272 240.05 237.328C239.745 237.385 239.44 237.442 239.135 237.492C238.467 237.605 237.793 237.697 237.119 237.768C236.828 237.804 236.53 237.832 236.232 237.854C235.912 237.882 235.586 237.903 235.266 237.925C231.483 235.88 227.495 235.064 226.586 239.742C225.316 246.278 222.59 238.372 215.194 231.87C214.109 230.912 212.916 229.982 211.617 229.138C211.511 229.067 211.404 229.003 211.305 228.932C203.015 223.211 213.803 214.318 234.131 215.354C242.314 215.766 248.688 215.894 253.954 214.46C257.986 213.36 263.004 209.485 259.419 200.215Z"
                fill="#3F2719" />
        </g>
        <g style="mix-blend-mode:multiply" opacity="0.23">
            <path
                d="M371.809 262.454C371.447 264.384 359.963 264.569 350.815 262.127C339.217 259.026 329.692 253.695 327.166 253.064C290.216 243.858 259.327 248.869 244.734 236.037C251.25 233.872 256.985 230.039 260.718 225.319C266.971 218.428 270.165 210.152 271.407 202.302C274.644 204.062 277.511 205.844 280.194 207.554C277.021 205.609 274.161 209.236 270.811 216.518C266.474 225.944 261.229 232.559 266.141 234.972C271.059 237.392 280.336 234.894 293.899 237.3C303.275 238.961 322.843 246.484 329.763 249.742C336.08 252.716 361 259.75 367.608 258.302C370.198 259.977 371.994 261.467 371.809 262.454Z"
                fill="#3F2719" />
        </g>
        <g style="mix-blend-mode:multiply" opacity="0.23">
            <path
                d="M278.129 262.39C277.532 265.016 262.989 265.747 247.872 264.108C233.244 262.518 218.126 258.614 211.624 257.684C207.841 257.138 202.525 256.286 197.408 255.292C191.006 254.05 184.93 252.595 182.602 251.261C178.961 249.181 174.469 246.065 172.794 241.75C174.561 245.945 195.768 240.111 208.494 245.909C216.912 249.742 239.986 258.628 254.834 260.367C263.323 261.354 270.832 261.325 273.785 260.069C276.539 261.361 278.185 262.156 278.129 262.39Z"
                fill="#3F2719" />
        </g>
        <g style="mix-blend-mode:multiply" opacity="0.43">
            <path
                d="M237.374 50.4566C230.625 54.7293 223.548 61.2023 217.054 68.5767C205.705 81.473 196.152 97.0947 193.32 108.394C193.213 108.841 193.171 109.246 193.206 109.586V109.601C192.44 114.356 187.351 118.238 185.647 116.79C187.755 115.335 189.622 112.063 191.24 107.01C193.32 100.48 197.124 91.3599 201.745 83.4958C208.189 72.5371 216.699 60.2512 231.164 49.9101C233.428 49.9669 235.586 50.2153 237.374 50.4566Z"
                fill="#3F2719" />
        </g>
        <g style="mix-blend-mode:multiply" opacity="0.23">
            <path
                d="M273.941 77.91C272.089 77.9029 270.059 77.8461 267.901 77.7609C267.865 77.7396 267.837 77.7183 267.802 77.6971C257.524 70.6137 256.183 68.8748 252.797 68.7044C247.992 68.456 239.738 71.2099 230.987 76.4337C230.944 76.455 230.908 76.4834 230.866 76.5047C221.206 82.2892 210.957 91.0689 204.094 102.127C200.68 107.62 197.543 110.232 195.527 110.814C197.926 107.308 200.41 99.9692 205.137 93.2549C208.842 87.9956 212.646 83.3609 216.834 79.3721C227.516 69.2155 240.717 63.2535 261.229 61.8198C257.169 64.9072 258.504 66.71 262.578 70.0601C265.083 72.1184 269.157 74.9645 273.941 77.91Z"
                fill="#3F2719" />
        </g>
        <g style="mix-blend-mode:multiply" opacity="0.35">
            <path
                d="M135.404 131.582C134.864 132.483 133.629 133.2 131.919 133.59C133.771 130.879 123.629 127.643 120.314 118.678C118.916 114.881 116.425 112.532 114.083 111.971C114.849 111.652 115.587 111.382 116.247 111.176C121.748 109.48 124.424 110.658 125.857 115.286C129.108 125.804 137.079 128.792 135.404 131.582Z"
                fill="#3F2719" />
        </g>
        <g style="mix-blend-mode:multiply" opacity="0.23">
            <path
                d="M129.009 133.917C128.831 134.783 128.327 135.642 127.383 136.401C126.368 137.217 124.842 137.913 122.671 138.367C116.517 137.395 111.698 134.187 108.22 131.298C105.594 129.119 103.685 126.663 102.173 124.988C101.271 123.994 100.512 123.278 99.8306 123.072C101.797 121.659 103.876 120.431 105.608 119.75C105.963 120.275 106.325 120.786 106.701 121.276C106.353 121.532 106.36 121.539 106.708 121.283C113.309 130.084 121.429 133.434 127.383 133.874C127.944 133.917 128.491 133.931 129.009 133.917Z"
                fill="#3F2719" />
        </g>
        <path opacity="0.32"
            d="M334.008 235.788C332.659 236.612 335.938 238.322 337.997 238.989C340.048 239.656 336.79 234.099 334.008 235.788Z"
            fill="white" />
        <path opacity="0.32"
            d="M229.383 239.834C228.637 241.154 233.733 243.297 234.578 241.75C235.423 240.203 230.468 237.903 229.383 239.834Z"
            fill="white" />
        <path opacity="0.32"
            d="M155.845 143.03C155.703 141.809 155 140.979 153.864 140.979C154.184 141.334 154.383 141.838 154.454 142.427C154.617 143.704 154.113 144.826 152.906 145.323C151.934 145.727 149.691 146.409 148.676 146.714C148.726 147.033 148.775 147.36 148.825 147.7C150.266 147.232 152.928 146.494 154.297 145.926C155.497 145.429 156.008 144.308 155.845 143.03ZM154.78 134.541C150.223 135.457 145.61 136.649 140.762 137.835C141.323 146.558 143.126 155.089 145.425 163.712C145.809 163.606 146.192 163.492 146.575 163.393C144.389 155.082 142.693 146.849 142.153 138.438C147.001 137.253 151.607 136.06 156.164 135.145C157.037 134.967 157.804 134.981 158.471 135.138C157.548 134.506 156.341 134.229 154.78 134.541ZM154.617 153.662C153.971 152.754 152.48 151.327 150.933 151.398C152.118 151.462 152.942 152.654 153.226 153.059C154.943 155.458 156.64 157.878 158.201 160.242C158.485 160.171 158.762 160.1 159.046 160.029C157.64 157.928 156.136 155.784 154.617 153.662ZM178.741 140.07C177.861 139.765 176.96 139.524 176.059 139.396C174.44 139.148 172.815 139.027 171.19 138.864C171.154 138.864 170.189 138.807 169.706 138.261C170.196 139.276 172.006 139.41 172.581 139.467C174.206 139.63 175.831 139.751 177.45 139.999C178.28 140.127 179.11 140.333 179.934 140.61C179.565 140.404 179.167 140.219 178.741 140.07ZM178.741 149.34C178.628 148.211 177.968 147.48 177.081 147.203C176.896 147.147 176.704 147.09 176.513 147.047C176.967 147.424 177.279 147.991 177.357 148.737C177.471 149.957 176.924 150.859 176.066 151.455C175.257 152.023 174.391 152.214 173.574 152.065C174.717 152.917 176.165 152.967 177.457 152.065C178.316 151.462 178.862 150.561 178.741 149.34ZM174.923 129.609C172.063 129.154 169.451 129.836 166.924 131.397C164.262 133.065 162.85 136.117 163.233 139.417C163.553 142.2 165.206 144.265 167.953 145.166C166.037 144.088 164.887 142.299 164.624 140.021C164.241 136.727 165.653 133.668 168.315 132.008C170.842 130.439 173.454 129.765 176.314 130.219C176.662 130.276 176.995 130.347 177.315 130.453C176.605 130.027 175.81 129.751 174.923 129.609ZM173.681 135.336C174.256 135.805 174.731 136.557 175.093 137.565C175.434 137.466 175.768 137.366 176.101 137.274C175.498 136.11 174.682 135.45 173.681 135.336ZM165.575 150.674C167.229 150.192 168.89 149.709 170.593 149.233C170.473 148.949 170.352 148.651 170.224 148.346C168.152 148.921 166.165 149.489 164.184 150.071C164.844 153.868 166.81 156.473 169.479 157.247C167.527 156.09 166.108 153.783 165.575 150.674Z"
            fill="white" />
        <path d="M136.319 113.518L137.959 117.834" stroke="#9D7B51" stroke-width="3.87"
            stroke-linecap="round" stroke-linejoin="round" />
        <path d="M141.408 114.086L143.048 118.402" stroke="#9D7B51" stroke-width="3.87"
            stroke-linecap="round" stroke-linejoin="round" />
    </g>
    <defs>
        <clipPath id="clip0_378_25138">
            <rect width="426.748" height="272" fill="white" transform="translate(0.251831)" />
        </clipPath>
    </defs>
</svg>
