<?xml version="1.0" encoding="UTF-8"?>
<!DOCTYPE svg PUBLIC "-//W3C//DTD SVG 1.1//EN" "http://www.w3.org/Graphics/SVG/1.1/DTD/svg11.dtd">
<svg xmlns="http://www.w3.org/2000/svg" version="1.1" width="347px" height="327px" style="shape-rendering:geometricPrecision; text-rendering:geometricPrecision; image-rendering:optimizeQuality; fill-rule:evenodd; clip-rule:evenodd" xmlns:xlink="http://www.w3.org/1999/xlink">
<g><path style="opacity:0.399" fill="#767676" d="M 164.5,-0.5 C 176.5,-0.5 188.5,-0.5 200.5,-0.5C 234.372,3.77439 264.372,16.7744 290.5,38.5C 287.976,38.957 285.309,38.957 282.5,38.5C 282.187,41.2469 282.52,43.9135 283.5,46.5C 284.833,38.5 286.167,38.5 287.5,46.5C 289.263,38.7128 290.596,38.7128 291.5,46.5C 292.17,44.7086 292.837,43.0419 293.5,41.5C 293.833,41.5 294.167,41.5 294.5,41.5C 294.5,41.8333 294.5,42.1667 294.5,42.5C 294.5,44.1667 294.5,45.8333 294.5,47.5C 296.167,47.5 297.833,47.5 299.5,47.5C 301.03,48.2112 302.363,49.2112 303.5,50.5C 308.406,55.9826 313.072,61.6492 317.5,67.5C 317.5,67.8333 317.5,68.1667 317.5,68.5C 317.631,69.3764 317.298,70.0431 316.5,70.5C 315.614,69.675 315.281,68.675 315.5,67.5C 314.448,67.3505 313.448,67.5172 312.5,68C 313.717,69.6477 314.55,71.481 315,73.5C 315.414,73.9574 315.914,74.2907 316.5,74.5C 317.735,73.6602 318.735,72.6602 319.5,71.5C 319.833,71.5 320.167,71.5 320.5,71.5C 320.328,72.4916 320.662,73.1583 321.5,73.5C 328.221,84.2756 333.888,95.609 338.5,107.5C 338.145,112.368 336.145,116.534 332.5,120C 336.93,119.731 339.264,117.231 339.5,112.5C 342.726,121.963 345.059,131.63 346.5,141.5C 346.5,153.167 346.5,164.833 346.5,176.5C 344.047,195.973 338.047,214.306 328.5,231.5C 332.979,212.702 329.812,195.369 319,179.5C 312.839,173.157 306.006,167.824 298.5,163.5C 298.34,161.801 298.506,160.134 299,158.5C 299.654,157.304 300.154,157.304 300.5,158.5C 299.754,159.736 299.421,161.07 299.5,162.5C 302.038,161.957 304.372,160.957 306.5,159.5C 306.631,158.624 306.298,157.957 305.5,157.5C 303.162,159.011 302.496,158.677 303.5,156.5C 302.112,153.921 300.612,153.921 299,156.5C 298.508,155.451 298.674,154.451 299.5,153.5C 299.043,152.702 298.376,152.369 297.5,152.5C 296.934,145.105 295.934,137.772 294.5,130.5C 295.29,129.391 295.79,128.058 296,126.5C 296.671,125.748 297.504,125.414 298.5,125.5C 298.423,124.25 297.756,123.417 296.5,123C 299.941,122.164 300.108,121.331 297,120.5C 295.2,121.378 293.367,122.045 291.5,122.5C 288.872,111.949 284.872,101.949 279.5,92.5C 280.212,90.0721 281.212,87.7388 282.5,85.5C 281.675,84.6143 280.675,84.281 279.5,84.5C 279.771,86.3797 279.104,87.713 277.5,88.5C 276.833,88.5 276.5,88.1667 276.5,87.5C 278.258,84.6256 277.592,82.459 274.5,81C 275.308,80.6924 275.975,80.1924 276.5,79.5C 274.833,78.3336 273.166,78.3336 271.5,79.5C 267.235,73.8959 262.568,68.5626 257.5,63.5C 259.458,60.8755 261.791,58.5422 264.5,56.5C 262.258,55.3076 259.925,54.3076 257.5,53.5C 256.808,54.0253 256.308,54.6919 256,55.5C 254.484,52.9485 253.651,53.2819 253.5,56.5C 252.167,56.5 250.833,56.5 249.5,56.5C 245.341,53.2533 241.008,50.2533 236.5,47.5C 237.014,45.6336 237.68,43.8003 238.5,42C 238.167,41.5 237.833,41 237.5,40.5C 236.262,42.7344 234.596,43.0678 232.5,41.5C 230.962,41.4534 229.962,42.1201 229.5,43.5C 229.167,43.5 228.833,43.5 228.5,43.5C 229.014,41.6336 229.68,39.8003 230.5,38C 229.576,36.1886 228.743,36.3553 228,38.5C 227.261,37.4258 226.261,36.7591 225,36.5C 223.493,37.5549 221.993,38.5549 220.5,39.5C 223.499,34.5061 222.166,32.5061 216.5,33.5C 216.709,34.086 217.043,34.586 217.5,35C 215.846,35.6077 214.179,36.1077 212.5,36.5C 212.167,36.5 211.833,36.5 211.5,36.5C 211.018,35.5837 210.685,34.5837 210.5,33.5C 212.293,31.5726 213.293,29.2393 213.5,26.5C 212.167,26.5 210.833,26.5 209.5,26.5C 209.719,25.325 209.386,24.325 208.5,23.5C 207,25.8333 205.5,28.1667 204,30.5C 203.617,29.944 203.117,29.6107 202.5,29.5C 207.015,25.4784 206.182,23.145 200,22.5C 195.553,24.5563 195.386,27.0563 199.5,30C 197.953,30.3334 196.62,29.8334 195.5,28.5C 194.702,28.9569 194.369,29.6236 194.5,30.5C 189.893,26.8362 185.226,26.6695 180.5,30C 178.5,30.6667 176.5,30.6667 174.5,30C 170.02,27.3461 165.52,24.8461 161,22.5C 155.706,23.128 152.206,25.9613 150.5,31C 141.793,31.4536 134.293,34.6203 128,40.5C 127.138,42.087 126.471,43.7536 126,45.5C 118.692,51.2723 116.526,58.439 119.5,67C 116.187,69.0481 112.521,70.0481 108.5,70C 105.765,73.8526 103.099,77.686 100.5,81.5C 98.5328,81.2606 96.6995,81.5939 95,82.5C 94.8333,83.5 94.6667,84.5 94.5,85.5C 94.6399,87.0296 95.3065,88.0296 96.5,88.5C 92.945,98.051 92.6116,107.718 95.5,117.5C 92.1959,116.506 88.8625,115.506 85.5,114.5C 84.3526,116.765 84.1859,119.098 85,121.5C 85.7393,119.779 86.5726,118.113 87.5,116.5C 88.6808,118.135 88.6808,119.802 87.5,121.5C 88.325,122.386 89.325,122.719 90.5,122.5C 90.2308,120.571 90.7308,118.905 92,117.5C 92.1922,119.577 92.6922,121.577 93.5,123.5C 94.0652,121.456 95.0652,119.79 96.5,118.5C 96.6427,120.262 96.3094,121.929 95.5,123.5C 96.2739,124.711 97.1072,124.711 98,123.5C 102.333,130.5 108,136.167 115,140.5C 116.075,143.894 117.242,147.228 118.5,150.5C 116.516,149.844 114.516,149.178 112.5,148.5C 110.431,148.824 110.098,149.658 111.5,151C 110.572,151.388 109.905,152.055 109.5,153C 111.832,154.957 114.499,156.457 117.5,157.5C 118.731,156.349 118.731,155.183 117.5,154C 118.094,153.536 118.761,153.369 119.5,153.5C 121.589,157.515 123.589,161.681 125.5,166C 122.917,168.636 119.917,170.803 116.5,172.5C 116.703,170.956 117.37,169.622 118.5,168.5C 116.827,166.477 116.16,164.144 116.5,161.5C 115.325,161.281 114.325,161.614 113.5,162.5C 116.372,166.523 116.039,170.189 112.5,173.5C 112.863,174.183 113.196,174.85 113.5,175.5C 110.365,178.808 107.365,182.308 104.5,186C 95.9831,186.061 87.6498,184.894 79.5,182.5C 78.5832,183.127 77.5832,183.461 76.5,183.5C 77.1834,181.824 78.5168,181.157 80.5,181.5C 80.2204,177.775 78.2204,176.608 74.5,178C 74.0853,180.026 73.0853,181.526 71.5,182.5C 71.4039,181.215 71.4039,179.881 71.5,178.5C 69.6441,179.276 68.3107,180.609 67.5,182.5C 62.2597,181.18 56.9264,180.513 51.5,180.5C 52.1408,179.518 52.8075,178.518 53.5,177.5C 51.8333,177.5 50.1667,177.5 48.5,177.5C 50.1667,176.167 51.8333,174.833 53.5,173.5C 51.0558,169.979 48.2224,169.645 45,172.5C 44.4436,174.885 44.6103,177.218 45.5,179.5C 44.5084,179.672 43.8417,179.338 43.5,178.5C 42.9239,175.083 41.5906,172.083 39.5,169.5C 39.1667,170.167 38.8333,170.833 38.5,171.5C 39.1734,173.851 39.8401,176.184 40.5,178.5C 33.0693,177.927 25.736,176.927 18.5,175.5C 15.3479,133.756 26.0146,96.0891 50.5,62.5C 51.1667,62.5 51.5,62.1667 51.5,61.5C 51.8333,61.5 52.1667,61.5 52.5,61.5C 52.3505,62.552 52.5172,63.552 53,64.5C 53.8996,62.6025 55.0663,60.9358 56.5,59.5C 57.5472,60.9223 57.5472,62.4223 56.5,64C 56.9739,65.6075 57.6406,65.7742 58.5,64.5C 60.2225,61.0822 59.5558,58.4155 56.5,56.5C 60.8518,51.7503 65.1851,47.0836 69.5,42.5C 70.8333,41.8333 71.8333,40.8333 72.5,39.5C 74.5,38.1667 76.5,36.8333 78.5,35.5C 78.0025,39.2194 78.8358,42.5527 81,45.5C 81.0625,43.0402 80.8958,40.5402 80.5,38C 80.3384,35.498 81.0051,33.3313 82.5,31.5C 107.169,13.9447 134.503,3.27802 164.5,-0.5 Z"/></g>
<g><path style="opacity:0.976" fill="#fafafa" d="M 194.5,30.5 C 196.297,31.7298 198.297,32.3964 200.5,32.5C 203.939,34.2043 207.605,35.5376 211.5,36.5C 211.833,36.5 212.167,36.5 212.5,36.5C 215.081,37.4885 217.748,38.4885 220.5,39.5C 223.101,40.8007 225.768,42.134 228.5,43.5C 228.833,43.5 229.167,43.5 229.5,43.5C 231.833,44.8333 234.167,46.1667 236.5,47.5C 241.008,50.2533 245.341,53.2533 249.5,56.5C 252.126,58.8235 254.793,61.1568 257.5,63.5C 262.568,68.5626 267.235,73.8959 271.5,79.5C 273.181,82.2028 274.847,84.8695 276.5,87.5C 276.5,88.1667 276.833,88.5 277.5,88.5C 277.66,90.153 278.326,91.4863 279.5,92.5C 284.872,101.949 288.872,111.949 291.5,122.5C 292.205,125.354 293.205,128.021 294.5,130.5C 295.934,137.772 296.934,145.105 297.5,152.5C 297.185,156.371 297.518,160.038 298.5,163.5C 306.006,167.824 312.839,173.157 319,179.5C 329.812,195.369 332.979,212.702 328.5,231.5C 327.205,240.935 325.372,250.268 323,259.5C 321.053,263.78 318.053,267.113 314,269.5C 311.826,278.717 310.159,288.05 309,297.5C 307.591,305.139 305.258,312.472 302,319.5C 299.902,321.049 297.568,322.049 295,322.5C 290.622,320.807 286.122,320.307 281.5,321C 276.566,323.363 271.566,325.196 266.5,326.5C 262.167,326.5 257.833,326.5 253.5,326.5C 249.075,325.182 244.741,323.349 240.5,321C 208.771,320.126 177.105,320.459 145.5,322C 104.535,312.842 63.5351,303.842 22.5,295C 14.8372,293.335 9.67049,288.835 7,281.5C 4.6175,253.006 2.1175,224.672 -0.5,196.5C -0.5,193.5 -0.5,190.5 -0.5,187.5C 2.68062,178.732 9.01395,174.732 18.5,175.5C 25.736,176.927 33.0693,177.927 40.5,178.5C 41.5,178.5 42.5,178.5 43.5,178.5C 43.8417,179.338 44.5084,179.672 45.5,179.5C 47.6208,179.325 49.6208,179.659 51.5,180.5C 56.9264,180.513 62.2597,181.18 67.5,182.5C 68.3107,180.609 69.6441,179.276 71.5,178.5C 71.4039,179.881 71.4039,181.215 71.5,182.5C 72.9187,183.451 74.5853,183.784 76.5,183.5C 77.5832,183.461 78.5832,183.127 79.5,182.5C 87.6498,184.894 95.9831,186.061 104.5,186C 107.365,182.308 110.365,178.808 113.5,175.5C 114.833,174.833 115.833,173.833 116.5,172.5C 119.917,170.803 122.917,168.636 125.5,166C 123.589,161.681 121.589,157.515 119.5,153.5C 119.443,152.391 119.11,151.391 118.5,150.5C 117.242,147.228 116.075,143.894 115,140.5C 108,136.167 102.333,130.5 98,123.5C 97.1072,124.711 96.2739,124.711 95.5,123.5C 96.3094,121.929 96.6427,120.262 96.5,118.5C 96.5,117.833 96.1667,117.5 95.5,117.5C 92.6116,107.718 92.945,98.051 96.5,88.5C 98.0828,86.3374 99.4161,84.0041 100.5,81.5C 103.099,77.686 105.765,73.8526 108.5,70C 112.521,70.0481 116.187,69.0481 119.5,67C 116.526,58.439 118.692,51.2723 126,45.5C 126.471,43.7536 127.138,42.087 128,40.5C 134.293,34.6203 141.793,31.4536 150.5,31C 152.206,25.9613 155.706,23.128 161,22.5C 165.52,24.8461 170.02,27.3461 174.5,30C 176.5,30.6667 178.5,30.6667 180.5,30C 185.226,26.6695 189.893,26.8362 194.5,30.5 Z"/></g>
<g><path style="opacity:0.612" fill="#b7b7b7" d="M 202.5,29.5 C 201.833,30.5 201.167,31.5 200.5,32.5C 198.297,32.3964 196.297,31.7298 194.5,30.5C 194.369,29.6236 194.702,28.9569 195.5,28.5C 196.62,29.8334 197.953,30.3334 199.5,30C 195.386,27.0563 195.553,24.5563 200,22.5C 206.182,23.145 207.015,25.4784 202.5,29.5 Z"/></g>
<g><path style="opacity:0.4" fill="#999999" d="M 211.5,36.5 C 207.605,35.5376 203.939,34.2043 200.5,32.5C 201.167,31.5 201.833,30.5 202.5,29.5C 203.117,29.6107 203.617,29.944 204,30.5C 205.5,28.1667 207,25.8333 208.5,23.5C 209.386,24.325 209.719,25.325 209.5,26.5C 210.833,26.5 212.167,26.5 213.5,26.5C 213.293,29.2393 212.293,31.5726 210.5,33.5C 210.685,34.5837 211.018,35.5837 211.5,36.5 Z"/></g>
<g><path style="opacity:0.208" fill="#fefffe" d="M 72.5,39.5 C 71.8333,40.8333 70.8333,41.8333 69.5,42.5C 69.1667,34.5 68.8333,34.5 68.5,42.5C 67.5,42.5 66.5,42.5 65.5,42.5C 65.5,38.8333 65.5,35.1667 65.5,31.5C 66.5,31.5 67.5,31.5 68.5,31.5C 68.4592,35.2434 69.1259,35.4101 70.5,32C 71.9437,31.2195 73.277,31.3861 74.5,32.5C 73.9747,33.1924 73.3081,33.6924 72.5,34C 73.3081,34.3076 73.9747,34.8076 74.5,35.5C 73.1468,36.5237 72.4802,37.857 72.5,39.5 Z"/></g>
<g><path style="opacity:0.612" fill="#b9b9b9" d="M 95.5,32.5 C 97.5328,33.8984 98.5328,35.8984 98.5,38.5C 98.4525,41.3294 97.4525,43.6627 95.5,45.5C 96.6833,41.4431 96.6833,37.1098 95.5,32.5 Z"/></g>
<g><path style="opacity:1" fill="#9e8766" d="M 288.5,155.5 C 288.5,160.5 288.5,165.5 288.5,170.5C 282.046,170.232 275.713,170.898 269.5,172.5C 270.922,146.268 265.588,121.601 253.5,98.5C 256.722,101.471 258.222,100.805 258,96.5C 251.132,92.5981 245.966,87.0981 242.5,80C 237.648,75.574 231.981,72.7407 225.5,71.5C 216.832,66.4889 207.498,62.9889 197.5,61C 196.646,59.9783 195.646,59.1449 194.5,58.5C 189.137,61.6352 186.804,59.9685 187.5,53.5C 186.448,53.3505 185.448,53.5172 184.5,54C 182.288,56.0425 180.288,58.2092 178.5,60.5C 176.465,58.6278 174.298,56.9611 172,55.5C 171.5,55.8333 171,56.1667 170.5,56.5C 171.681,58.198 171.681,59.8647 170.5,61.5C 168.827,59.9137 166.827,59.2471 164.5,59.5C 164.719,60.675 164.386,61.675 163.5,62.5C 153.708,64.9757 144.708,68.9757 136.5,74.5C 135.167,74.5 133.833,74.5 132.5,74.5C 134.158,70.3275 136.825,66.8275 140.5,64C 133.214,63.6169 133.214,61.7835 140.5,58.5C 138.047,56.0805 135.047,54.9138 131.5,55C 136.184,52.4085 141.184,50.5752 146.5,49.5C 147.833,48.5 147.833,47.5 146.5,46.5C 144.339,45.9649 142.339,45.1316 140.5,44C 147.54,41.9243 154.54,42.091 161.5,44.5C 162.408,43.21 162.241,41.8767 161,40.5C 160.333,38.1667 160.333,35.8333 161,33.5C 169.37,40.1794 178.87,43.0127 189.5,42C 187.74,41.0347 187.406,39.868 188.5,38.5C 201.951,43.3725 215.285,48.5391 228.5,54C 254.158,69.6652 271.658,91.8319 281,120.5C 284.23,132.158 286.73,143.824 288.5,155.5 Z"/></g>
<g><path style="opacity:0.561" fill="#c1c1c1" d="M 82.5,31.5 C 81.0051,33.3313 80.3384,35.498 80.5,38C 80.8958,40.5402 81.0625,43.0402 81,45.5C 78.8358,42.5527 78.0025,39.2194 78.5,35.5C 78.5246,32.821 79.858,31.4877 82.5,31.5 Z"/></g>
<g><path style="opacity:0.612" fill="#b0b0b0" d="M 220.5,39.5 C 217.748,38.4885 215.081,37.4885 212.5,36.5C 214.179,36.1077 215.846,35.6077 217.5,35C 217.043,34.586 216.709,34.086 216.5,33.5C 222.166,32.5061 223.499,34.5061 220.5,39.5 Z"/></g>
<g><path style="opacity:0.221" fill="#fefefe" d="M 303.5,50.5 C 302.363,49.2112 301.03,48.2112 299.5,47.5C 298.833,46.5 298.167,45.5 297.5,44.5C 296.5,44.1667 295.833,43.5 295.5,42.5C 299.172,41.9553 298.838,41.6219 294.5,41.5C 295.766,38.3764 297.766,37.8764 300.5,40C 301.187,42.2317 301.521,44.3984 301.5,46.5C 302.474,44.2573 302.808,41.924 302.5,39.5C 305.466,39.1103 308.132,39.777 310.5,41.5C 311.624,40.086 312.624,38.586 313.5,37C 314.332,36.3123 314.998,36.479 315.5,37.5C 315,38.5 314.5,39.5 314,40.5C 313.785,44.285 313.619,47.9516 313.5,51.5C 311.879,49.8474 310.712,47.8474 310,45.5C 308.599,47.1922 306.766,47.8588 304.5,47.5C 304.737,48.791 304.404,49.791 303.5,50.5 Z M 305.5,41.5 C 307.852,42.5426 308.019,43.8759 306,45.5C 304.232,44.3181 304.065,42.9848 305.5,41.5 Z"/></g>
<g><path style="opacity:0.209" fill="#fefffe" d="M 327.5,37.5 C 328.376,37.3691 329.043,37.7025 329.5,38.5C 332.087,43.2222 331.587,47.5555 328,51.5C 327.5,51.1667 327,50.8333 326.5,50.5C 328.758,46.3427 329.091,42.0094 327.5,37.5 Z"/></g>
<g><path style="opacity:0.612" fill="#b7b7b7" d="M 228.5,43.5 C 225.768,42.134 223.101,40.8007 220.5,39.5C 221.993,38.5549 223.493,37.5549 225,36.5C 226.261,36.7591 227.261,37.4258 228,38.5C 228.743,36.3553 229.576,36.1886 230.5,38C 229.68,39.8003 229.014,41.6336 228.5,43.5 Z"/></g>
<g><path style="opacity:0.612" fill="#bdbdbd" d="M 273.5,38.5 C 275.288,38.2148 276.955,38.5481 278.5,39.5C 277.675,40.3857 276.675,40.719 275.5,40.5C 275.785,42.288 275.452,43.9547 274.5,45.5C 273.526,43.2573 273.192,40.924 273.5,38.5 Z"/></g>
<g><path style="opacity:0.612" fill="#bcbcbc" d="M 290.5,38.5 C 292.5,38.5 293.5,39.5 293.5,41.5C 292.837,43.0419 292.17,44.7086 291.5,46.5C 290.596,38.7128 289.263,38.7128 287.5,46.5C 286.167,38.5 284.833,38.5 283.5,46.5C 282.52,43.9135 282.187,41.2469 282.5,38.5C 285.309,38.957 287.976,38.957 290.5,38.5 Z"/></g>
<g><path style="opacity:0.612" fill="#ababab" d="M 236.5,47.5 C 234.167,46.1667 231.833,44.8333 229.5,43.5C 229.962,42.1201 230.962,41.4534 232.5,41.5C 234.596,43.0678 236.262,42.7344 237.5,40.5C 237.833,41 238.167,41.5 238.5,42C 237.68,43.8003 237.014,45.6336 236.5,47.5 Z"/></g>
<g><path style="opacity:0.612" fill="#b3b3b3" d="M 260.5,37.5 C 262.467,37.2606 264.301,37.5939 266,38.5C 266.497,40.8098 266.663,43.1432 266.5,45.5C 264.208,45.7564 262.041,45.4231 260,44.5C 259.411,41.2096 260.911,39.7096 264.5,40C 262.563,39.8784 261.23,39.045 260.5,37.5 Z"/></g>
<g><path style="opacity:0.612" fill="#b6b6b6" d="M 294.5,42.5 C 294.833,42.5 295.167,42.5 295.5,42.5C 295.833,43.5 296.5,44.1667 297.5,44.5C 298.167,45.5 298.833,46.5 299.5,47.5C 297.833,47.5 296.167,47.5 294.5,47.5C 294.5,45.8333 294.5,44.1667 294.5,42.5 Z"/></g>
<g><path style="opacity:0.153" fill="#fefffe" d="M 315.5,45.5 C 316.5,45.5 317.5,45.5 318.5,45.5C 318.5,46.5 318.5,47.5 318.5,48.5C 317.5,48.5 316.5,48.5 315.5,48.5C 315.5,47.5 315.5,46.5 315.5,45.5 Z"/></g>
<g><path style="opacity:0.151" fill="#fefffe" d="M 319.5,45.5 C 320.5,45.5 321.5,45.5 322.5,45.5C 322.5,46.5 322.5,47.5 322.5,48.5C 321.5,48.5 320.5,48.5 319.5,48.5C 319.5,47.5 319.5,46.5 319.5,45.5 Z"/></g>
<g><path style="opacity:0.172" fill="#fefffe" d="M 323.5,45.5 C 327.31,46.7542 327.31,47.7542 323.5,48.5C 323.5,47.5 323.5,46.5 323.5,45.5 Z"/></g>
<g><path style="opacity:0.217" fill="#fefffe" d="M 44.5,55.5 C 49.055,53.3268 51.7216,54.6601 52.5,59.5C 51.6618,59.8417 51.3284,60.5084 51.5,61.5C 50.8333,61.5 50.5,61.8333 50.5,62.5C 47.4041,63.0934 45.0708,62.0934 43.5,59.5C 37.3802,61.8815 35.2135,59.8815 37,53.5C 38.9596,51.1015 41.1263,50.9348 43.5,53C 44.2524,53.6708 44.5858,54.5041 44.5,55.5 Z M 44.5,55.5 C 42.9894,57.4411 40.9894,57.9411 38.5,57C 39.0465,56.0754 39.7132,55.2421 40.5,54.5C 41.7362,55.2458 43.0695,55.5792 44.5,55.5 Z M 47.5,56.5 C 49.9701,57.3603 50.1368,58.6936 48,60.5C 46.2317,59.3181 46.0651,57.9848 47.5,56.5 Z"/></g>
<g><path style="opacity:1" fill="#494033" d="M 289.5,155.5 C 289.167,155.5 288.833,155.5 288.5,155.5C 286.73,143.824 284.23,132.158 281,120.5C 271.658,91.8319 254.158,69.6652 228.5,54C 215.285,48.5391 201.951,43.3725 188.5,38.5C 187.406,39.868 187.74,41.0347 189.5,42C 178.87,43.0127 169.37,40.1794 161,33.5C 160.333,35.8333 160.333,38.1667 161,40.5C 162.241,41.8767 162.408,43.21 161.5,44.5C 154.54,42.091 147.54,41.9243 140.5,44C 142.339,45.1316 144.339,45.9649 146.5,46.5C 147.833,47.5 147.833,48.5 146.5,49.5C 141.184,50.5752 136.184,52.4085 131.5,55C 135.047,54.9138 138.047,56.0805 140.5,58.5C 133.214,61.7835 133.214,63.6169 140.5,64C 136.825,66.8275 134.158,70.3275 132.5,74.5C 131.833,74.1667 131.167,73.8333 130.5,73.5C 132.467,70.4214 134.8,67.5881 137.5,65C 135.331,64.5706 133.331,65.0706 131.5,66.5C 131.167,66.1667 130.833,65.8333 130.5,65.5C 132.272,62.4402 134.605,59.9402 137.5,58C 134.167,57.6667 130.833,57.3333 127.5,57C 132.337,51.9146 138.337,48.9146 145.5,48C 142.024,46.7458 138.358,46.0791 134.5,46C 141.503,40.6067 149.336,39.1067 158,41.5C 158.5,41.1667 159,40.8333 159.5,40.5C 157.999,37.1728 158.499,34.1728 161,31.5C 168.018,37.5621 176.184,40.5621 185.5,40.5C 185.5,39.1667 185.5,37.8333 185.5,36.5C 248.529,51.2053 283.195,90.872 289.5,155.5 Z"/></g>
<g><path style="opacity:1" fill="#bca37b" d="M 225.5,71.5 C 217.444,70.5765 210.111,72.4099 203.5,77C 200.268,80.0623 197.268,83.229 194.5,86.5C 189.796,89.0467 184.796,89.8801 179.5,89C 176.936,85.5002 175.269,86.0002 174.5,90.5C 173.5,91 172.5,91.5 171.5,92C 167.975,91.9841 164.642,92.1507 161.5,92.5C 156.254,82.363 147.921,76.363 136.5,74.5C 144.708,68.9757 153.708,64.9757 163.5,62.5C 164.386,61.675 164.719,60.675 164.5,59.5C 166.827,59.2471 168.827,59.9137 170.5,61.5C 171.681,59.8647 171.681,58.198 170.5,56.5C 171,56.1667 171.5,55.8333 172,55.5C 174.298,56.9611 176.465,58.6278 178.5,60.5C 180.288,58.2092 182.288,56.0425 184.5,54C 185.448,53.5172 186.448,53.3505 187.5,53.5C 186.804,59.9685 189.137,61.6352 194.5,58.5C 195.646,59.1449 196.646,59.9783 197.5,61C 207.498,62.9889 216.832,66.4889 225.5,71.5 Z"/></g>
<g><path style="opacity:0.612" fill="#bdbdbd" d="M 95.5,55.5 C 101.258,56.6645 102.925,59.9979 100.5,65.5C 99.0398,57.7212 97.3731,57.7212 95.5,65.5C 94.8081,62.2303 94.8081,58.897 95.5,55.5 Z"/></g>
<g><path style="opacity:0.4" fill="#a0a0a0" d="M 257.5,63.5 C 254.793,61.1568 252.126,58.8235 249.5,56.5C 250.833,56.5 252.167,56.5 253.5,56.5C 253.651,53.2819 254.484,52.9485 256,55.5C 256.308,54.6919 256.808,54.0253 257.5,53.5C 259.925,54.3076 262.258,55.3076 264.5,56.5C 261.791,58.5422 259.458,60.8755 257.5,63.5 Z"/></g>
<g><path style="opacity:0.612" fill="#b6b6b6" d="M 89.5,56.5 C 94.1103,56.5959 94.4436,57.5959 90.5,59.5C 91.2421,60.2868 92.0754,60.9535 93,61.5C 93.6877,62.3317 93.521,62.9984 92.5,63.5C 89.4098,62.4106 87.4098,60.4106 86.5,57.5C 87.791,57.7373 88.791,57.404 89.5,56.5 Z"/></g>
<g><path style="opacity:0.595" fill="#b8b8b8" d="M 104.5,58.5 C 107.833,58.5 109.5,60.1667 109.5,63.5C 103.676,63.3466 103.343,64.0133 108.5,65.5C 105.207,67.0501 103.207,66.0501 102.5,62.5C 102.752,60.9271 103.418,59.5938 104.5,58.5 Z"/></g>
<g><path style="opacity:0.612" fill="#b7b7b7" d="M 71.5,59.5 C 72.1386,60.0968 72.472,60.9302 72.5,62C 71.5,64.5 70.5,67 69.5,69.5C 68.5,69.1667 67.8333,68.5 67.5,67.5C 68.1892,65.556 68.6892,63.556 69,61.5C 69.9947,60.9341 70.828,60.2674 71.5,59.5 Z"/></g>
<g><path style="opacity:0.6" fill="#c7c7c7" d="M 56.5,56.5 C 59.5558,58.4155 60.2225,61.0822 58.5,64.5C 57.6406,65.7742 56.9739,65.6075 56.5,64C 57.5472,62.4223 57.5472,60.9223 56.5,59.5C 55.0663,60.9358 53.8996,62.6025 53,64.5C 52.5172,63.552 52.3505,62.552 52.5,61.5C 52.5,60.8333 52.5,60.1667 52.5,59.5C 53.404,58.791 53.7373,57.791 53.5,56.5C 54.5,56.5 55.5,56.5 56.5,56.5 Z"/></g>
<g><path style="opacity:0.612" fill="#bababa" d="M 61.5,59.5 C 63.8421,59.5041 65.8421,60.3375 67.5,62C 66.8333,62.3333 66.1667,62.6667 65.5,63C 66.7704,67.2613 65.2704,68.4279 61,66.5C 60.3123,65.6683 60.479,65.0016 61.5,64.5C 64.6558,65.7719 64.9891,65.4386 62.5,63.5C 61.5713,62.3112 61.238,60.9778 61.5,59.5 Z"/></g>
<g><path style="opacity:0.612" fill="#b8b8b8" d="M 111.5,59.5 C 113.144,59.2865 114.644,59.6198 116,60.5C 116.497,62.8098 116.663,65.1432 116.5,67.5C 114.5,67.5 112.5,67.5 110.5,67.5C 110.241,64.5203 111.574,62.687 114.5,62C 112.881,61.7645 111.881,60.9311 111.5,59.5 Z"/></g>
<g><path style="opacity:0.211" fill="#fdfdfd" d="M 321.5,73.5 C 320.662,73.1583 320.328,72.4916 320.5,71.5C 323.015,70.9254 323.515,69.9254 322,68.5C 320.699,68.6387 319.866,69.3054 319.5,70.5C 318.833,69.8333 318.167,69.1667 317.5,68.5C 317.5,68.1667 317.5,67.8333 317.5,67.5C 319.481,66.6525 321.481,66.1525 323.5,66C 326.707,66.5717 328.374,68.405 328.5,71.5C 326.079,71.8782 323.746,72.5448 321.5,73.5 Z"/></g>
<g><path style="opacity:0.612" fill="#ababab" d="M 305.5,64.5 C 306.5,64.5 307.5,64.5 308.5,64.5C 308.5,67.8333 308.5,71.1667 308.5,74.5C 302.574,76.7387 300.074,74.7387 301,68.5C 302.356,67.6198 303.856,67.2865 305.5,67.5C 305.5,66.5 305.5,65.5 305.5,64.5 Z"/></g>
<g><path style="opacity:0.612" fill="#bbbbbb" d="M 309.5,67.5 C 310.725,68.1522 311.392,69.3189 311.5,71C 311.167,72.1667 310.833,73.3333 310.5,74.5C 309.526,72.2573 309.192,69.924 309.5,67.5 Z"/></g>
<g><path style="opacity:0.612" fill="#bbbbbb" d="M 317.5,68.5 C 318.167,69.1667 318.833,69.8333 319.5,70.5C 319.5,70.8333 319.5,71.1667 319.5,71.5C 318.735,72.6602 317.735,73.6602 316.5,74.5C 315.914,74.2907 315.414,73.9574 315,73.5C 314.55,71.481 313.717,69.6477 312.5,68C 313.448,67.5172 314.448,67.3505 315.5,67.5C 315.281,68.675 315.614,69.675 316.5,70.5C 317.298,70.0431 317.631,69.3764 317.5,68.5 Z"/></g>
<g><path style="opacity:0.584" fill="#b9b9b9" d="M 298.5,65.5 C 299.097,65.7352 299.43,66.2352 299.5,67C 298.728,68.221 297.728,69.221 296.5,70C 298.904,70.5079 299.571,71.6745 298.5,73.5C 296.118,72.6493 294.118,71.316 292.5,69.5C 294.565,68.1433 296.565,66.81 298.5,65.5 Z"/></g>
<g><path style="opacity:1" fill="#312a1e" d="M 225.5,71.5 C 231.981,72.7407 237.648,75.574 242.5,80C 245.966,87.0981 251.132,92.5981 258,96.5C 258.222,100.805 256.722,101.471 253.5,98.5C 251.797,97.3398 251.131,98.0065 251.5,100.5C 248.664,122.169 236.33,132.335 214.5,131C 213.255,130.209 211.922,129.709 210.5,129.5C 207.339,128.087 204.339,126.42 201.5,124.5C 199.804,122.475 198.137,120.475 196.5,118.5C 193.519,113.56 191.519,108.227 190.5,102.5C 183.565,100.062 176.565,99.895 169.5,102C 167.413,102.792 165.579,103.959 164,105.5C 162.737,116.041 157.904,124.374 149.5,130.5C 141.78,134.114 133.78,135.114 125.5,133.5C 124.295,132.314 122.961,132.314 121.5,133.5C 118.237,130.417 114.737,127.417 111,124.5C 100.405,109.625 101.239,95.4588 113.5,82C 118.775,78.0287 124.442,75.1954 130.5,73.5C 131.167,73.8333 131.833,74.1667 132.5,74.5C 133.833,74.5 135.167,74.5 136.5,74.5C 147.921,76.363 156.254,82.363 161.5,92.5C 162.226,95.1794 163.059,97.846 164,100.5C 166.304,98.9315 168.804,97.7648 171.5,97C 176.833,96.3333 182.167,96.3333 187.5,97C 188.766,97.3095 189.933,97.8095 191,98.5C 191.884,94.4042 193.05,90.4042 194.5,86.5C 197.268,83.229 200.268,80.0623 203.5,77C 210.111,72.4099 217.444,70.5765 225.5,71.5 Z"/></g>
<g><path style="opacity:0.612" fill="#b6b6b6" d="M 50.5,74.5 C 51.5,74.5 52.5,74.5 53.5,74.5C 52.2964,76.7338 51.1297,79.0671 50,81.5C 49.6892,83.556 49.1892,85.556 48.5,87.5C 49.8793,88.8626 49.7126,89.8626 48,90.5C 46.5,90.3333 45.6667,89.5 45.5,88C 46.7585,85.8151 46.7585,83.6484 45.5,81.5C 47.9,79.7036 49.5667,77.3702 50.5,74.5 Z"/></g>
<g><path style="opacity:0.612" fill="#b4b4b4" d="M 81.5,77.5 C 82.5,77.5 83.5,77.5 84.5,77.5C 84.6653,81.1817 84.4986,84.8484 84,88.5C 83.586,88.9574 83.086,89.2907 82.5,89.5C 81.5091,85.5546 81.1758,81.5546 81.5,77.5 Z"/></g>
<g><path style="opacity:0.596" fill="#b8b8b8" d="M 276.5,87.5 C 274.847,84.8695 273.181,82.2028 271.5,79.5C 273.166,78.3336 274.833,78.3336 276.5,79.5C 275.975,80.1924 275.308,80.6924 274.5,81C 277.592,82.459 278.258,84.6256 276.5,87.5 Z"/></g>
<g><path style="opacity:0.612" fill="#b5b5b5" d="M 86.5,80.5 C 88.7505,80.1814 90.7505,80.6814 92.5,82C 88.0201,82.2926 87.6867,83.126 91.5,84.5C 92.7472,86.0064 92.7472,87.5064 91.5,89C 89.1913,89.7562 87.1913,89.2562 85.5,87.5C 86.376,86.7492 87.376,86.2492 88.5,86C 85.5409,84.9543 84.8742,83.1209 86.5,80.5 Z"/></g>
<g><path style="opacity:1" fill="#f3f3f3" d="M 124.5,80.5 C 122.904,88.6296 119.071,95.9629 113,102.5C 111.991,104.025 111.491,105.692 111.5,107.5C 113.933,107.727 115.599,106.727 116.5,104.5C 117.268,105.263 117.768,106.263 118,107.5C 118.302,113.533 118.802,119.533 119.5,125.5C 116.236,124.073 113.736,121.739 112,118.5C 104.734,105.568 106.567,94.0681 117.5,84C 119.577,82.295 121.91,81.1283 124.5,80.5 Z"/></g>
<g><path style="opacity:1" fill="#d6c6ad" d="M 214.5,76.5 C 214.579,77.9305 214.246,79.2638 213.5,80.5C 213.957,81.2975 214.624,81.6309 215.5,81.5C 214.791,82.404 213.791,82.7373 212.5,82.5C 207.894,83.5529 203.727,85.5529 200,88.5C 199.601,88.2716 199.435,87.9382 199.5,87.5C 203.094,81.9048 208.094,78.2381 214.5,76.5 Z"/></g>
<g><path style="opacity:0.612" fill="#b5b5b5" d="M 75.5,80.5 C 78.8333,80.5 80.5,82.1667 80.5,85.5C 78.712,85.2148 77.0453,85.5481 75.5,86.5C 76.3914,87.5896 77.3914,87.5896 78.5,86.5C 79.7112,87.2739 79.7112,88.1072 78.5,89C 75.1432,90.1412 73.1432,88.9746 72.5,85.5C 72.7573,83.3076 73.7573,81.6409 75.5,80.5 Z"/></g>
<g><path style="opacity:0.612" fill="#b5b5b5" d="M 100.5,81.5 C 99.4161,84.0041 98.0828,86.3374 96.5,88.5C 95.3065,88.0296 94.6399,87.0296 94.5,85.5C 94.6667,84.5 94.8333,83.5 95,82.5C 96.6995,81.5939 98.5328,81.2606 100.5,81.5 Z"/></g>
<g><path style="opacity:1" fill="#777269" d="M 212.5,82.5 C 211.833,84.1667 211.167,85.8333 210.5,87.5C 205.296,89.7115 200.629,92.7115 196.5,96.5C 196.69,93.145 197.69,90.145 199.5,87.5C 199.435,87.9382 199.601,88.2716 200,88.5C 203.727,85.5529 207.894,83.5529 212.5,82.5 Z"/></g>
<g><path style="opacity:1" fill="#e3ded5" d="M 240.5,84.5 C 239.687,85.6527 238.687,85.6527 237.5,84.5C 236.295,85.5769 235.628,86.9102 235.5,88.5C 234.264,90.649 233.264,92.9823 232.5,95.5C 231.662,95.8417 231.328,96.5084 231.5,97.5C 229.167,97.5 226.833,97.5 224.5,97.5C 226.298,92.7804 228.298,88.1138 230.5,83.5C 230.376,82.8933 230.043,82.56 229.5,82.5C 225.03,81.5139 220.363,81.1805 215.5,81.5C 214.624,81.6309 213.957,81.2975 213.5,80.5C 214.246,79.2638 214.579,77.9305 214.5,76.5C 224.73,74.1324 233.396,76.799 240.5,84.5 Z"/></g>
<g><path style="opacity:1" fill="#bcb6ad" d="M 139.5,79.5 C 130.945,77.5662 126.778,80.8995 127,89.5C 131.166,85.9729 135.999,84.6395 141.5,85.5C 141.567,86.9587 141.234,88.2921 140.5,89.5C 133.773,89.3665 128.106,91.6998 123.5,96.5C 123.472,94.4176 124.139,92.5843 125.5,91C 124.262,91.0773 123.262,90.9106 122.5,90.5C 124.258,86.6462 126.258,82.9795 128.5,79.5C 132.167,78.1667 135.833,78.1667 139.5,79.5 Z"/></g>
<g><path style="opacity:1" fill="#757068" d="M 240.5,84.5 C 242.653,86.7937 244.32,89.4604 245.5,92.5C 242.167,91.1667 238.833,89.8333 235.5,88.5C 235.628,86.9102 236.295,85.5769 237.5,84.5C 238.687,85.6527 239.687,85.6527 240.5,84.5 Z"/></g>
<g><path style="opacity:1" fill="#d3ccc1" d="M 215.5,81.5 C 220.363,81.1805 225.03,81.5139 229.5,82.5C 228.325,82.281 227.325,82.6143 226.5,83.5C 224.494,88.5239 222.494,93.5239 220.5,98.5C 217.044,98.5965 213.877,99.5965 211,101.5C 209.755,105.765 210.922,109.098 214.5,111.5C 213.438,116.053 211.438,120.053 208.5,123.5C 204.478,121.478 201.478,118.478 199.5,114.5C 202.908,105.356 206.575,96.3563 210.5,87.5C 211.167,85.8333 211.833,84.1667 212.5,82.5C 213.791,82.7373 214.791,82.404 215.5,81.5 Z"/></g>
<g><path style="opacity:1" fill="#a79b89" d="M 229.5,82.5 C 230.043,82.56 230.376,82.8933 230.5,83.5C 228.298,88.1138 226.298,92.7804 224.5,97.5C 223.432,98.4345 222.099,98.7678 220.5,98.5C 222.494,93.5239 224.494,88.5239 226.5,83.5C 227.325,82.6143 228.325,82.281 229.5,82.5 Z"/></g>
<g><path style="opacity:0.612" fill="#b8b8b8" d="M 283.5,85.5 C 290.47,86.7491 291.47,90.0825 286.5,95.5C 285.511,93.4122 285.844,91.4122 287.5,89.5C 287,89.1667 286.5,88.8333 286,88.5C 284.667,89.8333 283.333,91.1667 282,92.5C 281.5,92.3333 281,92.1667 280.5,92C 281.914,90.0065 282.914,87.8398 283.5,85.5 Z"/></g>
<g><path style="opacity:1" fill="#ecd3ac" d="M 194.5,86.5 C 193.05,90.4042 191.884,94.4042 191,98.5C 189.933,97.8095 188.766,97.3095 187.5,97C 182.167,96.3333 176.833,96.3333 171.5,97C 168.804,97.7648 166.304,98.9315 164,100.5C 163.059,97.846 162.226,95.1794 161.5,92.5C 164.642,92.1507 167.975,91.9841 171.5,92C 172.5,91.5 173.5,91 174.5,90.5C 175.269,86.0002 176.936,85.5002 179.5,89C 184.796,89.8801 189.796,89.0467 194.5,86.5 Z"/></g>
<g><path style="opacity:1" fill="#b3a38b" d="M 235.5,88.5 C 238.833,89.8333 242.167,91.1667 245.5,92.5C 249.112,116.208 239.112,127.542 215.5,126.5C 216.978,126.762 218.311,126.429 219.5,125.5C 220.942,121.624 222.609,117.957 224.5,114.5C 235.588,114.272 240.088,108.939 238,98.5C 236.512,96.84 234.679,95.84 232.5,95.5C 233.264,92.9823 234.264,90.649 235.5,88.5 Z"/></g>
<g><path style="opacity:0.612" fill="#b9b9b9" d="M 279.5,92.5 C 278.326,91.4863 277.66,90.153 277.5,88.5C 279.104,87.713 279.771,86.3797 279.5,84.5C 280.675,84.281 281.675,84.6143 282.5,85.5C 281.212,87.7388 280.212,90.0721 279.5,92.5 Z"/></g>
<g><path style="opacity:1" fill="#d9d2c7" d="M 140.5,89.5 C 139.125,93.1164 137.459,96.6164 135.5,100C 136.793,100.49 138.127,100.657 139.5,100.5C 136.103,101.198 132.603,101.865 129,102.5C 126.842,106.539 127.342,110.206 130.5,113.5C 128.544,118.377 126.211,123.044 123.5,127.5C 121.847,127.34 120.514,126.674 119.5,125.5C 118.802,119.533 118.302,113.533 118,107.5C 117.768,106.263 117.268,105.263 116.5,104.5C 116.56,103.957 116.893,103.624 117.5,103.5C 118.251,104.376 118.751,105.376 119,106.5C 119.333,104.5 119.667,102.5 120,100.5C 121.376,99.2949 122.542,97.9616 123.5,96.5C 128.106,91.6998 133.773,89.3665 140.5,89.5 Z"/></g>
<g><path style="opacity:1" fill="#a69a87" d="M 141.5,85.5 C 142.978,85.238 144.311,85.5713 145.5,86.5C 143.485,91.1925 141.485,95.8592 139.5,100.5C 138.127,100.657 136.793,100.49 135.5,100C 137.459,96.6164 139.125,93.1164 140.5,89.5C 141.234,88.2921 141.567,86.9587 141.5,85.5 Z"/></g>
<g><path style="opacity:1" fill="#726d66" d="M 154.5,89.5 C 156.341,91.8485 157.674,94.5152 158.5,97.5C 155.527,95.8532 152.86,93.8532 150.5,91.5C 150.794,88.5189 152.128,87.8522 154.5,89.5 Z"/></g>
<g><path style="opacity:1" fill="#b6a78e" d="M 210.5,87.5 C 206.575,96.3563 202.908,105.356 199.5,114.5C 195.744,108.911 194.744,102.911 196.5,96.5C 200.629,92.7115 205.296,89.7115 210.5,87.5 Z"/></g>
<g><path style="opacity:1" fill="#e7e1d9" d="M 139.5,79.5 C 146.024,80.5921 151.024,83.9255 154.5,89.5C 152.128,87.8522 150.794,88.5189 150.5,91.5C 148.98,93.8902 147.98,96.5568 147.5,99.5C 146.662,99.8417 146.328,100.508 146.5,101.5C 144.283,100.631 141.95,100.298 139.5,100.5C 141.485,95.8592 143.485,91.1925 145.5,86.5C 144.311,85.5713 142.978,85.238 141.5,85.5C 135.999,84.6395 131.166,85.9729 127,89.5C 126.778,80.8995 130.945,77.5662 139.5,79.5 Z"/></g>
<g><path style="opacity:1" fill="#79756e" d="M 124.5,80.5 C 125.568,79.5655 126.901,79.2322 128.5,79.5C 126.258,82.9795 124.258,86.6462 122.5,90.5C 123.262,90.9106 124.262,91.0773 125.5,91C 124.139,92.5843 123.472,94.4176 123.5,96.5C 122.542,97.9616 121.376,99.2949 120,100.5C 119.667,102.5 119.333,104.5 119,106.5C 118.751,105.376 118.251,104.376 117.5,103.5C 116.893,103.624 116.56,103.957 116.5,104.5C 115.599,106.727 113.933,107.727 111.5,107.5C 111.491,105.692 111.991,104.025 113,102.5C 119.071,95.9629 122.904,88.6296 124.5,80.5 Z"/></g>
<g><path style="opacity:0.612" fill="#b4b4b4" d="M 291.5,90.5 C 294.547,89.8554 296.713,90.8554 298,93.5C 300.24,90.8333 301.74,91.3333 302.5,95C 299.359,95.6311 298.359,97.2978 299.5,100C 298.552,100.483 297.552,100.649 296.5,100.5C 298.486,96.148 297.152,93.4813 292.5,92.5C 292.5,93.5 292.5,94.5 292.5,95.5C 295.988,95.8991 296.154,96.5658 293,97.5C 291.029,97.7186 289.862,96.8853 289.5,95C 290.044,93.415 290.711,91.915 291.5,90.5 Z"/></g>
<g><path style="opacity:1" fill="#b2a38b" d="M 150.5,91.5 C 152.86,93.8532 155.527,95.8532 158.5,97.5C 161.187,113.998 154.52,124.832 138.5,130C 134.973,130.808 131.64,130.641 128.5,129.5C 130.604,129.799 132.604,129.466 134.5,128.5C 136.275,123.956 138.275,119.623 140.5,115.5C 149.375,116.789 153.208,112.789 152,103.5C 151.208,101.356 149.708,100.023 147.5,99.5C 147.98,96.5568 148.98,93.8902 150.5,91.5 Z"/></g>
<g><path style="opacity:1" fill="#f5f4f3" d="M 224.5,97.5 C 226.833,97.5 229.167,97.5 231.5,97.5C 237.156,97.8674 238.989,100.867 237,106.5C 236.535,107.931 235.701,109.097 234.5,110C 231.054,111.509 227.72,113.009 224.5,114.5C 222.609,117.957 220.942,121.624 219.5,125.5C 218.311,126.429 216.978,126.762 215.5,126.5C 214.209,126.737 213.209,126.404 212.5,125.5C 214.062,121.655 215.729,117.821 217.5,114C 216.87,112.69 215.87,111.856 214.5,111.5C 210.922,109.098 209.755,105.765 211,101.5C 213.877,99.5965 217.044,98.5965 220.5,98.5C 222.099,98.7678 223.432,98.4345 224.5,97.5 Z"/></g>
<g><path style="opacity:1" fill="#7e7970" d="M 232.5,95.5 C 234.679,95.84 236.512,96.84 238,98.5C 240.088,108.939 235.588,114.272 224.5,114.5C 227.72,113.009 231.054,111.509 234.5,110C 235.701,109.097 236.535,107.931 237,106.5C 238.989,100.867 237.156,97.8674 231.5,97.5C 231.328,96.5084 231.662,95.8417 232.5,95.5 Z"/></g>
<g><path style="opacity:0.612" fill="#ababab" d="M 306.5,97.5 C 312.452,97.6091 313.786,100.109 310.5,105C 304.403,105.147 303.07,102.647 306.5,97.5 Z"/></g>
<g><path style="opacity:0.612" fill="#b9b9b9" d="M 313.5,100.5 C 315.5,100.833 317.5,101.167 319.5,101.5C 319.425,104.206 319.092,106.873 318.5,109.5C 317.448,109.649 316.448,109.483 315.5,109C 317.378,107.007 317.712,104.841 316.5,102.5C 315.376,103.914 314.376,105.414 313.5,107C 312.668,107.688 312.002,107.521 311.5,106.5C 312.747,104.677 313.414,102.677 313.5,100.5 Z"/></g>
<g><path style="opacity:0.612" fill="#b6b6b6" d="M 45.5,100.5 C 47.8333,101.167 50.1667,101.833 52.5,102.5C 51.9564,106.673 50.7897,110.673 49,114.5C 45.3902,115.954 42.5569,114.954 40.5,111.5C 41.376,110.749 42.376,110.249 43.5,110C 40.7486,106.167 41.4153,103 45.5,100.5 Z"/></g>
<g><path style="opacity:1" fill="#f5f4f2" d="M 139.5,100.5 C 141.95,100.298 144.283,100.631 146.5,101.5C 148.017,101.511 149.184,102.177 150,103.5C 151.219,110.796 148.052,114.796 140.5,115.5C 138.275,119.623 136.275,123.956 134.5,128.5C 132.604,129.466 130.604,129.799 128.5,129.5C 128.167,129.5 127.833,129.5 127.5,129.5C 129.308,124.741 131.308,120.075 133.5,115.5C 132.995,114.081 131.995,113.415 130.5,113.5C 127.342,110.206 126.842,106.539 129,102.5C 132.603,101.865 136.103,101.198 139.5,100.5 Z"/></g>
<g><path style="opacity:1" fill="#7a7670" d="M 221.5,100.5 C 222.239,100.369 222.906,100.536 223.5,101C 219.493,108.408 218.827,108.242 221.5,100.5 Z"/></g>
<g><path style="opacity:1" fill="#917954" d="M 251.5,100.5 C 254.933,105.719 256.6,111.552 256.5,118C 256.226,123.916 255.393,129.749 254,135.5C 253.19,139.787 251.357,143.454 248.5,146.5C 233.232,146.87 220.565,141.203 210.5,129.5C 211.922,129.709 213.255,130.209 214.5,131C 236.33,132.335 248.664,122.169 251.5,100.5 Z"/></g>
<g><path style="opacity:0.4" fill="#7b7b7b" d="M 45.5,103.5 C 48.9209,103.238 49.9209,104.572 48.5,107.5C 47.3112,108.429 45.9778,108.762 44.5,108.5C 44.6287,106.784 44.962,105.117 45.5,103.5 Z"/></g>
<g><path style="opacity:0.612" fill="#bbbbbb" d="M 60.5,102.5 C 61.5,102.5 62.5,102.5 63.5,102.5C 63.8333,104.5 64.1667,106.5 64.5,108.5C 63.5,108.5 62.5,108.5 61.5,108.5C 61.3184,110.591 61.6518,112.591 62.5,114.5C 61.3493,115.731 60.1827,115.731 59,114.5C 58.8733,111.396 58.7066,108.396 58.5,105.5C 59.6119,104.735 60.2786,103.735 60.5,102.5 Z"/></g>
<g><path style="opacity:1" fill="#88857f" d="M 137.5,102.5 C 138.152,104.621 137.485,106.621 135.5,108.5C 135.167,108 134.833,107.5 134.5,107C 135.315,105.357 136.315,103.857 137.5,102.5 Z"/></g>
<g><path style="opacity:1" fill="#bba37b" d="M 253.5,98.5 C 265.588,121.601 270.922,146.268 269.5,172.5C 263.533,175.278 258.199,179.111 253.5,184C 253.728,184.399 254.062,184.565 254.5,184.5C 247.916,188.287 240.916,191.287 233.5,193.5C 232.791,192.596 231.791,192.263 230.5,192.5C 230.102,187.807 228.602,183.474 226,179.5C 225.196,178.196 224.029,177.529 222.5,177.5C 211.145,181.928 200.978,188.261 192,196.5C 189.251,193.959 185.918,192.959 182,193.5C 177.962,192.983 174.462,193.983 171.5,196.5C 166.31,192.142 160.977,187.976 155.5,184C 152.029,181.928 148.362,180.428 144.5,179.5C 142.582,178.132 140.415,177.132 138,176.5C 137.697,172.106 137.03,167.773 136,163.5C 131.152,154.121 126.985,144.455 123.5,134.5C 123.957,133.702 124.624,133.369 125.5,133.5C 126.5,136.167 127.5,138.833 128.5,141.5C 138.07,165.552 155.904,177.885 182,178.5C 207.273,178.637 228.606,169.637 246,151.5C 247.094,149.922 247.928,148.255 248.5,146.5C 251.357,143.454 253.19,139.787 254,135.5C 255.393,129.749 256.226,123.916 256.5,118C 256.6,111.552 254.933,105.719 251.5,100.5C 251.131,98.0065 251.797,97.3398 253.5,98.5 Z"/></g>
<g><path style="opacity:0.612" fill="#bababa" d="M 54.5,103.5 C 55.5,103.5 56.5,103.5 57.5,103.5C 56.6261,106.789 55.9595,110.123 55.5,113.5C 54.5,113.5 53.5,113.5 52.5,113.5C 52.9595,110.123 53.6261,106.789 54.5,103.5 Z"/></g>
<g><path style="opacity:0.59" fill="#b4b4b4" d="M 324.5,102.5 C 326.657,103.053 326.49,104.053 324,105.5C 322.4,108.334 321.234,111.334 320.5,114.5C 319,109.511 320.333,105.511 324.5,102.5 Z"/></g>
<g><path style="opacity:1" fill="#272118" d="M 190.5,115.5 C 187.244,118.79 183.244,120.457 178.5,120.5C 178.334,124.514 178.501,128.514 179,132.5C 179.465,133.931 180.299,135.097 181.5,136C 185.701,136.922 189.701,136.422 193.5,134.5C 193.833,134.833 194.167,135.167 194.5,135.5C 188.659,139.829 183.159,139.495 178,134.5C 176.621,129.964 176.121,125.297 176.5,120.5C 173.813,120.664 171.146,120.497 168.5,120C 166.249,119.252 164.916,117.752 164.5,115.5C 167.917,111.219 172.417,109.552 178,110.5C 181.59,110.472 185.09,110.972 188.5,112C 189.823,112.816 190.489,113.983 190.5,115.5 Z"/></g>
<g><path style="opacity:1" fill="#7d7870" d="M 147.5,99.5 C 149.708,100.023 151.208,101.356 152,103.5C 153.208,112.789 149.375,116.789 140.5,115.5C 148.052,114.796 151.219,110.796 150,103.5C 149.184,102.177 148.017,101.511 146.5,101.5C 146.328,100.508 146.662,99.8417 147.5,99.5 Z"/></g>
<g><path style="opacity:0.612" fill="#bababa" d="M 69.5,110.5 C 72.0217,110.128 74.0217,110.961 75.5,113C 74.1011,113.595 72.7678,113.428 71.5,112.5C 70.1667,113.833 70.1667,115.167 71.5,116.5C 72.6753,115.145 73.6753,115.312 74.5,117C 72.7979,118.718 70.9645,118.885 69,117.5C 68.2967,115.071 68.4634,112.738 69.5,110.5 Z"/></g>
<g><path style="opacity:1" fill="#b2a48e" d="M 214.5,111.5 C 215.87,111.856 216.87,112.69 217.5,114C 215.729,117.821 214.062,121.655 212.5,125.5C 210.847,125.34 209.514,124.674 208.5,123.5C 211.438,120.053 213.438,116.053 214.5,111.5 Z"/></g>
<g><path style="opacity:0.612" fill="#b9b9b9" d="M 338.5,107.5 C 339.451,108.919 339.784,110.585 339.5,112.5C 339.264,117.231 336.93,119.731 332.5,120C 336.145,116.534 338.145,112.368 338.5,107.5 Z"/></g>
<g><path style="opacity:0.612" fill="#aeaeae" d="M 77.5,112.5 C 79.1439,112.286 80.6439,112.62 82,113.5C 83.6698,120.18 81.6698,121.846 76,118.5C 75.2516,116.16 75.7516,114.16 77.5,112.5 Z"/></g>
<g><path style="opacity:0.612" fill="#b8b8b8" d="M 95.5,117.5 C 96.1667,117.5 96.5,117.833 96.5,118.5C 95.0652,119.79 94.0652,121.456 93.5,123.5C 92.6922,121.577 92.1922,119.577 92,117.5C 90.7308,118.905 90.2308,120.571 90.5,122.5C 89.325,122.719 88.325,122.386 87.5,121.5C 88.6808,119.802 88.6808,118.135 87.5,116.5C 86.5726,118.113 85.7393,119.779 85,121.5C 84.1859,119.098 84.3526,116.765 85.5,114.5C 88.8625,115.506 92.1959,116.506 95.5,117.5 Z"/></g>
<g><path style="opacity:1" fill="#b3a58f" d="M 130.5,113.5 C 131.995,113.415 132.995,114.081 133.5,115.5C 131.308,120.075 129.308,124.741 127.5,129.5C 125.847,129.34 124.514,128.674 123.5,127.5C 126.211,123.044 128.544,118.377 130.5,113.5 Z"/></g>
<g><path style="opacity:1" fill="#907954" d="M 164.5,115.5 C 164.916,117.752 166.249,119.252 168.5,120C 171.146,120.497 173.813,120.664 176.5,120.5C 176.121,125.297 176.621,129.964 178,134.5C 183.159,139.495 188.659,139.829 194.5,135.5C 194.167,135.167 193.833,134.833 193.5,134.5C 189.701,136.422 185.701,136.922 181.5,136C 180.299,135.097 179.465,133.931 179,132.5C 178.501,128.514 178.334,124.514 178.5,120.5C 183.244,120.457 187.244,118.79 190.5,115.5C 192.735,116.228 194.568,117.561 196,119.5C 196.399,119.272 196.565,118.938 196.5,118.5C 198.137,120.475 199.804,122.475 201.5,124.5C 210.802,141.71 205.469,151.21 185.5,153C 174.877,155.528 165.71,153.028 158,145.5C 153.636,134.09 155.803,124.09 164.5,115.5 Z"/></g>
<g><path style="opacity:0.612" fill="#b9b9b9" d="M 298.5,125.5 C 297.504,125.414 296.671,125.748 296,126.5C 295.79,128.058 295.29,129.391 294.5,130.5C 293.205,128.021 292.205,125.354 291.5,122.5C 293.367,122.045 295.2,121.378 297,120.5C 300.108,121.331 299.941,122.164 296.5,123C 297.756,123.417 298.423,124.25 298.5,125.5 Z"/></g>
<g><path style="opacity:1" fill="#efd6ae" d="M 196.5,118.5 C 196.565,118.938 196.399,119.272 196,119.5C 194.568,117.561 192.735,116.228 190.5,115.5C 190.489,113.983 189.823,112.816 188.5,112C 185.09,110.972 181.59,110.472 178,110.5C 172.417,109.552 167.917,111.219 164.5,115.5C 155.803,124.09 153.636,134.09 158,145.5C 165.71,153.028 174.877,155.528 185.5,153C 205.469,151.21 210.802,141.71 201.5,124.5C 204.339,126.42 207.339,128.087 210.5,129.5C 220.565,141.203 233.232,146.87 248.5,146.5C 247.928,148.255 247.094,149.922 246,151.5C 228.606,169.637 207.273,178.637 182,178.5C 155.904,177.885 138.07,165.552 128.5,141.5C 137.052,140.725 144.052,137.058 149.5,130.5C 157.904,124.374 162.737,116.041 164,105.5C 165.579,103.959 167.413,102.792 169.5,102C 176.565,99.895 183.565,100.062 190.5,102.5C 191.519,108.227 193.519,113.56 196.5,118.5 Z"/></g>
<g><path style="opacity:0.612" fill="#b5b5b5" d="M 298.5,125.5 C 303.463,123.643 306.13,125.31 306.5,130.5C 304.396,130.201 302.396,130.534 300.5,131.5C 301.533,132.452 302.7,132.452 304,131.5C 305.826,132.01 305.993,132.844 304.5,134C 298.249,134.356 296.249,131.523 298.5,125.5 Z"/></g>
<g><path style="opacity:0.612" fill="#bbbbbb" d="M 317.5,126.5 C 319.606,126.679 321.272,127.679 322.5,129.5C 319.505,131.143 318.839,133.477 320.5,136.5C 317.867,137.998 316.534,137.165 316.5,134C 317.217,131.424 317.551,128.924 317.5,126.5 Z"/></g>
<g><path style="opacity:0.612" fill="#b8b8b8" d="M 309.5,126.5 C 311.467,126.261 313.301,126.594 315,127.5C 315.498,130.482 315.665,133.482 315.5,136.5C 313.146,136.162 310.813,135.662 308.5,135C 307.62,133.644 307.286,132.144 307.5,130.5C 309.604,130.799 311.604,130.466 313.5,129.5C 312.349,128.269 311.183,128.269 310,129.5C 308.272,128.648 308.105,127.648 309.5,126.5 Z"/></g>
<g><path style="opacity:1" fill="#917a55" d="M 149.5,130.5 C 144.052,137.058 137.052,140.725 128.5,141.5C 127.5,138.833 126.5,136.167 125.5,133.5C 133.78,135.114 141.78,134.114 149.5,130.5 Z"/></g>
<g><path style="opacity:1" fill="#342c1e" d="M 162.5,133.5 C 166.435,136.419 170.768,137.252 175.5,136C 172.88,138.271 169.88,138.938 166.5,138C 164.249,137.252 162.916,135.752 162.5,133.5 Z"/></g>
<g><path style="opacity:0.612" fill="#b7b7b7" d="M 107.5,142.5 C 108.5,142.5 109.5,142.5 110.5,142.5C 109.781,146.438 108.115,149.938 105.5,153C 106.604,154.131 106.271,154.965 104.5,155.5C 104.167,155 103.833,154.5 103.5,154C 104.913,150.172 106.247,146.339 107.5,142.5 Z"/></g>
<g><path style="opacity:0.612" fill="#bababa" d="M 85.5,144.5 C 87.1207,144.787 88.1207,145.787 88.5,147.5C 87.7498,149.93 87.4165,152.264 87.5,154.5C 85.8872,152.539 84.8872,150.206 84.5,147.5C 85.1272,146.583 85.4606,145.583 85.5,144.5 Z"/></g>
<g><path style="opacity:0.612" fill="#bbbbbb" d="M 65.5,144.5 C 67.1207,144.787 68.1207,145.787 68.5,147.5C 67.1667,149.5 67.1667,151.5 68.5,153.5C 67.675,154.386 66.675,154.719 65.5,154.5C 65.0181,151.054 65.0181,147.721 65.5,144.5 Z"/></g>
<g><path style="opacity:0.612" fill="#bcbcbc" d="M 31.5,146.5 C 37.8848,145.214 39.8848,147.547 37.5,153.5C 35.8333,145.5 34.1667,145.5 32.5,153.5C 31.5258,151.257 31.1924,148.924 31.5,146.5 Z"/></g>
<g><path style="opacity:0.612" fill="#bebebe" d="M 55.5,147.5 C 55.1136,155.398 54.1136,155.398 52.5,147.5C 51.0118,149.149 50.0118,151.149 49.5,153.5C 48.5258,151.257 48.1924,148.924 48.5,146.5C 50.9496,146.298 53.283,146.631 55.5,147.5 Z"/></g>
<g><path style="opacity:0.587" fill="#bfbfbf" d="M 55.5,147.5 C 56.5676,146.566 57.901,146.232 59.5,146.5C 59.8076,148.924 59.4742,151.257 58.5,153.5C 58.0358,151.025 57.0358,149.025 55.5,147.5 Z"/></g>
<g><path style="opacity:0.612" fill="#afafaf" d="M 39.5,146.5 C 45.5,145.167 47.8333,147.5 46.5,153.5C 44.8333,153.5 43.1667,153.5 41.5,153.5C 41.762,154.978 41.4287,156.311 40.5,157.5C 39.5108,153.893 39.1774,150.226 39.5,146.5 Z"/></g>
<g><path style="opacity:0.612" fill="#b6b6b6" d="M 70.5,146.5 C 72.7224,146.178 74.5557,146.845 76,148.5C 78.3626,146.093 80.8626,145.926 83.5,148C 82.8333,148.333 82.1667,148.667 81.5,149C 83.2826,150.067 83.7826,151.567 83,153.5C 81.6124,154.554 80.1124,154.72 78.5,154C 77.2888,153.107 77.2888,152.274 78.5,151.5C 79.6086,152.59 80.6086,152.59 81.5,151.5C 78.2885,149.278 74.9551,149.278 71.5,151.5C 72.8333,151.833 74.1667,152.167 75.5,152.5C 72.2664,155.361 70.2664,154.527 69.5,150C 69.6483,148.744 69.9816,147.577 70.5,146.5 Z"/></g>
<g><path style="opacity:0.4" fill="#a3a3a3" d="M 118.5,150.5 C 119.11,151.391 119.443,152.391 119.5,153.5C 118.761,153.369 118.094,153.536 117.5,154C 118.731,155.183 118.731,156.349 117.5,157.5C 114.499,156.457 111.832,154.957 109.5,153C 109.905,152.055 110.572,151.388 111.5,151C 110.098,149.658 110.431,148.824 112.5,148.5C 114.516,149.178 116.516,149.844 118.5,150.5 Z"/></g>
<g><path style="opacity:0.612" fill="#bebebe" d="M 297.5,152.5 C 298.376,152.369 299.043,152.702 299.5,153.5C 298.674,154.451 298.508,155.451 299,156.5C 300.612,153.921 302.112,153.921 303.5,156.5C 302.496,158.677 303.162,159.011 305.5,157.5C 306.298,157.957 306.631,158.624 306.5,159.5C 304.372,160.957 302.038,161.957 299.5,162.5C 299.421,161.07 299.754,159.736 300.5,158.5C 300.154,157.304 299.654,157.304 299,158.5C 298.506,160.134 298.34,161.801 298.5,163.5C 297.518,160.038 297.185,156.371 297.5,152.5 Z"/></g>
<g><path style="opacity:0.612" fill="#b9b9b9" d="M 306.5,159.5 C 307.712,158.77 308.712,157.77 309.5,156.5C 310.731,157.651 310.731,158.817 309.5,160C 313.283,162.948 312.949,165.781 308.5,168.5C 308.167,168.167 307.833,167.833 307.5,167.5C 308.624,166.086 309.624,164.586 310.5,163C 310,162.5 309.5,162 309,161.5C 307.66,162.868 306.326,164.201 305,165.5C 304.5,165.167 304,164.833 303.5,164.5C 304.952,163.06 305.952,161.394 306.5,159.5 Z"/></g>
<g><path style="opacity:1" fill="#b4b2ae" d="M 289.5,157.5 C 290.216,162.064 290.883,166.731 291.5,171.5C 289.564,167.285 288.897,162.619 289.5,157.5 Z"/></g>
<g><path style="opacity:0.612" fill="#bbbbbb" d="M 54.5,164.5 C 55.404,165.209 55.7373,166.209 55.5,167.5C 58.2048,167.38 58.8715,168.38 57.5,170.5C 58.0948,172.893 59.4281,174.727 61.5,176C 60.4071,177.365 59.0738,177.699 57.5,177C 56.3343,174.133 54.6676,171.633 52.5,169.5C 53.1744,167.805 53.8411,166.138 54.5,164.5 Z"/></g>
<g><path style="opacity:1" fill="#443c2c" d="M 125.5,133.5 C 124.624,133.369 123.957,133.702 123.5,134.5C 126.985,144.455 131.152,154.121 136,163.5C 137.03,167.773 137.697,172.106 138,176.5C 140.415,177.132 142.582,178.132 144.5,179.5C 140.817,178.68 138.483,180.013 137.5,183.5C 137.167,184.5 136.5,185.167 135.5,185.5C 135.586,183.323 136.253,181.323 137.5,179.5C 136.137,178.107 135.304,176.441 135,174.5C 124.037,178.462 115.87,185.629 110.5,196C 117.383,197.735 124.383,198.569 131.5,198.5C 131.263,197.209 131.596,196.209 132.5,195.5C 132.5,196.833 132.5,198.167 132.5,199.5C 131.209,199.263 130.209,199.596 129.5,200.5C 121.809,199.58 114.142,198.58 106.5,197.5C 107.5,196.833 108.5,196.167 109.5,195.5C 114.93,183.732 123.93,176.399 136.5,173.5C 134.701,163.891 131.201,154.891 126,146.5C 124.593,142.112 123.093,137.779 121.5,133.5C 122.961,132.314 124.295,132.314 125.5,133.5 Z"/></g>
<g><path style="opacity:0.612" fill="#b9b9b9" d="M 317.5,171.5 C 316.179,173.42 314.846,173.587 313.5,172C 315.667,169.167 317.833,166.333 320,163.5C 320.5,164 321,164.5 321.5,165C 319.768,166.972 318.435,169.139 317.5,171.5 Z"/></g>
<g><path style="opacity:0.612" fill="#b9b9b9" d="M 116.5,172.5 C 115.833,173.833 114.833,174.833 113.5,175.5C 113.196,174.85 112.863,174.183 112.5,173.5C 116.039,170.189 116.372,166.523 113.5,162.5C 114.325,161.614 115.325,161.281 116.5,161.5C 116.16,164.144 116.827,166.477 118.5,168.5C 117.37,169.622 116.703,170.956 116.5,172.5 Z"/></g>
<g><path style="opacity:0.612" fill="#bbbbbb" d="M 43.5,178.5 C 42.5,178.5 41.5,178.5 40.5,178.5C 39.8401,176.184 39.1734,173.851 38.5,171.5C 38.8333,170.833 39.1667,170.167 39.5,169.5C 41.5906,172.083 42.9239,175.083 43.5,178.5 Z"/></g>
<g><path style="opacity:0.612" fill="#afafaf" d="M 317.5,171.5 C 320.851,168.505 323.518,169.005 325.5,173C 323.995,177.503 321.495,178.336 318,175.5C 317.51,174.207 317.343,172.873 317.5,171.5 Z"/></g>
<g><path style="opacity:0.612" fill="#b7b7b7" d="M 51.5,180.5 C 49.6208,179.659 47.6208,179.325 45.5,179.5C 44.6103,177.218 44.4436,174.885 45,172.5C 48.2224,169.645 51.0558,169.979 53.5,173.5C 51.8333,174.833 50.1667,176.167 48.5,177.5C 50.1667,177.5 51.8333,177.5 53.5,177.5C 52.8075,178.518 52.1408,179.518 51.5,180.5 Z"/></g>
<g><path style="opacity:0.612" fill="#bdbdbd" d="M 103.5,171.5 C 107.317,172.533 108.317,174.867 106.5,178.5C 103.94,171.559 102.44,171.893 102,179.5C 100.798,177.323 100.298,174.989 100.5,172.5C 101.791,172.737 102.791,172.404 103.5,171.5 Z"/></g>
<g><path style="opacity:1" fill="#ecd34a" d="M 277.5,172.5 C 293.594,173.759 302.761,182.425 305,198.5C 305.667,204.167 305.667,209.833 305,215.5C 302.713,227.801 300.213,239.968 297.5,252C 296.255,252.791 294.922,253.291 293.5,253.5C 279.234,249.517 264.9,246.517 250.5,244.5C 245.967,242.347 245.3,239.181 248.5,235C 250.025,233.991 251.692,233.491 253.5,233.5C 254.833,233.5 256.167,233.5 257.5,233.5C 257.181,235.75 257.681,237.75 259,239.5C 259.497,237.19 259.663,234.857 259.5,232.5C 262.5,232.5 265.5,232.5 268.5,232.5C 269.167,240.5 269.833,240.5 270.5,232.5C 272.564,232.687 274.564,233.187 276.5,234C 275.424,235.726 275.257,237.559 276,239.5C 276.833,237.5 277.667,235.5 278.5,233.5C 285.199,235.351 291.533,238.018 297.5,241.5C 298.293,240.645 297.96,239.811 296.5,239C 282.129,231.331 267.129,229.165 251.5,232.5C 250.5,232.5 249.5,232.5 248.5,232.5C 249.811,223 251.145,213.5 252.5,204C 252.333,202.833 252.167,201.667 252,200.5C 251.355,203.559 250.522,206.559 249.5,209.5C 248.633,206.065 247.466,202.732 246,199.5C 245.346,198.304 244.846,198.304 244.5,199.5C 245.246,200.736 245.579,202.07 245.5,203.5C 246.238,216.881 243.072,229.214 236,240.5C 234.89,242.037 233.39,242.703 231.5,242.5C 229.5,241.833 227.5,241.167 225.5,240.5C 232.534,230.345 235.534,219.012 234.5,206.5C 234.468,202.419 234.135,198.419 233.5,194.5C 233.5,194.167 233.5,193.833 233.5,193.5C 240.916,191.287 247.916,188.287 254.5,184.5C 260.897,178.134 268.564,174.134 277.5,172.5 Z"/></g>
<g><path style="opacity:1" fill="#c3ac40" d="M 277.5,172.5 C 298.387,170.938 312.22,180.605 319,201.5C 320.424,207.776 320.758,214.109 320,220.5C 318.333,230.5 316.667,240.5 315,250.5C 314.521,253.624 313.354,256.457 311.5,259C 309.633,259.711 308.133,259.211 307,257.5C 306.617,258.056 306.117,258.389 305.5,258.5C 301.979,256.771 298.313,255.438 294.5,254.5C 293.833,254.5 293.5,254.167 293.5,253.5C 294.922,253.291 296.255,252.791 297.5,252C 300.213,239.968 302.713,227.801 305,215.5C 305.667,209.833 305.667,204.167 305,198.5C 302.761,182.425 293.594,173.759 277.5,172.5 Z"/></g>
<g><path style="opacity:0.612" fill="#b1b1b1" d="M 81.5,173.5 C 83.0744,173.937 84.2411,174.937 85,176.5C 86.0113,175.663 87.1779,175.33 88.5,175.5C 88.1159,177.665 88.7826,179.332 90.5,180.5C 91.8417,172.522 93.175,172.522 94.5,180.5C 92.0478,182.084 89.5478,182.417 87,181.5C 86.0475,183.592 84.7141,183.925 83,182.5C 81.1294,179.539 80.6294,176.539 81.5,173.5 Z"/></g>
<g><path style="opacity:0.612" fill="#bababa" d="M 94.5,173.5 C 98.5148,173.276 99.1815,174.443 96.5,177C 97.5472,178.578 97.5472,180.078 96.5,181.5C 95.4512,178.92 94.7845,176.254 94.5,173.5 Z"/></g>
<g><path style="opacity:1" fill="#e7cf49" d="M 135.5,185.5 C 133.59,188.452 132.59,191.786 132.5,195.5C 131.596,196.209 131.263,197.209 131.5,198.5C 124.383,198.569 117.383,197.735 110.5,196C 115.87,185.629 124.037,178.462 135,174.5C 135.304,176.441 136.137,178.107 137.5,179.5C 136.253,181.323 135.586,183.323 135.5,185.5 Z"/></g>
<g><path style="opacity:0.592" fill="#b8b8b8" d="M 76.5,183.5 C 74.5853,183.784 72.9187,183.451 71.5,182.5C 73.0853,181.526 74.0853,180.026 74.5,178C 78.2204,176.608 80.2204,177.775 80.5,181.5C 78.5168,181.157 77.1834,181.824 76.5,183.5 Z"/></g>
<g><path style="opacity:1" fill="#cb4942" d="M 137.5,183.5 C 142.449,182.959 147.116,183.792 151.5,186C 158.356,191.364 165.023,196.864 171.5,202.5C 170.127,202.657 168.793,202.49 167.5,202C 163.208,198.539 158.541,195.706 153.5,193.5C 150.962,194.257 150.295,195.59 151.5,197.5C 152.873,197.343 154.207,197.51 155.5,198C 158.997,200.583 162.664,202.916 166.5,205C 164.482,205.505 162.482,206.005 160.5,206.5C 158.567,204.404 156.233,202.904 153.5,202C 146.868,200.838 140.201,200.004 133.5,199.5C 133.526,194.733 134.193,190.066 135.5,185.5C 136.5,185.167 137.167,184.5 137.5,183.5 Z"/></g>
<g><path style="opacity:1" fill="#aca9a6" d="M 17.5,186.5 C 16.5313,187.309 15.6979,188.309 15,189.5C 14.3333,194.833 14.3333,200.167 15,205.5C 17.3635,227.092 19.0302,248.759 20,270.5C 20.73,275.155 23.23,278.321 27.5,280C 68.6115,288.956 109.778,297.789 151,306.5C 152.878,306.304 154.712,305.971 156.5,305.5C 153.672,310.411 149.338,312.411 143.5,311.5C 103.005,302.164 62.3382,292.998 21.5,284C 19.6217,282.457 18.1217,280.624 17,278.5C 14.4452,248.514 12.4452,218.514 11,188.5C 12.7889,186.771 14.9556,186.104 17.5,186.5 Z"/></g>
<g><path style="opacity:1" fill="#d0d0d0" d="M 17.5,186.5 C 38.041,188.608 58.3744,191.275 78.5,194.5C 77.448,194.351 76.448,194.517 75.5,195C 99.5065,199.001 123.507,203.001 147.5,207C 149.848,207.346 151.681,208.513 153,210.5C 154.627,235.922 156.127,261.255 157.5,286.5C 157.751,292.892 157.418,299.225 156.5,305.5C 154.712,305.971 152.878,306.304 151,306.5C 109.778,297.789 68.6115,288.956 27.5,280C 23.23,278.321 20.73,275.155 20,270.5C 19.0302,248.759 17.3635,227.092 15,205.5C 14.3333,200.167 14.3333,194.833 15,189.5C 15.6979,188.309 16.5313,187.309 17.5,186.5 Z"/></g>
<g><path style="opacity:1" fill="#d47c76" d="M 144.5,179.5 C 154.128,184.656 163.128,190.822 171.5,198C 172.801,199.616 172.801,201.116 171.5,202.5C 165.023,196.864 158.356,191.364 151.5,186C 147.116,183.792 142.449,182.959 137.5,183.5C 138.483,180.013 140.817,178.68 144.5,179.5 Z"/></g>
<g><path style="opacity:1" fill="#dcdcdc" d="M 78.5,194.5 C 87.8359,195.5 97.1693,196.5 106.5,197.5C 114.142,198.58 121.809,199.58 129.5,200.5C 136.805,201.496 144.138,202.33 151.5,203C 158.671,205.163 161.337,209.997 159.5,217.5C 158.51,223.645 158.177,229.978 158.5,236.5C 158.5,242.5 158.5,248.5 158.5,254.5C 157.51,260.645 157.177,266.978 157.5,273.5C 157.5,277.833 157.5,282.167 157.5,286.5C 156.127,261.255 154.627,235.922 153,210.5C 151.681,208.513 149.848,207.346 147.5,207C 123.507,203.001 99.5065,199.001 75.5,195C 76.448,194.517 77.448,194.351 78.5,194.5 Z"/></g>
<g><path style="opacity:1" fill="#c1ab40" d="M 233.5,194.5 C 234.135,198.419 234.468,202.419 234.5,206.5C 235.534,219.012 232.534,230.345 225.5,240.5C 221.091,239.402 216.758,238.402 212.5,237.5C 213.239,237.631 213.906,237.464 214.5,237C 204.136,232.47 196.136,225.303 190.5,215.5C 185.097,219.134 179.431,219.468 173.5,216.5C 169.88,221.789 165.546,226.455 160.5,230.5C 159.697,225.921 161.363,222.754 165.5,221C 168.192,218.443 170.525,215.609 172.5,212.5C 175.393,214.071 178.559,214.737 182,214.5C 184.69,214.497 187.19,214.164 189.5,213.5C 193.53,216.014 197.196,219.181 200.5,223C 208.755,228.252 217.755,231.418 227.5,232.5C 231.727,220.643 233.06,208.476 231.5,196C 231.836,194.97 232.503,194.47 233.5,194.5 Z"/></g>
<g><path style="opacity:1" fill="#3e2e20" d="M 233.5,193.5 C 233.5,193.833 233.5,194.167 233.5,194.5C 232.503,194.47 231.836,194.97 231.5,196C 233.06,208.476 231.727,220.643 227.5,232.5C 217.755,231.418 208.755,228.252 200.5,223C 197.196,219.181 193.53,216.014 189.5,213.5C 187.19,214.164 184.69,214.497 182,214.5C 178.559,214.737 175.393,214.071 172.5,212.5C 170.525,215.609 168.192,218.443 165.5,221C 161.363,222.754 159.697,225.921 160.5,230.5C 160.5,232.167 160.5,233.833 160.5,235.5C 159.51,229.69 159.177,223.69 159.5,217.5C 161.337,209.997 158.671,205.163 151.5,203C 144.138,202.33 136.805,201.496 129.5,200.5C 130.209,199.596 131.209,199.263 132.5,199.5C 132.5,198.167 132.5,196.833 132.5,195.5C 132.59,191.786 133.59,188.452 135.5,185.5C 134.193,190.066 133.526,194.733 133.5,199.5C 140.201,200.004 146.868,200.838 153.5,202C 156.233,202.904 158.567,204.404 160.5,206.5C 160.47,207.497 160.97,208.164 162,208.5C 165.395,207.18 168.895,206.18 172.5,205.5C 169.505,204.336 166.505,203.17 163.5,202C 160.98,198.574 157.647,196.407 153.5,195.5C 152.287,195.747 151.62,196.414 151.5,197.5C 150.295,195.59 150.962,194.257 153.5,193.5C 158.541,195.706 163.208,198.539 167.5,202C 168.793,202.49 170.127,202.657 171.5,202.5C 172.801,201.116 172.801,199.616 171.5,198C 163.128,190.822 154.128,184.656 144.5,179.5C 148.362,180.428 152.029,181.928 155.5,184C 160.977,187.976 166.31,192.142 171.5,196.5C 174.462,193.983 177.962,192.983 182,193.5C 185.918,192.959 189.251,193.959 192,196.5C 200.978,188.261 211.145,181.928 222.5,177.5C 224.029,177.529 225.196,178.196 226,179.5C 228.602,183.474 230.102,187.807 230.5,192.5C 231.791,192.263 232.791,192.596 233.5,193.5 Z"/></g>
<g><path style="opacity:1" fill="#a54138" d="M 160.5,206.5 C 162.482,206.005 164.482,205.505 166.5,205C 162.664,202.916 158.997,200.583 155.5,198C 154.207,197.51 152.873,197.343 151.5,197.5C 151.62,196.414 152.287,195.747 153.5,195.5C 157.647,196.407 160.98,198.574 163.5,202C 166.505,203.17 169.505,204.336 172.5,205.5C 168.895,206.18 165.395,207.18 162,208.5C 160.97,208.164 160.47,207.497 160.5,206.5 Z"/></g>
<g><path style="opacity:1" fill="#c64840" d="M 189.5,213.5 C 184.251,214.042 179.084,213.376 174,211.5C 173.333,206.5 173.333,201.5 174,196.5C 174.5,196 175,195.5 175.5,195C 178.417,195.449 181.417,195.282 184.5,194.5C 186.693,194.326 188.527,194.993 190,196.5C 190.74,202.218 190.573,207.885 189.5,213.5 Z"/></g>
<g><path style="opacity:1" fill="#cd4942" d="M 226.5,184.5 C 228.359,187.912 229.526,191.578 230,195.5C 230.499,201.491 230.666,207.491 230.5,213.5C 229.503,213.47 228.836,213.97 228.5,215C 227.667,217.5 226.833,220 226,222.5C 224.261,223.894 222.261,224.561 220,224.5C 209.716,221.443 200.549,216.443 192.5,209.5C 192.369,208.761 192.536,208.094 193,207.5C 198.398,209.784 203.232,212.951 207.5,217C 209.5,217.667 211.5,217.667 213.5,217C 214.252,216.329 214.586,215.496 214.5,214.5C 213.048,213.698 211.382,213.198 209.5,213C 206.547,209.21 202.88,206.377 198.5,204.5C 202.551,201.638 206.884,199.638 211.5,198.5C 212.646,196.441 211.813,195.441 209,195.5C 204.349,197.908 199.515,199.908 194.5,201.5C 193.761,201.631 193.094,201.464 192.5,201C 199.508,197.165 206.174,192.831 212.5,188C 216.715,185.056 221.382,183.889 226.5,184.5 Z"/></g>
<g><path style="opacity:1" fill="#d67e79" d="M 226.5,184.5 C 221.382,183.889 216.715,185.056 212.5,188C 206.174,192.831 199.508,197.165 192.5,201C 193.094,201.464 193.761,201.631 194.5,201.5C 193.791,202.404 192.791,202.737 191.5,202.5C 191.215,200.712 191.548,199.045 192.5,197.5C 199.658,192.087 206.991,186.921 214.5,182C 216.96,181.019 219.46,180.185 222,179.5C 224.419,180.336 225.919,182.003 226.5,184.5 Z"/></g>
<g><path style="opacity:1" fill="#a84139" d="M 211.5,198.5 C 206.884,199.638 202.551,201.638 198.5,204.5C 202.88,206.377 206.547,209.21 209.5,213C 211.382,213.198 213.048,213.698 214.5,214.5C 212.84,216.248 210.84,216.748 208.5,216C 205.872,214.374 203.539,212.374 201.5,210C 198.439,207.965 195.105,206.799 191.5,206.5C 191.5,205.5 191.5,204.5 191.5,203.5C 194.271,203.579 196.937,203.079 199.5,202C 202.601,200.034 205.768,198.2 209,196.5C 210.301,196.639 211.134,197.305 211.5,198.5 Z"/></g>
<g><path style="opacity:1" fill="#ab423a" d="M 168.5,207.5 C 169.5,207.5 170.5,207.5 171.5,207.5C 170.491,214.165 166.991,219.165 161,222.5C 160.173,218.459 160.34,214.459 161.5,210.5C 164.016,209.67 166.35,208.67 168.5,207.5 Z"/></g>
<g><path style="opacity:1" fill="#c1ab40" d="M 245.5,203.5 C 247.885,208.271 248.885,213.437 248.5,219C 248.734,226.388 247.401,233.388 244.5,240C 245.047,242.217 246.047,244.217 247.5,246C 247.062,247.92 246.395,249.754 245.5,251.5C 241.075,247.964 236.408,244.964 231.5,242.5C 233.39,242.703 234.89,242.037 236,240.5C 243.072,229.214 246.238,216.881 245.5,203.5 Z"/></g>
<g><path style="opacity:1" fill="#a9423a" d="M 192.5,209.5 C 200.549,216.443 209.716,221.443 220,224.5C 222.261,224.561 224.261,223.894 226,222.5C 226.833,220 227.667,217.5 228.5,215C 228.836,213.97 229.503,213.47 230.5,213.5C 229.763,218.582 228.596,223.582 227,228.5C 214.399,229.945 203.732,225.612 195,215.5C 193.441,213.783 192.608,211.783 192.5,209.5 Z"/></g>
<g><path style="opacity:1" fill="#ecd34a" d="M 212.5,237.5 C 203.572,236.839 194.905,238.005 186.5,241C 185.944,241.383 185.611,241.883 185.5,242.5C 180.253,244.124 175.586,246.791 171.5,250.5C 167.833,250.5 164.167,250.5 160.5,250.5C 160.5,245.5 160.5,240.5 160.5,235.5C 160.5,233.833 160.5,232.167 160.5,230.5C 165.546,226.455 169.88,221.789 173.5,216.5C 179.431,219.468 185.097,219.134 190.5,215.5C 196.136,225.303 204.136,232.47 214.5,237C 213.906,237.464 213.239,237.631 212.5,237.5 Z"/></g>
<g><path style="opacity:1" fill="#0d0d0d" d="M 63.5,231.5 C 67.2198,231.564 70.8865,232.064 74.5,233C 79.3415,236.391 79.6748,240.224 75.5,244.5C 77.3605,246.888 78.6939,249.554 79.5,252.5C 78.277,253.614 76.9437,253.781 75.5,253C 73.5421,250.252 71.7088,247.418 70,244.5C 69.5034,246.81 69.3367,249.143 69.5,251.5C 67.8333,251.5 66.1667,251.5 64.5,251.5C 64.7559,244.776 64.4226,238.109 63.5,231.5 Z"/></g>
<g><path style="opacity:1" fill="#584d24" d="M 253.5,233.5 C 253.158,232.662 252.492,232.328 251.5,232.5C 267.129,229.165 282.129,231.331 296.5,239C 297.96,239.811 298.293,240.645 297.5,241.5C 291.533,238.018 285.199,235.351 278.5,233.5C 277.667,235.5 276.833,237.5 276,239.5C 275.257,237.559 275.424,235.726 276.5,234C 274.564,233.187 272.564,232.687 270.5,232.5C 269.833,240.5 269.167,240.5 268.5,232.5C 265.5,232.5 262.5,232.5 259.5,232.5C 259.663,234.857 259.497,237.19 259,239.5C 257.681,237.75 257.181,235.75 257.5,233.5C 256.167,233.5 254.833,233.5 253.5,233.5 Z"/></g>
<g><path style="opacity:1" fill="#0c0c0c" d="M 82.5,234.5 C 87.5358,233.388 91.2025,235.055 93.5,239.5C 92.6667,239.833 91.8333,240.167 91,240.5C 89.1579,238.84 86.9912,237.84 84.5,237.5C 84.281,238.675 84.6143,239.675 85.5,240.5C 91.3314,242.132 94.1648,245.799 94,251.5C 90.5974,256.391 86.5974,256.724 82,252.5C 80.9914,250.975 80.4914,249.308 80.5,247.5C 83.4904,248.759 86.4904,250.092 89.5,251.5C 89.6495,250.448 89.4828,249.448 89,248.5C 86.1544,246.743 83.4878,244.743 81,242.5C 80.1093,239.502 80.6093,236.836 82.5,234.5 Z"/></g>
<g><path style="opacity:1" fill="#a8a8a8" d="M 68.5,235.5 C 72.1716,235.183 73.8383,236.849 73.5,240.5C 69.5,241.167 67.8333,239.5 68.5,235.5 Z"/></g>
<g><path style="opacity:1" fill="#bba27b" d="M 250.5,244.5 C 264.9,246.517 279.234,249.517 293.5,253.5C 293.5,254.167 293.833,254.5 294.5,254.5C 292.735,268.626 287.902,281.626 280,293.5C 271.483,307.157 259.983,310.323 245.5,303C 237.065,296.97 230.899,289.137 227,279.5C 224.494,270.949 221.994,262.449 219.5,254C 212.486,250.166 205.153,249.499 197.5,252C 191.483,254.672 185.816,257.839 180.5,261.5C 178.051,258.444 175.051,256.111 171.5,254.5C 171.859,252.629 172.859,251.129 174.5,250C 178.233,247.477 181.899,244.977 185.5,242.5C 219.509,233.921 245.676,244.588 264,274.5C 264.315,273.092 263.982,271.759 263,270.5C 258.744,264.24 253.744,258.573 248,253.5C 247.515,250.124 248.348,247.124 250.5,244.5 Z"/></g>
<g><path style="opacity:1" fill="#473d25" d="M 251.5,232.5 C 252.492,232.328 253.158,232.662 253.5,233.5C 251.692,233.491 250.025,233.991 248.5,235C 245.3,239.181 245.967,242.347 250.5,244.5C 248.348,247.124 247.515,250.124 248,253.5C 253.744,258.573 258.744,264.24 263,270.5C 263.982,271.759 264.315,273.092 264,274.5C 245.676,244.588 219.509,233.921 185.5,242.5C 185.611,241.883 185.944,241.383 186.5,241C 194.905,238.005 203.572,236.839 212.5,237.5C 216.758,238.402 221.091,239.402 225.5,240.5C 227.5,241.167 229.5,241.833 231.5,242.5C 236.408,244.964 241.075,247.964 245.5,251.5C 246.395,249.754 247.062,247.92 247.5,246C 246.047,244.217 245.047,242.217 244.5,240C 247.401,233.388 248.734,226.388 248.5,219C 248.885,213.437 247.885,208.271 245.5,203.5C 245.579,202.07 245.246,200.736 244.5,199.5C 244.846,198.304 245.346,198.304 246,199.5C 247.466,202.732 248.633,206.065 249.5,209.5C 250.522,206.559 251.355,203.559 252,200.5C 252.167,201.667 252.333,202.833 252.5,204C 251.145,213.5 249.811,223 248.5,232.5C 249.5,232.5 250.5,232.5 251.5,232.5 Z"/></g>
<g><path style="opacity:1" fill="#8b7b5c" d="M 159.5,217.5 C 159.177,223.69 159.51,229.69 160.5,235.5C 160.5,240.5 160.5,245.5 160.5,250.5C 164.167,250.5 167.833,250.5 171.5,250.5C 171.047,251.458 170.381,252.292 169.5,253C 166.151,253.388 162.817,253.221 159.5,252.5C 159.821,246.974 159.488,241.64 158.5,236.5C 158.177,229.978 158.51,223.645 159.5,217.5 Z"/></g>
<g><path style="opacity:1" fill="#9d8766" d="M 294.5,254.5 C 298.313,255.438 301.979,256.771 305.5,258.5C 302.81,277.377 295.143,293.877 282.5,308C 266.017,320.132 250.517,318.965 236,304.5C 231.584,298.932 227.417,293.265 223.5,287.5C 220.845,281.522 218.179,275.522 215.5,269.5C 217.968,266.549 217.968,263.716 215.5,261C 204.251,256.869 193.584,258.036 183.5,264.5C 182.145,263.812 181.145,262.812 180.5,261.5C 185.816,257.839 191.483,254.672 197.5,252C 205.153,249.499 212.486,250.166 219.5,254C 221.994,262.449 224.494,270.949 227,279.5C 230.899,289.137 237.065,296.97 245.5,303C 259.983,310.323 271.483,307.157 280,293.5C 287.902,281.626 292.735,268.626 294.5,254.5 Z"/></g>
<g><path style="opacity:1" fill="#3f372b" d="M 158.5,236.5 C 159.488,241.64 159.821,246.974 159.5,252.5C 162.817,253.221 166.151,253.388 169.5,253C 170.381,252.292 171.047,251.458 171.5,250.5C 175.586,246.791 180.253,244.124 185.5,242.5C 181.899,244.977 178.233,247.477 174.5,250C 172.859,251.129 171.859,252.629 171.5,254.5C 166.135,257.533 162.135,261.866 159.5,267.5C 158.515,263.366 158.182,259.032 158.5,254.5C 158.5,248.5 158.5,242.5 158.5,236.5 Z"/></g>
<g><path style="opacity:1" fill="#8c8c8b" d="M 159.5,254.5 C 161.924,254.192 164.257,254.526 166.5,255.5C 164.5,257.833 162.5,260.167 160.5,262.5C 159.52,259.914 159.187,257.247 159.5,254.5 Z"/></g>
<g><path style="opacity:1" fill="#aba7a3" d="M 171.5,254.5 C 171.953,255.458 172.619,256.292 173.5,257C 168.558,262.769 164.225,268.936 160.5,275.5C 159.527,273.052 159.194,270.385 159.5,267.5C 162.135,261.866 166.135,257.533 171.5,254.5 Z"/></g>
<g><path style="opacity:1" fill="#3c362a" d="M 171.5,254.5 C 175.051,256.111 178.051,258.444 180.5,261.5C 181.145,262.812 182.145,263.812 183.5,264.5C 193.584,258.036 204.251,256.869 215.5,261C 217.968,263.716 217.968,266.549 215.5,269.5C 218.179,275.522 220.845,281.522 223.5,287.5C 223.167,287.5 222.833,287.5 222.5,287.5C 220.738,283.638 218.738,279.972 216.5,276.5C 215.97,274.076 215.136,271.743 214,269.5C 195.16,283.491 176.66,297.824 158.5,312.5C 153.5,313.833 148.5,313.833 143.5,312.5C 143.5,312.167 143.5,311.833 143.5,311.5C 149.338,312.411 153.672,310.411 156.5,305.5C 157.418,299.225 157.751,292.892 157.5,286.5C 157.5,282.167 157.5,277.833 157.5,273.5C 158.158,274.398 158.824,275.398 159.5,276.5C 160.107,276.376 160.44,276.043 160.5,275.5C 164.225,268.936 168.558,262.769 173.5,257C 172.619,256.292 171.953,255.458 171.5,254.5 Z"/></g>
<g><path style="opacity:1" fill="#9d9a96" d="M 211.5,261.5 C 213.844,261.506 215.178,262.673 215.5,265C 214.73,267.069 213.397,268.735 211.5,270C 193.216,283.283 175.216,296.949 157.5,311C 156.5,311.667 155.5,311.667 154.5,311C 156.32,307.686 158.654,304.852 161.5,302.5C 162.262,300.738 163.596,299.738 165.5,299.5C 174.381,293.892 182.714,287.559 190.5,280.5C 193.929,276.738 197.929,273.738 202.5,271.5C 205.794,269.842 208.794,267.676 211.5,265C 211.272,264.601 210.938,264.435 210.5,264.5C 211.11,263.609 211.443,262.609 211.5,261.5 Z"/></g>
<g><path style="opacity:1" fill="#c8c8c8" d="M 211.5,261.5 C 211.443,262.609 211.11,263.609 210.5,264.5C 207.418,266.372 204.751,268.705 202.5,271.5C 197.929,273.738 193.929,276.738 190.5,280.5C 181.619,286.108 173.286,292.441 165.5,299.5C 163.596,299.738 162.262,300.738 161.5,302.5C 160.504,302.414 159.671,302.748 159,303.5C 158.056,300.653 158.556,298.153 160.5,296C 159.833,295.333 159.167,294.667 158.5,294C 160.5,293.667 162.5,293.333 164.5,293C 165.942,292.623 166.942,291.79 167.5,290.5C 168.71,290.068 169.71,289.401 170.5,288.5C 171.5,287.833 172.5,287.167 173.5,286.5C 174.338,286.158 174.672,285.492 174.5,284.5C 176.784,284.025 178.784,283.025 180.5,281.5C 181.5,281.167 182.167,280.5 182.5,279.5C 183.833,278.5 185.167,277.5 186.5,276.5C 187.71,276.068 188.71,275.401 189.5,274.5C 190.429,273.685 191.429,272.852 192.5,272C 189.427,270.935 186.427,270.768 183.5,271.5C 183.672,270.508 183.338,269.842 182.5,269.5C 182.062,269.565 181.728,269.399 181.5,269C 190.011,260.891 200.011,258.391 211.5,261.5 Z"/></g>
<g><path style="opacity:1" fill="#afaba8" d="M 179.5,263.5 C 173.796,269.371 167.629,274.704 161,279.5C 160.601,279.272 160.435,278.938 160.5,278.5C 164.172,271.163 168.839,264.496 174.5,258.5C 176.521,259.855 178.188,261.521 179.5,263.5 Z"/></g>
<g><path style="opacity:1" fill="#918a86" d="M 179.5,263.5 C 181.273,264.314 181.773,265.648 181,267.5C 174.857,274.817 167.69,280.817 159.5,285.5C 158.394,282.934 158.727,280.6 160.5,278.5C 160.435,278.938 160.601,279.272 161,279.5C 167.629,274.704 173.796,269.371 179.5,263.5 Z"/></g>
<g><path style="opacity:1" fill="#7d7973" d="M 158.5,254.5 C 158.182,259.032 158.515,263.366 159.5,267.5C 159.194,270.385 159.527,273.052 160.5,275.5C 160.44,276.043 160.107,276.376 159.5,276.5C 158.824,275.398 158.158,274.398 157.5,273.5C 157.177,266.978 157.51,260.645 158.5,254.5 Z"/></g>
<g><path style="opacity:1" fill="#484239" d="M 210.5,264.5 C 210.938,264.435 211.272,264.601 211.5,265C 208.794,267.676 205.794,269.842 202.5,271.5C 204.751,268.705 207.418,266.372 210.5,264.5 Z"/></g>
<g><path style="opacity:1" fill="#2b2a2a" d="M 189.5,274.5 C 187.473,274.662 185.473,274.495 183.5,274C 182.402,273.23 182.402,272.397 183.5,271.5C 186.427,270.768 189.427,270.935 192.5,272C 191.429,272.852 190.429,273.685 189.5,274.5 Z"/></g>
<g><path style="opacity:1" fill="#ecd34a" d="M 216.5,276.5 C 217.906,287.216 221.406,297.216 227,306.5C 227.748,308.84 227.248,310.84 225.5,312.5C 203.167,312.5 180.833,312.5 158.5,312.5C 176.66,297.824 195.16,283.491 214,269.5C 215.136,271.743 215.97,274.076 216.5,276.5 Z"/></g>
<g><path style="opacity:1" fill="#2b2a2a" d="M 186.5,276.5 C 185.167,277.5 183.833,278.5 182.5,279.5C 180.011,279.702 177.677,279.202 175.5,278C 176.056,277.617 176.389,277.117 176.5,276.5C 179.969,275.3 183.302,275.3 186.5,276.5 Z"/></g>
<g><path style="opacity:1" fill="#9d9d9d" d="M 182.5,269.5 C 183.338,269.842 183.672,270.508 183.5,271.5C 182.402,272.397 182.402,273.23 183.5,274C 185.473,274.495 187.473,274.662 189.5,274.5C 188.71,275.401 187.71,276.068 186.5,276.5C 183.302,275.3 179.969,275.3 176.5,276.5C 177.598,275.603 177.598,274.77 176.5,274C 179.84,274.149 181.84,272.649 182.5,269.5 Z"/></g>
<g><path style="opacity:1" fill="#2c2b2b" d="M 180.5,281.5 C 178.784,283.025 176.784,284.025 174.5,284.5C 173.048,283.698 171.382,283.198 169.5,283C 172.648,279.5 176.315,279 180.5,281.5 Z"/></g>
<g><path style="opacity:1" fill="#c2ab40" d="M 216.5,276.5 C 218.738,279.972 220.738,283.638 222.5,287.5C 227.708,297.037 234.374,305.37 242.5,312.5C 236.833,312.5 231.167,312.5 225.5,312.5C 227.248,310.84 227.748,308.84 227,306.5C 221.406,297.216 217.906,287.216 216.5,276.5 Z"/></g>
<g><path style="opacity:1" fill="#a5a5a5" d="M 176.5,276.5 C 176.389,277.117 176.056,277.617 175.5,278C 177.677,279.202 180.011,279.702 182.5,279.5C 182.167,280.5 181.5,281.167 180.5,281.5C 176.315,279 172.648,279.5 169.5,283C 171.382,283.198 173.048,283.698 174.5,284.5C 174.672,285.492 174.338,286.158 173.5,286.5C 170.038,283.734 166.705,284.068 163.5,287.5C 165.743,288.474 168.076,288.808 170.5,288.5C 169.71,289.401 168.71,290.068 167.5,290.5C 164.972,289.834 162.306,289.168 159.5,288.5C 165.05,284.235 170.716,280.235 176.5,276.5 Z"/></g>
<g><path style="opacity:1" fill="#2d2c2c" d="M 173.5,286.5 C 172.5,287.167 171.5,287.833 170.5,288.5C 168.076,288.808 165.743,288.474 163.5,287.5C 166.705,284.068 170.038,283.734 173.5,286.5 Z"/></g>
<g><path style="opacity:1" fill="#48433a" d="M 190.5,280.5 C 182.714,287.559 174.381,293.892 165.5,299.5C 173.286,292.441 181.619,286.108 190.5,280.5 Z"/></g>
<g><path style="opacity:1" fill="#443a27" d="M 288.5,155.5 C 288.833,155.5 289.167,155.5 289.5,155.5C 289.5,156.167 289.5,156.833 289.5,157.5C 288.897,162.619 289.564,167.285 291.5,171.5C 306.409,175.241 315.909,184.575 320,199.5C 321.414,206.785 321.747,214.118 321,221.5C 319.613,232.212 317.946,242.878 316,253.5C 314.961,255.746 313.794,257.913 312.5,260C 310.527,260.495 308.527,260.662 306.5,260.5C 303.493,274.354 300.993,288.354 299,302.5C 297.798,305.774 296.798,309.107 296,312.5C 295.31,313.738 294.81,313.738 294.5,312.5C 297.944,303.116 299.777,293.45 300,283.5C 295.601,294.993 288.768,304.659 279.5,312.5C 267.181,319.121 254.848,319.121 242.5,312.5C 234.374,305.37 227.708,297.037 222.5,287.5C 222.833,287.5 223.167,287.5 223.5,287.5C 227.417,293.265 231.584,298.932 236,304.5C 250.517,318.965 266.017,320.132 282.5,308C 295.143,293.877 302.81,277.377 305.5,258.5C 306.117,258.389 306.617,258.056 307,257.5C 308.133,259.211 309.633,259.711 311.5,259C 313.354,256.457 314.521,253.624 315,250.5C 316.667,240.5 318.333,230.5 320,220.5C 320.758,214.109 320.424,207.776 319,201.5C 312.22,180.605 298.387,170.938 277.5,172.5C 268.564,174.134 260.897,178.134 254.5,184.5C 254.062,184.565 253.728,184.399 253.5,184C 258.199,179.111 263.533,175.278 269.5,172.5C 275.713,170.898 282.046,170.232 288.5,170.5C 288.5,165.5 288.5,160.5 288.5,155.5 Z"/></g>
<g><path style="opacity:1" fill="#bfa93f" d="M 294.5,312.5 C 289.5,312.5 284.5,312.5 279.5,312.5C 288.768,304.659 295.601,294.993 300,283.5C 299.777,293.45 297.944,303.116 294.5,312.5 Z"/></g>
<g><path style="opacity:1" fill="#4b463c" d="M 109.5,195.5 C 108.5,196.167 107.5,196.833 106.5,197.5C 97.1693,196.5 87.8359,195.5 78.5,194.5C 58.3744,191.275 38.041,188.608 17.5,186.5C 14.9556,186.104 12.7889,186.771 11,188.5C 12.4452,218.514 14.4452,248.514 17,278.5C 18.1217,280.624 19.6217,282.457 21.5,284C 62.3382,292.998 103.005,302.164 143.5,311.5C 143.5,311.833 143.5,312.167 143.5,312.5C 103.133,303.825 62.8001,294.992 22.5,286C 18.9718,284.135 16.4718,281.301 15,277.5C 12.5689,247.833 10.5689,218.167 9,188.5C 10.1667,187.333 11.3333,186.167 12.5,185C 44.8328,188.276 77.1661,191.776 109.5,195.5 Z"/></g>
</svg>
